%TF.GenerationSoftware,KiCad,Pcbnew,(5.99.0-7167-g34dbce6bce)*%
%TF.CreationDate,2021-01-04T09:35:53+03:00*%
%TF.ProjectId,ANV,414e562e-6b69-4636-9164-5f7063625858,rev?*%
%TF.SameCoordinates,Original*%
%TF.FileFunction,Legend,Top*%
%TF.FilePolarity,Positive*%
%FSLAX46Y46*%
G04 Gerber Fmt 4.6, Leading zero omitted, Abs format (unit mm)*
G04 Created by KiCad (PCBNEW (5.99.0-7167-g34dbce6bce)) date 2021-01-04 09:35:53*
%MOMM*%
%LPD*%
G01*
G04 APERTURE LIST*
%ADD10C,0.200000*%
%ADD11C,0.160000*%
%ADD12C,0.120000*%
%ADD13C,0.100000*%
G04 APERTURE END LIST*
D10*
X18750000Y-23500000D02*
X22000000Y-23500000D01*
X18750000Y-24500000D02*
X18750000Y-23500000D01*
X22000000Y-23500000D02*
X22000000Y-24500000D01*
X22000000Y-24500000D02*
X18750000Y-24500000D01*
D11*
X22521428Y-71388095D02*
X22559523Y-71350000D01*
X22635714Y-71311904D01*
X22826190Y-71311904D01*
X22902380Y-71350000D01*
X22940476Y-71388095D01*
X22978571Y-71464285D01*
X22978571Y-71540476D01*
X22940476Y-71654761D01*
X22483333Y-72111904D01*
X22978571Y-72111904D01*
X30050000Y-62535714D02*
X30088095Y-62573809D01*
X30050000Y-62611904D01*
X30011904Y-62573809D01*
X30050000Y-62535714D01*
X30050000Y-62611904D01*
D10*
X23511904Y-89202380D02*
X23511904Y-88202380D01*
X23892857Y-88202380D01*
X23988095Y-88250000D01*
X24035714Y-88297619D01*
X24083333Y-88392857D01*
X24083333Y-88535714D01*
X24035714Y-88630952D01*
X23988095Y-88678571D01*
X23892857Y-88726190D01*
X23511904Y-88726190D01*
X24416666Y-88202380D02*
X25035714Y-88202380D01*
X24702380Y-88583333D01*
X24845238Y-88583333D01*
X24940476Y-88630952D01*
X24988095Y-88678571D01*
X25035714Y-88773809D01*
X25035714Y-89011904D01*
X24988095Y-89107142D01*
X24940476Y-89154761D01*
X24845238Y-89202380D01*
X24559523Y-89202380D01*
X24464285Y-89154761D01*
X24416666Y-89107142D01*
D11*
X23468095Y-28307142D02*
X24077618Y-28307142D01*
X23772857Y-28611904D02*
X23772857Y-28002380D01*
D10*
X41711904Y-40273571D02*
X41854761Y-40321190D01*
X41902380Y-40368809D01*
X41950000Y-40464047D01*
X41950000Y-40606904D01*
X41902380Y-40702142D01*
X41854761Y-40749761D01*
X41759523Y-40797380D01*
X41378571Y-40797380D01*
X41378571Y-39797380D01*
X41711904Y-39797380D01*
X41807142Y-39845000D01*
X41854761Y-39892619D01*
X41902380Y-39987857D01*
X41902380Y-40083095D01*
X41854761Y-40178333D01*
X41807142Y-40225952D01*
X41711904Y-40273571D01*
X41378571Y-40273571D01*
X42330952Y-40511666D02*
X42807142Y-40511666D01*
X42235714Y-40797380D02*
X42569047Y-39797380D01*
X42902380Y-40797380D01*
X43092857Y-39797380D02*
X43664285Y-39797380D01*
X43378571Y-40797380D02*
X43378571Y-39797380D01*
X41926190Y-42407380D02*
X41926190Y-41407380D01*
X42402380Y-42407380D02*
X42402380Y-41407380D01*
X42973809Y-42407380D01*
X42973809Y-41407380D01*
D11*
X30183333Y-83753166D02*
X30183333Y-83053166D01*
X30416666Y-83553166D01*
X30650000Y-83053166D01*
X30650000Y-83753166D01*
X30950000Y-83553166D02*
X31283333Y-83553166D01*
X30883333Y-83753166D02*
X31116666Y-83053166D01*
X31350000Y-83753166D01*
X31583333Y-83753166D02*
X31583333Y-83053166D01*
X31750000Y-83053166D01*
X31850000Y-83086500D01*
X31916666Y-83153166D01*
X31950000Y-83219833D01*
X31983333Y-83353166D01*
X31983333Y-83453166D01*
X31950000Y-83586500D01*
X31916666Y-83653166D01*
X31850000Y-83719833D01*
X31750000Y-83753166D01*
X31583333Y-83753166D01*
X32283333Y-83386500D02*
X32516666Y-83386500D01*
X32616666Y-83753166D02*
X32283333Y-83753166D01*
X32283333Y-83053166D01*
X32616666Y-83053166D01*
X33583333Y-83053166D02*
X33716666Y-83053166D01*
X33783333Y-83086500D01*
X33850000Y-83153166D01*
X33883333Y-83286500D01*
X33883333Y-83519833D01*
X33850000Y-83653166D01*
X33783333Y-83719833D01*
X33716666Y-83753166D01*
X33583333Y-83753166D01*
X33516666Y-83719833D01*
X33450000Y-83653166D01*
X33416666Y-83519833D01*
X33416666Y-83286500D01*
X33450000Y-83153166D01*
X33516666Y-83086500D01*
X33583333Y-83053166D01*
X34183333Y-83753166D02*
X34183333Y-83053166D01*
X34583333Y-83753166D01*
X34583333Y-83053166D01*
X35450000Y-83386500D02*
X35683333Y-83386500D01*
X35783333Y-83753166D02*
X35450000Y-83753166D01*
X35450000Y-83053166D01*
X35783333Y-83053166D01*
X36050000Y-83553166D02*
X36383333Y-83553166D01*
X35983333Y-83753166D02*
X36216666Y-83053166D01*
X36450000Y-83753166D01*
X37083333Y-83753166D02*
X36850000Y-83419833D01*
X36683333Y-83753166D02*
X36683333Y-83053166D01*
X36950000Y-83053166D01*
X37016666Y-83086500D01*
X37050000Y-83119833D01*
X37083333Y-83186500D01*
X37083333Y-83286500D01*
X37050000Y-83353166D01*
X37016666Y-83386500D01*
X36950000Y-83419833D01*
X36683333Y-83419833D01*
X37283333Y-83053166D02*
X37683333Y-83053166D01*
X37483333Y-83753166D02*
X37483333Y-83053166D01*
X37916666Y-83753166D02*
X37916666Y-83053166D01*
X37916666Y-83386500D02*
X38316666Y-83386500D01*
X38316666Y-83753166D02*
X38316666Y-83053166D01*
X31600000Y-84513500D02*
X31700000Y-84546833D01*
X31733333Y-84580166D01*
X31766666Y-84646833D01*
X31766666Y-84746833D01*
X31733333Y-84813500D01*
X31700000Y-84846833D01*
X31633333Y-84880166D01*
X31366666Y-84880166D01*
X31366666Y-84180166D01*
X31600000Y-84180166D01*
X31666666Y-84213500D01*
X31700000Y-84246833D01*
X31733333Y-84313500D01*
X31733333Y-84380166D01*
X31700000Y-84446833D01*
X31666666Y-84480166D01*
X31600000Y-84513500D01*
X31366666Y-84513500D01*
X32200000Y-84546833D02*
X32200000Y-84880166D01*
X31966666Y-84180166D02*
X32200000Y-84546833D01*
X32433333Y-84180166D01*
X33200000Y-84880166D02*
X33200000Y-84180166D01*
X33200000Y-84513500D02*
X33600000Y-84513500D01*
X33600000Y-84880166D02*
X33600000Y-84180166D01*
X33933333Y-84180166D02*
X33933333Y-84746833D01*
X33966666Y-84813500D01*
X34000000Y-84846833D01*
X34066666Y-84880166D01*
X34200000Y-84880166D01*
X34266666Y-84846833D01*
X34300000Y-84813500D01*
X34333333Y-84746833D01*
X34333333Y-84180166D01*
X34666666Y-84880166D02*
X34666666Y-84180166D01*
X34900000Y-84680166D01*
X35133333Y-84180166D01*
X35133333Y-84880166D01*
X35433333Y-84680166D02*
X35766666Y-84680166D01*
X35366666Y-84880166D02*
X35600000Y-84180166D01*
X35833333Y-84880166D01*
X36066666Y-84880166D02*
X36066666Y-84180166D01*
X36466666Y-84880166D01*
X36466666Y-84180166D01*
X36766666Y-84846833D02*
X36866666Y-84880166D01*
X37033333Y-84880166D01*
X37100000Y-84846833D01*
X37133333Y-84813500D01*
X37166666Y-84746833D01*
X37166666Y-84680166D01*
X37133333Y-84613500D01*
X37100000Y-84580166D01*
X37033333Y-84546833D01*
X36900000Y-84513500D01*
X36833333Y-84480166D01*
X36800000Y-84446833D01*
X36766666Y-84380166D01*
X36766666Y-84313500D01*
X36800000Y-84246833D01*
X36833333Y-84213500D01*
X36900000Y-84180166D01*
X37066666Y-84180166D01*
X37166666Y-84213500D01*
D10*
X43511904Y-17452380D02*
X43511904Y-16452380D01*
X43892857Y-16452380D01*
X43988095Y-16500000D01*
X44035714Y-16547619D01*
X44083333Y-16642857D01*
X44083333Y-16785714D01*
X44035714Y-16880952D01*
X43988095Y-16928571D01*
X43892857Y-16976190D01*
X43511904Y-16976190D01*
X44464285Y-16547619D02*
X44511904Y-16500000D01*
X44607142Y-16452380D01*
X44845238Y-16452380D01*
X44940476Y-16500000D01*
X44988095Y-16547619D01*
X45035714Y-16642857D01*
X45035714Y-16738095D01*
X44988095Y-16880952D01*
X44416666Y-17452380D01*
X45035714Y-17452380D01*
D11*
X32954761Y-47850000D02*
X32878571Y-47811904D01*
X32764285Y-47811904D01*
X32650000Y-47850000D01*
X32573809Y-47926190D01*
X32535714Y-48002380D01*
X32497619Y-48154761D01*
X32497619Y-48269047D01*
X32535714Y-48421428D01*
X32573809Y-48497619D01*
X32650000Y-48573809D01*
X32764285Y-48611904D01*
X32840476Y-48611904D01*
X32954761Y-48573809D01*
X32992857Y-48535714D01*
X32992857Y-48269047D01*
X32840476Y-48269047D01*
X33792857Y-48611904D02*
X33526190Y-48230952D01*
X33335714Y-48611904D02*
X33335714Y-47811904D01*
X33640476Y-47811904D01*
X33716666Y-47850000D01*
X33754761Y-47888095D01*
X33792857Y-47964285D01*
X33792857Y-48078571D01*
X33754761Y-48154761D01*
X33716666Y-48192857D01*
X33640476Y-48230952D01*
X33335714Y-48230952D01*
X34021428Y-47811904D02*
X34478571Y-47811904D01*
X34250000Y-48611904D02*
X34250000Y-47811904D01*
X35202380Y-48535714D02*
X35164285Y-48573809D01*
X35050000Y-48611904D01*
X34973809Y-48611904D01*
X34859523Y-48573809D01*
X34783333Y-48497619D01*
X34745238Y-48421428D01*
X34707142Y-48269047D01*
X34707142Y-48154761D01*
X34745238Y-48002380D01*
X34783333Y-47926190D01*
X34859523Y-47850000D01*
X34973809Y-47811904D01*
X35050000Y-47811904D01*
X35164285Y-47850000D01*
X35202380Y-47888095D01*
X35545238Y-48611904D02*
X35545238Y-47811904D01*
X35735714Y-47811904D01*
X35850000Y-47850000D01*
X35926190Y-47926190D01*
X35964285Y-48002380D01*
X36002380Y-48154761D01*
X36002380Y-48269047D01*
X35964285Y-48421428D01*
X35926190Y-48497619D01*
X35850000Y-48573809D01*
X35735714Y-48611904D01*
X35545238Y-48611904D01*
D10*
X17059523Y-26702380D02*
X16583333Y-26702380D01*
X16535714Y-27178571D01*
X16583333Y-27130952D01*
X16678571Y-27083333D01*
X16916666Y-27083333D01*
X17011904Y-27130952D01*
X17059523Y-27178571D01*
X17107142Y-27273809D01*
X17107142Y-27511904D01*
X17059523Y-27607142D01*
X17011904Y-27654761D01*
X16916666Y-27702380D01*
X16678571Y-27702380D01*
X16583333Y-27654761D01*
X16535714Y-27607142D01*
X17392857Y-26702380D02*
X17726190Y-27702380D01*
X18059523Y-26702380D01*
X46452380Y-65178571D02*
X46595238Y-65226190D01*
X46642857Y-65273809D01*
X46690476Y-65369047D01*
X46690476Y-65511904D01*
X46642857Y-65607142D01*
X46595238Y-65654761D01*
X46500000Y-65702380D01*
X46119047Y-65702380D01*
X46119047Y-64702380D01*
X46452380Y-64702380D01*
X46547619Y-64750000D01*
X46595238Y-64797619D01*
X46642857Y-64892857D01*
X46642857Y-64988095D01*
X46595238Y-65083333D01*
X46547619Y-65130952D01*
X46452380Y-65178571D01*
X46119047Y-65178571D01*
X47071428Y-65416666D02*
X47547619Y-65416666D01*
X46976190Y-65702380D02*
X47309523Y-64702380D01*
X47642857Y-65702380D01*
X47833333Y-64702380D02*
X48404761Y-64702380D01*
X48119047Y-65702380D02*
X48119047Y-64702380D01*
X49690476Y-64702380D02*
X49880952Y-64702380D01*
X49976190Y-64750000D01*
X50071428Y-64845238D01*
X50119047Y-65035714D01*
X50119047Y-65369047D01*
X50071428Y-65559523D01*
X49976190Y-65654761D01*
X49880952Y-65702380D01*
X49690476Y-65702380D01*
X49595238Y-65654761D01*
X49500000Y-65559523D01*
X49452380Y-65369047D01*
X49452380Y-65035714D01*
X49500000Y-64845238D01*
X49595238Y-64750000D01*
X49690476Y-64702380D01*
X50547619Y-64702380D02*
X50547619Y-65511904D01*
X50595238Y-65607142D01*
X50642857Y-65654761D01*
X50738095Y-65702380D01*
X50928571Y-65702380D01*
X51023809Y-65654761D01*
X51071428Y-65607142D01*
X51119047Y-65511904D01*
X51119047Y-64702380D01*
X51452380Y-64702380D02*
X52023809Y-64702380D01*
X51738095Y-65702380D02*
X51738095Y-64702380D01*
D11*
X22250000Y-55035714D02*
X22288095Y-55073809D01*
X22250000Y-55111904D01*
X22211904Y-55073809D01*
X22250000Y-55035714D01*
X22250000Y-55111904D01*
X46850000Y-26735714D02*
X46888095Y-26773809D01*
X46850000Y-26811904D01*
X46811904Y-26773809D01*
X46850000Y-26735714D01*
X46850000Y-26811904D01*
X44600000Y-75057142D02*
X45209523Y-75057142D01*
X44904762Y-75361904D02*
X44904762Y-74752380D01*
D10*
X47761904Y-80702380D02*
X48380952Y-80702380D01*
X48047619Y-81083333D01*
X48190476Y-81083333D01*
X48285714Y-81130952D01*
X48333333Y-81178571D01*
X48380952Y-81273809D01*
X48380952Y-81511904D01*
X48333333Y-81607142D01*
X48285714Y-81654761D01*
X48190476Y-81702380D01*
X47904761Y-81702380D01*
X47809523Y-81654761D01*
X47761904Y-81607142D01*
X48666666Y-80702380D02*
X49000000Y-81702380D01*
X49333333Y-80702380D01*
X49571428Y-80702380D02*
X50190476Y-80702380D01*
X49857142Y-81083333D01*
X50000000Y-81083333D01*
X50095238Y-81130952D01*
X50142857Y-81178571D01*
X50190476Y-81273809D01*
X50190476Y-81511904D01*
X50142857Y-81607142D01*
X50095238Y-81654761D01*
X50000000Y-81702380D01*
X49714285Y-81702380D01*
X49619047Y-81654761D01*
X49571428Y-81607142D01*
D11*
X23468094Y-37111904D02*
X23468094Y-36311904D01*
X23468094Y-36692857D02*
X23925237Y-36692857D01*
X23925237Y-37111904D02*
X23925237Y-36311904D01*
D10*
X50142857Y-27654761D02*
X50285714Y-27702380D01*
X50523809Y-27702380D01*
X50619047Y-27654761D01*
X50666666Y-27607142D01*
X50714285Y-27511904D01*
X50714285Y-27416666D01*
X50666666Y-27321428D01*
X50619047Y-27273809D01*
X50523809Y-27226190D01*
X50333333Y-27178571D01*
X50238095Y-27130952D01*
X50190476Y-27083333D01*
X50142857Y-26988095D01*
X50142857Y-26892857D01*
X50190476Y-26797619D01*
X50238095Y-26750000D01*
X50333333Y-26702380D01*
X50571428Y-26702380D01*
X50714285Y-26750000D01*
X51047619Y-26702380D02*
X51285714Y-27702380D01*
X51476190Y-26988095D01*
X51666666Y-27702380D01*
X51904761Y-26702380D01*
D11*
X31000000Y-51035714D02*
X31038095Y-51073809D01*
X31000000Y-51111904D01*
X30961904Y-51073809D01*
X31000000Y-51035714D01*
X31000000Y-51111904D01*
X44650000Y-47735714D02*
X44688095Y-47773809D01*
X44650000Y-47811904D01*
X44611904Y-47773809D01*
X44650000Y-47735714D01*
X44650000Y-47811904D01*
X23372857Y-34057142D02*
X23982380Y-34057142D01*
X33126190Y-35323809D02*
X33240476Y-35361904D01*
X33430952Y-35361904D01*
X33507142Y-35323809D01*
X33545238Y-35285714D01*
X33583333Y-35209523D01*
X33583333Y-35133333D01*
X33545238Y-35057142D01*
X33507142Y-35019047D01*
X33430952Y-34980952D01*
X33278571Y-34942857D01*
X33202380Y-34904761D01*
X33164285Y-34866666D01*
X33126190Y-34790476D01*
X33126190Y-34714285D01*
X33164285Y-34638095D01*
X33202380Y-34600000D01*
X33278571Y-34561904D01*
X33469047Y-34561904D01*
X33583333Y-34600000D01*
X34345238Y-34600000D02*
X34269047Y-34561904D01*
X34154761Y-34561904D01*
X34040476Y-34600000D01*
X33964285Y-34676190D01*
X33926190Y-34752380D01*
X33888095Y-34904761D01*
X33888095Y-35019047D01*
X33926190Y-35171428D01*
X33964285Y-35247619D01*
X34040476Y-35323809D01*
X34154761Y-35361904D01*
X34230952Y-35361904D01*
X34345238Y-35323809D01*
X34383333Y-35285714D01*
X34383333Y-35019047D01*
X34230952Y-35019047D01*
X34726190Y-35057142D02*
X35335714Y-35057142D01*
X35030952Y-35361904D02*
X35030952Y-34752380D01*
D10*
X32916666Y-33952380D02*
X32916666Y-32952380D01*
X33297619Y-32952380D01*
X33392857Y-33000000D01*
X33440476Y-33047619D01*
X33488095Y-33142857D01*
X33488095Y-33285714D01*
X33440476Y-33380952D01*
X33392857Y-33428571D01*
X33297619Y-33476190D01*
X32916666Y-33476190D01*
X33821428Y-32952380D02*
X34059523Y-33952380D01*
X34250000Y-33238095D01*
X34440476Y-33952380D01*
X34678571Y-32952380D01*
X35630952Y-33952380D02*
X35297619Y-33476190D01*
X35059523Y-33952380D02*
X35059523Y-32952380D01*
X35440476Y-32952380D01*
X35535714Y-33000000D01*
X35583333Y-33047619D01*
X35630952Y-33142857D01*
X35630952Y-33285714D01*
X35583333Y-33380952D01*
X35535714Y-33428571D01*
X35440476Y-33476190D01*
X35059523Y-33476190D01*
D11*
X30564761Y-21481904D02*
X30564761Y-22053333D01*
X30526666Y-22167619D01*
X30450476Y-22243809D01*
X30336190Y-22281904D01*
X30259999Y-22281904D01*
X31326666Y-22281904D02*
X30945714Y-22281904D01*
X30945714Y-21481904D01*
X32050476Y-22205714D02*
X32012380Y-22243809D01*
X31898095Y-22281904D01*
X31821904Y-22281904D01*
X31707619Y-22243809D01*
X31631428Y-22167619D01*
X31593333Y-22091428D01*
X31555238Y-21939047D01*
X31555238Y-21824761D01*
X31593333Y-21672380D01*
X31631428Y-21596190D01*
X31707619Y-21520000D01*
X31821904Y-21481904D01*
X31898095Y-21481904D01*
X32012380Y-21520000D01*
X32050476Y-21558095D01*
X32621904Y-21481904D02*
X32621904Y-22053333D01*
X32583809Y-22167619D01*
X32507619Y-22243809D01*
X32393333Y-22281904D01*
X32317142Y-22281904D01*
X33383809Y-22281904D02*
X33002857Y-22281904D01*
X33002857Y-21481904D01*
X34107619Y-22205714D02*
X34069523Y-22243809D01*
X33955238Y-22281904D01*
X33879047Y-22281904D01*
X33764761Y-22243809D01*
X33688571Y-22167619D01*
X33650476Y-22091428D01*
X33612380Y-21939047D01*
X33612380Y-21824761D01*
X33650476Y-21672380D01*
X33688571Y-21596190D01*
X33764761Y-21520000D01*
X33879047Y-21481904D01*
X33955238Y-21481904D01*
X34069523Y-21520000D01*
X34107619Y-21558095D01*
X34679047Y-21481904D02*
X34679047Y-22053333D01*
X34640952Y-22167619D01*
X34564761Y-22243809D01*
X34450476Y-22281904D01*
X34374285Y-22281904D01*
X35440952Y-22281904D02*
X35060000Y-22281904D01*
X35060000Y-21481904D01*
X36164761Y-22205714D02*
X36126666Y-22243809D01*
X36012380Y-22281904D01*
X35936190Y-22281904D01*
X35821904Y-22243809D01*
X35745714Y-22167619D01*
X35707619Y-22091428D01*
X35669523Y-21939047D01*
X35669523Y-21824761D01*
X35707619Y-21672380D01*
X35745714Y-21596190D01*
X35821904Y-21520000D01*
X35936190Y-21481904D01*
X36012380Y-21481904D01*
X36126666Y-21520000D01*
X36164761Y-21558095D01*
X36736190Y-21481904D02*
X36736190Y-22053333D01*
X36698095Y-22167619D01*
X36621904Y-22243809D01*
X36507619Y-22281904D01*
X36431428Y-22281904D01*
X37498095Y-22281904D02*
X37117142Y-22281904D01*
X37117142Y-21481904D01*
X38221904Y-22205714D02*
X38183809Y-22243809D01*
X38069523Y-22281904D01*
X37993333Y-22281904D01*
X37879047Y-22243809D01*
X37802857Y-22167619D01*
X37764761Y-22091428D01*
X37726666Y-21939047D01*
X37726666Y-21824761D01*
X37764761Y-21672380D01*
X37802857Y-21596190D01*
X37879047Y-21520000D01*
X37993333Y-21481904D01*
X38069523Y-21481904D01*
X38183809Y-21520000D01*
X38221904Y-21558095D01*
X44695238Y-71557142D02*
X45304761Y-71557142D01*
X38750000Y-31735714D02*
X38788095Y-31773809D01*
X38750000Y-31811904D01*
X38711904Y-31773809D01*
X38750000Y-31735714D01*
X38750000Y-31811904D01*
X44350000Y-37807142D02*
X44959523Y-37807142D01*
X44654762Y-38111904D02*
X44654762Y-37502380D01*
X31050000Y-31835714D02*
X31088095Y-31873809D01*
X31050000Y-31911904D01*
X31011904Y-31873809D01*
X31050000Y-31835714D01*
X31050000Y-31911904D01*
D10*
X23511904Y-17452380D02*
X23511904Y-16452380D01*
X23892857Y-16452380D01*
X23988095Y-16500000D01*
X24035714Y-16547619D01*
X24083333Y-16642857D01*
X24083333Y-16785714D01*
X24035714Y-16880952D01*
X23988095Y-16928571D01*
X23892857Y-16976190D01*
X23511904Y-16976190D01*
X25035714Y-17452380D02*
X24464285Y-17452380D01*
X24750000Y-17452380D02*
X24750000Y-16452380D01*
X24654761Y-16595238D01*
X24559523Y-16690476D01*
X24464285Y-16738095D01*
D11*
X33750000Y-64785714D02*
X33788095Y-64823809D01*
X33750000Y-64861904D01*
X33711904Y-64823809D01*
X33750000Y-64785714D01*
X33750000Y-64861904D01*
X22978571Y-68611904D02*
X22521428Y-68611904D01*
X22750000Y-68611904D02*
X22750000Y-67811904D01*
X22673809Y-67926190D01*
X22597619Y-68002380D01*
X22521428Y-68040476D01*
D10*
X47523809Y-47571428D02*
X48285714Y-47571428D01*
X47904761Y-47952380D02*
X47904761Y-47190476D01*
X49095238Y-47428571D02*
X49238095Y-47476190D01*
X49285714Y-47523809D01*
X49333333Y-47619047D01*
X49333333Y-47761904D01*
X49285714Y-47857142D01*
X49238095Y-47904761D01*
X49142857Y-47952380D01*
X48761904Y-47952380D01*
X48761904Y-46952380D01*
X49095238Y-46952380D01*
X49190476Y-47000000D01*
X49238095Y-47047619D01*
X49285714Y-47142857D01*
X49285714Y-47238095D01*
X49238095Y-47333333D01*
X49190476Y-47380952D01*
X49095238Y-47428571D01*
X48761904Y-47428571D01*
X49666666Y-46952380D02*
X50333333Y-46952380D01*
X49666666Y-47952380D01*
X50333333Y-47952380D01*
X51285714Y-47952380D02*
X50952380Y-47476190D01*
X50714285Y-47952380D02*
X50714285Y-46952380D01*
X51095238Y-46952380D01*
X51190476Y-47000000D01*
X51238095Y-47047619D01*
X51285714Y-47142857D01*
X51285714Y-47285714D01*
X51238095Y-47380952D01*
X51190476Y-47428571D01*
X51095238Y-47476190D01*
X50714285Y-47476190D01*
X51714285Y-47571428D02*
X52476190Y-47571428D01*
D11*
X22483333Y-74811904D02*
X22978571Y-74811904D01*
X22711904Y-75116666D01*
X22826190Y-75116666D01*
X22902380Y-75154761D01*
X22940476Y-75192857D01*
X22978571Y-75269047D01*
X22978571Y-75459523D01*
X22940476Y-75535714D01*
X22902380Y-75573809D01*
X22826190Y-75611904D01*
X22597619Y-75611904D01*
X22521428Y-75573809D01*
X22483333Y-75535714D01*
X39150000Y-63035714D02*
X39188095Y-63073809D01*
X39150000Y-63111904D01*
X39111904Y-63073809D01*
X39150000Y-63035714D01*
X39150000Y-63111904D01*
X25750000Y-39785714D02*
X25788095Y-39823809D01*
X25750000Y-39861904D01*
X25711904Y-39823809D01*
X25750000Y-39785714D01*
X25750000Y-39861904D01*
D10*
X43511904Y-89202380D02*
X43511904Y-88202380D01*
X43892857Y-88202380D01*
X43988095Y-88250000D01*
X44035714Y-88297619D01*
X44083333Y-88392857D01*
X44083333Y-88535714D01*
X44035714Y-88630952D01*
X43988095Y-88678571D01*
X43892857Y-88726190D01*
X43511904Y-88726190D01*
X44940476Y-88535714D02*
X44940476Y-89202380D01*
X44702380Y-88154761D02*
X44464285Y-88869047D01*
X45083333Y-88869047D01*
X16767856Y-47571428D02*
X17529760Y-47571428D01*
X18482141Y-47952380D02*
X18005951Y-47952380D01*
X18005951Y-46952380D01*
X18815475Y-47428571D02*
X19148808Y-47428571D01*
X19291665Y-47952380D02*
X18815475Y-47952380D01*
X18815475Y-46952380D01*
X19291665Y-46952380D01*
X19720237Y-47952380D02*
X19720237Y-46952380D01*
X19958332Y-46952380D01*
X20101189Y-47000000D01*
X20196427Y-47095238D01*
X20244046Y-47190476D01*
X20291665Y-47380952D01*
X20291665Y-47523809D01*
X20244046Y-47714285D01*
X20196427Y-47809523D01*
X20101189Y-47904761D01*
X19958332Y-47952380D01*
X19720237Y-47952380D01*
X20720237Y-47571428D02*
X21482141Y-47571428D01*
X21101189Y-47952380D02*
X21101189Y-47190476D01*
D11*
X44600000Y-68057142D02*
X45209523Y-68057142D01*
X44904762Y-68361904D02*
X44904762Y-67752380D01*
D10*
X17059523Y-65654761D02*
X17202380Y-65702380D01*
X17440476Y-65702380D01*
X17535714Y-65654761D01*
X17583333Y-65607142D01*
X17630952Y-65511904D01*
X17630952Y-65416666D01*
X17583333Y-65321428D01*
X17535714Y-65273809D01*
X17440476Y-65226190D01*
X17250000Y-65178571D01*
X17154761Y-65130952D01*
X17107142Y-65083333D01*
X17059523Y-64988095D01*
X17059523Y-64892857D01*
X17107142Y-64797619D01*
X17154761Y-64750000D01*
X17250000Y-64702380D01*
X17488095Y-64702380D01*
X17630952Y-64750000D01*
X18059523Y-65178571D02*
X18392857Y-65178571D01*
X18535714Y-65702380D02*
X18059523Y-65702380D01*
X18059523Y-64702380D01*
X18535714Y-64702380D01*
X19535714Y-65702380D02*
X19202380Y-65226190D01*
X18964285Y-65702380D02*
X18964285Y-64702380D01*
X19345238Y-64702380D01*
X19440476Y-64750000D01*
X19488095Y-64797619D01*
X19535714Y-64892857D01*
X19535714Y-65035714D01*
X19488095Y-65130952D01*
X19440476Y-65178571D01*
X19345238Y-65226190D01*
X18964285Y-65226190D01*
X19821428Y-64702380D02*
X20154761Y-65702380D01*
X20488095Y-64702380D01*
X21011904Y-64702380D02*
X21202380Y-64702380D01*
X21297619Y-64750000D01*
X21392857Y-64845238D01*
X21440476Y-65035714D01*
X21440476Y-65369047D01*
X21392857Y-65559523D01*
X21297619Y-65654761D01*
X21202380Y-65702380D01*
X21011904Y-65702380D01*
X20916666Y-65654761D01*
X20821428Y-65559523D01*
X20773809Y-65369047D01*
X20773809Y-65035714D01*
X20821428Y-64845238D01*
X20916666Y-64750000D01*
X21011904Y-64702380D01*
D11*
X22902380Y-78578571D02*
X22902380Y-79111904D01*
X22711904Y-78273809D02*
X22521428Y-78845238D01*
X23016666Y-78845238D01*
X44445238Y-40807142D02*
X45054761Y-40807142D01*
X17459523Y-81057142D02*
X18069047Y-81057142D01*
X19059523Y-81057142D02*
X19669047Y-81057142D01*
X19364285Y-81361904D02*
X19364285Y-80752380D01*
X20621428Y-81323809D02*
X20735714Y-81361904D01*
X20926190Y-81361904D01*
X21002380Y-81323809D01*
X21040476Y-81285714D01*
X21078571Y-81209523D01*
X21078571Y-81133333D01*
X21040476Y-81057142D01*
X21002380Y-81019047D01*
X20926190Y-80980952D01*
X20773809Y-80942857D01*
X20697619Y-80904761D01*
X20659523Y-80866666D01*
X20621428Y-80790476D01*
X20621428Y-80714285D01*
X20659523Y-80638095D01*
X20697619Y-80600000D01*
X20773809Y-80561904D01*
X20964285Y-80561904D01*
X21078571Y-80600000D01*
X23849047Y-41111904D02*
X23468094Y-41111904D01*
X23468094Y-40311904D01*
X42950000Y-54735714D02*
X42988095Y-54773809D01*
X42950000Y-54811904D01*
X42911904Y-54773809D01*
X42950000Y-54735714D01*
X42950000Y-54811904D01*
D10*
X24107142Y-42357142D02*
X24059523Y-42404761D01*
X23916666Y-42452380D01*
X23821428Y-42452380D01*
X23678571Y-42404761D01*
X23583333Y-42309523D01*
X23535714Y-42214285D01*
X23488095Y-42023809D01*
X23488095Y-41880952D01*
X23535714Y-41690476D01*
X23583333Y-41595238D01*
X23678571Y-41500000D01*
X23821428Y-41452380D01*
X23916666Y-41452380D01*
X24059523Y-41500000D01*
X24107142Y-41547619D01*
X24488095Y-42166666D02*
X24964285Y-42166666D01*
X24392857Y-42452380D02*
X24726190Y-41452380D01*
X25059523Y-42452380D01*
X25392857Y-42452380D02*
X25392857Y-41452380D01*
X25964285Y-42452380D01*
X25964285Y-41452380D01*
D11*
X44695238Y-78557142D02*
X45304761Y-78557142D01*
D12*
%TO.C,J15*%
X16700000Y-71200000D02*
X16900000Y-71200000D01*
X16900000Y-72000000D02*
X16700000Y-72000000D01*
X21600000Y-70350000D02*
X19250000Y-70350000D01*
X22110000Y-73260000D02*
X22110000Y-69840000D01*
X16700000Y-72000000D02*
X16700000Y-71200000D01*
X16900000Y-70350000D02*
X19250000Y-70350000D01*
X21600000Y-71200000D02*
X21600000Y-70350000D01*
X21800000Y-71200000D02*
X21600000Y-71200000D01*
X19250000Y-72750000D02*
X16900000Y-72750000D01*
X22110000Y-69840000D02*
X16390000Y-69840000D01*
X16900000Y-72750000D02*
X16900000Y-72000000D01*
X21600000Y-72000000D02*
X21800000Y-72000000D01*
X16390000Y-73260000D02*
X22110000Y-73260000D01*
X21800000Y-72000000D02*
X21800000Y-71200000D01*
X21600000Y-72750000D02*
X21600000Y-72000000D01*
X19250000Y-72750000D02*
X21600000Y-72750000D01*
X16900000Y-71200000D02*
X16900000Y-70350000D01*
X16390000Y-69840000D02*
X16390000Y-73260000D01*
%TO.C,R4*%
X44080000Y-52153641D02*
X44080000Y-51846359D01*
X43320000Y-52153641D02*
X43320000Y-51846359D01*
%TO.C,R37*%
X40920000Y-56603641D02*
X40920000Y-56296359D01*
X41680000Y-56603641D02*
X41680000Y-56296359D01*
%TO.C,R33*%
X42880000Y-19653641D02*
X42880000Y-19346359D01*
X42120000Y-19653641D02*
X42120000Y-19346359D01*
%TO.C,R17*%
X40870000Y-81663641D02*
X40870000Y-81356359D01*
X41630000Y-81663641D02*
X41630000Y-81356359D01*
%TO.C,C6*%
X42440000Y-29357836D02*
X42440000Y-29142164D01*
X43160000Y-29357836D02*
X43160000Y-29142164D01*
%TO.C,C20*%
X40390000Y-63392164D02*
X40390000Y-63607836D01*
X41110000Y-63392164D02*
X41110000Y-63607836D01*
%TO.C,C4*%
X34110000Y-29357836D02*
X34110000Y-29142164D01*
X33390000Y-29357836D02*
X33390000Y-29142164D01*
%TO.C,R21*%
X40630000Y-81356359D02*
X40630000Y-81663641D01*
X39870000Y-81356359D02*
X39870000Y-81663641D01*
%TO.C,C18*%
X29640000Y-58607836D02*
X29640000Y-58392164D01*
X30360000Y-58607836D02*
X30360000Y-58392164D01*
%TO.C,C14*%
X29360000Y-49892164D02*
X29360000Y-50107836D01*
X28640000Y-49892164D02*
X28640000Y-50107836D01*
%TO.C,R28*%
X29870000Y-81356359D02*
X29870000Y-81663641D01*
X30630000Y-81356359D02*
X30630000Y-81663641D01*
D13*
%TO.C,D3*%
X26050000Y-15910000D02*
G75*
G03*
X26050000Y-15910000I-50000J0D01*
G01*
%TO.C,LOGO3*%
G36*
X18292926Y-56604651D02*
G01*
X18292925Y-56569438D01*
X18292925Y-55997961D01*
X18376905Y-55914026D01*
X18624977Y-55914026D01*
X18624977Y-56398431D01*
X19375023Y-56398431D01*
X19375023Y-55914026D01*
X18624977Y-55914026D01*
X18376905Y-55914026D01*
X18395498Y-55895443D01*
X18498070Y-55792925D01*
X19070344Y-55793011D01*
X19148522Y-55793026D01*
X19219269Y-55793049D01*
X19282969Y-55793084D01*
X19340003Y-55793137D01*
X19390753Y-55793213D01*
X19435603Y-55793315D01*
X19474934Y-55793449D01*
X19509130Y-55793620D01*
X19538572Y-55793833D01*
X19563643Y-55794091D01*
X19584726Y-55794400D01*
X19602202Y-55794765D01*
X19616455Y-55795191D01*
X19627867Y-55795681D01*
X19636820Y-55796242D01*
X19643696Y-55796877D01*
X19648879Y-55797592D01*
X19652751Y-55798391D01*
X19655693Y-55799278D01*
X19658089Y-55800260D01*
X19658244Y-55800331D01*
X19679226Y-55814161D01*
X19695274Y-55833359D01*
X19701008Y-55844561D01*
X19701799Y-55847061D01*
X19702518Y-55850835D01*
X19703170Y-55856234D01*
X19703758Y-55863609D01*
X19704284Y-55873314D01*
X19704751Y-55885700D01*
X19705164Y-55901117D01*
X19705525Y-55919920D01*
X19705838Y-55942458D01*
X19706104Y-55969084D01*
X19706329Y-56000150D01*
X19706515Y-56036008D01*
X19706665Y-56077008D01*
X19706783Y-56123505D01*
X19706871Y-56175848D01*
X19706933Y-56234390D01*
X19706972Y-56299482D01*
X19706991Y-56371478D01*
X19706994Y-56450727D01*
X19706989Y-56500851D01*
X19706975Y-56583849D01*
X19706955Y-56659394D01*
X19706924Y-56727845D01*
X19706878Y-56789565D01*
X19706813Y-56844911D01*
X19706725Y-56894245D01*
X19706611Y-56937927D01*
X19706466Y-56976317D01*
X19706286Y-57009774D01*
X19706067Y-57038659D01*
X19705805Y-57063332D01*
X19705497Y-57084153D01*
X19705137Y-57101482D01*
X19704723Y-57115679D01*
X19704250Y-57127105D01*
X19703714Y-57136120D01*
X19703111Y-57143082D01*
X19702437Y-57148354D01*
X19701688Y-57152294D01*
X19700861Y-57155263D01*
X19699950Y-57157621D01*
X19699669Y-57158244D01*
X19685839Y-57179226D01*
X19666641Y-57195274D01*
X19655439Y-57201008D01*
X19652939Y-57201799D01*
X19649165Y-57202518D01*
X19643767Y-57203170D01*
X19636391Y-57203758D01*
X19626686Y-57204284D01*
X19614301Y-57204751D01*
X19598883Y-57205164D01*
X19580080Y-57205525D01*
X19557542Y-57205838D01*
X19530916Y-57206104D01*
X19499850Y-57206329D01*
X19463992Y-57206515D01*
X19422992Y-57206665D01*
X19376495Y-57206783D01*
X19324152Y-57206871D01*
X19265610Y-57206933D01*
X19200518Y-57206972D01*
X19128522Y-57206991D01*
X19049273Y-57206994D01*
X18999149Y-57206989D01*
X18916151Y-57206975D01*
X18840607Y-57206955D01*
X18772155Y-57206924D01*
X18710435Y-57206878D01*
X18655089Y-57206813D01*
X18605755Y-57206725D01*
X18562073Y-57206611D01*
X18523684Y-57206466D01*
X18490226Y-57206286D01*
X18461341Y-57206067D01*
X18436668Y-57205805D01*
X18415847Y-57205497D01*
X18398518Y-57205137D01*
X18384321Y-57204723D01*
X18372895Y-57204250D01*
X18363881Y-57203714D01*
X18356918Y-57203111D01*
X18351646Y-57202437D01*
X18347706Y-57201688D01*
X18344737Y-57200861D01*
X18342380Y-57199950D01*
X18341756Y-57199669D01*
X18320774Y-57185839D01*
X18304726Y-57166641D01*
X18298992Y-57155439D01*
X18298156Y-57152814D01*
X18297399Y-57148891D01*
X18296717Y-57143296D01*
X18296108Y-57135656D01*
X18295566Y-57125596D01*
X18295088Y-57112743D01*
X18294669Y-57096723D01*
X18294308Y-57077164D01*
X18293998Y-57053690D01*
X18293737Y-57025929D01*
X18293520Y-56993507D01*
X18293344Y-56956050D01*
X18293205Y-56913184D01*
X18293099Y-56864536D01*
X18293022Y-56809733D01*
X18292970Y-56748400D01*
X18292958Y-56720834D01*
X18792771Y-56720834D01*
X18793264Y-56749684D01*
X18796726Y-56775824D01*
X18799058Y-56785174D01*
X18813591Y-56821361D01*
X18834328Y-56854206D01*
X18860337Y-56882807D01*
X18890690Y-56906259D01*
X18924455Y-56923661D01*
X18950103Y-56931874D01*
X18975440Y-56935879D01*
X19004000Y-56937017D01*
X19031714Y-56935229D01*
X19043756Y-56933265D01*
X19079296Y-56922077D01*
X19112424Y-56904113D01*
X19142185Y-56880272D01*
X19167624Y-56851452D01*
X19187788Y-56818554D01*
X19200942Y-56785174D01*
X19205655Y-56761101D01*
X19207382Y-56732996D01*
X19206162Y-56704031D01*
X19202036Y-56677378D01*
X19199465Y-56667697D01*
X19184772Y-56632712D01*
X19163951Y-56601366D01*
X19137963Y-56574267D01*
X19107770Y-56552025D01*
X19074335Y-56535249D01*
X19038620Y-56524548D01*
X19001587Y-56520532D01*
X18970485Y-56522720D01*
X18933055Y-56532298D01*
X18898044Y-56548560D01*
X18866433Y-56570670D01*
X18839204Y-56597790D01*
X18817338Y-56629084D01*
X18801815Y-56663715D01*
X18800535Y-56667697D01*
X18795208Y-56692449D01*
X18792771Y-56720834D01*
X18292958Y-56720834D01*
X18292939Y-56680164D01*
X18292926Y-56604651D01*
G37*
D12*
%TO.C,R31*%
X26080000Y-44503641D02*
X26080000Y-44196359D01*
X25320000Y-44503641D02*
X25320000Y-44196359D01*
%TO.C,C7*%
X26890000Y-29607836D02*
X26890000Y-29392164D01*
X27610000Y-29607836D02*
X27610000Y-29392164D01*
%TO.C,J1*%
X38050000Y-45200000D02*
X37850000Y-45200000D01*
X30650000Y-46750000D02*
X30650000Y-46000000D01*
X34250000Y-46750000D02*
X30650000Y-46750000D01*
X38050000Y-46000000D02*
X38050000Y-45200000D01*
X37850000Y-45200000D02*
X37850000Y-44350000D01*
X30140000Y-47260000D02*
X38360000Y-47260000D01*
X30650000Y-45200000D02*
X30650000Y-44350000D01*
X34250000Y-46750000D02*
X37850000Y-46750000D01*
X37850000Y-46000000D02*
X38050000Y-46000000D01*
X38360000Y-47260000D02*
X38360000Y-43840000D01*
X30650000Y-44350000D02*
X34250000Y-44350000D01*
X30450000Y-45200000D02*
X30650000Y-45200000D01*
X30650000Y-46000000D02*
X30450000Y-46000000D01*
X30140000Y-43840000D02*
X30140000Y-47260000D01*
X38360000Y-43840000D02*
X30140000Y-43840000D01*
X37850000Y-46750000D02*
X37850000Y-46000000D01*
X30450000Y-46000000D02*
X30450000Y-45200000D01*
X37850000Y-44350000D02*
X34250000Y-44350000D01*
%TO.C,J9*%
X21049999Y-45050000D02*
X20849999Y-45050000D01*
X20849999Y-45900000D02*
X19124999Y-45900000D01*
X17199999Y-45050000D02*
X17399999Y-45050000D01*
X16889999Y-46410000D02*
X21359999Y-46410000D01*
X20849999Y-45050000D02*
X20849999Y-45900000D01*
X20849999Y-44250000D02*
X21049999Y-44250000D01*
X20849999Y-43500000D02*
X20849999Y-44250000D01*
X17399999Y-45050000D02*
X17399999Y-45900000D01*
X17399999Y-44250000D02*
X17199999Y-44250000D01*
X17399999Y-43500000D02*
X17399999Y-44250000D01*
X19124999Y-43500000D02*
X17399999Y-43500000D01*
X21359999Y-42990000D02*
X16889999Y-42990000D01*
X21359999Y-46410000D02*
X21359999Y-42990000D01*
X21049999Y-44250000D02*
X21049999Y-45050000D01*
X17399999Y-45900000D02*
X19124999Y-45900000D01*
X16889999Y-42990000D02*
X16889999Y-46410000D01*
X17199999Y-44250000D02*
X17199999Y-45050000D01*
X19124999Y-43500000D02*
X20849999Y-43500000D01*
%TO.C,J19*%
X21800000Y-79000000D02*
X21800000Y-78200000D01*
X16700000Y-78200000D02*
X16900000Y-78200000D01*
X22110000Y-76840000D02*
X16390000Y-76840000D01*
X21600000Y-77350000D02*
X19250000Y-77350000D01*
X21600000Y-79000000D02*
X21800000Y-79000000D01*
X21600000Y-78200000D02*
X21600000Y-77350000D01*
X19250000Y-79750000D02*
X21600000Y-79750000D01*
X16390000Y-76840000D02*
X16390000Y-80260000D01*
X16390000Y-80260000D02*
X22110000Y-80260000D01*
X19250000Y-79750000D02*
X16900000Y-79750000D01*
X16900000Y-79750000D02*
X16900000Y-79000000D01*
X21600000Y-79750000D02*
X21600000Y-79000000D01*
X16700000Y-79000000D02*
X16700000Y-78200000D01*
X21800000Y-78200000D02*
X21600000Y-78200000D01*
X16900000Y-77350000D02*
X19250000Y-77350000D01*
X16900000Y-78200000D02*
X16900000Y-77350000D01*
X22110000Y-80260000D02*
X22110000Y-76840000D01*
X16900000Y-79000000D02*
X16700000Y-79000000D01*
%TO.C,R40*%
X44370000Y-31903641D02*
X44370000Y-31596359D01*
X45130000Y-31903641D02*
X45130000Y-31596359D01*
%TO.C,J13*%
X34200000Y-82810000D02*
X41300000Y-82810000D01*
X34200000Y-89710000D02*
X41300000Y-89710000D01*
X34200000Y-89360000D02*
X41300000Y-89360000D01*
X41300000Y-82810000D02*
X41300000Y-89710000D01*
%TO.C,C1*%
X43310000Y-38242164D02*
X43310000Y-38457836D01*
X42590000Y-38242164D02*
X42590000Y-38457836D01*
%TO.C,LOGO2*%
G36*
X17066339Y-56729258D02*
G01*
X17079030Y-56730188D01*
X17089856Y-56732114D01*
X17101073Y-56735403D01*
X17111189Y-56739019D01*
X17137755Y-56751184D01*
X17162425Y-56766844D01*
X17183363Y-56784757D01*
X17190904Y-56793012D01*
X17202637Y-56809341D01*
X17213840Y-56828968D01*
X17223241Y-56849387D01*
X17229570Y-56868095D01*
X17230086Y-56870210D01*
X17232791Y-56887978D01*
X17233858Y-56909035D01*
X17233332Y-56930902D01*
X17231258Y-56951100D01*
X17228371Y-56964893D01*
X17216368Y-56995473D01*
X17198913Y-57023708D01*
X17176749Y-57048820D01*
X17150619Y-57070032D01*
X17121265Y-57086570D01*
X17106198Y-57092637D01*
X17092289Y-57096019D01*
X17074123Y-57098291D01*
X17053748Y-57099388D01*
X17033211Y-57099245D01*
X17014559Y-57097794D01*
X17003573Y-57095933D01*
X16974398Y-57086177D01*
X16946545Y-57070855D01*
X16921086Y-57050787D01*
X16899092Y-57026793D01*
X16884417Y-57004805D01*
X16872391Y-56977949D01*
X16864688Y-56948384D01*
X16861486Y-56917783D01*
X16862964Y-56887822D01*
X16869016Y-56861031D01*
X16883184Y-56827859D01*
X16902179Y-56798840D01*
X16925850Y-56774126D01*
X16954041Y-56753870D01*
X16986600Y-56738224D01*
X16996805Y-56734581D01*
X17008840Y-56731475D01*
X17023090Y-56729666D01*
X17041288Y-56728968D01*
X17049522Y-56728955D01*
X17066339Y-56729258D01*
G37*
G36*
X17094152Y-56286612D02*
G01*
X17154307Y-56292794D01*
X17213652Y-56305041D01*
X17271684Y-56323298D01*
X17327901Y-56347513D01*
X17330570Y-56348837D01*
X17372496Y-56371358D01*
X17410822Y-56395516D01*
X17447039Y-56422413D01*
X17482639Y-56453150D01*
X17516739Y-56486394D01*
X17534371Y-56505053D01*
X17547743Y-56520848D01*
X17557576Y-56534918D01*
X17564590Y-56548403D01*
X17569507Y-56562442D01*
X17572304Y-56574283D01*
X17574034Y-56598596D01*
X17569956Y-56622762D01*
X17560598Y-56645804D01*
X17546488Y-56666745D01*
X17528155Y-56684611D01*
X17506127Y-56698424D01*
X17504805Y-56699053D01*
X17493111Y-56704103D01*
X17483090Y-56707049D01*
X17472090Y-56708427D01*
X17457458Y-56708778D01*
X17456880Y-56708778D01*
X17440514Y-56708110D01*
X17426055Y-56705743D01*
X17412484Y-56701139D01*
X17398781Y-56693757D01*
X17383925Y-56683058D01*
X17366896Y-56668501D01*
X17348742Y-56651532D01*
X17318487Y-56623565D01*
X17290691Y-56600305D01*
X17264296Y-56581124D01*
X17238243Y-56565396D01*
X17211471Y-56552492D01*
X17182923Y-56541787D01*
X17151539Y-56532651D01*
X17145371Y-56531092D01*
X17121709Y-56526778D01*
X17093917Y-56524201D01*
X17064011Y-56523359D01*
X17034009Y-56524247D01*
X17005927Y-56526863D01*
X16981784Y-56531203D01*
X16981154Y-56531357D01*
X16950458Y-56539771D01*
X16922689Y-56549407D01*
X16896887Y-56560851D01*
X16872089Y-56574689D01*
X16847337Y-56591508D01*
X16821668Y-56611891D01*
X16794122Y-56636427D01*
X16768364Y-56661133D01*
X16747938Y-56680856D01*
X16730872Y-56696310D01*
X16716302Y-56708022D01*
X16703362Y-56716517D01*
X16691188Y-56722320D01*
X16678916Y-56725958D01*
X16665680Y-56727957D01*
X16657479Y-56728558D01*
X16643807Y-56728751D01*
X16630793Y-56728041D01*
X16621688Y-56726669D01*
X16599980Y-56718255D01*
X16579276Y-56704734D01*
X16561127Y-56687369D01*
X16547087Y-56667419D01*
X16545797Y-56665001D01*
X16538537Y-56646339D01*
X16534101Y-56625308D01*
X16532994Y-56604820D01*
X16533851Y-56595648D01*
X16536555Y-56582396D01*
X16540609Y-56570137D01*
X16546573Y-56558044D01*
X16555011Y-56545294D01*
X16566483Y-56531062D01*
X16581550Y-56514523D01*
X16600775Y-56494853D01*
X16606101Y-56489544D01*
X16634772Y-56461607D01*
X16660445Y-56437890D01*
X16684133Y-56417634D01*
X16706846Y-56400084D01*
X16729597Y-56384483D01*
X16753399Y-56370074D01*
X16779262Y-56356101D01*
X16795522Y-56347940D01*
X16814857Y-56338620D01*
X16831347Y-56331175D01*
X16846651Y-56325003D01*
X16862433Y-56319500D01*
X16880353Y-56314063D01*
X16902074Y-56308089D01*
X16913862Y-56304978D01*
X16973427Y-56292651D01*
X17033691Y-56286547D01*
X17094152Y-56286612D01*
G37*
G36*
X17087777Y-55900334D02*
G01*
X17118175Y-55901284D01*
X17144098Y-55902585D01*
X17167457Y-55904439D01*
X17190165Y-55907049D01*
X17214135Y-55910618D01*
X17241279Y-55915349D01*
X17256950Y-55918272D01*
X17289760Y-55925350D01*
X17325450Y-55934550D01*
X17362120Y-55945289D01*
X17397869Y-55956982D01*
X17430795Y-55969045D01*
X17455283Y-55979216D01*
X17509577Y-56004761D01*
X17559189Y-56031088D01*
X17605819Y-56059240D01*
X17651169Y-56090263D01*
X17696941Y-56125202D01*
X17709283Y-56135188D01*
X17722560Y-56146576D01*
X17737827Y-56160530D01*
X17754268Y-56176218D01*
X17771066Y-56192803D01*
X17787405Y-56209453D01*
X17802471Y-56225332D01*
X17815447Y-56239607D01*
X17825517Y-56251442D01*
X17831866Y-56260004D01*
X17832718Y-56261429D01*
X17837102Y-56269961D01*
X17839817Y-56277591D01*
X17841255Y-56286319D01*
X17841806Y-56298146D01*
X17841874Y-56308302D01*
X17841675Y-56323281D01*
X17840801Y-56334002D01*
X17838836Y-56342593D01*
X17835367Y-56351179D01*
X17832289Y-56357411D01*
X17817974Y-56378822D01*
X17799616Y-56395847D01*
X17778126Y-56408059D01*
X17754415Y-56415030D01*
X17729396Y-56416334D01*
X17712075Y-56413759D01*
X17701813Y-56410988D01*
X17692562Y-56407399D01*
X17683391Y-56402335D01*
X17673367Y-56395142D01*
X17661558Y-56385163D01*
X17647032Y-56371744D01*
X17632603Y-56357873D01*
X17595429Y-56322959D01*
X17560414Y-56292679D01*
X17526422Y-56266193D01*
X17492317Y-56242661D01*
X17456961Y-56221242D01*
X17423333Y-56203178D01*
X17401798Y-56192300D01*
X17384313Y-56183753D01*
X17369294Y-56176860D01*
X17355153Y-56170943D01*
X17340305Y-56165325D01*
X17323164Y-56159328D01*
X17311509Y-56155396D01*
X17250507Y-56137423D01*
X17190210Y-56124774D01*
X17128635Y-56117094D01*
X17083069Y-56114464D01*
X17033869Y-56114069D01*
X16987883Y-56116377D01*
X16942442Y-56121604D01*
X16898117Y-56129313D01*
X16879125Y-56133493D01*
X16857230Y-56138971D01*
X16833932Y-56145309D01*
X16810728Y-56152069D01*
X16789118Y-56158813D01*
X16770600Y-56165102D01*
X16756673Y-56170499D01*
X16755585Y-56170976D01*
X16728848Y-56183241D01*
X16702167Y-56196199D01*
X16676584Y-56209293D01*
X16653144Y-56221964D01*
X16632890Y-56233656D01*
X16616865Y-56243809D01*
X16609635Y-56248993D01*
X16601269Y-56255201D01*
X16591453Y-56262186D01*
X16589451Y-56263572D01*
X16575358Y-56273550D01*
X16561602Y-56283965D01*
X16547449Y-56295463D01*
X16532162Y-56308687D01*
X16515008Y-56324283D01*
X16495250Y-56342893D01*
X16472153Y-56365164D01*
X16459775Y-56377236D01*
X16443295Y-56393294D01*
X16430529Y-56405493D01*
X16420653Y-56414471D01*
X16412843Y-56420866D01*
X16406275Y-56425319D01*
X16400126Y-56428466D01*
X16393571Y-56430948D01*
X16388351Y-56432615D01*
X16367557Y-56437635D01*
X16348781Y-56438673D01*
X16329101Y-56435800D01*
X16322666Y-56434208D01*
X16300548Y-56425307D01*
X16281109Y-56410912D01*
X16267587Y-56395792D01*
X16255721Y-56377046D01*
X16248771Y-56357441D01*
X16246077Y-56334944D01*
X16245990Y-56329298D01*
X16246696Y-56314796D01*
X16249167Y-56301696D01*
X16253933Y-56289082D01*
X16261524Y-56276033D01*
X16272472Y-56261630D01*
X16287307Y-56244954D01*
X16305612Y-56226040D01*
X16355426Y-56177779D01*
X16403830Y-56134968D01*
X16451582Y-56097046D01*
X16499439Y-56063451D01*
X16548158Y-56033623D01*
X16598496Y-56007000D01*
X16606267Y-56003233D01*
X16620842Y-55996219D01*
X16633680Y-55989992D01*
X16643490Y-55985182D01*
X16648980Y-55982417D01*
X16649288Y-55982252D01*
X16655635Y-55979367D01*
X16666665Y-55974912D01*
X16681019Y-55969393D01*
X16697338Y-55963315D01*
X16714260Y-55957185D01*
X16730426Y-55951507D01*
X16744477Y-55946788D01*
X16746000Y-55946296D01*
X16804103Y-55929421D01*
X16861488Y-55916522D01*
X16919499Y-55907419D01*
X16979484Y-55901932D01*
X17042789Y-55899878D01*
X17087777Y-55900334D01*
G37*
%TO.C,R29*%
X38630000Y-81356359D02*
X38630000Y-81663641D01*
X37870000Y-81356359D02*
X37870000Y-81663641D01*
D13*
%TO.C,D2*%
X19050000Y-55340000D02*
G75*
G03*
X19050000Y-55340000I-50000J0D01*
G01*
D12*
%TO.C,R24*%
X29630000Y-81663641D02*
X29630000Y-81356359D01*
X28870000Y-81663641D02*
X28870000Y-81356359D01*
%TO.C,J18*%
X16700000Y-75500000D02*
X16700000Y-74700000D01*
X16900000Y-75500000D02*
X16700000Y-75500000D01*
X21800000Y-74700000D02*
X21600000Y-74700000D01*
X22110000Y-76760000D02*
X22110000Y-73340000D01*
X22110000Y-73340000D02*
X16390000Y-73340000D01*
X16390000Y-73340000D02*
X16390000Y-76760000D01*
X21600000Y-76250000D02*
X21600000Y-75500000D01*
X19250000Y-76250000D02*
X21600000Y-76250000D01*
X19250000Y-76250000D02*
X16900000Y-76250000D01*
X16900000Y-74700000D02*
X16900000Y-73850000D01*
X21800000Y-75500000D02*
X21800000Y-74700000D01*
X16700000Y-74700000D02*
X16900000Y-74700000D01*
X16900000Y-73850000D02*
X19250000Y-73850000D01*
X16390000Y-76760000D02*
X22110000Y-76760000D01*
X16900000Y-76250000D02*
X16900000Y-75500000D01*
X21600000Y-75500000D02*
X21800000Y-75500000D01*
X21600000Y-73850000D02*
X19250000Y-73850000D01*
X21600000Y-74700000D02*
X21600000Y-73850000D01*
%TO.C,J17*%
X52450000Y-80300000D02*
X52450000Y-73200000D01*
X45550000Y-80300000D02*
X45550000Y-73200000D01*
X52100000Y-80300000D02*
X52100000Y-73200000D01*
X45550000Y-80300000D02*
X52450000Y-80300000D01*
X49587742Y-79952109D02*
G75*
G02*
X48372000Y-79952000I-607742J1432109D01*
G01*
X50411385Y-77912413D02*
G75*
G02*
X50535000Y-78520000I-1431385J-607587D01*
G01*
X48372258Y-77087891D02*
G75*
G02*
X49588000Y-77088000I607742J-1432109D01*
G01*
X50535492Y-78492989D02*
G75*
G02*
X50412000Y-79128000I-1555492J-27011D01*
G01*
X47547891Y-79127742D02*
G75*
G02*
X47548000Y-77912000I1432109J607742D01*
G01*
X50585000Y-75020000D02*
G75*
G03*
X50585000Y-75020000I-1555000J0D01*
G01*
%TO.C,R3*%
X43320000Y-56296359D02*
X43320000Y-56603641D01*
X44080000Y-56296359D02*
X44080000Y-56603641D01*
%TO.C,C16*%
X38860000Y-49892164D02*
X38860000Y-50107836D01*
X38140000Y-49892164D02*
X38140000Y-50107836D01*
%TO.C,R12*%
X25870000Y-57403641D02*
X25870000Y-57096359D01*
X26630000Y-57403641D02*
X26630000Y-57096359D01*
%TO.C,C3*%
X45110000Y-29142164D02*
X45110000Y-29357836D01*
X44390000Y-29142164D02*
X44390000Y-29357836D01*
%TO.C,R14*%
X27630000Y-24096359D02*
X27630000Y-24403641D01*
X26870000Y-24096359D02*
X26870000Y-24403641D01*
%TO.C,R16*%
X27630000Y-81356359D02*
X27630000Y-81663641D01*
X26870000Y-81356359D02*
X26870000Y-81663641D01*
%TO.C,R18*%
X28630000Y-24403641D02*
X28630000Y-24096359D01*
X27870000Y-24403641D02*
X27870000Y-24096359D01*
%TO.C,C19*%
X21360000Y-54357836D02*
X21360000Y-54142164D01*
X20640000Y-54357836D02*
X20640000Y-54142164D01*
%TO.C,LOGO1*%
X31250000Y-69250000D02*
X31250000Y-77250000D01*
X31250000Y-77250000D02*
X37250000Y-69250000D01*
X38250000Y-69250000D02*
X41500000Y-77250000D01*
X37250000Y-77250000D02*
X31250000Y-69250000D01*
X27000000Y-69250000D02*
X30250000Y-77250000D01*
X41500000Y-77250000D02*
X44750000Y-69250000D01*
X27000000Y-69250000D02*
X23750000Y-77250000D01*
X37250000Y-69250000D02*
X37250000Y-77250000D01*
D13*
X30250000Y-77250000D02*
X23750000Y-77250000D01*
X23750000Y-77250000D02*
X27000000Y-69250000D01*
X27000000Y-69250000D02*
X30250000Y-77250000D01*
G36*
X30250000Y-77250000D02*
G01*
X23750000Y-77250000D01*
X27000000Y-69250000D01*
X30250000Y-77250000D01*
G37*
X30250000Y-77250000D02*
X23750000Y-77250000D01*
X27000000Y-69250000D01*
X30250000Y-77250000D01*
X37250000Y-77250000D02*
X34250000Y-73250000D01*
X34250000Y-73250000D02*
X37250000Y-69250000D01*
X37250000Y-69250000D02*
X37250000Y-77250000D01*
G36*
X37250000Y-77250000D02*
G01*
X34250000Y-73250000D01*
X37250000Y-69250000D01*
X37250000Y-77250000D01*
G37*
X37250000Y-77250000D02*
X34250000Y-73250000D01*
X37250000Y-69250000D01*
X37250000Y-77250000D01*
X41500000Y-77250000D02*
X38250000Y-69250000D01*
X38250000Y-69250000D02*
X44750000Y-69250000D01*
X44750000Y-69250000D02*
X41500000Y-77250000D01*
G36*
X41500000Y-77250000D02*
G01*
X38250000Y-69250000D01*
X44750000Y-69250000D01*
X41500000Y-77250000D01*
G37*
X41500000Y-77250000D02*
X38250000Y-69250000D01*
X44750000Y-69250000D01*
X41500000Y-77250000D01*
X34250000Y-73250000D02*
X31250000Y-77250000D01*
X31250000Y-77250000D02*
X31250000Y-69250000D01*
X31250000Y-69250000D02*
X34250000Y-73250000D01*
G36*
X34250000Y-73250000D02*
G01*
X31250000Y-77250000D01*
X31250000Y-69250000D01*
X34250000Y-73250000D01*
G37*
X34250000Y-73250000D02*
X31250000Y-77250000D01*
X31250000Y-69250000D01*
X34250000Y-73250000D01*
D12*
%TO.C,R9*%
X23870000Y-29346359D02*
X23870000Y-29653641D01*
X24630000Y-29346359D02*
X24630000Y-29653641D01*
%TO.C,J12*%
X27200000Y-89360000D02*
X34300000Y-89360000D01*
X27200000Y-82810000D02*
X27200000Y-89710000D01*
X27200000Y-89710000D02*
X34300000Y-89710000D01*
X27200000Y-82810000D02*
X34300000Y-82810000D01*
%TO.C,C24*%
X37110000Y-63392164D02*
X37110000Y-63607836D01*
X36390000Y-63392164D02*
X36390000Y-63607836D01*
%TO.C,R27*%
X37870000Y-24403641D02*
X37870000Y-24096359D01*
X38630000Y-24403641D02*
X38630000Y-24096359D01*
%TO.C,R1*%
X34870000Y-42653641D02*
X34870000Y-42346359D01*
X35630000Y-42653641D02*
X35630000Y-42346359D01*
%TO.C,L2*%
X38511252Y-32940000D02*
X37988748Y-32940000D01*
X38511252Y-35160000D02*
X37988748Y-35160000D01*
%TO.C,C10*%
X37560000Y-31240580D02*
X37560000Y-30959420D01*
X36540000Y-31240580D02*
X36540000Y-30959420D01*
%TO.C,RN1*%
X33110000Y-68250000D02*
X33110000Y-67750000D01*
X35390000Y-68250000D02*
X35390000Y-67750000D01*
%TO.C,R8*%
X41270000Y-51846359D02*
X41270000Y-52153641D01*
X42030000Y-51846359D02*
X42030000Y-52153641D01*
%TO.C,C26*%
X20360000Y-51157836D02*
X20360000Y-50942164D01*
X19640000Y-51157836D02*
X19640000Y-50942164D01*
%TO.C,C2*%
X44110000Y-29142164D02*
X44110000Y-29357836D01*
X43390000Y-29142164D02*
X43390000Y-29357836D01*
%TO.C,R38*%
X42120000Y-56603641D02*
X42120000Y-56296359D01*
X42880000Y-56603641D02*
X42880000Y-56296359D01*
%TO.C,C15*%
X38860000Y-58607836D02*
X38860000Y-58392164D01*
X38140000Y-58607836D02*
X38140000Y-58392164D01*
%TO.C,C9*%
X26490000Y-31859420D02*
X26490000Y-32140580D01*
X27510000Y-31859420D02*
X27510000Y-32140580D01*
%TO.C,R10*%
X25870000Y-29653641D02*
X25870000Y-29346359D01*
X26630000Y-29653641D02*
X26630000Y-29346359D01*
%TO.C,L1*%
X30261252Y-35160000D02*
X29738748Y-35160000D01*
X30261252Y-32940000D02*
X29738748Y-32940000D01*
%TO.C,R35*%
X42120000Y-86106359D02*
X42120000Y-86413641D01*
X42880000Y-86106359D02*
X42880000Y-86413641D01*
%TO.C,C27*%
X21360000Y-51157836D02*
X21360000Y-50942164D01*
X20640000Y-51157836D02*
X20640000Y-50942164D01*
%TO.C,R39*%
X32370000Y-29096359D02*
X32370000Y-29403641D01*
X33130000Y-29096359D02*
X33130000Y-29403641D01*
%TO.C,C25*%
X28610000Y-38857836D02*
X28610000Y-38642164D01*
X27890000Y-38857836D02*
X27890000Y-38642164D01*
%TO.C,R11*%
X42370000Y-31596359D02*
X42370000Y-31903641D01*
X43130000Y-31596359D02*
X43130000Y-31903641D01*
D13*
%TO.C,D7*%
X34300000Y-40460000D02*
G75*
G03*
X34300000Y-40460000I-50000J0D01*
G01*
D12*
%TO.C,C5*%
X33110000Y-31392164D02*
X33110000Y-31607836D01*
X32390000Y-31392164D02*
X32390000Y-31607836D01*
%TO.C,R41*%
X44130000Y-31596359D02*
X44130000Y-31903641D01*
X43370000Y-31596359D02*
X43370000Y-31903641D01*
%TO.C,C12*%
X24510000Y-31859420D02*
X24510000Y-32140580D01*
X23490000Y-31859420D02*
X23490000Y-32140580D01*
%TO.C,R36*%
X34869999Y-40446359D02*
X34869999Y-40753641D01*
X35629999Y-40446359D02*
X35629999Y-40753641D01*
%TO.C,R34*%
X25620000Y-86106359D02*
X25620000Y-86413641D01*
X26380000Y-86106359D02*
X26380000Y-86413641D01*
%TO.C,C8*%
X25610000Y-29607836D02*
X25610000Y-29392164D01*
X24890000Y-29607836D02*
X24890000Y-29392164D01*
%TO.C,R32*%
X26380000Y-19653641D02*
X26380000Y-19346359D01*
X25620000Y-19653641D02*
X25620000Y-19346359D01*
%TO.C,J16*%
X52100000Y-73300000D02*
X52100000Y-66200000D01*
X45550000Y-73300000D02*
X45550000Y-66200000D01*
X45550000Y-66200000D02*
X52450000Y-66200000D01*
X52450000Y-73300000D02*
X52450000Y-66200000D01*
X47547891Y-72127742D02*
G75*
G02*
X47548000Y-70912000I1432109J607742D01*
G01*
X50411385Y-70912413D02*
G75*
G02*
X50535000Y-71520000I-1431385J-607587D01*
G01*
X49587742Y-72952109D02*
G75*
G02*
X48372000Y-72952000I-607742J1432109D01*
G01*
X48372258Y-70087891D02*
G75*
G02*
X49588000Y-70088000I607742J-1432109D01*
G01*
X50535492Y-71492989D02*
G75*
G02*
X50412000Y-72128000I-1555492J-27011D01*
G01*
X50585000Y-68020000D02*
G75*
G03*
X50585000Y-68020000I-1555000J0D01*
G01*
%TO.C,C23*%
X32110000Y-63392164D02*
X32110000Y-63607836D01*
X31390000Y-63392164D02*
X31390000Y-63607836D01*
D13*
%TO.C,D10*%
X17050000Y-55340000D02*
G75*
G03*
X17050000Y-55340000I-50000J0D01*
G01*
D12*
%TO.C,J14*%
X22110000Y-66340000D02*
X16390000Y-66340000D01*
X16700000Y-68500000D02*
X16700000Y-67700000D01*
X16900000Y-66850000D02*
X19250000Y-66850000D01*
X19250000Y-69250000D02*
X16900000Y-69250000D01*
X21800000Y-67700000D02*
X21600000Y-67700000D01*
X16390000Y-69760000D02*
X22110000Y-69760000D01*
X16900000Y-68500000D02*
X16700000Y-68500000D01*
X21600000Y-67700000D02*
X21600000Y-66850000D01*
X21600000Y-68500000D02*
X21800000Y-68500000D01*
X21600000Y-66850000D02*
X19250000Y-66850000D01*
X21600000Y-69250000D02*
X21600000Y-68500000D01*
X19250000Y-69250000D02*
X21600000Y-69250000D01*
X16390000Y-66340000D02*
X16390000Y-69760000D01*
X16900000Y-69250000D02*
X16900000Y-68500000D01*
X16900000Y-67700000D02*
X16900000Y-66850000D01*
X21800000Y-68500000D02*
X21800000Y-67700000D01*
X22110000Y-69760000D02*
X22110000Y-66340000D01*
X16700000Y-67700000D02*
X16900000Y-67700000D01*
%TO.C,C17*%
X29640000Y-49892164D02*
X29640000Y-50107836D01*
X30360000Y-49892164D02*
X30360000Y-50107836D01*
%TO.C,J4*%
X51080000Y-49670000D02*
X52785000Y-49670000D01*
X49070000Y-49670000D02*
X47150000Y-49670000D01*
X47150000Y-58830000D02*
X49070000Y-58830000D01*
X52785000Y-58830000D02*
X51080000Y-58830000D01*
X52785000Y-49670000D02*
X52785000Y-58830000D01*
%TO.C,J10*%
X27199999Y-22950000D02*
X27199999Y-16050000D01*
X34299999Y-16050000D02*
X27199999Y-16050000D01*
X34299999Y-22950000D02*
X27199999Y-22950000D01*
X34299999Y-16400000D02*
X27199999Y-16400000D01*
X32492988Y-17964508D02*
G75*
G02*
X33127999Y-18088000I27011J-1555492D01*
G01*
X33127741Y-20952109D02*
G75*
G02*
X31911999Y-20952000I-607742J1432109D01*
G01*
X31087890Y-20127742D02*
G75*
G02*
X31087999Y-18912000I1432109J607742D01*
G01*
X31912412Y-18088615D02*
G75*
G02*
X32519999Y-17965000I607587J-1431385D01*
G01*
X33952108Y-18912258D02*
G75*
G02*
X33951999Y-20128000I-1432109J-607742D01*
G01*
X30574999Y-19470000D02*
G75*
G03*
X30574999Y-19470000I-1555000J0D01*
G01*
%TO.C,J6*%
X51300000Y-44250000D02*
X51300000Y-45050000D01*
X49375000Y-43500000D02*
X47650000Y-43500000D01*
X47650000Y-45900000D02*
X49375000Y-45900000D01*
X47450000Y-45050000D02*
X47650000Y-45050000D01*
X47650000Y-43500000D02*
X47650000Y-44250000D01*
X51100000Y-45050000D02*
X51100000Y-45900000D01*
X51100000Y-45900000D02*
X49375000Y-45900000D01*
X47450000Y-44250000D02*
X47450000Y-45050000D01*
X51610000Y-42990000D02*
X47140000Y-42990000D01*
X47650000Y-45050000D02*
X47650000Y-45900000D01*
X51300000Y-45050000D02*
X51100000Y-45050000D01*
X47140000Y-46410000D02*
X51610000Y-46410000D01*
X47650000Y-44250000D02*
X47450000Y-44250000D01*
X47140000Y-42990000D02*
X47140000Y-46410000D01*
X49375000Y-43500000D02*
X51100000Y-43500000D01*
X51610000Y-46410000D02*
X51610000Y-42990000D01*
X51100000Y-43500000D02*
X51100000Y-44250000D01*
X51100000Y-44250000D02*
X51300000Y-44250000D01*
%TO.C,C13*%
X27610000Y-57357836D02*
X27610000Y-57142164D01*
X26890000Y-57357836D02*
X26890000Y-57142164D01*
%TO.C,C11*%
X26010000Y-31859420D02*
X26010000Y-32140580D01*
X24990000Y-31859420D02*
X24990000Y-32140580D01*
%TO.C,J2*%
X52450000Y-42300000D02*
X52450000Y-35200000D01*
X45550000Y-42300000D02*
X52450000Y-42300000D01*
X45550000Y-42300000D02*
X45550000Y-35200000D01*
X52100000Y-42300000D02*
X52100000Y-35200000D01*
X50535492Y-40492989D02*
G75*
G02*
X50412000Y-41128000I-1555492J-27011D01*
G01*
X49587742Y-41952109D02*
G75*
G02*
X48372000Y-41952000I-607742J1432109D01*
G01*
X48372258Y-39087891D02*
G75*
G02*
X49588000Y-39088000I607742J-1432109D01*
G01*
X47547891Y-41127742D02*
G75*
G02*
X47548000Y-39912000I1432109J607742D01*
G01*
X50411385Y-39912413D02*
G75*
G02*
X50535000Y-40520000I-1431385J-607587D01*
G01*
X50585000Y-37020000D02*
G75*
G03*
X50585000Y-37020000I-1555000J0D01*
G01*
%TO.C,R20*%
X28630000Y-81356359D02*
X28630000Y-81663641D01*
X27870000Y-81356359D02*
X27870000Y-81663641D01*
%TO.C,J11*%
X41300000Y-22950000D02*
X34200000Y-22950000D01*
X41300000Y-16400000D02*
X34200000Y-16400000D01*
X41300000Y-16050000D02*
X34200000Y-16050000D01*
X41300000Y-22950000D02*
X41300000Y-16050000D01*
X39492989Y-17964508D02*
G75*
G02*
X40128000Y-18088000I27011J-1555492D01*
G01*
X40127742Y-20952109D02*
G75*
G02*
X38912000Y-20952000I-607742J1432109D01*
G01*
X40952109Y-18912258D02*
G75*
G02*
X40952000Y-20128000I-1432109J-607742D01*
G01*
X38912413Y-18088615D02*
G75*
G02*
X39520000Y-17965000I607587J-1431385D01*
G01*
X38087891Y-20127742D02*
G75*
G02*
X38088000Y-18912000I1432109J607742D01*
G01*
X37575000Y-19470000D02*
G75*
G03*
X37575000Y-19470000I-1555000J0D01*
G01*
%TO.C,R13*%
X20380000Y-54403641D02*
X20380000Y-54096359D01*
X19620000Y-54403641D02*
X19620000Y-54096359D01*
%TO.C,R23*%
X39630000Y-24096359D02*
X39630000Y-24403641D01*
X38870000Y-24096359D02*
X38870000Y-24403641D01*
%TO.C,R22*%
X28870000Y-24096359D02*
X28870000Y-24403641D01*
X29630000Y-24096359D02*
X29630000Y-24403641D01*
%TO.C,J8*%
X22950000Y-42300000D02*
X16050000Y-42300000D01*
X16050000Y-35200000D02*
X16050000Y-42300000D01*
X16400000Y-35200000D02*
X16400000Y-42300000D01*
X22950000Y-35200000D02*
X22950000Y-42300000D01*
X18912258Y-35547891D02*
G75*
G02*
X20128000Y-35548000I607742J-1432109D01*
G01*
X20952109Y-36372258D02*
G75*
G02*
X20952000Y-37588000I-1432109J-607742D01*
G01*
X20127742Y-38412109D02*
G75*
G02*
X18912000Y-38412000I-607742J1432109D01*
G01*
X17964508Y-37007011D02*
G75*
G02*
X18088000Y-36372000I1555492J27011D01*
G01*
X18088615Y-37587587D02*
G75*
G02*
X17965000Y-36980000I1431385J607587D01*
G01*
X21025000Y-40480000D02*
G75*
G03*
X21025000Y-40480000I-1555000J0D01*
G01*
D13*
%TO.C,D6*%
X42550000Y-89850000D02*
G75*
G03*
X42550000Y-89850000I-50000J0D01*
G01*
D12*
%TO.C,J3*%
X45550000Y-28200000D02*
X52450000Y-28200000D01*
X52450000Y-35300000D02*
X52450000Y-28200000D01*
X45550000Y-35300000D02*
X45550000Y-28200000D01*
X52100000Y-35300000D02*
X52100000Y-28200000D01*
X49587742Y-34952109D02*
G75*
G02*
X48372000Y-34952000I-607742J1432109D01*
G01*
X48372258Y-32087891D02*
G75*
G02*
X49588000Y-32088000I607742J-1432109D01*
G01*
X50535492Y-33492989D02*
G75*
G02*
X50412000Y-34128000I-1555492J-27011D01*
G01*
X50411385Y-32912413D02*
G75*
G02*
X50535000Y-33520000I-1431385J-607587D01*
G01*
X47547891Y-34127742D02*
G75*
G02*
X47548000Y-32912000I1432109J607742D01*
G01*
X50585000Y-30020000D02*
G75*
G03*
X50585000Y-30020000I-1555000J0D01*
G01*
%TO.C,R15*%
X40870000Y-24393641D02*
X40870000Y-24086359D01*
X41630000Y-24393641D02*
X41630000Y-24086359D01*
%TO.C,R7*%
X32869999Y-40753641D02*
X32869999Y-40446359D01*
X33629999Y-40753641D02*
X33629999Y-40446359D01*
%TO.C,R45*%
X18380000Y-54096359D02*
X18380000Y-54403641D01*
X17620000Y-54096359D02*
X17620000Y-54403641D01*
%TO.C,R25*%
X38870000Y-81663641D02*
X38870000Y-81356359D01*
X39630000Y-81663641D02*
X39630000Y-81356359D01*
D13*
%TO.C,D5*%
X26050000Y-89850000D02*
G75*
G03*
X26050000Y-89850000I-50000J0D01*
G01*
D12*
%TO.C,C21*%
X27390000Y-63607836D02*
X27390000Y-63392164D01*
X28110000Y-63607836D02*
X28110000Y-63392164D01*
%TO.C,R2*%
X33630000Y-42346359D02*
X33630000Y-42653641D01*
X32870000Y-42346359D02*
X32870000Y-42653641D01*
%TO.C,R26*%
X29870000Y-24403641D02*
X29870000Y-24096359D01*
X30630000Y-24403641D02*
X30630000Y-24096359D01*
D13*
%TO.C,D4*%
X42550000Y-15910000D02*
G75*
G03*
X42550000Y-15910000I-50000J0D01*
G01*
D12*
%TO.C,J5*%
X37110000Y-39260000D02*
X37110000Y-35840000D01*
X31900000Y-37200000D02*
X31900000Y-36350000D01*
X31900000Y-36350000D02*
X34250000Y-36350000D01*
X31390000Y-35840000D02*
X31390000Y-39260000D01*
X36600000Y-38750000D02*
X36600000Y-38000000D01*
X34250000Y-38750000D02*
X31900000Y-38750000D01*
X31900000Y-38000000D02*
X31700000Y-38000000D01*
X31390000Y-39260000D02*
X37110000Y-39260000D01*
X36800000Y-37200000D02*
X36600000Y-37200000D01*
X31700000Y-37200000D02*
X31900000Y-37200000D01*
X37110000Y-35840000D02*
X31390000Y-35840000D01*
X31900000Y-38750000D02*
X31900000Y-38000000D01*
X36600000Y-37200000D02*
X36600000Y-36350000D01*
X36600000Y-36350000D02*
X34250000Y-36350000D01*
X36800000Y-38000000D02*
X36800000Y-37200000D01*
X34250000Y-38750000D02*
X36600000Y-38750000D01*
X31700000Y-38000000D02*
X31700000Y-37200000D01*
X36600000Y-38000000D02*
X36800000Y-38000000D01*
%TO.C,J7*%
X16400000Y-28200000D02*
X16400000Y-35300000D01*
X22950000Y-28200000D02*
X16050000Y-28200000D01*
X22950000Y-28200000D02*
X22950000Y-35300000D01*
X16050000Y-28200000D02*
X16050000Y-35300000D01*
X18912258Y-28547891D02*
G75*
G02*
X20128000Y-28548000I607742J-1432109D01*
G01*
X20952109Y-29372258D02*
G75*
G02*
X20952000Y-30588000I-1432109J-607742D01*
G01*
X18088615Y-30587587D02*
G75*
G02*
X17965000Y-29980000I1431385J607587D01*
G01*
X20127742Y-31412109D02*
G75*
G02*
X18912000Y-31412000I-607742J1432109D01*
G01*
X17964508Y-30007011D02*
G75*
G02*
X18088000Y-29372000I1555492J27011D01*
G01*
X21025000Y-33480000D02*
G75*
G03*
X21025000Y-33480000I-1555000J0D01*
G01*
%TO.C,R30*%
X43180000Y-44503641D02*
X43180000Y-44196359D01*
X42420000Y-44503641D02*
X42420000Y-44196359D01*
%TO.C,R19*%
X40630000Y-24403641D02*
X40630000Y-24096359D01*
X39870000Y-24403641D02*
X39870000Y-24096359D01*
%TD*%
M02*
