%FSLAX45Y45*%
G04 Gerber Fmt 4.5, Leading zero omitted, Abs format (unit mm)*
G04 Created by KiCad (PCBNEW (5.99.0-7167-g34dbce6bce)) date 2021-01-04 09:36:02*
%MOMM*%
%LPD*%
G01*
G04 APERTURE LIST*
%TA.AperFunction,Profile*%
%ADD10C,0.100000*%
%TD*%
%ADD11C,0.200000*%
%ADD12C,0.020000*%
%ADD13C,0.030000*%
%ADD14C,0.050000*%
%ADD15C,0.060000*%
%ADD16C,0.120000*%
%ADD17C,0.320000*%
G04 APERTURE END LIST*
D10*
X1925000Y-1575000D02*
X4925000Y-1575000D01*
X1575000Y-8651000D02*
G75*
G03*
X1925000Y-9001000I350000J0D01*
G01*
X5275000Y-1925000D02*
X5275000Y-8651000D01*
X1925000Y-1575000D02*
G75*
G03*
X1575000Y-1925000I0J-350000D01*
G01*
X4925000Y-1575000D02*
G75*
G02*
X5275000Y-1925000I0J-350000D01*
G01*
X5275000Y-8651000D02*
G75*
G02*
X4925000Y-9001000I-350000J0D01*
G01*
X1575000Y-8651000D02*
X1575000Y-1925000D01*
X4925000Y-9001000D02*
X1925000Y-9001000D01*
D11*
D12*
X1890000Y-4965000D02*
X1910000Y-4985000D01*
X1910000Y-4965000D02*
X1890000Y-4985000D01*
X1960000Y-4965000D02*
X1980000Y-4985000D01*
X1980000Y-4965000D02*
X1960000Y-4985000D01*
X1995000Y-5245000D02*
X2015000Y-5265000D01*
X2015000Y-5245000D02*
X1995000Y-5265000D01*
X1995000Y-5625000D02*
X2015000Y-5645000D01*
X2015000Y-5625000D02*
X1995000Y-5645000D01*
X1995000Y-5705000D02*
X2015000Y-5725000D01*
X2015000Y-5705000D02*
X1995000Y-5725000D01*
X1995000Y-5905000D02*
X2015000Y-5925000D01*
X2015000Y-5905000D02*
X1995000Y-5925000D01*
X2065000Y-2940000D02*
X2085000Y-2960000D01*
X2085000Y-2940000D02*
X2065000Y-2960000D01*
X2065000Y-3015000D02*
X2085000Y-3035000D01*
X2085000Y-3015000D02*
X2065000Y-3035000D01*
X2065000Y-3090000D02*
X2085000Y-3110000D01*
X2085000Y-3090000D02*
X2065000Y-3110000D01*
X2090000Y-4965000D02*
X2110000Y-4985000D01*
X2110000Y-4965000D02*
X2090000Y-4985000D01*
X2115000Y-6440000D02*
X2135000Y-6460000D01*
X2135000Y-6440000D02*
X2115000Y-6460000D01*
X2128500Y-5328500D02*
X2148500Y-5348500D01*
X2148500Y-5328500D02*
X2128500Y-5348500D01*
X2140000Y-3015000D02*
X2160000Y-3035000D01*
X2160000Y-3015000D02*
X2140000Y-3035000D01*
X2140000Y-3090000D02*
X2160000Y-3110000D01*
X2160000Y-3090000D02*
X2140000Y-3110000D01*
X2150000Y-5460000D02*
X2170000Y-5480000D01*
X2170000Y-5460000D02*
X2150000Y-5480000D01*
X2150000Y-5865000D02*
X2170000Y-5885000D01*
X2170000Y-5865000D02*
X2150000Y-5885000D01*
X2160000Y-4965000D02*
X2180000Y-4985000D01*
X2180000Y-4965000D02*
X2160000Y-4985000D01*
X2215000Y-3015000D02*
X2235000Y-3035000D01*
X2235000Y-3015000D02*
X2215000Y-3035000D01*
X2215000Y-3090000D02*
X2235000Y-3110000D01*
X2235000Y-3090000D02*
X2215000Y-3110000D01*
X2290000Y-3090000D02*
X2310000Y-3110000D01*
X2310000Y-3090000D02*
X2290000Y-3110000D01*
X2340000Y-2515000D02*
X2360000Y-2535000D01*
X2360000Y-2515000D02*
X2340000Y-2535000D01*
X2344500Y-4960500D02*
X2364500Y-4980500D01*
X2364500Y-4960500D02*
X2344500Y-4980500D01*
X2365000Y-6540000D02*
X2385000Y-6560000D01*
X2385000Y-6540000D02*
X2365000Y-6560000D01*
X2370000Y-5490000D02*
X2390000Y-5510000D01*
X2390000Y-5490000D02*
X2370000Y-5510000D01*
X2390000Y-3345000D02*
X2410000Y-3365000D01*
X2410000Y-3345000D02*
X2390000Y-3365000D01*
X2415000Y-2515000D02*
X2435000Y-2535000D01*
X2435000Y-2515000D02*
X2415000Y-2535000D01*
X2415000Y-5220000D02*
X2435000Y-5240000D01*
X2435000Y-5220000D02*
X2415000Y-5240000D01*
X2430002Y-5124998D02*
X2450002Y-5144998D01*
X2450002Y-5124998D02*
X2430002Y-5144998D01*
X2440000Y-8041000D02*
X2460000Y-8061000D01*
X2460000Y-8041000D02*
X2440000Y-8061000D01*
X2440000Y-5330000D02*
X2460000Y-5350000D01*
X2460000Y-5330000D02*
X2440000Y-5350000D01*
X2490000Y-2515000D02*
X2510000Y-2535000D01*
X2510000Y-2515000D02*
X2490000Y-2535000D01*
X2515000Y-8041000D02*
X2535000Y-8061000D01*
X2535000Y-8041000D02*
X2515000Y-8061000D01*
X2515000Y-1640000D02*
X2535000Y-1660000D01*
X2535000Y-1640000D02*
X2515000Y-1660000D01*
X2517000Y-2842000D02*
X2537000Y-2862000D01*
X2537000Y-2842000D02*
X2517000Y-2862000D01*
X2535000Y-8911000D02*
X2555000Y-8931000D01*
X2555000Y-8911000D02*
X2535000Y-8931000D01*
X2540000Y-3345000D02*
X2560000Y-3365000D01*
X2560000Y-3345000D02*
X2540000Y-3365000D01*
X2548500Y-4956500D02*
X2568500Y-4976500D01*
X2568500Y-4956500D02*
X2548500Y-4976500D01*
X2555000Y-5765000D02*
X2575000Y-5785000D01*
X2575000Y-5765000D02*
X2555000Y-5785000D01*
X2562000Y-4525000D02*
X2582000Y-4545000D01*
X2582000Y-4525000D02*
X2562000Y-4545000D01*
X2590000Y-8041000D02*
X2610000Y-8061000D01*
X2610000Y-8041000D02*
X2590000Y-8061000D01*
X2615000Y-2840000D02*
X2635000Y-2860000D01*
X2635000Y-2840000D02*
X2615000Y-2860000D01*
X2640000Y-2140000D02*
X2660000Y-2160000D01*
X2660000Y-2140000D02*
X2640000Y-2160000D01*
X2640000Y-2215000D02*
X2660000Y-2235000D01*
X2660000Y-2215000D02*
X2640000Y-2235000D01*
X2640000Y-2290000D02*
X2660000Y-2310000D01*
X2660000Y-2290000D02*
X2640000Y-2310000D01*
X2640000Y-8266000D02*
X2660000Y-8286000D01*
X2660000Y-8266000D02*
X2640000Y-8286000D01*
X2640000Y-8341000D02*
X2660000Y-8361000D01*
X2660000Y-8341000D02*
X2640000Y-8361000D01*
X2640000Y-8416000D02*
X2660000Y-8436000D01*
X2660000Y-8416000D02*
X2640000Y-8436000D01*
X2665000Y-5465000D02*
X2685000Y-5485000D01*
X2685000Y-5465000D02*
X2665000Y-5485000D01*
X2690000Y-3345000D02*
X2710000Y-3365000D01*
X2710000Y-3345000D02*
X2690000Y-3365000D01*
X2701000Y-6350000D02*
X2721000Y-6370000D01*
X2721000Y-6350000D02*
X2701000Y-6370000D01*
X2715000Y-1990000D02*
X2735000Y-2010000D01*
X2735000Y-1990000D02*
X2715000Y-2010000D01*
X2715000Y-2065000D02*
X2735000Y-2085000D01*
X2735000Y-2065000D02*
X2715000Y-2085000D01*
X2715000Y-2140000D02*
X2735000Y-2160000D01*
X2735000Y-2140000D02*
X2715000Y-2160000D01*
X2715000Y-2215000D02*
X2735000Y-2235000D01*
X2735000Y-2215000D02*
X2715000Y-2235000D01*
X2715000Y-2840000D02*
X2735000Y-2860000D01*
X2735000Y-2840000D02*
X2715000Y-2860000D01*
X2715000Y-8341000D02*
X2735000Y-8361000D01*
X2735000Y-8341000D02*
X2715000Y-8361000D01*
X2715000Y-8416000D02*
X2735000Y-8436000D01*
X2735000Y-8416000D02*
X2715000Y-8436000D01*
X2715000Y-8491000D02*
X2735000Y-8511000D01*
X2735000Y-8491000D02*
X2715000Y-8511000D01*
X2715000Y-8566000D02*
X2735000Y-8586000D01*
X2735000Y-8566000D02*
X2715000Y-8586000D01*
X2740000Y-4700000D02*
X2760000Y-4720000D01*
X2760000Y-4700000D02*
X2740000Y-4720000D01*
X2740000Y-4765000D02*
X2760000Y-4785000D01*
X2760000Y-4765000D02*
X2740000Y-4785000D01*
X2740000Y-4830001D02*
X2760000Y-4850001D01*
X2760000Y-4830001D02*
X2740000Y-4850001D01*
X2740000Y-4895001D02*
X2760000Y-4915001D01*
X2760000Y-4895001D02*
X2740000Y-4915001D01*
X2790000Y-2065000D02*
X2810000Y-2085000D01*
X2810000Y-2065000D02*
X2790000Y-2085000D01*
X2790000Y-2140000D02*
X2810000Y-2160000D01*
X2810000Y-2140000D02*
X2790000Y-2160000D01*
X2790000Y-6565000D02*
X2810000Y-6585000D01*
X2810000Y-6565000D02*
X2790000Y-6585000D01*
X2790000Y-8416000D02*
X2810000Y-8436000D01*
X2810000Y-8416000D02*
X2790000Y-8436000D01*
X2790000Y-8491000D02*
X2810000Y-8511000D01*
X2810000Y-8491000D02*
X2790000Y-8511000D01*
X2792000Y-6237000D02*
X2812000Y-6257000D01*
X2812000Y-6237000D02*
X2792000Y-6257000D01*
X2819000Y-5029800D02*
X2839000Y-5049800D01*
X2839000Y-5029800D02*
X2819000Y-5049800D01*
X2890000Y-3815000D02*
X2910000Y-3835000D01*
X2910000Y-3815000D02*
X2890000Y-3835000D01*
X2890000Y-3915000D02*
X2910000Y-3935000D01*
X2910000Y-3915000D02*
X2890000Y-3935000D01*
X2890000Y-6565000D02*
X2910000Y-6585000D01*
X2910000Y-6565000D02*
X2890000Y-6585000D01*
X2937000Y-5038000D02*
X2957000Y-5058000D01*
X2957000Y-5038000D02*
X2937000Y-5058000D01*
X2985688Y-6350000D02*
X3005688Y-6370000D01*
X3005688Y-6350000D02*
X2985688Y-6370000D01*
X3043000Y-5792000D02*
X3063000Y-5812000D01*
X3063000Y-5792000D02*
X3043000Y-5812000D01*
X3045000Y-5885000D02*
X3065000Y-5905000D01*
X3065000Y-5885000D02*
X3045000Y-5905000D01*
X3090000Y-6565000D02*
X3110000Y-6585000D01*
X3110000Y-6565000D02*
X3090000Y-6585000D01*
X3107045Y-5494921D02*
X3127045Y-5514921D01*
X3127045Y-5494921D02*
X3107045Y-5514921D01*
X3120000Y-5120000D02*
X3140000Y-5140000D01*
X3140000Y-5120000D02*
X3120000Y-5140000D01*
X3166000Y-6235000D02*
X3186000Y-6255000D01*
X3186000Y-6235000D02*
X3166000Y-6255000D01*
X3178000Y-5155000D02*
X3198000Y-5175000D01*
X3198000Y-5155000D02*
X3178000Y-5175000D01*
X3181000Y-2780000D02*
X3201000Y-2800000D01*
X3201000Y-2780000D02*
X3181000Y-2800000D01*
X3190000Y-5700000D02*
X3210000Y-5720000D01*
X3210000Y-5700000D02*
X3190000Y-5720000D01*
X3190000Y-6490000D02*
X3210000Y-6510000D01*
X3210000Y-6490000D02*
X3190000Y-6510000D01*
X3215000Y-3025000D02*
X3235000Y-3045000D01*
X3235000Y-3025000D02*
X3215000Y-3045000D01*
X3265000Y-3255000D02*
X3285000Y-3275000D01*
X3285000Y-3255000D02*
X3265000Y-3275000D01*
X3278000Y-6971000D02*
X3298000Y-6991000D01*
X3298000Y-6971000D02*
X3278000Y-6991000D01*
X3308552Y-5655448D02*
X3328552Y-5675448D01*
X3328552Y-5655448D02*
X3308552Y-5675448D01*
X3325000Y-3185000D02*
X3345000Y-3205000D01*
X3345000Y-3185000D02*
X3325000Y-3205000D01*
X3364000Y-6403000D02*
X3384000Y-6423000D01*
X3384000Y-6403000D02*
X3364000Y-6423000D01*
X3365000Y-2740000D02*
X3385000Y-2760000D01*
X3385000Y-2740000D02*
X3365000Y-2760000D01*
X3365000Y-2810000D02*
X3385000Y-2830000D01*
X3385000Y-2810000D02*
X3365000Y-2830000D01*
X3385000Y-3150000D02*
X3405000Y-3170000D01*
X3405000Y-3150000D02*
X3385000Y-3170000D01*
X3389971Y-5708082D02*
X3409971Y-5728082D01*
X3409971Y-5708082D02*
X3389971Y-5728082D01*
X3391000Y-6686000D02*
X3411000Y-6706000D01*
X3411000Y-6686000D02*
X3391000Y-6706000D01*
X3415000Y-2440000D02*
X3435000Y-2460000D01*
X3435000Y-2440000D02*
X3415000Y-2460000D01*
X3415000Y-8116000D02*
X3435000Y-8136000D01*
X3435000Y-8116000D02*
X3415000Y-8136000D01*
X3437500Y-4885000D02*
X3457500Y-4905000D01*
X3457500Y-4885000D02*
X3437500Y-4905000D01*
X3448609Y-4701391D02*
X3468609Y-4721391D01*
X3468609Y-4701391D02*
X3448609Y-4721391D01*
X3456000Y-5656000D02*
X3476000Y-5676000D01*
X3476000Y-5656000D02*
X3456000Y-5676000D01*
X3468000Y-6232000D02*
X3488000Y-6252000D01*
X3488000Y-6232000D02*
X3468000Y-6252000D01*
X3487500Y-4818514D02*
X3507500Y-4838514D01*
X3507500Y-4818514D02*
X3487500Y-4838514D01*
X3495000Y-3085000D02*
X3515000Y-3105000D01*
X3515000Y-3085000D02*
X3495000Y-3105000D01*
X3496109Y-4748891D02*
X3516109Y-4768891D01*
X3516109Y-4748891D02*
X3496109Y-4768891D01*
X3515000Y-3945000D02*
X3535000Y-3965000D01*
X3535000Y-3945000D02*
X3515000Y-3965000D01*
X3532000Y-6540000D02*
X3552000Y-6560000D01*
X3552000Y-6540000D02*
X3532000Y-6560000D01*
X3537123Y-3237123D02*
X3557123Y-3257123D01*
X3557123Y-3237123D02*
X3537123Y-3257123D01*
X3596000Y-4291000D02*
X3616000Y-4311000D01*
X3616000Y-4291000D02*
X3596000Y-4311000D01*
X3610000Y-2945000D02*
X3630000Y-2965000D01*
X3630000Y-2945000D02*
X3610000Y-2965000D01*
X3610000Y-3025000D02*
X3630000Y-3045000D01*
X3630000Y-3025000D02*
X3610000Y-3045000D01*
X3620000Y-3200000D02*
X3640000Y-3220000D01*
X3640000Y-3200000D02*
X3620000Y-3220000D01*
X3620000Y-3270000D02*
X3640000Y-3290000D01*
X3640000Y-3270000D02*
X3620000Y-3290000D01*
X3620000Y-3340000D02*
X3640000Y-3360000D01*
X3640000Y-3340000D02*
X3620000Y-3360000D01*
X3620000Y-3410000D02*
X3640000Y-3430000D01*
X3640000Y-3410000D02*
X3620000Y-3430000D01*
X3620000Y-3480000D02*
X3640000Y-3500000D01*
X3640000Y-3480000D02*
X3620000Y-3500000D01*
X3621000Y-5480000D02*
X3641000Y-5500000D01*
X3641000Y-5480000D02*
X3621000Y-5500000D01*
X3644000Y-6091000D02*
X3664000Y-6111000D01*
X3664000Y-6091000D02*
X3644000Y-6111000D01*
X3652691Y-6190000D02*
X3672691Y-6210000D01*
X3672691Y-6190000D02*
X3652691Y-6210000D01*
X3667000Y-6452000D02*
X3687000Y-6472000D01*
X3687000Y-6452000D02*
X3667000Y-6472000D01*
X3676000Y-5437000D02*
X3696000Y-5457000D01*
X3696000Y-5437000D02*
X3676000Y-5457000D01*
X3680000Y-2945000D02*
X3700000Y-2965000D01*
X3700000Y-2945000D02*
X3680000Y-2965000D01*
X3690000Y-3265000D02*
X3710000Y-3285000D01*
X3710000Y-3265000D02*
X3690000Y-3285000D01*
X3730000Y-5387000D02*
X3750000Y-5407000D01*
X3750000Y-5387000D02*
X3730000Y-5407000D01*
X3760000Y-2950000D02*
X3780000Y-2970000D01*
X3780000Y-2950000D02*
X3760000Y-2970000D01*
X3801500Y-5926500D02*
X3821500Y-5946500D01*
X3821500Y-5926500D02*
X3801500Y-5946500D01*
X3840000Y-5745000D02*
X3860000Y-5765000D01*
X3860000Y-5745000D02*
X3840000Y-5765000D01*
X3898000Y-4942000D02*
X3918000Y-4962000D01*
X3918000Y-4942000D02*
X3898000Y-4962000D01*
X3900000Y-5035000D02*
X3920000Y-5055000D01*
X3920000Y-5035000D02*
X3900000Y-5055000D01*
X3965000Y-2065000D02*
X3985000Y-2085000D01*
X3985000Y-2065000D02*
X3965000Y-2085000D01*
X4040000Y-2065000D02*
X4060000Y-2085000D01*
X4060000Y-2065000D02*
X4040000Y-2085000D01*
X4040000Y-2140000D02*
X4060000Y-2160000D01*
X4060000Y-2140000D02*
X4040000Y-2160000D01*
X4040000Y-8416000D02*
X4060000Y-8436000D01*
X4060000Y-8416000D02*
X4040000Y-8436000D01*
X4040000Y-8490000D02*
X4060000Y-8510000D01*
X4060000Y-8490000D02*
X4040000Y-8510000D01*
X4064000Y-6237000D02*
X4084000Y-6257000D01*
X4084000Y-6237000D02*
X4064000Y-6257000D01*
X4067000Y-6445000D02*
X4087000Y-6465000D01*
X4087000Y-6445000D02*
X4067000Y-6465000D01*
X4115000Y-1990000D02*
X4135000Y-2010000D01*
X4135000Y-1990000D02*
X4115000Y-2010000D01*
X4115000Y-2065000D02*
X4135000Y-2085000D01*
X4135000Y-2065000D02*
X4115000Y-2085000D01*
X4115000Y-2140000D02*
X4135000Y-2160000D01*
X4135000Y-2140000D02*
X4115000Y-2160000D01*
X4115000Y-2215000D02*
X4135000Y-2235000D01*
X4135000Y-2215000D02*
X4115000Y-2235000D01*
X4115000Y-8341000D02*
X4135000Y-8361000D01*
X4135000Y-8341000D02*
X4115000Y-8361000D01*
X4115000Y-8416000D02*
X4135000Y-8436000D01*
X4135000Y-8416000D02*
X4115000Y-8436000D01*
X4115000Y-8490000D02*
X4135000Y-8510000D01*
X4135000Y-8490000D02*
X4115000Y-8510000D01*
X4115000Y-8565000D02*
X4135000Y-8585000D01*
X4135000Y-8565000D02*
X4115000Y-8585000D01*
X4155000Y-5085000D02*
X4175000Y-5105000D01*
X4175000Y-5085000D02*
X4155000Y-5105000D01*
X4178000Y-5686000D02*
X4198000Y-5706000D01*
X4198000Y-5686000D02*
X4178000Y-5706000D01*
X4190000Y-2140000D02*
X4210000Y-2160000D01*
X4210000Y-2140000D02*
X4190000Y-2160000D01*
X4190000Y-2215000D02*
X4210000Y-2235000D01*
X4210000Y-2215000D02*
X4190000Y-2235000D01*
X4190000Y-2290000D02*
X4210000Y-2310000D01*
X4210000Y-2290000D02*
X4190000Y-2310000D01*
X4190000Y-8266000D02*
X4210000Y-8286000D01*
X4210000Y-8266000D02*
X4190000Y-8286000D01*
X4190000Y-8341000D02*
X4210000Y-8361000D01*
X4210000Y-8341000D02*
X4190000Y-8361000D01*
X4190000Y-8416000D02*
X4210000Y-8436000D01*
X4210000Y-8416000D02*
X4190000Y-8436000D01*
X4198000Y-3750000D02*
X4218000Y-3770000D01*
X4218000Y-3750000D02*
X4198000Y-3770000D01*
X4204564Y-3019283D02*
X4224564Y-3039283D01*
X4224564Y-3019283D02*
X4204564Y-3039283D01*
X4240000Y-2515000D02*
X4260000Y-2535000D01*
X4260000Y-2515000D02*
X4240000Y-2535000D01*
X4270000Y-4549000D02*
X4290000Y-4569000D01*
X4290000Y-4549000D02*
X4270000Y-4569000D01*
X4300000Y-8911000D02*
X4320000Y-8931000D01*
X4320000Y-8911000D02*
X4300000Y-8931000D01*
X4315000Y-1640000D02*
X4335000Y-1660000D01*
X4335000Y-1640000D02*
X4315000Y-1660000D01*
X4315000Y-2515000D02*
X4335000Y-2535000D01*
X4335000Y-2515000D02*
X4315000Y-2535000D01*
X4335000Y-3015000D02*
X4355000Y-3035000D01*
X4355000Y-3015000D02*
X4335000Y-3035000D01*
X4340000Y-3285000D02*
X4360000Y-3305000D01*
X4360000Y-3285000D02*
X4340000Y-3305000D01*
X4340000Y-8046000D02*
X4360000Y-8066000D01*
X4360000Y-8046000D02*
X4340000Y-8066000D01*
X4390000Y-2515000D02*
X4410000Y-2535000D01*
X4410000Y-2515000D02*
X4390000Y-2535000D01*
X4390000Y-4340000D02*
X4410000Y-4360000D01*
X4410000Y-4340000D02*
X4390000Y-4360000D01*
X4390499Y-5415084D02*
X4410499Y-5435084D01*
X4410499Y-5415084D02*
X4390499Y-5435084D01*
X4405000Y-3015000D02*
X4425000Y-3035000D01*
X4425000Y-3015000D02*
X4405000Y-3035000D01*
X4415000Y-8046000D02*
X4435000Y-8066000D01*
X4435000Y-8046000D02*
X4415000Y-8066000D01*
X4475000Y-3015000D02*
X4495000Y-3035000D01*
X4495000Y-3015000D02*
X4475000Y-3035000D01*
X4490000Y-8046000D02*
X4510000Y-8066000D01*
X4510000Y-8046000D02*
X4490000Y-8066000D01*
X4515000Y-3390000D02*
X4535000Y-3410000D01*
X4535000Y-3390000D02*
X4515000Y-3410000D01*
X4515000Y-3465000D02*
X4535000Y-3485000D01*
X4535000Y-3465000D02*
X4515000Y-3485000D01*
X4515000Y-3565000D02*
X4535000Y-3585000D01*
X4535000Y-3565000D02*
X4515000Y-3585000D01*
X4515000Y-3640000D02*
X4535000Y-3660000D01*
X4535000Y-3640000D02*
X4515000Y-3660000D01*
X4525000Y-3215000D02*
X4545000Y-3235000D01*
X4545000Y-3215000D02*
X4525000Y-3235000D01*
X4590000Y-3315000D02*
X4610000Y-3335000D01*
X4610000Y-3315000D02*
X4590000Y-3335000D01*
X4590000Y-3390000D02*
X4610000Y-3410000D01*
X4610000Y-3390000D02*
X4590000Y-3410000D01*
X4590000Y-3465000D02*
X4610000Y-3485000D01*
X4610000Y-3465000D02*
X4590000Y-3485000D01*
X4590000Y-3565000D02*
X4610000Y-3585000D01*
X4610000Y-3565000D02*
X4590000Y-3585000D01*
X4590000Y-3640000D02*
X4610000Y-3660000D01*
X4610000Y-3640000D02*
X4590000Y-3660000D01*
X4590000Y-3715000D02*
X4610000Y-3735000D01*
X4610000Y-3715000D02*
X4590000Y-3735000D01*
X4740000Y-3315000D02*
X4760000Y-3335000D01*
X4760000Y-3315000D02*
X4740000Y-3335000D01*
X4740000Y-3390000D02*
X4760000Y-3410000D01*
X4760000Y-3390000D02*
X4740000Y-3410000D01*
X4740000Y-3465000D02*
X4760000Y-3485000D01*
X4760000Y-3465000D02*
X4740000Y-3485000D01*
X4740000Y-3565000D02*
X4760000Y-3585000D01*
X4760000Y-3565000D02*
X4740000Y-3585000D01*
X4740000Y-3640000D02*
X4760000Y-3660000D01*
X4760000Y-3640000D02*
X4740000Y-3660000D01*
X4740000Y-3715000D02*
X4760000Y-3735000D01*
X4760000Y-3715000D02*
X4740000Y-3735000D01*
X3931000Y-2981000D02*
X3951000Y-3001000D01*
X3951000Y-2981000D02*
X3931000Y-3001000D01*
X3931000Y-3099000D02*
X3951000Y-3119000D01*
X3951000Y-3099000D02*
X3931000Y-3119000D01*
X4049000Y-2981000D02*
X4069000Y-3001000D01*
X4069000Y-2981000D02*
X4049000Y-3001000D01*
X4049000Y-3099000D02*
X4069000Y-3119000D01*
X4069000Y-3099000D02*
X4049000Y-3119000D01*
D13*
X2965000Y-3000000D02*
G75*
G03*
X2965000Y-3000000I-15000J0D01*
G01*
X2965000Y-3100000D02*
G75*
G03*
X2965000Y-3100000I-15000J0D01*
G01*
X3015000Y-3050000D02*
G75*
G03*
X3015000Y-3050000I-15000J0D01*
G01*
X3065000Y-3000000D02*
G75*
G03*
X3065000Y-3000000I-15000J0D01*
G01*
X3065000Y-3100000D02*
G75*
G03*
X3065000Y-3100000I-15000J0D01*
G01*
D14*
X4875000Y-4400000D02*
X4875000Y-4450000D01*
X4850000Y-4425000D02*
X4900000Y-4425000D01*
X5000000Y-4400000D02*
X5000000Y-4450000D01*
X4975000Y-4425000D02*
X5025000Y-4425000D01*
X3175000Y-4575000D02*
X3175000Y-4625000D01*
X3150000Y-4600000D02*
X3200000Y-4600000D01*
X3300000Y-4575000D02*
X3300000Y-4625000D01*
X3275000Y-4600000D02*
X3325000Y-4600000D01*
X3425000Y-4575000D02*
X3425000Y-4625000D01*
X3400000Y-4600000D02*
X3450000Y-4600000D01*
X3550000Y-4575000D02*
X3550000Y-4625000D01*
X3525000Y-4600000D02*
X3575000Y-4600000D01*
X3675000Y-4575000D02*
X3675000Y-4625000D01*
X3650000Y-4600000D02*
X3700000Y-4600000D01*
X1800000Y-7875000D02*
X1800000Y-7925000D01*
X1775000Y-7900000D02*
X1825000Y-7900000D01*
X1925000Y-7875000D02*
X1925000Y-7925000D01*
X1900000Y-7900000D02*
X1950000Y-7900000D01*
X2050000Y-7875000D02*
X2050000Y-7925000D01*
X2025000Y-7900000D02*
X2075000Y-7900000D01*
X1850000Y-4400000D02*
X1850000Y-4450000D01*
X1825000Y-4425000D02*
X1875000Y-4425000D01*
X1975000Y-4400000D02*
X1975000Y-4450000D01*
X1950000Y-4425000D02*
X2000000Y-4425000D01*
X1800000Y-7525000D02*
X1800000Y-7575000D01*
X1775000Y-7550000D02*
X1825000Y-7550000D01*
X1925000Y-7525000D02*
X1925000Y-7575000D01*
X1900000Y-7550000D02*
X1950000Y-7550000D01*
X2050000Y-7525000D02*
X2050000Y-7575000D01*
X2025000Y-7550000D02*
X2075000Y-7550000D01*
X4685000Y-1900000D02*
X4685000Y-1950000D01*
X4660000Y-1925000D02*
X4710000Y-1925000D01*
X4755294Y-1730294D02*
X4755294Y-1780294D01*
X4730294Y-1755294D02*
X4780294Y-1755294D01*
X4755294Y-2069706D02*
X4755294Y-2119706D01*
X4730294Y-2094706D02*
X4780294Y-2094706D01*
X4925000Y-1660000D02*
X4925000Y-1710000D01*
X4900000Y-1685000D02*
X4950000Y-1685000D01*
X4925000Y-2140000D02*
X4925000Y-2190000D01*
X4900000Y-2165000D02*
X4950000Y-2165000D01*
X5094706Y-1730294D02*
X5094706Y-1780294D01*
X5069706Y-1755294D02*
X5119706Y-1755294D01*
X5094706Y-2069706D02*
X5094706Y-2119706D01*
X5069706Y-2094706D02*
X5119706Y-2094706D01*
X5165000Y-1900000D02*
X5165000Y-1950000D01*
X5140000Y-1925000D02*
X5190000Y-1925000D01*
X1685000Y-1900000D02*
X1685000Y-1950000D01*
X1660000Y-1925000D02*
X1710000Y-1925000D01*
X1755294Y-1730294D02*
X1755294Y-1780294D01*
X1730294Y-1755294D02*
X1780294Y-1755294D01*
X1755294Y-2069706D02*
X1755294Y-2119706D01*
X1730294Y-2094706D02*
X1780294Y-2094706D01*
X1925000Y-1660000D02*
X1925000Y-1710000D01*
X1900000Y-1685000D02*
X1950000Y-1685000D01*
X1925000Y-2140000D02*
X1925000Y-2190000D01*
X1900000Y-2165000D02*
X1950000Y-2165000D01*
X2094706Y-1730294D02*
X2094706Y-1780294D01*
X2069706Y-1755294D02*
X2119706Y-1755294D01*
X2094706Y-2069706D02*
X2094706Y-2119706D01*
X2069706Y-2094706D02*
X2119706Y-2094706D01*
X2165000Y-1900000D02*
X2165000Y-1950000D01*
X2140000Y-1925000D02*
X2190000Y-1925000D01*
X1800000Y-7175000D02*
X1800000Y-7225000D01*
X1775000Y-7200000D02*
X1825000Y-7200000D01*
X1925000Y-7175000D02*
X1925000Y-7225000D01*
X1900000Y-7200000D02*
X1950000Y-7200000D01*
X2050000Y-7175000D02*
X2050000Y-7225000D01*
X2025000Y-7200000D02*
X2075000Y-7200000D01*
X4685000Y-8626000D02*
X4685000Y-8676000D01*
X4660000Y-8651000D02*
X4710000Y-8651000D01*
X4755294Y-8456294D02*
X4755294Y-8506294D01*
X4730294Y-8481294D02*
X4780294Y-8481294D01*
X4755294Y-8795706D02*
X4755294Y-8845706D01*
X4730294Y-8820706D02*
X4780294Y-8820706D01*
X4925000Y-8386000D02*
X4925000Y-8436000D01*
X4900000Y-8411000D02*
X4950000Y-8411000D01*
X4925000Y-8866000D02*
X4925000Y-8916000D01*
X4900000Y-8891000D02*
X4950000Y-8891000D01*
X5094706Y-8456294D02*
X5094706Y-8506294D01*
X5069706Y-8481294D02*
X5119706Y-8481294D01*
X5094706Y-8795706D02*
X5094706Y-8845706D01*
X5069706Y-8820706D02*
X5119706Y-8820706D01*
X5165000Y-8626000D02*
X5165000Y-8676000D01*
X5140000Y-8651000D02*
X5190000Y-8651000D01*
X3300000Y-3775000D02*
X3300000Y-3825000D01*
X3275000Y-3800000D02*
X3325000Y-3800000D01*
X3425000Y-3775000D02*
X3425000Y-3825000D01*
X3400000Y-3800000D02*
X3450000Y-3800000D01*
X3550000Y-3775000D02*
X3550000Y-3825000D01*
X3525000Y-3800000D02*
X3575000Y-3800000D01*
X1800000Y-6825000D02*
X1800000Y-6875000D01*
X1775000Y-6850000D02*
X1825000Y-6850000D01*
X1925000Y-6825000D02*
X1925000Y-6875000D01*
X1900000Y-6850000D02*
X1950000Y-6850000D01*
X2050000Y-6825000D02*
X2050000Y-6875000D01*
X2025000Y-6850000D02*
X2075000Y-6850000D01*
X1685000Y-8626000D02*
X1685000Y-8676000D01*
X1660000Y-8651000D02*
X1710000Y-8651000D01*
X1755294Y-8456294D02*
X1755294Y-8506294D01*
X1730294Y-8481294D02*
X1780294Y-8481294D01*
X1755294Y-8795706D02*
X1755294Y-8845706D01*
X1730294Y-8820706D02*
X1780294Y-8820706D01*
X1925000Y-8386000D02*
X1925000Y-8436000D01*
X1900000Y-8411000D02*
X1950000Y-8411000D01*
X1925000Y-8866000D02*
X1925000Y-8916000D01*
X1900000Y-8891000D02*
X1950000Y-8891000D01*
X2094706Y-8456294D02*
X2094706Y-8506294D01*
X2069706Y-8481294D02*
X2119706Y-8481294D01*
X2094706Y-8795706D02*
X2094706Y-8845706D01*
X2069706Y-8820706D02*
X2119706Y-8820706D01*
X2165000Y-8626000D02*
X2165000Y-8676000D01*
X2140000Y-8651000D02*
X2190000Y-8651000D01*
D15*
X4610713Y-5014213D02*
X4610713Y-4971787D01*
X4568287Y-4971787D01*
X4568287Y-5014213D01*
X4610713Y-5014213D01*
D11*
X4534500Y-5013000D02*
X4644500Y-5013000D01*
X4534500Y-4973000D02*
X4644500Y-4973000D01*
X4644500Y-5013000D02*
G75*
G03*
X4644500Y-4973000I0J20000D01*
G01*
X4534500Y-4973000D02*
G75*
G03*
X4534500Y-5013000I0J-20000D01*
G01*
D15*
X4610713Y-5878213D02*
X4610713Y-5835787D01*
X4568287Y-5835787D01*
X4568287Y-5878213D01*
X4610713Y-5878213D01*
D11*
X4534500Y-5877000D02*
X4644500Y-5877000D01*
X4534500Y-5837000D02*
X4644500Y-5837000D01*
X4644500Y-5877000D02*
G75*
G03*
X4644500Y-5837000I0J20000D01*
G01*
X4534500Y-5837000D02*
G75*
G03*
X4534500Y-5877000I0J-20000D01*
G01*
D15*
X5028713Y-5014213D02*
X5028713Y-4971787D01*
X4986287Y-4971787D01*
X4986287Y-5014213D01*
X5028713Y-5014213D01*
D11*
X4977500Y-5013000D02*
X5037500Y-5013000D01*
X4977500Y-4973000D02*
X5037500Y-4973000D01*
X5037500Y-5013000D02*
G75*
G03*
X5037500Y-4973000I0J20000D01*
G01*
X4977500Y-4973000D02*
G75*
G03*
X4977500Y-5013000I0J-20000D01*
G01*
D15*
X5028713Y-5878213D02*
X5028713Y-5835787D01*
X4986287Y-5835787D01*
X4986287Y-5878213D01*
X5028713Y-5878213D01*
D11*
X4977500Y-5877000D02*
X5037500Y-5877000D01*
X4977500Y-5837000D02*
X5037500Y-5837000D01*
X5037500Y-5877000D02*
G75*
G03*
X5037500Y-5837000I0J20000D01*
G01*
X4977500Y-5837000D02*
G75*
G03*
X4977500Y-5877000I0J-20000D01*
G01*
D16*
X3600000Y-8686000D02*
X3660000Y-8626000D01*
X3600000Y-8566000D01*
X3540000Y-8626000D01*
X3600000Y-8686000D01*
X3950000Y-8686000D02*
X4010000Y-8626000D01*
X3950000Y-8566000D01*
X3890000Y-8626000D01*
X3950000Y-8686000D01*
X4900000Y-3760000D02*
X4960000Y-3700000D01*
X4900000Y-3640000D01*
X4840000Y-3700000D01*
X4900000Y-3760000D01*
X4900000Y-4110000D02*
X4960000Y-4050000D01*
X4900000Y-3990000D01*
X4840000Y-4050000D01*
X4900000Y-4110000D01*
X1950000Y-3760000D02*
X2010000Y-3700000D01*
X1950000Y-3640000D01*
X1890000Y-3700000D01*
X1950000Y-3760000D01*
X1950000Y-4110000D02*
X2010000Y-4050000D01*
X1950000Y-3990000D01*
X1890000Y-4050000D01*
X1950000Y-4110000D01*
X4900000Y-7560000D02*
X4960000Y-7500000D01*
X4900000Y-7440000D01*
X4840000Y-7500000D01*
X4900000Y-7560000D01*
X4900000Y-7910000D02*
X4960000Y-7850000D01*
X4900000Y-7790000D01*
X4840000Y-7850000D01*
X4900000Y-7910000D01*
X4900000Y-3060000D02*
X4960000Y-3000000D01*
X4900000Y-2940000D01*
X4840000Y-3000000D01*
X4900000Y-3060000D01*
X4900000Y-3410000D02*
X4960000Y-3350000D01*
X4900000Y-3290000D01*
X4840000Y-3350000D01*
X4900000Y-3410000D01*
X2900000Y-2010000D02*
X2960000Y-1950000D01*
X2900000Y-1890000D01*
X2840000Y-1950000D01*
X2900000Y-2010000D01*
X3250000Y-2010000D02*
X3310000Y-1950000D01*
X3250000Y-1890000D01*
X3190000Y-1950000D01*
X3250000Y-2010000D01*
X1950000Y-3060000D02*
X2010000Y-3000000D01*
X1950000Y-2940000D01*
X1890000Y-3000000D01*
X1950000Y-3060000D01*
X1950000Y-3410000D02*
X2010000Y-3350000D01*
X1950000Y-3290000D01*
X1890000Y-3350000D01*
X1950000Y-3410000D01*
X4900000Y-6860000D02*
X4960000Y-6800000D01*
X4900000Y-6740000D01*
X4840000Y-6800000D01*
X4900000Y-6860000D01*
X4900000Y-7210000D02*
X4960000Y-7150000D01*
X4900000Y-7090000D01*
X4840000Y-7150000D01*
X4900000Y-7210000D01*
X3600000Y-2010000D02*
X3660000Y-1950000D01*
X3600000Y-1890000D01*
X3540000Y-1950000D01*
X3600000Y-2010000D01*
X3950000Y-2010000D02*
X4010000Y-1950000D01*
X3950000Y-1890000D01*
X3890000Y-1950000D01*
X3950000Y-2010000D01*
X2900000Y-8686000D02*
X2960000Y-8626000D01*
X2900000Y-8566000D01*
X2840000Y-8626000D01*
X2900000Y-8686000D01*
X3250000Y-8686000D02*
X3310000Y-8626000D01*
X3250000Y-8566000D01*
X3190000Y-8626000D01*
X3250000Y-8686000D01*
D17*
X4765000Y-1765000D02*
X5085000Y-2085000D01*
X5085000Y-1765000D02*
X4765000Y-2085000D01*
X5085000Y-1925000D02*
G75*
G03*
X5085000Y-1925000I-160000J0D01*
G01*
X1765000Y-1765000D02*
X2085000Y-2085000D01*
X2085000Y-1765000D02*
X1765000Y-2085000D01*
X2085000Y-1925000D02*
G75*
G03*
X2085000Y-1925000I-160000J0D01*
G01*
X4765000Y-8491000D02*
X5085000Y-8811000D01*
X5085000Y-8491000D02*
X4765000Y-8811000D01*
X5085000Y-8651000D02*
G75*
G03*
X5085000Y-8651000I-160000J0D01*
G01*
X1765000Y-8491000D02*
X2085000Y-8811000D01*
X2085000Y-8491000D02*
X1765000Y-8811000D01*
X2085000Y-8651000D02*
G75*
G03*
X2085000Y-8651000I-160000J0D01*
G01*
D11*
X1827619Y-9316476D02*
X1827619Y-9116476D01*
X1875238Y-9116476D01*
X1903809Y-9126000D01*
X1922857Y-9145048D01*
X1932381Y-9164095D01*
X1941905Y-9202190D01*
X1941905Y-9230762D01*
X1932381Y-9268857D01*
X1922857Y-9287905D01*
X1903809Y-9306952D01*
X1875238Y-9316476D01*
X1827619Y-9316476D01*
X2027619Y-9316476D02*
X2027619Y-9183143D01*
X2027619Y-9221238D02*
X2037143Y-9202190D01*
X2046667Y-9192667D01*
X2065714Y-9183143D01*
X2084762Y-9183143D01*
X2151429Y-9316476D02*
X2151429Y-9183143D01*
X2151429Y-9116476D02*
X2141905Y-9126000D01*
X2151429Y-9135524D01*
X2160952Y-9126000D01*
X2151429Y-9116476D01*
X2151429Y-9135524D01*
X2275238Y-9316476D02*
X2256190Y-9306952D01*
X2246667Y-9287905D01*
X2246667Y-9116476D01*
X2380000Y-9316476D02*
X2360952Y-9306952D01*
X2351429Y-9287905D01*
X2351429Y-9116476D01*
X2608571Y-9316476D02*
X2608571Y-9116476D01*
X2675238Y-9259333D01*
X2741905Y-9116476D01*
X2741905Y-9316476D01*
X2922857Y-9316476D02*
X2922857Y-9211714D01*
X2913333Y-9192667D01*
X2894286Y-9183143D01*
X2856190Y-9183143D01*
X2837143Y-9192667D01*
X2922857Y-9306952D02*
X2903809Y-9316476D01*
X2856190Y-9316476D01*
X2837143Y-9306952D01*
X2827619Y-9287905D01*
X2827619Y-9268857D01*
X2837143Y-9249810D01*
X2856190Y-9240286D01*
X2903809Y-9240286D01*
X2922857Y-9230762D01*
X3018095Y-9183143D02*
X3018095Y-9383143D01*
X3018095Y-9192667D02*
X3037143Y-9183143D01*
X3075238Y-9183143D01*
X3094286Y-9192667D01*
X3103809Y-9202190D01*
X3113333Y-9221238D01*
X3113333Y-9278381D01*
X3103809Y-9297429D01*
X3094286Y-9306952D01*
X3075238Y-9316476D01*
X3037143Y-9316476D01*
X3018095Y-9306952D01*
X3199048Y-9297429D02*
X3208571Y-9306952D01*
X3199048Y-9316476D01*
X3189524Y-9306952D01*
X3199048Y-9297429D01*
X3199048Y-9316476D01*
X3199048Y-9192667D02*
X3208571Y-9202190D01*
X3199048Y-9211714D01*
X3189524Y-9202190D01*
X3199048Y-9192667D01*
X3199048Y-9211714D01*
D12*
X1550000Y-9636000D02*
X1570000Y-9656000D01*
X1570000Y-9636000D02*
X1550000Y-9656000D01*
D11*
X1865714Y-9536476D02*
X1884762Y-9536476D01*
X1903809Y-9546000D01*
X1913333Y-9555524D01*
X1922857Y-9574571D01*
X1932381Y-9612667D01*
X1932381Y-9660286D01*
X1922857Y-9698381D01*
X1913333Y-9717429D01*
X1903809Y-9726952D01*
X1884762Y-9736476D01*
X1865714Y-9736476D01*
X1846667Y-9726952D01*
X1837143Y-9717429D01*
X1827619Y-9698381D01*
X1818095Y-9660286D01*
X1818095Y-9612667D01*
X1827619Y-9574571D01*
X1837143Y-9555524D01*
X1846667Y-9546000D01*
X1865714Y-9536476D01*
X2018095Y-9717429D02*
X2027619Y-9726952D01*
X2018095Y-9736476D01*
X2008571Y-9726952D01*
X2018095Y-9717429D01*
X2018095Y-9736476D01*
X2103810Y-9555524D02*
X2113333Y-9546000D01*
X2132381Y-9536476D01*
X2180000Y-9536476D01*
X2199048Y-9546000D01*
X2208571Y-9555524D01*
X2218095Y-9574571D01*
X2218095Y-9593619D01*
X2208571Y-9622190D01*
X2094286Y-9736476D01*
X2218095Y-9736476D01*
X2341905Y-9536476D02*
X2360952Y-9536476D01*
X2380000Y-9546000D01*
X2389524Y-9555524D01*
X2399048Y-9574571D01*
X2408571Y-9612667D01*
X2408571Y-9660286D01*
X2399048Y-9698381D01*
X2389524Y-9717429D01*
X2380000Y-9726952D01*
X2360952Y-9736476D01*
X2341905Y-9736476D01*
X2322857Y-9726952D01*
X2313333Y-9717429D01*
X2303810Y-9698381D01*
X2294286Y-9660286D01*
X2294286Y-9612667D01*
X2303810Y-9574571D01*
X2313333Y-9555524D01*
X2322857Y-9546000D01*
X2341905Y-9536476D01*
X2532381Y-9536476D02*
X2551429Y-9536476D01*
X2570476Y-9546000D01*
X2580000Y-9555524D01*
X2589524Y-9574571D01*
X2599048Y-9612667D01*
X2599048Y-9660286D01*
X2589524Y-9698381D01*
X2580000Y-9717429D01*
X2570476Y-9726952D01*
X2551429Y-9736476D01*
X2532381Y-9736476D01*
X2513333Y-9726952D01*
X2503810Y-9717429D01*
X2494286Y-9698381D01*
X2484762Y-9660286D01*
X2484762Y-9612667D01*
X2494286Y-9574571D01*
X2503810Y-9555524D01*
X2513333Y-9546000D01*
X2532381Y-9536476D01*
X2684762Y-9736476D02*
X2684762Y-9603143D01*
X2684762Y-9622190D02*
X2694286Y-9612667D01*
X2713333Y-9603143D01*
X2741905Y-9603143D01*
X2760952Y-9612667D01*
X2770476Y-9631714D01*
X2770476Y-9736476D01*
X2770476Y-9631714D02*
X2780000Y-9612667D01*
X2799048Y-9603143D01*
X2827619Y-9603143D01*
X2846667Y-9612667D01*
X2856190Y-9631714D01*
X2856190Y-9736476D01*
X2951428Y-9736476D02*
X2951428Y-9603143D01*
X2951428Y-9622190D02*
X2960952Y-9612667D01*
X2980000Y-9603143D01*
X3008571Y-9603143D01*
X3027619Y-9612667D01*
X3037143Y-9631714D01*
X3037143Y-9736476D01*
X3037143Y-9631714D02*
X3046667Y-9612667D01*
X3065714Y-9603143D01*
X3094286Y-9603143D01*
X3113333Y-9612667D01*
X3122857Y-9631714D01*
X3122857Y-9736476D01*
X3513333Y-9526952D02*
X3341905Y-9784095D01*
X3770476Y-9536476D02*
X3789524Y-9536476D01*
X3808571Y-9546000D01*
X3818095Y-9555524D01*
X3827619Y-9574571D01*
X3837143Y-9612667D01*
X3837143Y-9660286D01*
X3827619Y-9698381D01*
X3818095Y-9717429D01*
X3808571Y-9726952D01*
X3789524Y-9736476D01*
X3770476Y-9736476D01*
X3751428Y-9726952D01*
X3741905Y-9717429D01*
X3732381Y-9698381D01*
X3722857Y-9660286D01*
X3722857Y-9612667D01*
X3732381Y-9574571D01*
X3741905Y-9555524D01*
X3751428Y-9546000D01*
X3770476Y-9536476D01*
X3922857Y-9717429D02*
X3932381Y-9726952D01*
X3922857Y-9736476D01*
X3913333Y-9726952D01*
X3922857Y-9717429D01*
X3922857Y-9736476D01*
X4056190Y-9536476D02*
X4075238Y-9536476D01*
X4094286Y-9546000D01*
X4103809Y-9555524D01*
X4113333Y-9574571D01*
X4122857Y-9612667D01*
X4122857Y-9660286D01*
X4113333Y-9698381D01*
X4103809Y-9717429D01*
X4094286Y-9726952D01*
X4075238Y-9736476D01*
X4056190Y-9736476D01*
X4037143Y-9726952D01*
X4027619Y-9717429D01*
X4018095Y-9698381D01*
X4008571Y-9660286D01*
X4008571Y-9612667D01*
X4018095Y-9574571D01*
X4027619Y-9555524D01*
X4037143Y-9546000D01*
X4056190Y-9536476D01*
X4246667Y-9536476D02*
X4265714Y-9536476D01*
X4284762Y-9546000D01*
X4294286Y-9555524D01*
X4303810Y-9574571D01*
X4313333Y-9612667D01*
X4313333Y-9660286D01*
X4303810Y-9698381D01*
X4294286Y-9717429D01*
X4284762Y-9726952D01*
X4265714Y-9736476D01*
X4246667Y-9736476D01*
X4227619Y-9726952D01*
X4218095Y-9717429D01*
X4208571Y-9698381D01*
X4199048Y-9660286D01*
X4199048Y-9612667D01*
X4208571Y-9574571D01*
X4218095Y-9555524D01*
X4227619Y-9546000D01*
X4246667Y-9536476D01*
X4380000Y-9536476D02*
X4513333Y-9536476D01*
X4427619Y-9736476D01*
X4599048Y-9736476D02*
X4637143Y-9736476D01*
X4656190Y-9726952D01*
X4665714Y-9717429D01*
X4684762Y-9688857D01*
X4694286Y-9650762D01*
X4694286Y-9574571D01*
X4684762Y-9555524D01*
X4675238Y-9546000D01*
X4656190Y-9536476D01*
X4618095Y-9536476D01*
X4599048Y-9546000D01*
X4589524Y-9555524D01*
X4580000Y-9574571D01*
X4580000Y-9622190D01*
X4589524Y-9641238D01*
X4599048Y-9650762D01*
X4618095Y-9660286D01*
X4656190Y-9660286D01*
X4675238Y-9650762D01*
X4684762Y-9641238D01*
X4694286Y-9622190D01*
X4770476Y-9536476D02*
X4770476Y-9574571D01*
X4846667Y-9536476D02*
X4846667Y-9574571D01*
X5141905Y-9812667D02*
X5132381Y-9803143D01*
X5113333Y-9774571D01*
X5103810Y-9755524D01*
X5094286Y-9726952D01*
X5084762Y-9679333D01*
X5084762Y-9641238D01*
X5094286Y-9593619D01*
X5103810Y-9565048D01*
X5113333Y-9546000D01*
X5132381Y-9517429D01*
X5141905Y-9507905D01*
X5322857Y-9736476D02*
X5208571Y-9736476D01*
X5265714Y-9736476D02*
X5265714Y-9536476D01*
X5246667Y-9565048D01*
X5227619Y-9584095D01*
X5208571Y-9593619D01*
X5418095Y-9736476D02*
X5456190Y-9736476D01*
X5475238Y-9726952D01*
X5484762Y-9717429D01*
X5503810Y-9688857D01*
X5513333Y-9650762D01*
X5513333Y-9574571D01*
X5503810Y-9555524D01*
X5494286Y-9546000D01*
X5475238Y-9536476D01*
X5437143Y-9536476D01*
X5418095Y-9546000D01*
X5408571Y-9555524D01*
X5399048Y-9574571D01*
X5399048Y-9622190D01*
X5408571Y-9641238D01*
X5418095Y-9650762D01*
X5437143Y-9660286D01*
X5475238Y-9660286D01*
X5494286Y-9650762D01*
X5503810Y-9641238D01*
X5513333Y-9622190D01*
X5637143Y-9536476D02*
X5656190Y-9536476D01*
X5675238Y-9546000D01*
X5684762Y-9555524D01*
X5694286Y-9574571D01*
X5703809Y-9612667D01*
X5703809Y-9660286D01*
X5694286Y-9698381D01*
X5684762Y-9717429D01*
X5675238Y-9726952D01*
X5656190Y-9736476D01*
X5637143Y-9736476D01*
X5618095Y-9726952D01*
X5608571Y-9717429D01*
X5599048Y-9698381D01*
X5589524Y-9660286D01*
X5589524Y-9612667D01*
X5599048Y-9574571D01*
X5608571Y-9555524D01*
X5618095Y-9546000D01*
X5637143Y-9536476D01*
X5941905Y-9736476D02*
X5941905Y-9536476D01*
X6027619Y-9736476D02*
X6027619Y-9631714D01*
X6018095Y-9612667D01*
X5999048Y-9603143D01*
X5970476Y-9603143D01*
X5951428Y-9612667D01*
X5941905Y-9622190D01*
X6151428Y-9736476D02*
X6132381Y-9726952D01*
X6122857Y-9717429D01*
X6113333Y-9698381D01*
X6113333Y-9641238D01*
X6122857Y-9622190D01*
X6132381Y-9612667D01*
X6151428Y-9603143D01*
X6180000Y-9603143D01*
X6199048Y-9612667D01*
X6208571Y-9622190D01*
X6218095Y-9641238D01*
X6218095Y-9698381D01*
X6208571Y-9717429D01*
X6199048Y-9726952D01*
X6180000Y-9736476D01*
X6151428Y-9736476D01*
X6332381Y-9736476D02*
X6313333Y-9726952D01*
X6303809Y-9707905D01*
X6303809Y-9536476D01*
X6484762Y-9726952D02*
X6465714Y-9736476D01*
X6427619Y-9736476D01*
X6408571Y-9726952D01*
X6399048Y-9707905D01*
X6399048Y-9631714D01*
X6408571Y-9612667D01*
X6427619Y-9603143D01*
X6465714Y-9603143D01*
X6484762Y-9612667D01*
X6494286Y-9631714D01*
X6494286Y-9650762D01*
X6399048Y-9669810D01*
X6570476Y-9726952D02*
X6589524Y-9736476D01*
X6627619Y-9736476D01*
X6646667Y-9726952D01*
X6656190Y-9707905D01*
X6656190Y-9698381D01*
X6646667Y-9679333D01*
X6627619Y-9669810D01*
X6599048Y-9669810D01*
X6580000Y-9660286D01*
X6570476Y-9641238D01*
X6570476Y-9631714D01*
X6580000Y-9612667D01*
X6599048Y-9603143D01*
X6627619Y-9603143D01*
X6646667Y-9612667D01*
X6722857Y-9812667D02*
X6732381Y-9803143D01*
X6751428Y-9774571D01*
X6760952Y-9755524D01*
X6770476Y-9726952D01*
X6780000Y-9679333D01*
X6780000Y-9641238D01*
X6770476Y-9593619D01*
X6760952Y-9565048D01*
X6751428Y-9546000D01*
X6732381Y-9517429D01*
X6722857Y-9507905D01*
D13*
X1570000Y-9910000D02*
G75*
G03*
X1570000Y-9910000I-15000J0D01*
G01*
D11*
X1865714Y-9800476D02*
X1884762Y-9800476D01*
X1903809Y-9810000D01*
X1913333Y-9819524D01*
X1922857Y-9838571D01*
X1932381Y-9876667D01*
X1932381Y-9924286D01*
X1922857Y-9962381D01*
X1913333Y-9981429D01*
X1903809Y-9990952D01*
X1884762Y-10000476D01*
X1865714Y-10000476D01*
X1846667Y-9990952D01*
X1837143Y-9981429D01*
X1827619Y-9962381D01*
X1818095Y-9924286D01*
X1818095Y-9876667D01*
X1827619Y-9838571D01*
X1837143Y-9819524D01*
X1846667Y-9810000D01*
X1865714Y-9800476D01*
X2018095Y-9981429D02*
X2027619Y-9990952D01*
X2018095Y-10000476D01*
X2008571Y-9990952D01*
X2018095Y-9981429D01*
X2018095Y-10000476D01*
X2094286Y-9800476D02*
X2218095Y-9800476D01*
X2151429Y-9876667D01*
X2180000Y-9876667D01*
X2199048Y-9886190D01*
X2208571Y-9895714D01*
X2218095Y-9914762D01*
X2218095Y-9962381D01*
X2208571Y-9981429D01*
X2199048Y-9990952D01*
X2180000Y-10000476D01*
X2122857Y-10000476D01*
X2103810Y-9990952D01*
X2094286Y-9981429D01*
X2341905Y-9800476D02*
X2360952Y-9800476D01*
X2380000Y-9810000D01*
X2389524Y-9819524D01*
X2399048Y-9838571D01*
X2408571Y-9876667D01*
X2408571Y-9924286D01*
X2399048Y-9962381D01*
X2389524Y-9981429D01*
X2380000Y-9990952D01*
X2360952Y-10000476D01*
X2341905Y-10000476D01*
X2322857Y-9990952D01*
X2313333Y-9981429D01*
X2303810Y-9962381D01*
X2294286Y-9924286D01*
X2294286Y-9876667D01*
X2303810Y-9838571D01*
X2313333Y-9819524D01*
X2322857Y-9810000D01*
X2341905Y-9800476D01*
X2532381Y-9800476D02*
X2551429Y-9800476D01*
X2570476Y-9810000D01*
X2580000Y-9819524D01*
X2589524Y-9838571D01*
X2599048Y-9876667D01*
X2599048Y-9924286D01*
X2589524Y-9962381D01*
X2580000Y-9981429D01*
X2570476Y-9990952D01*
X2551429Y-10000476D01*
X2532381Y-10000476D01*
X2513333Y-9990952D01*
X2503810Y-9981429D01*
X2494286Y-9962381D01*
X2484762Y-9924286D01*
X2484762Y-9876667D01*
X2494286Y-9838571D01*
X2503810Y-9819524D01*
X2513333Y-9810000D01*
X2532381Y-9800476D01*
X2684762Y-10000476D02*
X2684762Y-9867143D01*
X2684762Y-9886190D02*
X2694286Y-9876667D01*
X2713333Y-9867143D01*
X2741905Y-9867143D01*
X2760952Y-9876667D01*
X2770476Y-9895714D01*
X2770476Y-10000476D01*
X2770476Y-9895714D02*
X2780000Y-9876667D01*
X2799048Y-9867143D01*
X2827619Y-9867143D01*
X2846667Y-9876667D01*
X2856190Y-9895714D01*
X2856190Y-10000476D01*
X2951428Y-10000476D02*
X2951428Y-9867143D01*
X2951428Y-9886190D02*
X2960952Y-9876667D01*
X2980000Y-9867143D01*
X3008571Y-9867143D01*
X3027619Y-9876667D01*
X3037143Y-9895714D01*
X3037143Y-10000476D01*
X3037143Y-9895714D02*
X3046667Y-9876667D01*
X3065714Y-9867143D01*
X3094286Y-9867143D01*
X3113333Y-9876667D01*
X3122857Y-9895714D01*
X3122857Y-10000476D01*
X3513333Y-9790952D02*
X3341905Y-10048095D01*
X3770476Y-9800476D02*
X3789524Y-9800476D01*
X3808571Y-9810000D01*
X3818095Y-9819524D01*
X3827619Y-9838571D01*
X3837143Y-9876667D01*
X3837143Y-9924286D01*
X3827619Y-9962381D01*
X3818095Y-9981429D01*
X3808571Y-9990952D01*
X3789524Y-10000476D01*
X3770476Y-10000476D01*
X3751428Y-9990952D01*
X3741905Y-9981429D01*
X3732381Y-9962381D01*
X3722857Y-9924286D01*
X3722857Y-9876667D01*
X3732381Y-9838571D01*
X3741905Y-9819524D01*
X3751428Y-9810000D01*
X3770476Y-9800476D01*
X3922857Y-9981429D02*
X3932381Y-9990952D01*
X3922857Y-10000476D01*
X3913333Y-9990952D01*
X3922857Y-9981429D01*
X3922857Y-10000476D01*
X4056190Y-9800476D02*
X4075238Y-9800476D01*
X4094286Y-9810000D01*
X4103809Y-9819524D01*
X4113333Y-9838571D01*
X4122857Y-9876667D01*
X4122857Y-9924286D01*
X4113333Y-9962381D01*
X4103809Y-9981429D01*
X4094286Y-9990952D01*
X4075238Y-10000476D01*
X4056190Y-10000476D01*
X4037143Y-9990952D01*
X4027619Y-9981429D01*
X4018095Y-9962381D01*
X4008571Y-9924286D01*
X4008571Y-9876667D01*
X4018095Y-9838571D01*
X4027619Y-9819524D01*
X4037143Y-9810000D01*
X4056190Y-9800476D01*
X4313333Y-10000476D02*
X4199048Y-10000476D01*
X4256190Y-10000476D02*
X4256190Y-9800476D01*
X4237143Y-9829048D01*
X4218095Y-9848095D01*
X4199048Y-9857619D01*
X4503810Y-10000476D02*
X4389524Y-10000476D01*
X4446667Y-10000476D02*
X4446667Y-9800476D01*
X4427619Y-9829048D01*
X4408571Y-9848095D01*
X4389524Y-9857619D01*
X4618095Y-9886190D02*
X4599048Y-9876667D01*
X4589524Y-9867143D01*
X4580000Y-9848095D01*
X4580000Y-9838571D01*
X4589524Y-9819524D01*
X4599048Y-9810000D01*
X4618095Y-9800476D01*
X4656190Y-9800476D01*
X4675238Y-9810000D01*
X4684762Y-9819524D01*
X4694286Y-9838571D01*
X4694286Y-9848095D01*
X4684762Y-9867143D01*
X4675238Y-9876667D01*
X4656190Y-9886190D01*
X4618095Y-9886190D01*
X4599048Y-9895714D01*
X4589524Y-9905238D01*
X4580000Y-9924286D01*
X4580000Y-9962381D01*
X4589524Y-9981429D01*
X4599048Y-9990952D01*
X4618095Y-10000476D01*
X4656190Y-10000476D01*
X4675238Y-9990952D01*
X4684762Y-9981429D01*
X4694286Y-9962381D01*
X4694286Y-9924286D01*
X4684762Y-9905238D01*
X4675238Y-9895714D01*
X4656190Y-9886190D01*
X4770476Y-9800476D02*
X4770476Y-9838571D01*
X4846667Y-9800476D02*
X4846667Y-9838571D01*
X5141905Y-10076667D02*
X5132381Y-10067143D01*
X5113333Y-10038571D01*
X5103810Y-10019524D01*
X5094286Y-9990952D01*
X5084762Y-9943333D01*
X5084762Y-9905238D01*
X5094286Y-9857619D01*
X5103810Y-9829048D01*
X5113333Y-9810000D01*
X5132381Y-9781429D01*
X5141905Y-9771905D01*
X5313333Y-9800476D02*
X5218095Y-9800476D01*
X5208571Y-9895714D01*
X5218095Y-9886190D01*
X5237143Y-9876667D01*
X5284762Y-9876667D01*
X5303810Y-9886190D01*
X5313333Y-9895714D01*
X5322857Y-9914762D01*
X5322857Y-9962381D01*
X5313333Y-9981429D01*
X5303810Y-9990952D01*
X5284762Y-10000476D01*
X5237143Y-10000476D01*
X5218095Y-9990952D01*
X5208571Y-9981429D01*
X5560952Y-10000476D02*
X5560952Y-9800476D01*
X5646667Y-10000476D02*
X5646667Y-9895714D01*
X5637143Y-9876667D01*
X5618095Y-9867143D01*
X5589524Y-9867143D01*
X5570476Y-9876667D01*
X5560952Y-9886190D01*
X5770476Y-10000476D02*
X5751428Y-9990952D01*
X5741905Y-9981429D01*
X5732381Y-9962381D01*
X5732381Y-9905238D01*
X5741905Y-9886190D01*
X5751428Y-9876667D01*
X5770476Y-9867143D01*
X5799048Y-9867143D01*
X5818095Y-9876667D01*
X5827619Y-9886190D01*
X5837143Y-9905238D01*
X5837143Y-9962381D01*
X5827619Y-9981429D01*
X5818095Y-9990952D01*
X5799048Y-10000476D01*
X5770476Y-10000476D01*
X5951428Y-10000476D02*
X5932381Y-9990952D01*
X5922857Y-9971905D01*
X5922857Y-9800476D01*
X6103809Y-9990952D02*
X6084762Y-10000476D01*
X6046667Y-10000476D01*
X6027619Y-9990952D01*
X6018095Y-9971905D01*
X6018095Y-9895714D01*
X6027619Y-9876667D01*
X6046667Y-9867143D01*
X6084762Y-9867143D01*
X6103809Y-9876667D01*
X6113333Y-9895714D01*
X6113333Y-9914762D01*
X6018095Y-9933810D01*
X6189524Y-9990952D02*
X6208571Y-10000476D01*
X6246667Y-10000476D01*
X6265714Y-9990952D01*
X6275238Y-9971905D01*
X6275238Y-9962381D01*
X6265714Y-9943333D01*
X6246667Y-9933810D01*
X6218095Y-9933810D01*
X6199048Y-9924286D01*
X6189524Y-9905238D01*
X6189524Y-9895714D01*
X6199048Y-9876667D01*
X6218095Y-9867143D01*
X6246667Y-9867143D01*
X6265714Y-9876667D01*
X6341905Y-10076667D02*
X6351428Y-10067143D01*
X6370476Y-10038571D01*
X6380000Y-10019524D01*
X6389524Y-9990952D01*
X6399048Y-9943333D01*
X6399048Y-9905238D01*
X6389524Y-9857619D01*
X6380000Y-9829048D01*
X6370476Y-9810000D01*
X6351428Y-9781429D01*
X6341905Y-9771905D01*
D14*
X1545000Y-10149000D02*
X1545000Y-10199000D01*
X1520000Y-10174000D02*
X1570000Y-10174000D01*
D11*
X1865714Y-10064476D02*
X1884762Y-10064476D01*
X1903809Y-10074000D01*
X1913333Y-10083524D01*
X1922857Y-10102571D01*
X1932381Y-10140667D01*
X1932381Y-10188286D01*
X1922857Y-10226381D01*
X1913333Y-10245429D01*
X1903809Y-10254952D01*
X1884762Y-10264476D01*
X1865714Y-10264476D01*
X1846667Y-10254952D01*
X1837143Y-10245429D01*
X1827619Y-10226381D01*
X1818095Y-10188286D01*
X1818095Y-10140667D01*
X1827619Y-10102571D01*
X1837143Y-10083524D01*
X1846667Y-10074000D01*
X1865714Y-10064476D01*
X2018095Y-10245429D02*
X2027619Y-10254952D01*
X2018095Y-10264476D01*
X2008571Y-10254952D01*
X2018095Y-10245429D01*
X2018095Y-10264476D01*
X2208571Y-10064476D02*
X2113333Y-10064476D01*
X2103810Y-10159714D01*
X2113333Y-10150190D01*
X2132381Y-10140667D01*
X2180000Y-10140667D01*
X2199048Y-10150190D01*
X2208571Y-10159714D01*
X2218095Y-10178762D01*
X2218095Y-10226381D01*
X2208571Y-10245429D01*
X2199048Y-10254952D01*
X2180000Y-10264476D01*
X2132381Y-10264476D01*
X2113333Y-10254952D01*
X2103810Y-10245429D01*
X2341905Y-10064476D02*
X2360952Y-10064476D01*
X2380000Y-10074000D01*
X2389524Y-10083524D01*
X2399048Y-10102571D01*
X2408571Y-10140667D01*
X2408571Y-10188286D01*
X2399048Y-10226381D01*
X2389524Y-10245429D01*
X2380000Y-10254952D01*
X2360952Y-10264476D01*
X2341905Y-10264476D01*
X2322857Y-10254952D01*
X2313333Y-10245429D01*
X2303810Y-10226381D01*
X2294286Y-10188286D01*
X2294286Y-10140667D01*
X2303810Y-10102571D01*
X2313333Y-10083524D01*
X2322857Y-10074000D01*
X2341905Y-10064476D01*
X2532381Y-10064476D02*
X2551429Y-10064476D01*
X2570476Y-10074000D01*
X2580000Y-10083524D01*
X2589524Y-10102571D01*
X2599048Y-10140667D01*
X2599048Y-10188286D01*
X2589524Y-10226381D01*
X2580000Y-10245429D01*
X2570476Y-10254952D01*
X2551429Y-10264476D01*
X2532381Y-10264476D01*
X2513333Y-10254952D01*
X2503810Y-10245429D01*
X2494286Y-10226381D01*
X2484762Y-10188286D01*
X2484762Y-10140667D01*
X2494286Y-10102571D01*
X2503810Y-10083524D01*
X2513333Y-10074000D01*
X2532381Y-10064476D01*
X2684762Y-10264476D02*
X2684762Y-10131143D01*
X2684762Y-10150190D02*
X2694286Y-10140667D01*
X2713333Y-10131143D01*
X2741905Y-10131143D01*
X2760952Y-10140667D01*
X2770476Y-10159714D01*
X2770476Y-10264476D01*
X2770476Y-10159714D02*
X2780000Y-10140667D01*
X2799048Y-10131143D01*
X2827619Y-10131143D01*
X2846667Y-10140667D01*
X2856190Y-10159714D01*
X2856190Y-10264476D01*
X2951428Y-10264476D02*
X2951428Y-10131143D01*
X2951428Y-10150190D02*
X2960952Y-10140667D01*
X2980000Y-10131143D01*
X3008571Y-10131143D01*
X3027619Y-10140667D01*
X3037143Y-10159714D01*
X3037143Y-10264476D01*
X3037143Y-10159714D02*
X3046667Y-10140667D01*
X3065714Y-10131143D01*
X3094286Y-10131143D01*
X3113333Y-10140667D01*
X3122857Y-10159714D01*
X3122857Y-10264476D01*
X3513333Y-10054952D02*
X3341905Y-10312095D01*
X3770476Y-10064476D02*
X3789524Y-10064476D01*
X3808571Y-10074000D01*
X3818095Y-10083524D01*
X3827619Y-10102571D01*
X3837143Y-10140667D01*
X3837143Y-10188286D01*
X3827619Y-10226381D01*
X3818095Y-10245429D01*
X3808571Y-10254952D01*
X3789524Y-10264476D01*
X3770476Y-10264476D01*
X3751428Y-10254952D01*
X3741905Y-10245429D01*
X3732381Y-10226381D01*
X3722857Y-10188286D01*
X3722857Y-10140667D01*
X3732381Y-10102571D01*
X3741905Y-10083524D01*
X3751428Y-10074000D01*
X3770476Y-10064476D01*
X3922857Y-10245429D02*
X3932381Y-10254952D01*
X3922857Y-10264476D01*
X3913333Y-10254952D01*
X3922857Y-10245429D01*
X3922857Y-10264476D01*
X4056190Y-10064476D02*
X4075238Y-10064476D01*
X4094286Y-10074000D01*
X4103809Y-10083524D01*
X4113333Y-10102571D01*
X4122857Y-10140667D01*
X4122857Y-10188286D01*
X4113333Y-10226381D01*
X4103809Y-10245429D01*
X4094286Y-10254952D01*
X4075238Y-10264476D01*
X4056190Y-10264476D01*
X4037143Y-10254952D01*
X4027619Y-10245429D01*
X4018095Y-10226381D01*
X4008571Y-10188286D01*
X4008571Y-10140667D01*
X4018095Y-10102571D01*
X4027619Y-10083524D01*
X4037143Y-10074000D01*
X4056190Y-10064476D01*
X4313333Y-10264476D02*
X4199048Y-10264476D01*
X4256190Y-10264476D02*
X4256190Y-10064476D01*
X4237143Y-10093048D01*
X4218095Y-10112095D01*
X4199048Y-10121619D01*
X4408571Y-10264476D02*
X4446667Y-10264476D01*
X4465714Y-10254952D01*
X4475238Y-10245429D01*
X4494286Y-10216857D01*
X4503810Y-10178762D01*
X4503810Y-10102571D01*
X4494286Y-10083524D01*
X4484762Y-10074000D01*
X4465714Y-10064476D01*
X4427619Y-10064476D01*
X4408571Y-10074000D01*
X4399048Y-10083524D01*
X4389524Y-10102571D01*
X4389524Y-10150190D01*
X4399048Y-10169238D01*
X4408571Y-10178762D01*
X4427619Y-10188286D01*
X4465714Y-10188286D01*
X4484762Y-10178762D01*
X4494286Y-10169238D01*
X4503810Y-10150190D01*
X4570476Y-10064476D02*
X4703810Y-10064476D01*
X4618095Y-10264476D01*
X4770476Y-10064476D02*
X4770476Y-10102571D01*
X4846667Y-10064476D02*
X4846667Y-10102571D01*
X5141905Y-10340667D02*
X5132381Y-10331143D01*
X5113333Y-10302571D01*
X5103810Y-10283524D01*
X5094286Y-10254952D01*
X5084762Y-10207333D01*
X5084762Y-10169238D01*
X5094286Y-10121619D01*
X5103810Y-10093048D01*
X5113333Y-10074000D01*
X5132381Y-10045429D01*
X5141905Y-10035905D01*
X5313333Y-10064476D02*
X5218095Y-10064476D01*
X5208571Y-10159714D01*
X5218095Y-10150190D01*
X5237143Y-10140667D01*
X5284762Y-10140667D01*
X5303810Y-10150190D01*
X5313333Y-10159714D01*
X5322857Y-10178762D01*
X5322857Y-10226381D01*
X5313333Y-10245429D01*
X5303810Y-10254952D01*
X5284762Y-10264476D01*
X5237143Y-10264476D01*
X5218095Y-10254952D01*
X5208571Y-10245429D01*
X5494286Y-10064476D02*
X5456190Y-10064476D01*
X5437143Y-10074000D01*
X5427619Y-10083524D01*
X5408571Y-10112095D01*
X5399048Y-10150190D01*
X5399048Y-10226381D01*
X5408571Y-10245429D01*
X5418095Y-10254952D01*
X5437143Y-10264476D01*
X5475238Y-10264476D01*
X5494286Y-10254952D01*
X5503810Y-10245429D01*
X5513333Y-10226381D01*
X5513333Y-10178762D01*
X5503810Y-10159714D01*
X5494286Y-10150190D01*
X5475238Y-10140667D01*
X5437143Y-10140667D01*
X5418095Y-10150190D01*
X5408571Y-10159714D01*
X5399048Y-10178762D01*
X5751428Y-10264476D02*
X5751428Y-10064476D01*
X5837143Y-10264476D02*
X5837143Y-10159714D01*
X5827619Y-10140667D01*
X5808571Y-10131143D01*
X5780000Y-10131143D01*
X5760952Y-10140667D01*
X5751428Y-10150190D01*
X5960952Y-10264476D02*
X5941905Y-10254952D01*
X5932381Y-10245429D01*
X5922857Y-10226381D01*
X5922857Y-10169238D01*
X5932381Y-10150190D01*
X5941905Y-10140667D01*
X5960952Y-10131143D01*
X5989524Y-10131143D01*
X6008571Y-10140667D01*
X6018095Y-10150190D01*
X6027619Y-10169238D01*
X6027619Y-10226381D01*
X6018095Y-10245429D01*
X6008571Y-10254952D01*
X5989524Y-10264476D01*
X5960952Y-10264476D01*
X6141905Y-10264476D02*
X6122857Y-10254952D01*
X6113333Y-10235905D01*
X6113333Y-10064476D01*
X6294286Y-10254952D02*
X6275238Y-10264476D01*
X6237143Y-10264476D01*
X6218095Y-10254952D01*
X6208571Y-10235905D01*
X6208571Y-10159714D01*
X6218095Y-10140667D01*
X6237143Y-10131143D01*
X6275238Y-10131143D01*
X6294286Y-10140667D01*
X6303809Y-10159714D01*
X6303809Y-10178762D01*
X6208571Y-10197810D01*
X6380000Y-10254952D02*
X6399048Y-10264476D01*
X6437143Y-10264476D01*
X6456190Y-10254952D01*
X6465714Y-10235905D01*
X6465714Y-10226381D01*
X6456190Y-10207333D01*
X6437143Y-10197810D01*
X6408571Y-10197810D01*
X6389524Y-10188286D01*
X6380000Y-10169238D01*
X6380000Y-10159714D01*
X6389524Y-10140667D01*
X6408571Y-10131143D01*
X6437143Y-10131143D01*
X6456190Y-10140667D01*
X6532381Y-10340667D02*
X6541905Y-10331143D01*
X6560952Y-10302571D01*
X6570476Y-10283524D01*
X6580000Y-10254952D01*
X6589524Y-10207333D01*
X6589524Y-10169238D01*
X6580000Y-10121619D01*
X6570476Y-10093048D01*
X6560952Y-10074000D01*
X6541905Y-10045429D01*
X6532381Y-10035905D01*
D15*
X1561213Y-10459213D02*
X1561213Y-10416787D01*
X1518787Y-10416787D01*
X1518787Y-10459213D01*
X1561213Y-10459213D01*
D11*
X1865714Y-10328476D02*
X1884762Y-10328476D01*
X1903809Y-10338000D01*
X1913333Y-10347524D01*
X1922857Y-10366571D01*
X1932381Y-10404667D01*
X1932381Y-10452286D01*
X1922857Y-10490381D01*
X1913333Y-10509429D01*
X1903809Y-10518952D01*
X1884762Y-10528476D01*
X1865714Y-10528476D01*
X1846667Y-10518952D01*
X1837143Y-10509429D01*
X1827619Y-10490381D01*
X1818095Y-10452286D01*
X1818095Y-10404667D01*
X1827619Y-10366571D01*
X1837143Y-10347524D01*
X1846667Y-10338000D01*
X1865714Y-10328476D01*
X2018095Y-10509429D02*
X2027619Y-10518952D01*
X2018095Y-10528476D01*
X2008571Y-10518952D01*
X2018095Y-10509429D01*
X2018095Y-10528476D01*
X2199048Y-10328476D02*
X2160952Y-10328476D01*
X2141905Y-10338000D01*
X2132381Y-10347524D01*
X2113333Y-10376095D01*
X2103810Y-10414190D01*
X2103810Y-10490381D01*
X2113333Y-10509429D01*
X2122857Y-10518952D01*
X2141905Y-10528476D01*
X2180000Y-10528476D01*
X2199048Y-10518952D01*
X2208571Y-10509429D01*
X2218095Y-10490381D01*
X2218095Y-10442762D01*
X2208571Y-10423714D01*
X2199048Y-10414190D01*
X2180000Y-10404667D01*
X2141905Y-10404667D01*
X2122857Y-10414190D01*
X2113333Y-10423714D01*
X2103810Y-10442762D01*
X2341905Y-10328476D02*
X2360952Y-10328476D01*
X2380000Y-10338000D01*
X2389524Y-10347524D01*
X2399048Y-10366571D01*
X2408571Y-10404667D01*
X2408571Y-10452286D01*
X2399048Y-10490381D01*
X2389524Y-10509429D01*
X2380000Y-10518952D01*
X2360952Y-10528476D01*
X2341905Y-10528476D01*
X2322857Y-10518952D01*
X2313333Y-10509429D01*
X2303810Y-10490381D01*
X2294286Y-10452286D01*
X2294286Y-10404667D01*
X2303810Y-10366571D01*
X2313333Y-10347524D01*
X2322857Y-10338000D01*
X2341905Y-10328476D01*
X2532381Y-10328476D02*
X2551429Y-10328476D01*
X2570476Y-10338000D01*
X2580000Y-10347524D01*
X2589524Y-10366571D01*
X2599048Y-10404667D01*
X2599048Y-10452286D01*
X2589524Y-10490381D01*
X2580000Y-10509429D01*
X2570476Y-10518952D01*
X2551429Y-10528476D01*
X2532381Y-10528476D01*
X2513333Y-10518952D01*
X2503810Y-10509429D01*
X2494286Y-10490381D01*
X2484762Y-10452286D01*
X2484762Y-10404667D01*
X2494286Y-10366571D01*
X2503810Y-10347524D01*
X2513333Y-10338000D01*
X2532381Y-10328476D01*
X2684762Y-10528476D02*
X2684762Y-10395143D01*
X2684762Y-10414190D02*
X2694286Y-10404667D01*
X2713333Y-10395143D01*
X2741905Y-10395143D01*
X2760952Y-10404667D01*
X2770476Y-10423714D01*
X2770476Y-10528476D01*
X2770476Y-10423714D02*
X2780000Y-10404667D01*
X2799048Y-10395143D01*
X2827619Y-10395143D01*
X2846667Y-10404667D01*
X2856190Y-10423714D01*
X2856190Y-10528476D01*
X2951428Y-10528476D02*
X2951428Y-10395143D01*
X2951428Y-10414190D02*
X2960952Y-10404667D01*
X2980000Y-10395143D01*
X3008571Y-10395143D01*
X3027619Y-10404667D01*
X3037143Y-10423714D01*
X3037143Y-10528476D01*
X3037143Y-10423714D02*
X3046667Y-10404667D01*
X3065714Y-10395143D01*
X3094286Y-10395143D01*
X3113333Y-10404667D01*
X3122857Y-10423714D01*
X3122857Y-10528476D01*
X3513333Y-10318952D02*
X3341905Y-10576095D01*
X3770476Y-10328476D02*
X3789524Y-10328476D01*
X3808571Y-10338000D01*
X3818095Y-10347524D01*
X3827619Y-10366571D01*
X3837143Y-10404667D01*
X3837143Y-10452286D01*
X3827619Y-10490381D01*
X3818095Y-10509429D01*
X3808571Y-10518952D01*
X3789524Y-10528476D01*
X3770476Y-10528476D01*
X3751428Y-10518952D01*
X3741905Y-10509429D01*
X3732381Y-10490381D01*
X3722857Y-10452286D01*
X3722857Y-10404667D01*
X3732381Y-10366571D01*
X3741905Y-10347524D01*
X3751428Y-10338000D01*
X3770476Y-10328476D01*
X3922857Y-10509429D02*
X3932381Y-10518952D01*
X3922857Y-10528476D01*
X3913333Y-10518952D01*
X3922857Y-10509429D01*
X3922857Y-10528476D01*
X4056190Y-10328476D02*
X4075238Y-10328476D01*
X4094286Y-10338000D01*
X4103809Y-10347524D01*
X4113333Y-10366571D01*
X4122857Y-10404667D01*
X4122857Y-10452286D01*
X4113333Y-10490381D01*
X4103809Y-10509429D01*
X4094286Y-10518952D01*
X4075238Y-10528476D01*
X4056190Y-10528476D01*
X4037143Y-10518952D01*
X4027619Y-10509429D01*
X4018095Y-10490381D01*
X4008571Y-10452286D01*
X4008571Y-10404667D01*
X4018095Y-10366571D01*
X4027619Y-10347524D01*
X4037143Y-10338000D01*
X4056190Y-10328476D01*
X4199048Y-10347524D02*
X4208571Y-10338000D01*
X4227619Y-10328476D01*
X4275238Y-10328476D01*
X4294286Y-10338000D01*
X4303810Y-10347524D01*
X4313333Y-10366571D01*
X4313333Y-10385619D01*
X4303810Y-10414190D01*
X4189524Y-10528476D01*
X4313333Y-10528476D01*
X4380000Y-10328476D02*
X4503810Y-10328476D01*
X4437143Y-10404667D01*
X4465714Y-10404667D01*
X4484762Y-10414190D01*
X4494286Y-10423714D01*
X4503810Y-10442762D01*
X4503810Y-10490381D01*
X4494286Y-10509429D01*
X4484762Y-10518952D01*
X4465714Y-10528476D01*
X4408571Y-10528476D01*
X4389524Y-10518952D01*
X4380000Y-10509429D01*
X4675238Y-10328476D02*
X4637143Y-10328476D01*
X4618095Y-10338000D01*
X4608571Y-10347524D01*
X4589524Y-10376095D01*
X4580000Y-10414190D01*
X4580000Y-10490381D01*
X4589524Y-10509429D01*
X4599048Y-10518952D01*
X4618095Y-10528476D01*
X4656190Y-10528476D01*
X4675238Y-10518952D01*
X4684762Y-10509429D01*
X4694286Y-10490381D01*
X4694286Y-10442762D01*
X4684762Y-10423714D01*
X4675238Y-10414190D01*
X4656190Y-10404667D01*
X4618095Y-10404667D01*
X4599048Y-10414190D01*
X4589524Y-10423714D01*
X4580000Y-10442762D01*
X4770476Y-10328476D02*
X4770476Y-10366571D01*
X4846667Y-10328476D02*
X4846667Y-10366571D01*
X5141905Y-10604667D02*
X5132381Y-10595143D01*
X5113333Y-10566571D01*
X5103810Y-10547524D01*
X5094286Y-10518952D01*
X5084762Y-10471333D01*
X5084762Y-10433238D01*
X5094286Y-10385619D01*
X5103810Y-10357048D01*
X5113333Y-10338000D01*
X5132381Y-10309429D01*
X5141905Y-10299905D01*
X5256190Y-10328476D02*
X5275238Y-10328476D01*
X5294286Y-10338000D01*
X5303810Y-10347524D01*
X5313333Y-10366571D01*
X5322857Y-10404667D01*
X5322857Y-10452286D01*
X5313333Y-10490381D01*
X5303810Y-10509429D01*
X5294286Y-10518952D01*
X5275238Y-10528476D01*
X5256190Y-10528476D01*
X5237143Y-10518952D01*
X5227619Y-10509429D01*
X5218095Y-10490381D01*
X5208571Y-10452286D01*
X5208571Y-10404667D01*
X5218095Y-10366571D01*
X5227619Y-10347524D01*
X5237143Y-10338000D01*
X5256190Y-10328476D01*
X5560952Y-10528476D02*
X5560952Y-10328476D01*
X5646667Y-10528476D02*
X5646667Y-10423714D01*
X5637143Y-10404667D01*
X5618095Y-10395143D01*
X5589524Y-10395143D01*
X5570476Y-10404667D01*
X5560952Y-10414190D01*
X5770476Y-10528476D02*
X5751428Y-10518952D01*
X5741905Y-10509429D01*
X5732381Y-10490381D01*
X5732381Y-10433238D01*
X5741905Y-10414190D01*
X5751428Y-10404667D01*
X5770476Y-10395143D01*
X5799048Y-10395143D01*
X5818095Y-10404667D01*
X5827619Y-10414190D01*
X5837143Y-10433238D01*
X5837143Y-10490381D01*
X5827619Y-10509429D01*
X5818095Y-10518952D01*
X5799048Y-10528476D01*
X5770476Y-10528476D01*
X5951428Y-10528476D02*
X5932381Y-10518952D01*
X5922857Y-10499905D01*
X5922857Y-10328476D01*
X6103809Y-10518952D02*
X6084762Y-10528476D01*
X6046667Y-10528476D01*
X6027619Y-10518952D01*
X6018095Y-10499905D01*
X6018095Y-10423714D01*
X6027619Y-10404667D01*
X6046667Y-10395143D01*
X6084762Y-10395143D01*
X6103809Y-10404667D01*
X6113333Y-10423714D01*
X6113333Y-10442762D01*
X6018095Y-10461810D01*
X6189524Y-10518952D02*
X6208571Y-10528476D01*
X6246667Y-10528476D01*
X6265714Y-10518952D01*
X6275238Y-10499905D01*
X6275238Y-10490381D01*
X6265714Y-10471333D01*
X6246667Y-10461810D01*
X6218095Y-10461810D01*
X6199048Y-10452286D01*
X6189524Y-10433238D01*
X6189524Y-10423714D01*
X6199048Y-10404667D01*
X6218095Y-10395143D01*
X6246667Y-10395143D01*
X6265714Y-10404667D01*
X6513333Y-10452286D02*
X6665714Y-10452286D01*
X6589524Y-10528476D02*
X6589524Y-10376095D01*
X6999048Y-10395143D02*
X6999048Y-10528476D01*
X6951428Y-10318952D02*
X6903809Y-10461810D01*
X7027619Y-10461810D01*
X7246667Y-10518952D02*
X7265714Y-10528476D01*
X7303809Y-10528476D01*
X7322857Y-10518952D01*
X7332381Y-10499905D01*
X7332381Y-10490381D01*
X7322857Y-10471333D01*
X7303809Y-10461810D01*
X7275238Y-10461810D01*
X7256190Y-10452286D01*
X7246667Y-10433238D01*
X7246667Y-10423714D01*
X7256190Y-10404667D01*
X7275238Y-10395143D01*
X7303809Y-10395143D01*
X7322857Y-10404667D01*
X7446667Y-10528476D02*
X7427619Y-10518952D01*
X7418095Y-10499905D01*
X7418095Y-10328476D01*
X7551428Y-10528476D02*
X7532381Y-10518952D01*
X7522857Y-10509429D01*
X7513333Y-10490381D01*
X7513333Y-10433238D01*
X7522857Y-10414190D01*
X7532381Y-10404667D01*
X7551428Y-10395143D01*
X7580000Y-10395143D01*
X7599048Y-10404667D01*
X7608571Y-10414190D01*
X7618095Y-10433238D01*
X7618095Y-10490381D01*
X7608571Y-10509429D01*
X7599048Y-10518952D01*
X7580000Y-10528476D01*
X7551428Y-10528476D01*
X7675238Y-10395143D02*
X7751428Y-10395143D01*
X7703809Y-10328476D02*
X7703809Y-10499905D01*
X7713333Y-10518952D01*
X7732381Y-10528476D01*
X7751428Y-10528476D01*
X7808571Y-10518952D02*
X7827619Y-10528476D01*
X7865714Y-10528476D01*
X7884762Y-10518952D01*
X7894286Y-10499905D01*
X7894286Y-10490381D01*
X7884762Y-10471333D01*
X7865714Y-10461810D01*
X7837143Y-10461810D01*
X7818095Y-10452286D01*
X7808571Y-10433238D01*
X7808571Y-10423714D01*
X7818095Y-10404667D01*
X7837143Y-10395143D01*
X7865714Y-10395143D01*
X7884762Y-10404667D01*
X7960952Y-10604667D02*
X7970476Y-10595143D01*
X7989524Y-10566571D01*
X7999048Y-10547524D01*
X8008571Y-10518952D01*
X8018095Y-10471333D01*
X8018095Y-10433238D01*
X8008571Y-10385619D01*
X7999048Y-10357048D01*
X7989524Y-10338000D01*
X7970476Y-10309429D01*
X7960952Y-10299905D01*
D16*
X1510000Y-10762000D02*
X1570000Y-10702000D01*
X1510000Y-10642000D01*
X1450000Y-10702000D01*
X1510000Y-10762000D01*
D11*
X1932381Y-10792476D02*
X1818095Y-10792476D01*
X1875238Y-10792476D02*
X1875238Y-10592476D01*
X1856190Y-10621048D01*
X1837143Y-10640095D01*
X1818095Y-10649619D01*
X2018095Y-10773429D02*
X2027619Y-10782952D01*
X2018095Y-10792476D01*
X2008571Y-10782952D01*
X2018095Y-10773429D01*
X2018095Y-10792476D01*
X2103810Y-10611524D02*
X2113333Y-10602000D01*
X2132381Y-10592476D01*
X2180000Y-10592476D01*
X2199048Y-10602000D01*
X2208571Y-10611524D01*
X2218095Y-10630571D01*
X2218095Y-10649619D01*
X2208571Y-10678190D01*
X2094286Y-10792476D01*
X2218095Y-10792476D01*
X2341905Y-10592476D02*
X2360952Y-10592476D01*
X2380000Y-10602000D01*
X2389524Y-10611524D01*
X2399048Y-10630571D01*
X2408571Y-10668667D01*
X2408571Y-10716286D01*
X2399048Y-10754381D01*
X2389524Y-10773429D01*
X2380000Y-10782952D01*
X2360952Y-10792476D01*
X2341905Y-10792476D01*
X2322857Y-10782952D01*
X2313333Y-10773429D01*
X2303810Y-10754381D01*
X2294286Y-10716286D01*
X2294286Y-10668667D01*
X2303810Y-10630571D01*
X2313333Y-10611524D01*
X2322857Y-10602000D01*
X2341905Y-10592476D01*
X2532381Y-10592476D02*
X2551429Y-10592476D01*
X2570476Y-10602000D01*
X2580000Y-10611524D01*
X2589524Y-10630571D01*
X2599048Y-10668667D01*
X2599048Y-10716286D01*
X2589524Y-10754381D01*
X2580000Y-10773429D01*
X2570476Y-10782952D01*
X2551429Y-10792476D01*
X2532381Y-10792476D01*
X2513333Y-10782952D01*
X2503810Y-10773429D01*
X2494286Y-10754381D01*
X2484762Y-10716286D01*
X2484762Y-10668667D01*
X2494286Y-10630571D01*
X2503810Y-10611524D01*
X2513333Y-10602000D01*
X2532381Y-10592476D01*
X2684762Y-10792476D02*
X2684762Y-10659143D01*
X2684762Y-10678190D02*
X2694286Y-10668667D01*
X2713333Y-10659143D01*
X2741905Y-10659143D01*
X2760952Y-10668667D01*
X2770476Y-10687714D01*
X2770476Y-10792476D01*
X2770476Y-10687714D02*
X2780000Y-10668667D01*
X2799048Y-10659143D01*
X2827619Y-10659143D01*
X2846667Y-10668667D01*
X2856190Y-10687714D01*
X2856190Y-10792476D01*
X2951428Y-10792476D02*
X2951428Y-10659143D01*
X2951428Y-10678190D02*
X2960952Y-10668667D01*
X2980000Y-10659143D01*
X3008571Y-10659143D01*
X3027619Y-10668667D01*
X3037143Y-10687714D01*
X3037143Y-10792476D01*
X3037143Y-10687714D02*
X3046667Y-10668667D01*
X3065714Y-10659143D01*
X3094286Y-10659143D01*
X3113333Y-10668667D01*
X3122857Y-10687714D01*
X3122857Y-10792476D01*
X3513333Y-10582952D02*
X3341905Y-10840095D01*
X3770476Y-10592476D02*
X3789524Y-10592476D01*
X3808571Y-10602000D01*
X3818095Y-10611524D01*
X3827619Y-10630571D01*
X3837143Y-10668667D01*
X3837143Y-10716286D01*
X3827619Y-10754381D01*
X3818095Y-10773429D01*
X3808571Y-10782952D01*
X3789524Y-10792476D01*
X3770476Y-10792476D01*
X3751428Y-10782952D01*
X3741905Y-10773429D01*
X3732381Y-10754381D01*
X3722857Y-10716286D01*
X3722857Y-10668667D01*
X3732381Y-10630571D01*
X3741905Y-10611524D01*
X3751428Y-10602000D01*
X3770476Y-10592476D01*
X3922857Y-10773429D02*
X3932381Y-10782952D01*
X3922857Y-10792476D01*
X3913333Y-10782952D01*
X3922857Y-10773429D01*
X3922857Y-10792476D01*
X4056190Y-10592476D02*
X4075238Y-10592476D01*
X4094286Y-10602000D01*
X4103809Y-10611524D01*
X4113333Y-10630571D01*
X4122857Y-10668667D01*
X4122857Y-10716286D01*
X4113333Y-10754381D01*
X4103809Y-10773429D01*
X4094286Y-10782952D01*
X4075238Y-10792476D01*
X4056190Y-10792476D01*
X4037143Y-10782952D01*
X4027619Y-10773429D01*
X4018095Y-10754381D01*
X4008571Y-10716286D01*
X4008571Y-10668667D01*
X4018095Y-10630571D01*
X4027619Y-10611524D01*
X4037143Y-10602000D01*
X4056190Y-10592476D01*
X4294286Y-10659143D02*
X4294286Y-10792476D01*
X4246667Y-10582952D02*
X4199048Y-10725810D01*
X4322857Y-10725810D01*
X4380000Y-10592476D02*
X4513333Y-10592476D01*
X4427619Y-10792476D01*
X4580000Y-10611524D02*
X4589524Y-10602000D01*
X4608571Y-10592476D01*
X4656190Y-10592476D01*
X4675238Y-10602000D01*
X4684762Y-10611524D01*
X4694286Y-10630571D01*
X4694286Y-10649619D01*
X4684762Y-10678190D01*
X4570476Y-10792476D01*
X4694286Y-10792476D01*
X4770476Y-10592476D02*
X4770476Y-10630571D01*
X4846667Y-10592476D02*
X4846667Y-10630571D01*
X5141905Y-10868667D02*
X5132381Y-10859143D01*
X5113333Y-10830571D01*
X5103810Y-10811524D01*
X5094286Y-10782952D01*
X5084762Y-10735333D01*
X5084762Y-10697238D01*
X5094286Y-10649619D01*
X5103810Y-10621048D01*
X5113333Y-10602000D01*
X5132381Y-10573429D01*
X5141905Y-10563905D01*
X5208571Y-10611524D02*
X5218095Y-10602000D01*
X5237143Y-10592476D01*
X5284762Y-10592476D01*
X5303810Y-10602000D01*
X5313333Y-10611524D01*
X5322857Y-10630571D01*
X5322857Y-10649619D01*
X5313333Y-10678190D01*
X5199048Y-10792476D01*
X5322857Y-10792476D01*
X5446667Y-10592476D02*
X5465714Y-10592476D01*
X5484762Y-10602000D01*
X5494286Y-10611524D01*
X5503810Y-10630571D01*
X5513333Y-10668667D01*
X5513333Y-10716286D01*
X5503810Y-10754381D01*
X5494286Y-10773429D01*
X5484762Y-10782952D01*
X5465714Y-10792476D01*
X5446667Y-10792476D01*
X5427619Y-10782952D01*
X5418095Y-10773429D01*
X5408571Y-10754381D01*
X5399048Y-10716286D01*
X5399048Y-10668667D01*
X5408571Y-10630571D01*
X5418095Y-10611524D01*
X5427619Y-10602000D01*
X5446667Y-10592476D01*
X5751428Y-10792476D02*
X5751428Y-10592476D01*
X5837143Y-10792476D02*
X5837143Y-10687714D01*
X5827619Y-10668667D01*
X5808571Y-10659143D01*
X5780000Y-10659143D01*
X5760952Y-10668667D01*
X5751428Y-10678190D01*
X5960952Y-10792476D02*
X5941905Y-10782952D01*
X5932381Y-10773429D01*
X5922857Y-10754381D01*
X5922857Y-10697238D01*
X5932381Y-10678190D01*
X5941905Y-10668667D01*
X5960952Y-10659143D01*
X5989524Y-10659143D01*
X6008571Y-10668667D01*
X6018095Y-10678190D01*
X6027619Y-10697238D01*
X6027619Y-10754381D01*
X6018095Y-10773429D01*
X6008571Y-10782952D01*
X5989524Y-10792476D01*
X5960952Y-10792476D01*
X6141905Y-10792476D02*
X6122857Y-10782952D01*
X6113333Y-10763905D01*
X6113333Y-10592476D01*
X6294286Y-10782952D02*
X6275238Y-10792476D01*
X6237143Y-10792476D01*
X6218095Y-10782952D01*
X6208571Y-10763905D01*
X6208571Y-10687714D01*
X6218095Y-10668667D01*
X6237143Y-10659143D01*
X6275238Y-10659143D01*
X6294286Y-10668667D01*
X6303809Y-10687714D01*
X6303809Y-10706762D01*
X6208571Y-10725810D01*
X6380000Y-10782952D02*
X6399048Y-10792476D01*
X6437143Y-10792476D01*
X6456190Y-10782952D01*
X6465714Y-10763905D01*
X6465714Y-10754381D01*
X6456190Y-10735333D01*
X6437143Y-10725810D01*
X6408571Y-10725810D01*
X6389524Y-10716286D01*
X6380000Y-10697238D01*
X6380000Y-10687714D01*
X6389524Y-10668667D01*
X6408571Y-10659143D01*
X6437143Y-10659143D01*
X6456190Y-10668667D01*
X6532381Y-10868667D02*
X6541905Y-10859143D01*
X6560952Y-10830571D01*
X6570476Y-10811524D01*
X6580000Y-10782952D01*
X6589524Y-10735333D01*
X6589524Y-10697238D01*
X6580000Y-10649619D01*
X6570476Y-10621048D01*
X6560952Y-10602000D01*
X6541905Y-10573429D01*
X6532381Y-10563905D01*
X1370000Y-10866000D02*
X1570000Y-11066000D01*
X1570000Y-10866000D02*
X1370000Y-11066000D01*
X1570000Y-10966000D02*
G75*
G03*
X1570000Y-10966000I-100000J0D01*
G01*
X1808571Y-10856476D02*
X1932381Y-10856476D01*
X1865714Y-10932667D01*
X1894286Y-10932667D01*
X1913333Y-10942190D01*
X1922857Y-10951714D01*
X1932381Y-10970762D01*
X1932381Y-11018381D01*
X1922857Y-11037429D01*
X1913333Y-11046952D01*
X1894286Y-11056476D01*
X1837143Y-11056476D01*
X1818095Y-11046952D01*
X1808571Y-11037429D01*
X2018095Y-11037429D02*
X2027619Y-11046952D01*
X2018095Y-11056476D01*
X2008571Y-11046952D01*
X2018095Y-11037429D01*
X2018095Y-11056476D01*
X2103810Y-10875524D02*
X2113333Y-10866000D01*
X2132381Y-10856476D01*
X2180000Y-10856476D01*
X2199048Y-10866000D01*
X2208571Y-10875524D01*
X2218095Y-10894571D01*
X2218095Y-10913619D01*
X2208571Y-10942190D01*
X2094286Y-11056476D01*
X2218095Y-11056476D01*
X2341905Y-10856476D02*
X2360952Y-10856476D01*
X2380000Y-10866000D01*
X2389524Y-10875524D01*
X2399048Y-10894571D01*
X2408571Y-10932667D01*
X2408571Y-10980286D01*
X2399048Y-11018381D01*
X2389524Y-11037429D01*
X2380000Y-11046952D01*
X2360952Y-11056476D01*
X2341905Y-11056476D01*
X2322857Y-11046952D01*
X2313333Y-11037429D01*
X2303810Y-11018381D01*
X2294286Y-10980286D01*
X2294286Y-10932667D01*
X2303810Y-10894571D01*
X2313333Y-10875524D01*
X2322857Y-10866000D01*
X2341905Y-10856476D01*
X2532381Y-10856476D02*
X2551429Y-10856476D01*
X2570476Y-10866000D01*
X2580000Y-10875524D01*
X2589524Y-10894571D01*
X2599048Y-10932667D01*
X2599048Y-10980286D01*
X2589524Y-11018381D01*
X2580000Y-11037429D01*
X2570476Y-11046952D01*
X2551429Y-11056476D01*
X2532381Y-11056476D01*
X2513333Y-11046952D01*
X2503810Y-11037429D01*
X2494286Y-11018381D01*
X2484762Y-10980286D01*
X2484762Y-10932667D01*
X2494286Y-10894571D01*
X2503810Y-10875524D01*
X2513333Y-10866000D01*
X2532381Y-10856476D01*
X2684762Y-11056476D02*
X2684762Y-10923143D01*
X2684762Y-10942190D02*
X2694286Y-10932667D01*
X2713333Y-10923143D01*
X2741905Y-10923143D01*
X2760952Y-10932667D01*
X2770476Y-10951714D01*
X2770476Y-11056476D01*
X2770476Y-10951714D02*
X2780000Y-10932667D01*
X2799048Y-10923143D01*
X2827619Y-10923143D01*
X2846667Y-10932667D01*
X2856190Y-10951714D01*
X2856190Y-11056476D01*
X2951428Y-11056476D02*
X2951428Y-10923143D01*
X2951428Y-10942190D02*
X2960952Y-10932667D01*
X2980000Y-10923143D01*
X3008571Y-10923143D01*
X3027619Y-10932667D01*
X3037143Y-10951714D01*
X3037143Y-11056476D01*
X3037143Y-10951714D02*
X3046667Y-10932667D01*
X3065714Y-10923143D01*
X3094286Y-10923143D01*
X3113333Y-10932667D01*
X3122857Y-10951714D01*
X3122857Y-11056476D01*
X3513333Y-10846952D02*
X3341905Y-11104095D01*
X3770476Y-10856476D02*
X3789524Y-10856476D01*
X3808571Y-10866000D01*
X3818095Y-10875524D01*
X3827619Y-10894571D01*
X3837143Y-10932667D01*
X3837143Y-10980286D01*
X3827619Y-11018381D01*
X3818095Y-11037429D01*
X3808571Y-11046952D01*
X3789524Y-11056476D01*
X3770476Y-11056476D01*
X3751428Y-11046952D01*
X3741905Y-11037429D01*
X3732381Y-11018381D01*
X3722857Y-10980286D01*
X3722857Y-10932667D01*
X3732381Y-10894571D01*
X3741905Y-10875524D01*
X3751428Y-10866000D01*
X3770476Y-10856476D01*
X3922857Y-11037429D02*
X3932381Y-11046952D01*
X3922857Y-11056476D01*
X3913333Y-11046952D01*
X3922857Y-11037429D01*
X3922857Y-11056476D01*
X4122857Y-11056476D02*
X4008571Y-11056476D01*
X4065714Y-11056476D02*
X4065714Y-10856476D01*
X4046667Y-10885048D01*
X4027619Y-10904095D01*
X4008571Y-10913619D01*
X4199048Y-10875524D02*
X4208571Y-10866000D01*
X4227619Y-10856476D01*
X4275238Y-10856476D01*
X4294286Y-10866000D01*
X4303810Y-10875524D01*
X4313333Y-10894571D01*
X4313333Y-10913619D01*
X4303810Y-10942190D01*
X4189524Y-11056476D01*
X4313333Y-11056476D01*
X4484762Y-10856476D02*
X4446667Y-10856476D01*
X4427619Y-10866000D01*
X4418095Y-10875524D01*
X4399048Y-10904095D01*
X4389524Y-10942190D01*
X4389524Y-11018381D01*
X4399048Y-11037429D01*
X4408571Y-11046952D01*
X4427619Y-11056476D01*
X4465714Y-11056476D01*
X4484762Y-11046952D01*
X4494286Y-11037429D01*
X4503810Y-11018381D01*
X4503810Y-10970762D01*
X4494286Y-10951714D01*
X4484762Y-10942190D01*
X4465714Y-10932667D01*
X4427619Y-10932667D01*
X4408571Y-10942190D01*
X4399048Y-10951714D01*
X4389524Y-10970762D01*
X4627619Y-10856476D02*
X4646667Y-10856476D01*
X4665714Y-10866000D01*
X4675238Y-10875524D01*
X4684762Y-10894571D01*
X4694286Y-10932667D01*
X4694286Y-10980286D01*
X4684762Y-11018381D01*
X4675238Y-11037429D01*
X4665714Y-11046952D01*
X4646667Y-11056476D01*
X4627619Y-11056476D01*
X4608571Y-11046952D01*
X4599048Y-11037429D01*
X4589524Y-11018381D01*
X4580000Y-10980286D01*
X4580000Y-10932667D01*
X4589524Y-10894571D01*
X4599048Y-10875524D01*
X4608571Y-10866000D01*
X4627619Y-10856476D01*
X4770476Y-10856476D02*
X4770476Y-10894571D01*
X4846667Y-10856476D02*
X4846667Y-10894571D01*
X5141905Y-11132667D02*
X5132381Y-11123143D01*
X5113333Y-11094571D01*
X5103810Y-11075524D01*
X5094286Y-11046952D01*
X5084762Y-10999333D01*
X5084762Y-10961238D01*
X5094286Y-10913619D01*
X5103810Y-10885048D01*
X5113333Y-10866000D01*
X5132381Y-10837429D01*
X5141905Y-10827905D01*
X5303810Y-10923143D02*
X5303810Y-11056476D01*
X5256190Y-10846952D02*
X5208571Y-10989810D01*
X5332381Y-10989810D01*
X5560952Y-11056476D02*
X5560952Y-10856476D01*
X5646667Y-11056476D02*
X5646667Y-10951714D01*
X5637143Y-10932667D01*
X5618095Y-10923143D01*
X5589524Y-10923143D01*
X5570476Y-10932667D01*
X5560952Y-10942190D01*
X5770476Y-11056476D02*
X5751428Y-11046952D01*
X5741905Y-11037429D01*
X5732381Y-11018381D01*
X5732381Y-10961238D01*
X5741905Y-10942190D01*
X5751428Y-10932667D01*
X5770476Y-10923143D01*
X5799048Y-10923143D01*
X5818095Y-10932667D01*
X5827619Y-10942190D01*
X5837143Y-10961238D01*
X5837143Y-11018381D01*
X5827619Y-11037429D01*
X5818095Y-11046952D01*
X5799048Y-11056476D01*
X5770476Y-11056476D01*
X5951428Y-11056476D02*
X5932381Y-11046952D01*
X5922857Y-11027905D01*
X5922857Y-10856476D01*
X6103809Y-11046952D02*
X6084762Y-11056476D01*
X6046667Y-11056476D01*
X6027619Y-11046952D01*
X6018095Y-11027905D01*
X6018095Y-10951714D01*
X6027619Y-10932667D01*
X6046667Y-10923143D01*
X6084762Y-10923143D01*
X6103809Y-10932667D01*
X6113333Y-10951714D01*
X6113333Y-10970762D01*
X6018095Y-10989810D01*
X6189524Y-11046952D02*
X6208571Y-11056476D01*
X6246667Y-11056476D01*
X6265714Y-11046952D01*
X6275238Y-11027905D01*
X6275238Y-11018381D01*
X6265714Y-10999333D01*
X6246667Y-10989810D01*
X6218095Y-10989810D01*
X6199048Y-10980286D01*
X6189524Y-10961238D01*
X6189524Y-10951714D01*
X6199048Y-10932667D01*
X6218095Y-10923143D01*
X6246667Y-10923143D01*
X6265714Y-10932667D01*
X6341905Y-11132667D02*
X6351428Y-11123143D01*
X6370476Y-11094571D01*
X6380000Y-11075524D01*
X6389524Y-11046952D01*
X6399048Y-10999333D01*
X6399048Y-10961238D01*
X6389524Y-10913619D01*
X6380000Y-10885048D01*
X6370476Y-10866000D01*
X6351428Y-10837429D01*
X6341905Y-10827905D01*
M02*
