%TF.GenerationSoftware,KiCad,Pcbnew,(5.99.0-7167-g34dbce6bce)*%
%TF.CreationDate,2021-01-04T09:35:53+03:00*%
%TF.ProjectId,ANV,414e562e-6b69-4636-9164-5f7063625858,rev?*%
%TF.SameCoordinates,Original*%
%TF.FileFunction,Soldermask,Bot*%
%TF.FilePolarity,Negative*%
%FSLAX46Y46*%
G04 Gerber Fmt 4.6, Leading zero omitted, Abs format (unit mm)*
G04 Created by KiCad (PCBNEW (5.99.0-7167-g34dbce6bce)) date 2021-01-04 09:35:53*
%MOMM*%
%LPD*%
G01*
G04 APERTURE LIST*
G04 Aperture macros list*
%AMRoundRect*
0 Rectangle with rounded corners*
0 $1 Rounding radius*
0 $2 $3 $4 $5 $6 $7 $8 $9 X,Y pos of 4 corners*
0 Add a 4 corners polygon primitive as box body*
4,1,4,$2,$3,$4,$5,$6,$7,$8,$9,$2,$3,0*
0 Add four circle primitives for the rounded corners*
1,1,$1+$1,$2,$3,0*
1,1,$1+$1,$4,$5,0*
1,1,$1+$1,$6,$7,0*
1,1,$1+$1,$8,$9,0*
0 Add four rect primitives between the rounded corners*
20,1,$1+$1,$2,$3,$4,$5,0*
20,1,$1+$1,$4,$5,$6,$7,0*
20,1,$1+$1,$6,$7,$8,$9,0*
20,1,$1+$1,$8,$9,$2,$3,0*%
G04 Aperture macros list end*
%ADD10RoundRect,0.200000X-0.200000X-0.450000X0.200000X-0.450000X0.200000X0.450000X-0.200000X0.450000X0*%
%ADD11O,0.800000X1.300000*%
%ADD12C,0.800000*%
%ADD13C,6.400000*%
%ADD14RoundRect,0.200000X0.200000X0.450000X-0.200000X0.450000X-0.200000X-0.450000X0.200000X-0.450000X0*%
%ADD15RoundRect,0.500000X-0.500000X-0.500000X0.500000X-0.500000X0.500000X0.500000X-0.500000X0.500000X0*%
%ADD16RoundRect,0.500000X0.500000X-0.500000X0.500000X0.500000X-0.500000X0.500000X-0.500000X-0.500000X0*%
%ADD17C,0.650000*%
%ADD18O,1.600000X1.000000*%
%ADD19O,2.100000X1.000000*%
%ADD20RoundRect,0.500000X0.500000X0.500000X-0.500000X0.500000X-0.500000X-0.500000X0.500000X-0.500000X0*%
%ADD21RoundRect,0.500000X-0.500000X0.500000X-0.500000X-0.500000X0.500000X-0.500000X0.500000X0.500000X0*%
%ADD22RoundRect,0.135000X0.185000X-0.135000X0.185000X0.135000X-0.185000X0.135000X-0.185000X-0.135000X0*%
%ADD23R,1.500000X2.000000*%
%ADD24R,1.300000X1.800000*%
G04 APERTURE END LIST*
D10*
%TO.C,J15*%
X18000000Y-72000000D03*
D11*
X19250000Y-72000000D03*
X20500000Y-72000000D03*
%TD*%
D12*
%TO.C,H3*%
X51650000Y-86510000D03*
X46850000Y-86510000D03*
X50947056Y-84812944D03*
X47552944Y-84812944D03*
X49250000Y-84110000D03*
X49250000Y-88910000D03*
X47552944Y-88207056D03*
X50947056Y-88207056D03*
D13*
X49250000Y-86510000D03*
%TD*%
D10*
%TO.C,J1*%
X31750000Y-46000000D03*
D11*
X33000000Y-46000000D03*
X34250000Y-46000000D03*
X35500000Y-46000000D03*
X36750000Y-46000000D03*
%TD*%
D14*
%TO.C,J9*%
X19749999Y-44250000D03*
D11*
X18499999Y-44250000D03*
%TD*%
D12*
%TO.C,H1*%
X20947056Y-20947056D03*
X19250000Y-21650000D03*
X16850000Y-19250000D03*
X20947056Y-17552944D03*
X21650000Y-19250000D03*
X17552944Y-17552944D03*
X19250000Y-16850000D03*
D13*
X19250000Y-19250000D03*
D12*
X17552944Y-20947056D03*
%TD*%
D10*
%TO.C,J19*%
X18000000Y-79000000D03*
D11*
X19250000Y-79000000D03*
X20500000Y-79000000D03*
%TD*%
D15*
%TO.C,J13*%
X36000000Y-86260000D03*
X39500000Y-86260000D03*
%TD*%
D10*
%TO.C,J18*%
X18000000Y-75500000D03*
D11*
X19250000Y-75500000D03*
X20500000Y-75500000D03*
%TD*%
D16*
%TO.C,J17*%
X49000000Y-78500000D03*
X49000000Y-75000000D03*
%TD*%
D15*
%TO.C,J12*%
X29000000Y-86260000D03*
X32500000Y-86260000D03*
%TD*%
D12*
%TO.C,H2*%
X17552944Y-88207056D03*
X21650000Y-86510000D03*
X17552944Y-84812944D03*
X20947056Y-84812944D03*
D13*
X19250000Y-86510000D03*
D12*
X20947056Y-88207056D03*
X19250000Y-88910000D03*
X16850000Y-86510000D03*
X19250000Y-84110000D03*
%TD*%
D16*
%TO.C,J16*%
X49000000Y-71500000D03*
X49000000Y-68000000D03*
%TD*%
D10*
%TO.C,J14*%
X18000000Y-68500000D03*
D11*
X19250000Y-68500000D03*
X20500000Y-68500000D03*
%TD*%
D17*
%TO.C,J4*%
X46395000Y-51360000D03*
X46395000Y-57140000D03*
D18*
X50075000Y-49930000D03*
D19*
X45895000Y-49930000D03*
X45895000Y-58570000D03*
D18*
X50075000Y-58570000D03*
%TD*%
D20*
%TO.C,J10*%
X32499999Y-19500000D03*
X28999999Y-19500000D03*
%TD*%
D14*
%TO.C,J6*%
X50000000Y-44250000D03*
D11*
X48750000Y-44250000D03*
%TD*%
D16*
%TO.C,J2*%
X49000000Y-40500000D03*
X49000000Y-37000000D03*
%TD*%
D20*
%TO.C,J11*%
X39500000Y-19500000D03*
X36000000Y-19500000D03*
%TD*%
D21*
%TO.C,J8*%
X19500000Y-37000000D03*
X19500000Y-40500000D03*
%TD*%
D16*
%TO.C,J3*%
X49000000Y-33500000D03*
X49000000Y-30000000D03*
%TD*%
D12*
%TO.C,H4*%
X46850000Y-19250000D03*
X51650000Y-19250000D03*
X49250000Y-16850000D03*
X50947056Y-20947056D03*
D13*
X49250000Y-19250000D03*
D12*
X50947056Y-17552944D03*
X47552944Y-17552944D03*
X49250000Y-21650000D03*
X47552944Y-20947056D03*
%TD*%
D10*
%TO.C,J5*%
X33000000Y-38000000D03*
D11*
X34250000Y-38000000D03*
X35500000Y-38000000D03*
%TD*%
D21*
%TO.C,J7*%
X19500000Y-30000000D03*
X19500000Y-33500000D03*
%TD*%
D22*
%TO.C,R44*%
X21250000Y-39260000D03*
X21250000Y-38240000D03*
%TD*%
D23*
%TO.C,U12*%
X17500000Y-49000000D03*
X19500000Y-49000000D03*
X21500000Y-49000000D03*
D24*
X23500000Y-49000000D03*
X25500000Y-49000000D03*
D23*
X31500000Y-65000000D03*
X29500000Y-65000000D03*
X27500000Y-65000000D03*
X25500000Y-65000000D03*
X23500000Y-65000000D03*
X21500000Y-65000000D03*
X19500000Y-65000000D03*
X17500000Y-65000000D03*
%TD*%
M02*
