%TF.GenerationSoftware,KiCad,Pcbnew,(5.99.0-7167-g34dbce6bce)*%
%TF.CreationDate,2021-01-04T09:35:53+03:00*%
%TF.ProjectId,ANV,414e562e-6b69-4636-9164-5f7063625858,rev?*%
%TF.SameCoordinates,Original*%
%TF.FileFunction,Copper,L1,Top*%
%TF.FilePolarity,Positive*%
%FSLAX46Y46*%
G04 Gerber Fmt 4.6, Leading zero omitted, Abs format (unit mm)*
G04 Created by KiCad (PCBNEW (5.99.0-7167-g34dbce6bce)) date 2021-01-04 09:35:53*
%MOMM*%
%LPD*%
G01*
G04 APERTURE LIST*
G04 Aperture macros list*
%AMRoundRect*
0 Rectangle with rounded corners*
0 $1 Rounding radius*
0 $2 $3 $4 $5 $6 $7 $8 $9 X,Y pos of 4 corners*
0 Add a 4 corners polygon primitive as box body*
4,1,4,$2,$3,$4,$5,$6,$7,$8,$9,$2,$3,0*
0 Add four circle primitives for the rounded corners*
1,1,$1+$1,$2,$3,0*
1,1,$1+$1,$4,$5,0*
1,1,$1+$1,$6,$7,0*
1,1,$1+$1,$8,$9,0*
0 Add four rect primitives between the rounded corners*
20,1,$1+$1,$2,$3,$4,$5,0*
20,1,$1+$1,$4,$5,$6,$7,0*
20,1,$1+$1,$6,$7,$8,$9,0*
20,1,$1+$1,$8,$9,$2,$3,0*%
%AMRotRect*
0 Rectangle, with rotation*
0 The origin of the aperture is its center*
0 $1 length*
0 $2 width*
0 $3 Rotation angle, in degrees counterclockwise*
0 Add horizontal line*
21,1,$1,$2,0,0,$3*%
G04 Aperture macros list end*
%ADD10C,0.140000*%
%TA.AperFunction,ComponentPad*%
%ADD11RoundRect,0.200000X-0.200000X-0.450000X0.200000X-0.450000X0.200000X0.450000X-0.200000X0.450000X0*%
%TD*%
%TA.AperFunction,ComponentPad*%
%ADD12O,0.800000X1.300000*%
%TD*%
%TA.AperFunction,SMDPad,CuDef*%
%ADD13RoundRect,0.135000X0.185000X-0.135000X0.185000X0.135000X-0.185000X0.135000X-0.185000X-0.135000X0*%
%TD*%
%TA.AperFunction,SMDPad,CuDef*%
%ADD14RoundRect,0.140000X0.170000X-0.140000X0.170000X0.140000X-0.170000X0.140000X-0.170000X-0.140000X0*%
%TD*%
%TA.AperFunction,SMDPad,CuDef*%
%ADD15RoundRect,0.140000X-0.170000X0.140000X-0.170000X-0.140000X0.170000X-0.140000X0.170000X0.140000X0*%
%TD*%
%TA.AperFunction,SMDPad,CuDef*%
%ADD16RoundRect,0.135000X-0.185000X0.135000X-0.185000X-0.135000X0.185000X-0.135000X0.185000X0.135000X0*%
%TD*%
%TA.AperFunction,SMDPad,CuDef*%
%ADD17R,0.850000X0.650000*%
%TD*%
%TA.AperFunction,SMDPad,CuDef*%
%ADD18R,0.700000X0.450000*%
%TD*%
%TA.AperFunction,SMDPad,CuDef*%
%ADD19R,0.405000X0.990000*%
%TD*%
%TA.AperFunction,SMDPad,CuDef*%
%ADD20R,0.300000X0.400000*%
%TD*%
%TA.AperFunction,SMDPad,CuDef*%
%ADD21R,0.400000X0.300000*%
%TD*%
%TA.AperFunction,ComponentPad*%
%ADD22C,0.800000*%
%TD*%
%TA.AperFunction,ComponentPad*%
%ADD23C,6.400000*%
%TD*%
%TA.AperFunction,SMDPad,CuDef*%
%ADD24RoundRect,0.147500X-0.172500X0.147500X-0.172500X-0.147500X0.172500X-0.147500X0.172500X0.147500X0*%
%TD*%
%TA.AperFunction,ComponentPad*%
%ADD25RoundRect,0.200000X0.200000X0.450000X-0.200000X0.450000X-0.200000X-0.450000X0.200000X-0.450000X0*%
%TD*%
%TA.AperFunction,ComponentPad*%
%ADD26RoundRect,0.500000X-0.500000X-0.500000X0.500000X-0.500000X0.500000X0.500000X-0.500000X0.500000X0*%
%TD*%
%TA.AperFunction,SMDPad,CuDef*%
%ADD27RoundRect,0.147500X0.172500X-0.147500X0.172500X0.147500X-0.172500X0.147500X-0.172500X-0.147500X0*%
%TD*%
%TA.AperFunction,ComponentPad*%
%ADD28RoundRect,0.500000X0.500000X-0.500000X0.500000X0.500000X-0.500000X0.500000X-0.500000X-0.500000X0*%
%TD*%
%TA.AperFunction,SMDPad,CuDef*%
%ADD29R,0.580000X0.350000*%
%TD*%
%TA.AperFunction,SMDPad,CuDef*%
%ADD30R,0.350000X0.480000*%
%TD*%
%TA.AperFunction,SMDPad,CuDef*%
%ADD31R,0.280000X0.280000*%
%TD*%
%TA.AperFunction,SMDPad,CuDef*%
%ADD32O,0.850000X0.280000*%
%TD*%
%TA.AperFunction,SMDPad,CuDef*%
%ADD33R,0.230000X0.600000*%
%TD*%
%TA.AperFunction,SMDPad,CuDef*%
%ADD34R,0.650000X0.900000*%
%TD*%
%TA.AperFunction,SMDPad,CuDef*%
%ADD35R,0.250000X0.700000*%
%TD*%
%TA.AperFunction,ComponentPad*%
%ADD36C,0.600000*%
%TD*%
%TA.AperFunction,SMDPad,CuDef*%
%ADD37R,1.700000X2.150000*%
%TD*%
%TA.AperFunction,SMDPad,CuDef*%
%ADD38RoundRect,0.125000X0.537500X0.125000X-0.537500X0.125000X-0.537500X-0.125000X0.537500X-0.125000X0*%
%TD*%
%TA.AperFunction,SMDPad,CuDef*%
%ADD39R,0.300000X0.750000*%
%TD*%
%TA.AperFunction,SMDPad,CuDef*%
%ADD40R,1.900000X0.400000*%
%TD*%
%TA.AperFunction,SMDPad,CuDef*%
%ADD41RoundRect,0.250000X0.375000X0.850000X-0.375000X0.850000X-0.375000X-0.850000X0.375000X-0.850000X0*%
%TD*%
%TA.AperFunction,SMDPad,CuDef*%
%ADD42RoundRect,0.225000X0.250000X-0.225000X0.250000X0.225000X-0.250000X0.225000X-0.250000X-0.225000X0*%
%TD*%
%TA.AperFunction,SMDPad,CuDef*%
%ADD43R,0.500000X0.375000*%
%TD*%
%TA.AperFunction,SMDPad,CuDef*%
%ADD44R,0.650000X0.300000*%
%TD*%
%TA.AperFunction,SMDPad,CuDef*%
%ADD45R,0.320000X0.500000*%
%TD*%
%TA.AperFunction,SMDPad,CuDef*%
%ADD46RoundRect,0.062500X0.062500X-0.350000X0.062500X0.350000X-0.062500X0.350000X-0.062500X-0.350000X0*%
%TD*%
%TA.AperFunction,SMDPad,CuDef*%
%ADD47RoundRect,0.062500X0.350000X-0.062500X0.350000X0.062500X-0.350000X0.062500X-0.350000X-0.062500X0*%
%TD*%
%TA.AperFunction,ComponentPad*%
%ADD48C,0.500000*%
%TD*%
%TA.AperFunction,SMDPad,CuDef*%
%ADD49R,1.680000X1.680000*%
%TD*%
%TA.AperFunction,SMDPad,CuDef*%
%ADD50RoundRect,0.225000X-0.250000X0.225000X-0.250000X-0.225000X0.250000X-0.225000X0.250000X0.225000X0*%
%TD*%
%TA.AperFunction,SMDPad,CuDef*%
%ADD51R,0.500000X0.350000*%
%TD*%
%TA.AperFunction,SMDPad,CuDef*%
%ADD52R,1.150000X0.300000*%
%TD*%
%TA.AperFunction,ComponentPad*%
%ADD53O,1.600000X1.000000*%
%TD*%
%TA.AperFunction,ComponentPad*%
%ADD54O,2.100000X1.000000*%
%TD*%
%TA.AperFunction,ComponentPad*%
%ADD55RoundRect,0.500000X0.500000X0.500000X-0.500000X0.500000X-0.500000X-0.500000X0.500000X-0.500000X0*%
%TD*%
%TA.AperFunction,SMDPad,CuDef*%
%ADD56R,1.100000X1.100000*%
%TD*%
%TA.AperFunction,SMDPad,CuDef*%
%ADD57RoundRect,0.075000X-0.662500X-0.075000X0.662500X-0.075000X0.662500X0.075000X-0.662500X0.075000X0*%
%TD*%
%TA.AperFunction,SMDPad,CuDef*%
%ADD58RoundRect,0.075000X-0.075000X-0.662500X0.075000X-0.662500X0.075000X0.662500X-0.075000X0.662500X0*%
%TD*%
%TA.AperFunction,SMDPad,CuDef*%
%ADD59R,0.200000X0.600000*%
%TD*%
%TA.AperFunction,SMDPad,CuDef*%
%ADD60RotRect,0.282800X0.282800X225.000000*%
%TD*%
%TA.AperFunction,SMDPad,CuDef*%
%ADD61R,1.070000X0.800000*%
%TD*%
%TA.AperFunction,SMDPad,CuDef*%
%ADD62R,0.300000X0.850000*%
%TD*%
%TA.AperFunction,SMDPad,CuDef*%
%ADD63R,0.850000X0.300000*%
%TD*%
%TA.AperFunction,ComponentPad*%
%ADD64RoundRect,0.500000X-0.500000X0.500000X-0.500000X-0.500000X0.500000X-0.500000X0.500000X0.500000X0*%
%TD*%
%TA.AperFunction,ViaPad*%
%ADD65C,0.500000*%
%TD*%
%TA.AperFunction,Conductor*%
%ADD66C,1.000000*%
%TD*%
%TA.AperFunction,Conductor*%
%ADD67C,0.500000*%
%TD*%
%TA.AperFunction,Conductor*%
%ADD68C,0.300000*%
%TD*%
%TA.AperFunction,Conductor*%
%ADD69C,0.400000*%
%TD*%
%TA.AperFunction,Conductor*%
%ADD70C,0.160000*%
%TD*%
%TA.AperFunction,Conductor*%
%ADD71C,0.250000*%
%TD*%
%TA.AperFunction,Conductor*%
%ADD72C,0.200000*%
%TD*%
%TA.AperFunction,Conductor*%
%ADD73C,0.150000*%
%TD*%
G04 APERTURE END LIST*
D10*
X19410000Y-24253333D02*
X19090000Y-24253333D01*
X19250000Y-24253333D02*
X19250000Y-23693333D01*
X19196666Y-23773333D01*
X19143333Y-23826666D01*
X19090000Y-23853333D01*
D11*
%TO.P,J15,1,Pin_1*%
%TO.N,GND*%
X18000000Y-72000000D03*
D12*
%TO.P,J15,2,Pin_2*%
%TO.N,+5V*%
X19250000Y-72000000D03*
%TO.P,J15,3,Pin_3*%
%TO.N,A3*%
X20500000Y-72000000D03*
%TD*%
D13*
%TO.P,R4,1*%
%TO.N,Net-(J4-PadB5)*%
X43700000Y-52510000D03*
%TO.P,R4,2*%
%TO.N,GND*%
X43700000Y-51490000D03*
%TD*%
%TO.P,R37,1*%
%TO.N,+3V3*%
X41300000Y-56960000D03*
%TO.P,R37,2*%
%TO.N,A9*%
X41300000Y-55940000D03*
%TD*%
%TO.P,R33,1*%
%TO.N,B4*%
X42500000Y-20010000D03*
%TO.P,R33,2*%
%TO.N,Net-(D4-Pad2)*%
X42500000Y-18990000D03*
%TD*%
%TO.P,R17,1*%
%TO.N,GND*%
X41250000Y-82020000D03*
%TO.P,R17,2*%
%TO.N,B15*%
X41250000Y-81000000D03*
%TD*%
D14*
%TO.P,C6,1*%
%TO.N,GND*%
X42800000Y-29730000D03*
%TO.P,C6,2*%
%TO.N,Net-(C6-Pad2)*%
X42800000Y-28770000D03*
%TD*%
D15*
%TO.P,C20,1*%
%TO.N,+3V3*%
X40750000Y-63020000D03*
%TO.P,C20,2*%
%TO.N,GND*%
X40750000Y-63980000D03*
%TD*%
D14*
%TO.P,C4,1*%
%TO.N,Batt_+*%
X33750000Y-29730000D03*
%TO.P,C4,2*%
%TO.N,GND*%
X33750000Y-28770000D03*
%TD*%
D16*
%TO.P,R21,1*%
%TO.N,GND*%
X40250000Y-81000000D03*
%TO.P,R21,2*%
%TO.N,pyro4_out*%
X40250000Y-82020000D03*
%TD*%
D17*
%TO.P,D8,1,B*%
%TO.N,Net-(D8-Pad1)*%
X33525000Y-70675000D03*
%TO.P,D8,2,VCC*%
%TO.N,+3V3*%
X33525000Y-69825000D03*
%TO.P,D8,3,G*%
%TO.N,Net-(D8-Pad3)*%
X34975000Y-69825000D03*
%TO.P,D8,4,R*%
%TO.N,Net-(D8-Pad4)*%
X34975000Y-70675000D03*
%TD*%
D14*
%TO.P,C18,1*%
%TO.N,GND*%
X30000000Y-58980000D03*
%TO.P,C18,2*%
%TO.N,+3V3*%
X30000000Y-58020000D03*
%TD*%
D18*
%TO.P,Q8,1,B*%
%TO.N,Net-(Q8-Pad1)*%
X22500000Y-43350000D03*
%TO.P,Q8,2,E*%
%TO.N,led_out*%
X22500000Y-44650000D03*
%TO.P,Q8,3,C*%
%TO.N,+5V*%
X24500000Y-44000000D03*
%TD*%
D19*
%TO.P,Q3,1,S*%
%TO.N,GND*%
X25740000Y-81325000D03*
%TO.P,Q3,2,S*%
X25080000Y-81325000D03*
%TO.P,Q3,3,S*%
X24420000Y-81325000D03*
%TO.P,Q3,4,G*%
%TO.N,B12*%
X23760000Y-81325000D03*
%TA.AperFunction,SMDPad,CuDef*%
%TO.P,Q3,5,D*%
%TO.N,pyro3_out*%
G36*
X25537499Y-84690000D02*
G01*
X25537499Y-84180000D01*
X25282499Y-84180000D01*
X25282499Y-84690000D01*
X24877499Y-84690000D01*
X24877499Y-84180000D01*
X24622500Y-84180000D01*
X24622500Y-84690000D01*
X24217500Y-84690000D01*
X24217500Y-84179999D01*
X23962500Y-84179999D01*
X23962500Y-84689999D01*
X23555000Y-84689999D01*
X23555000Y-83929999D01*
X23632500Y-83929999D01*
X23632501Y-82455000D01*
X25867500Y-82455001D01*
X25867500Y-83930000D01*
X25945000Y-83930000D01*
X25944999Y-84690000D01*
X25537499Y-84690000D01*
G37*
%TD.AperFunction*%
%TD*%
D20*
%TO.P,U7,1,VDD_IO*%
%TO.N,+3V3*%
X39000000Y-62700000D03*
%TO.P,U7,2,SCL*%
%TO.N,A9*%
X38500000Y-62700000D03*
D21*
%TO.P,U7,3,-*%
%TO.N,GND*%
X37950000Y-63000000D03*
%TO.P,U7,4,SDA*%
%TO.N,A10*%
X37950000Y-63500000D03*
%TO.P,U7,5,SDO*%
%TO.N,+3V3*%
X37950000Y-64000000D03*
D20*
%TO.P,U7,6,CS*%
X38500000Y-64300000D03*
%TO.P,U7,7*%
%TO.N,N/C*%
X39000000Y-64300000D03*
D21*
%TO.P,U7,8,GND*%
%TO.N,GND*%
X39550000Y-64000000D03*
%TO.P,U7,9,GND*%
X39550000Y-63500000D03*
%TO.P,U7,10,VDD*%
%TO.N,+3V3*%
X39550000Y-63000000D03*
%TD*%
D15*
%TO.P,C14,1*%
%TO.N,GND*%
X29000000Y-49520000D03*
%TO.P,C14,2*%
%TO.N,+3V3*%
X29000000Y-50480000D03*
%TD*%
D22*
%TO.P,H3,1,1*%
%TO.N,GND*%
X51650000Y-86510000D03*
X46850000Y-86510000D03*
X50947056Y-84812944D03*
X47552944Y-84812944D03*
X49250000Y-84110000D03*
X49250000Y-88910000D03*
X47552944Y-88207056D03*
X50947056Y-88207056D03*
D23*
X49250000Y-86510000D03*
%TD*%
D16*
%TO.P,R28,1*%
%TO.N,GND*%
X30250000Y-81000000D03*
%TO.P,R28,2*%
%TO.N,B13*%
X30250000Y-82020000D03*
%TD*%
D24*
%TO.P,D3,1,K*%
%TO.N,GND*%
X26000000Y-16515000D03*
%TO.P,D3,2,A*%
%TO.N,Net-(D3-Pad2)*%
X26000000Y-17485000D03*
%TD*%
D13*
%TO.P,R31,1*%
%TO.N,A6*%
X25700000Y-44860000D03*
%TO.P,R31,2*%
%TO.N,Net-(Q8-Pad1)*%
X25700000Y-43840000D03*
%TD*%
D14*
%TO.P,C7,1*%
%TO.N,Net-(C7-Pad1)*%
X27250000Y-29980000D03*
%TO.P,C7,2*%
%TO.N,GND*%
X27250000Y-29020000D03*
%TD*%
D11*
%TO.P,J1,1,Pin_1*%
%TO.N,GND*%
X31750000Y-46000000D03*
D12*
%TO.P,J1,2,Pin_2*%
%TO.N,Reset*%
X33000000Y-46000000D03*
%TO.P,J1,3,Pin_3*%
%TO.N,B3*%
X34250000Y-46000000D03*
%TO.P,J1,4,Pin_4*%
%TO.N,SWCLK*%
X35500000Y-46000000D03*
%TO.P,J1,5,Pin_5*%
%TO.N,SWDIO*%
X36750000Y-46000000D03*
%TD*%
D25*
%TO.P,J9,1,Pin_1*%
%TO.N,led_out*%
X19749999Y-44250000D03*
D12*
%TO.P,J9,2,Pin_2*%
%TO.N,GND*%
X18499999Y-44250000D03*
%TD*%
D22*
%TO.P,H1,1,1*%
%TO.N,can_L*%
X20947056Y-20947056D03*
X19250000Y-21650000D03*
X16850000Y-19250000D03*
X20947056Y-17552944D03*
X21650000Y-19250000D03*
X17552944Y-17552944D03*
X19250000Y-16850000D03*
D23*
X19250000Y-19250000D03*
D22*
X17552944Y-20947056D03*
%TD*%
D11*
%TO.P,J19,1,Pin_1*%
%TO.N,GND*%
X18000000Y-79000000D03*
D12*
%TO.P,J19,2,Pin_2*%
%TO.N,+5V*%
X19250000Y-79000000D03*
%TO.P,J19,3,Pin_3*%
%TO.N,A7*%
X20500000Y-79000000D03*
%TD*%
D13*
%TO.P,R40,1*%
%TO.N,+3V3*%
X44750000Y-32260000D03*
%TO.P,R40,2*%
%TO.N,Net-(R40-Pad2)*%
X44750000Y-31240000D03*
%TD*%
D26*
%TO.P,J13,1,Pin_1*%
%TO.N,Batt_Pyro*%
X36000000Y-86260000D03*
%TO.P,J13,2,Pin_2*%
%TO.N,pyro4_out*%
X39500000Y-86260000D03*
%TD*%
D15*
%TO.P,C1,1*%
%TO.N,+3V3*%
X42950000Y-37870000D03*
%TO.P,C1,2*%
%TO.N,GND*%
X42950000Y-38830000D03*
%TD*%
D16*
%TO.P,R29,1*%
%TO.N,GND*%
X38250000Y-81000000D03*
%TO.P,R29,2*%
%TO.N,B14*%
X38250000Y-82020000D03*
%TD*%
D27*
%TO.P,D2,1,K*%
%TO.N,A0*%
X19000000Y-54735000D03*
%TO.P,D2,2,A*%
%TO.N,Net-(D2-Pad2)*%
X19000000Y-53765000D03*
%TD*%
D13*
%TO.P,R24,1*%
%TO.N,pyro3_out*%
X29250000Y-82020000D03*
%TO.P,R24,2*%
%TO.N,Net-(Q9-Pad1)*%
X29250000Y-81000000D03*
%TD*%
D11*
%TO.P,J18,1,Pin_1*%
%TO.N,GND*%
X18000000Y-75500000D03*
D12*
%TO.P,J18,2,Pin_2*%
%TO.N,+5V*%
X19250000Y-75500000D03*
%TO.P,J18,3,Pin_3*%
%TO.N,A5*%
X20500000Y-75500000D03*
%TD*%
D28*
%TO.P,J17,1,Pin_1*%
%TO.N,GND*%
X49000000Y-78500000D03*
%TO.P,J17,2,Pin_2*%
%TO.N,+3V3*%
X49000000Y-75000000D03*
%TD*%
D29*
%TO.P,U9,1*%
%TO.N,N/C*%
X33090000Y-65000000D03*
%TO.P,U9,2*%
X33090000Y-64500000D03*
%TO.P,U9,3,VDD*%
%TO.N,+3V3*%
X33090000Y-64000000D03*
%TO.P,U9,4,GNDA*%
%TO.N,GND*%
X33090000Y-63500000D03*
%TO.P,U9,5*%
%TO.N,N/C*%
X33090000Y-63000000D03*
%TO.P,U9,6,GNDIO*%
%TO.N,GND*%
X33090000Y-62500000D03*
%TO.P,U9,7,PS*%
%TO.N,+3V3*%
X33090000Y-62000000D03*
D30*
%TO.P,U9,8*%
%TO.N,N/C*%
X33750000Y-61540000D03*
%TO.P,U9,9,SCX*%
%TO.N,A9*%
X34250000Y-61540000D03*
%TO.P,U9,10*%
%TO.N,N/C*%
X34750000Y-61540000D03*
D29*
%TO.P,U9,11,SDX*%
%TO.N,A10*%
X35410000Y-62000000D03*
%TO.P,U9,12,SDO2*%
%TO.N,GND*%
X35410000Y-62500000D03*
%TO.P,U9,13,VDDIO*%
%TO.N,+3V3*%
X35410000Y-63000000D03*
%TO.P,U9,14*%
%TO.N,N/C*%
X35410000Y-63500000D03*
%TO.P,U9,15*%
X35410000Y-64000000D03*
%TO.P,U9,16*%
X35410000Y-64500000D03*
%TO.P,U9,17,SDO1*%
%TO.N,GND*%
X35410000Y-65000000D03*
D30*
%TO.P,U9,18*%
%TO.N,N/C*%
X34750000Y-65460000D03*
%TO.P,U9,19*%
X34250000Y-65460000D03*
%TO.P,U9,20,CSB3(magnet)*%
%TO.N,GND*%
X33750000Y-65460000D03*
%TD*%
D31*
%TO.P,U4,1,L1*%
%TO.N,Net-(L1-Pad1)*%
X31760000Y-31500000D03*
D32*
X31475000Y-31500000D03*
%TO.P,U4,2,VIN*%
%TO.N,Batt_+*%
X31475000Y-31000000D03*
D31*
X31760000Y-31000000D03*
D32*
%TO.P,U4,3,EN*%
%TO.N,en*%
X31475000Y-30500000D03*
D31*
X31760000Y-30500000D03*
%TO.P,U4,4,PS/SYNC*%
%TO.N,GND*%
X31760000Y-30000000D03*
D32*
X31475000Y-30000000D03*
%TO.P,U4,5,PG*%
%TO.N,Net-(R39-Pad2)*%
X31475000Y-29500000D03*
D31*
X31760000Y-29500000D03*
%TO.P,U4,6,VAUX*%
%TO.N,Net-(C7-Pad1)*%
X28240000Y-29500000D03*
D32*
X28525000Y-29500000D03*
%TO.P,U4,7,GND*%
%TO.N,GND*%
X28525000Y-30000000D03*
D31*
X28240000Y-30000000D03*
D32*
%TO.P,U4,8,FB*%
%TO.N,Net-(C8-Pad1)*%
X28525000Y-30500000D03*
D31*
X28240000Y-30500000D03*
%TO.P,U4,9,VOUT*%
%TO.N,+5V*%
X28240000Y-31000000D03*
D32*
X28525000Y-31000000D03*
D31*
%TO.P,U4,10,L2*%
%TO.N,Net-(L1-Pad2)*%
X28240000Y-31500000D03*
D32*
X28525000Y-31500000D03*
D33*
%TO.P,U4,11,PGND*%
%TO.N,GND*%
X30200000Y-29075000D03*
D34*
X30435000Y-31060000D03*
D35*
X29400000Y-31925000D03*
D34*
X30435000Y-29940000D03*
D35*
X29800000Y-31925000D03*
D33*
X29800000Y-29075000D03*
X29400000Y-31925000D03*
D36*
X29500000Y-30000000D03*
D34*
X29565000Y-31060000D03*
D35*
X30600000Y-29075000D03*
D37*
X30000000Y-30500000D03*
D35*
X30600000Y-31925000D03*
X30200000Y-31925000D03*
D33*
X29800000Y-31925000D03*
D36*
X30000000Y-30500000D03*
X30500000Y-31000000D03*
D35*
X29800000Y-29075000D03*
D36*
X29500000Y-31000000D03*
D33*
X30200000Y-31925000D03*
X30600000Y-29075000D03*
X30600000Y-31925000D03*
D36*
X30500000Y-30000000D03*
D35*
X29400000Y-29075000D03*
D33*
X29400000Y-29075000D03*
D35*
X30200000Y-29075000D03*
D34*
X29565000Y-29940000D03*
%TD*%
D16*
%TO.P,R3,1*%
%TO.N,Net-(J4-PadA5)*%
X43700000Y-55940000D03*
%TO.P,R3,2*%
%TO.N,GND*%
X43700000Y-56960000D03*
%TD*%
D15*
%TO.P,C16,1*%
%TO.N,GND*%
X38500000Y-49520000D03*
%TO.P,C16,2*%
%TO.N,+3V3*%
X38500000Y-50480000D03*
%TD*%
D13*
%TO.P,R12,1*%
%TO.N,+3V3*%
X26250000Y-57760000D03*
%TO.P,R12,2*%
%TO.N,Reset*%
X26250000Y-56740000D03*
%TD*%
D15*
%TO.P,C3,1*%
%TO.N,Batt_+*%
X44750000Y-28770000D03*
%TO.P,C3,2*%
%TO.N,GND*%
X44750000Y-29730000D03*
%TD*%
D18*
%TO.P,Q10,1,B*%
%TO.N,Net-(Q10-Pad1)*%
X37000000Y-81910000D03*
%TO.P,Q10,2,E*%
%TO.N,B14*%
X37000000Y-80610000D03*
%TO.P,Q10,3,C*%
%TO.N,+3V3*%
X35000000Y-81260000D03*
%TD*%
D16*
%TO.P,R14,1*%
%TO.N,GND*%
X27250000Y-23740000D03*
%TO.P,R14,2*%
%TO.N,B6*%
X27250000Y-24760000D03*
%TD*%
%TO.P,R16,1*%
%TO.N,GND*%
X27250000Y-81000000D03*
%TO.P,R16,2*%
%TO.N,B12*%
X27250000Y-82020000D03*
%TD*%
D13*
%TO.P,R18,1*%
%TO.N,GND*%
X28250000Y-24760000D03*
%TO.P,R18,2*%
%TO.N,pyro1_out*%
X28250000Y-23740000D03*
%TD*%
D14*
%TO.P,C19,1*%
%TO.N,GND*%
X21000000Y-54730000D03*
%TO.P,C19,2*%
%TO.N,+3V3*%
X21000000Y-53770000D03*
%TD*%
D16*
%TO.P,R9,1*%
%TO.N,+5V*%
X24250000Y-28990000D03*
%TO.P,R9,2*%
%TO.N,Net-(C8-Pad1)*%
X24250000Y-30010000D03*
%TD*%
D38*
%TO.P,U11,1,TXD*%
%TO.N,cantx*%
X26637500Y-39725000D03*
%TO.P,U11,2,GND*%
%TO.N,GND*%
X26637500Y-39075000D03*
%TO.P,U11,3,VDD*%
%TO.N,+3V3*%
X26637500Y-38425000D03*
%TO.P,U11,4,RXD*%
%TO.N,canrx*%
X26637500Y-37775000D03*
%TO.P,U11,5*%
%TO.N,N/C*%
X24362500Y-37775000D03*
%TO.P,U11,6,CANL*%
%TO.N,can_L*%
X24362500Y-38425000D03*
%TO.P,U11,7,CANH*%
%TO.N,can_H*%
X24362500Y-39075000D03*
%TO.P,U11,8,RS*%
%TO.N,GND*%
X24362500Y-39725000D03*
%TD*%
D18*
%TO.P,Q6,1,B*%
%TO.N,Net-(Q6-Pad1)*%
X37000000Y-25150000D03*
%TO.P,Q6,2,E*%
%TO.N,B4*%
X37000000Y-23850000D03*
%TO.P,Q6,3,C*%
%TO.N,+3V3*%
X35000000Y-24500000D03*
%TD*%
D39*
%TO.P,U6,1,~CS*%
%TO.N,A0*%
X22250000Y-55700000D03*
%TO.P,U6,2,DO(IO1)*%
%TO.N,C15*%
X22750000Y-55700000D03*
%TO.P,U6,3,IO2*%
%TO.N,+3V3*%
X23250000Y-55700000D03*
%TO.P,U6,4,GND*%
%TO.N,GND*%
X23750000Y-55700000D03*
%TO.P,U6,5,DI(IO0)*%
%TO.N,C14*%
X23750000Y-52800000D03*
%TO.P,U6,6,CLK*%
%TO.N,C13*%
X23250000Y-52800000D03*
%TO.P,U6,7,IO3*%
%TO.N,+3V3*%
X22750000Y-52800000D03*
%TO.P,U6,8,VCC*%
X22250000Y-52800000D03*
%TD*%
D18*
%TO.P,Q9,1,B*%
%TO.N,Net-(Q9-Pad1)*%
X31500000Y-80610000D03*
%TO.P,Q9,2,E*%
%TO.N,B13*%
X31500000Y-81910000D03*
%TO.P,Q9,3,C*%
%TO.N,+3V3*%
X33500000Y-81260000D03*
%TD*%
D26*
%TO.P,J12,1,Pin_1*%
%TO.N,pyro3_out*%
X29000000Y-86260000D03*
%TO.P,J12,2,Pin_2*%
%TO.N,Batt_Pyro*%
X32500000Y-86260000D03*
%TD*%
D15*
%TO.P,C24,1*%
%TO.N,GND*%
X36750000Y-63020000D03*
%TO.P,C24,2*%
%TO.N,+3V3*%
X36750000Y-63980000D03*
%TD*%
D19*
%TO.P,Q2,1,S*%
%TO.N,GND*%
X42760000Y-24435000D03*
%TO.P,Q2,2,S*%
X43420000Y-24435000D03*
%TO.P,Q2,3,S*%
X44080000Y-24435000D03*
%TO.P,Q2,4,G*%
%TO.N,B7*%
X44740000Y-24435000D03*
%TA.AperFunction,SMDPad,CuDef*%
%TO.P,Q2,5,D*%
%TO.N,pyro2_out*%
G36*
X42962501Y-21070000D02*
G01*
X42962500Y-21580000D01*
X43217500Y-21580000D01*
X43217501Y-21070000D01*
X43622501Y-21070000D01*
X43622501Y-21580000D01*
X43877500Y-21580000D01*
X43877500Y-21070000D01*
X44282500Y-21070000D01*
X44282500Y-21580000D01*
X44537500Y-21580000D01*
X44537500Y-21070000D01*
X44945000Y-21070000D01*
X44945000Y-21830001D01*
X44867500Y-21830001D01*
X44867500Y-23305000D01*
X42632500Y-23304999D01*
X42632500Y-21830000D01*
X42555000Y-21830000D01*
X42555000Y-21070000D01*
X42962501Y-21070000D01*
G37*
%TD.AperFunction*%
%TD*%
D40*
%TO.P,Y1,1,1*%
%TO.N,Net-(U5-Pad5)*%
X26750000Y-53050000D03*
%TO.P,Y1,2,2*%
%TO.N,GND*%
X26750000Y-54250000D03*
%TO.P,Y1,3,3*%
%TO.N,Net-(U5-Pad6)*%
X26750000Y-55450000D03*
%TD*%
D13*
%TO.P,R27,1*%
%TO.N,GND*%
X38250000Y-24760000D03*
%TO.P,R27,2*%
%TO.N,B4*%
X38250000Y-23740000D03*
%TD*%
%TO.P,R1,1*%
%TO.N,B0*%
X35250000Y-43010000D03*
%TO.P,R1,2*%
%TO.N,Batt_+*%
X35250000Y-41990000D03*
%TD*%
D41*
%TO.P,L2,1*%
%TO.N,Net-(L2-Pad1)*%
X39325000Y-34050000D03*
%TO.P,L2,2*%
%TO.N,+3V3*%
X37175000Y-34050000D03*
%TD*%
D42*
%TO.P,C10,1*%
%TO.N,+3V3*%
X37050000Y-31875000D03*
%TO.P,C10,2*%
%TO.N,GND*%
X37050000Y-30325000D03*
%TD*%
D43*
%TO.P,U2,1,I/O1*%
%TO.N,Net-(J4-PadA7)*%
X43350000Y-54787500D03*
D44*
%TO.P,U2,2,GND*%
%TO.N,GND*%
X43425000Y-54250000D03*
D43*
%TO.P,U2,3,I/O2*%
%TO.N,Net-(J4-PadA6)*%
X43350000Y-53712500D03*
%TO.P,U2,4,I/O2*%
%TO.N,USB_D+*%
X41650000Y-53712500D03*
D44*
%TO.P,U2,5,VBUS*%
%TO.N,Batt_+*%
X41575000Y-54250000D03*
D43*
%TO.P,U2,6,I/O1*%
%TO.N,USB_D-*%
X41650000Y-54787500D03*
%TD*%
D45*
%TO.P,RN1,1,R1.1*%
%TO.N,B11*%
X35000000Y-67500000D03*
%TO.P,RN1,2,R2.1*%
%TO.N,B10*%
X34500000Y-67500000D03*
%TO.P,RN1,3,R3.1*%
%TO.N,GND*%
X34000000Y-67500000D03*
%TO.P,RN1,4*%
%TO.N,N/C*%
X33500000Y-67500000D03*
%TO.P,RN1,5*%
X33500000Y-68500000D03*
%TO.P,RN1,6,R3.2*%
%TO.N,Net-(D8-Pad1)*%
X34000000Y-68500000D03*
%TO.P,RN1,7,R2.2*%
%TO.N,Net-(D8-Pad3)*%
X34500000Y-68500000D03*
%TO.P,RN1,8,R1.2*%
%TO.N,Net-(D8-Pad4)*%
X35000000Y-68500000D03*
%TD*%
D16*
%TO.P,R8,1*%
%TO.N,+3V3*%
X41650000Y-51490000D03*
%TO.P,R8,2*%
%TO.N,USB_D+*%
X41650000Y-52510000D03*
%TD*%
D22*
%TO.P,H2,1,1*%
%TO.N,can_H*%
X17552944Y-88207056D03*
X21650000Y-86510000D03*
X17552944Y-84812944D03*
X20947056Y-84812944D03*
D23*
X19250000Y-86510000D03*
D22*
X20947056Y-88207056D03*
X19250000Y-88910000D03*
X16850000Y-86510000D03*
X19250000Y-84110000D03*
%TD*%
D14*
%TO.P,C26,1*%
%TO.N,GND*%
X20000000Y-51530000D03*
%TO.P,C26,2*%
%TO.N,+3V3*%
X20000000Y-50570000D03*
%TD*%
D15*
%TO.P,C2,1*%
%TO.N,Batt_+*%
X43750000Y-28770000D03*
%TO.P,C2,2*%
%TO.N,GND*%
X43750000Y-29730000D03*
%TD*%
D46*
%TO.P,U3,1,SW*%
%TO.N,Net-(L2-Pad1)*%
X39250000Y-31962500D03*
%TO.P,U3,2,SW*%
X39750000Y-31962500D03*
%TO.P,U3,3,SW*%
X40250000Y-31962500D03*
%TO.P,U3,4,PG*%
%TO.N,Net-(R11-Pad2)*%
X40750000Y-31962500D03*
D47*
%TO.P,U3,5,FB*%
%TO.N,Net-(R40-Pad2)*%
X41462500Y-31250000D03*
%TO.P,U3,6,AGND*%
%TO.N,GND*%
X41462500Y-30750000D03*
%TO.P,U3,7,FSW*%
%TO.N,+3V3*%
X41462500Y-30250000D03*
%TO.P,U3,8,DEF*%
%TO.N,GND*%
X41462500Y-29750000D03*
D46*
%TO.P,U3,9,SS/TR*%
%TO.N,Net-(C6-Pad2)*%
X40750000Y-29037500D03*
%TO.P,U3,10,AVIN*%
%TO.N,Batt_+*%
X40250000Y-29037500D03*
%TO.P,U3,11,PVIN*%
X39750000Y-29037500D03*
%TO.P,U3,12,PVIN*%
X39250000Y-29037500D03*
D47*
%TO.P,U3,13,EN*%
%TO.N,en*%
X38537500Y-29750000D03*
%TO.P,U3,14,VOS*%
%TO.N,+3V3*%
X38537500Y-30250000D03*
%TO.P,U3,15,PGND*%
%TO.N,GND*%
X38537500Y-30750000D03*
%TO.P,U3,16,PGND*%
X38537500Y-31250000D03*
D48*
%TO.P,U3,17,THERMAL_PAD*%
X39410000Y-31090000D03*
D49*
X40000000Y-30500000D03*
D48*
X39410000Y-29910000D03*
X40590000Y-29910000D03*
X40590000Y-31090000D03*
%TD*%
D13*
%TO.P,R38,1*%
%TO.N,+3V3*%
X42500000Y-56960000D03*
%TO.P,R38,2*%
%TO.N,A10*%
X42500000Y-55940000D03*
%TD*%
D14*
%TO.P,C15,1*%
%TO.N,GND*%
X38500000Y-58980000D03*
%TO.P,C15,2*%
%TO.N,+3V3*%
X38500000Y-58020000D03*
%TD*%
D50*
%TO.P,C9,1*%
%TO.N,+5V*%
X27000000Y-31225000D03*
%TO.P,C9,2*%
%TO.N,GND*%
X27000000Y-32775000D03*
%TD*%
D13*
%TO.P,R10,1*%
%TO.N,Net-(C8-Pad1)*%
X26250000Y-30010000D03*
%TO.P,R10,2*%
%TO.N,GND*%
X26250000Y-28990000D03*
%TD*%
D41*
%TO.P,L1,1*%
%TO.N,Net-(L1-Pad1)*%
X31075000Y-34050000D03*
%TO.P,L1,2*%
%TO.N,Net-(L1-Pad2)*%
X28925000Y-34050000D03*
%TD*%
D16*
%TO.P,R35,1*%
%TO.N,B14*%
X42500000Y-85750000D03*
%TO.P,R35,2*%
%TO.N,Net-(D6-Pad2)*%
X42500000Y-86770000D03*
%TD*%
D14*
%TO.P,C27,1*%
%TO.N,GND*%
X21000000Y-51530000D03*
%TO.P,C27,2*%
%TO.N,+3V3*%
X21000000Y-50570000D03*
%TD*%
D51*
%TO.P,U8,1,GND*%
%TO.N,GND*%
X30550000Y-62525000D03*
%TO.P,U8,2,CSB*%
%TO.N,+3V3*%
X30550000Y-63175000D03*
%TO.P,U8,3,SDI*%
%TO.N,A10*%
X30550000Y-63825000D03*
%TO.P,U8,4,SCK*%
%TO.N,A9*%
X30550000Y-64475000D03*
%TO.P,U8,5,SDO*%
%TO.N,GND*%
X28950000Y-64475000D03*
%TO.P,U8,6,VDDIO*%
%TO.N,+3V3*%
X28950000Y-63825000D03*
%TO.P,U8,7,GND*%
%TO.N,GND*%
X28950000Y-63175000D03*
%TO.P,U8,8,VDD*%
%TO.N,+3V3*%
X28950000Y-62525000D03*
%TD*%
D16*
%TO.P,R39,1*%
%TO.N,+5V*%
X32750000Y-28740000D03*
%TO.P,R39,2*%
%TO.N,Net-(R39-Pad2)*%
X32750000Y-29760000D03*
%TD*%
D14*
%TO.P,C25,1*%
%TO.N,GND*%
X28250000Y-39230000D03*
%TO.P,C25,2*%
%TO.N,+3V3*%
X28250000Y-38270000D03*
%TD*%
D16*
%TO.P,R11,1*%
%TO.N,+3V3*%
X42750000Y-31240000D03*
%TO.P,R11,2*%
%TO.N,Net-(R11-Pad2)*%
X42750000Y-32260000D03*
%TD*%
D24*
%TO.P,D7,1,K*%
%TO.N,GND*%
X34250000Y-41065000D03*
%TO.P,D7,2,A*%
%TO.N,Net-(D7-Pad2)*%
X34250000Y-42035000D03*
%TD*%
D15*
%TO.P,C5,1*%
%TO.N,Batt_+*%
X32750000Y-31020000D03*
%TO.P,C5,2*%
%TO.N,GND*%
X32750000Y-31980000D03*
%TD*%
D16*
%TO.P,R41,1*%
%TO.N,Net-(R40-Pad2)*%
X43750000Y-31240000D03*
%TO.P,R41,2*%
%TO.N,GND*%
X43750000Y-32260000D03*
%TD*%
D19*
%TO.P,Q1,1,S*%
%TO.N,GND*%
X23760000Y-24435000D03*
%TO.P,Q1,2,S*%
X24420000Y-24435000D03*
%TO.P,Q1,3,S*%
X25080000Y-24435000D03*
%TO.P,Q1,4,G*%
%TO.N,B6*%
X25740000Y-24435000D03*
%TA.AperFunction,SMDPad,CuDef*%
%TO.P,Q1,5,D*%
%TO.N,pyro1_out*%
G36*
X23962501Y-21070000D02*
G01*
X23962500Y-21580000D01*
X24217500Y-21580000D01*
X24217501Y-21070000D01*
X24622501Y-21070000D01*
X24622501Y-21580000D01*
X24877500Y-21580000D01*
X24877500Y-21070000D01*
X25282500Y-21070000D01*
X25282500Y-21580000D01*
X25537500Y-21580000D01*
X25537500Y-21070000D01*
X25945000Y-21070000D01*
X25945000Y-21830001D01*
X25867500Y-21830001D01*
X25867500Y-23305000D01*
X23632500Y-23304999D01*
X23632500Y-21830000D01*
X23555000Y-21830000D01*
X23555000Y-21070000D01*
X23962501Y-21070000D01*
G37*
%TD.AperFunction*%
%TD*%
D50*
%TO.P,C12,1*%
%TO.N,+5V*%
X24000000Y-31225000D03*
%TO.P,C12,2*%
%TO.N,GND*%
X24000000Y-32775000D03*
%TD*%
D16*
%TO.P,R36,1*%
%TO.N,+3V3*%
X35249999Y-40090000D03*
%TO.P,R36,2*%
%TO.N,Net-(D7-Pad2)*%
X35249999Y-41110000D03*
%TD*%
%TO.P,R34,1*%
%TO.N,B13*%
X26000000Y-85750000D03*
%TO.P,R34,2*%
%TO.N,Net-(D5-Pad2)*%
X26000000Y-86770000D03*
%TD*%
D14*
%TO.P,C8,1*%
%TO.N,Net-(C8-Pad1)*%
X25250000Y-29980000D03*
%TO.P,C8,2*%
%TO.N,GND*%
X25250000Y-29020000D03*
%TD*%
D13*
%TO.P,R32,1*%
%TO.N,B5*%
X26000000Y-20010000D03*
%TO.P,R32,2*%
%TO.N,Net-(D3-Pad2)*%
X26000000Y-18990000D03*
%TD*%
D28*
%TO.P,J16,1,Pin_1*%
%TO.N,GND*%
X49000000Y-71500000D03*
%TO.P,J16,2,Pin_2*%
%TO.N,Batt_Pyro*%
X49000000Y-68000000D03*
%TD*%
D15*
%TO.P,C23,1*%
%TO.N,GND*%
X31750000Y-63020000D03*
%TO.P,C23,2*%
%TO.N,+3V3*%
X31750000Y-63980000D03*
%TD*%
D27*
%TO.P,D10,1,K*%
%TO.N,A1*%
X17000000Y-54735000D03*
%TO.P,D10,2,A*%
%TO.N,Net-(D10-Pad2)*%
X17000000Y-53765000D03*
%TD*%
D11*
%TO.P,J14,1,Pin_1*%
%TO.N,GND*%
X18000000Y-68500000D03*
D12*
%TO.P,J14,2,Pin_2*%
%TO.N,+5V*%
X19250000Y-68500000D03*
%TO.P,J14,3,Pin_3*%
%TO.N,A2*%
X20500000Y-68500000D03*
%TD*%
D15*
%TO.P,C17,1*%
%TO.N,GND*%
X30000000Y-49520000D03*
%TO.P,C17,2*%
%TO.N,+3V3*%
X30000000Y-50480000D03*
%TD*%
D52*
%TO.P,J4,A1,GND*%
%TO.N,GND*%
X45330000Y-57600000D03*
%TO.P,J4,A4,VBUS*%
%TO.N,Net-(D1-Pad2)*%
X45330000Y-56800000D03*
%TO.P,J4,A5,CC1*%
%TO.N,Net-(J4-PadA5)*%
X45330000Y-55500000D03*
%TO.P,J4,A6,D+*%
%TO.N,Net-(J4-PadA6)*%
X45330000Y-54500000D03*
%TO.P,J4,A7,D-*%
%TO.N,Net-(J4-PadA7)*%
X45330000Y-54000000D03*
%TO.P,J4,A8*%
%TO.N,N/C*%
X45330000Y-53000000D03*
%TO.P,J4,A9,VBUS*%
%TO.N,Net-(D1-Pad2)*%
X45330000Y-51700000D03*
%TO.P,J4,A12,GND*%
%TO.N,GND*%
X45330000Y-50900000D03*
%TO.P,J4,B1,GND*%
X45330000Y-51200000D03*
%TO.P,J4,B4,VBUS*%
%TO.N,Net-(D1-Pad2)*%
X45330000Y-52000000D03*
%TO.P,J4,B5,CC2*%
%TO.N,Net-(J4-PadB5)*%
X45330000Y-52500000D03*
%TO.P,J4,B6,D+*%
%TO.N,Net-(J4-PadA6)*%
X45330000Y-53500000D03*
%TO.P,J4,B7,D-*%
%TO.N,Net-(J4-PadA7)*%
X45330000Y-55000000D03*
%TO.P,J4,B8*%
%TO.N,N/C*%
X45330000Y-56000000D03*
%TO.P,J4,B9,VBUS*%
%TO.N,Net-(D1-Pad2)*%
X45330000Y-56500000D03*
%TO.P,J4,B12,GND*%
%TO.N,GND*%
X45330000Y-57300000D03*
D53*
%TO.P,J4,S1,SHIELD*%
X50075000Y-49930000D03*
D54*
X45895000Y-49930000D03*
X45895000Y-58570000D03*
D53*
X50075000Y-58570000D03*
%TD*%
D55*
%TO.P,J10,1,Pin_1*%
%TO.N,Batt_Pyro*%
X32499999Y-19500000D03*
%TO.P,J10,2,Pin_2*%
%TO.N,pyro1_out*%
X28999999Y-19500000D03*
%TD*%
D25*
%TO.P,J6,1,Pin_1*%
%TO.N,GND*%
X50000000Y-44250000D03*
D12*
%TO.P,J6,2,Pin_2*%
%TO.N,buzzer_out*%
X48750000Y-44250000D03*
%TD*%
D14*
%TO.P,C13,1*%
%TO.N,GND*%
X27250000Y-57730000D03*
%TO.P,C13,2*%
%TO.N,Reset*%
X27250000Y-56770000D03*
%TD*%
D50*
%TO.P,C11,1*%
%TO.N,+5V*%
X25500000Y-31225000D03*
%TO.P,C11,2*%
%TO.N,GND*%
X25500000Y-32775000D03*
%TD*%
D56*
%TO.P,D9,1,K*%
%TO.N,Batt_+*%
X46100000Y-26750000D03*
%TO.P,D9,2,A*%
%TO.N,Batt_Pyro*%
X48900000Y-26750000D03*
%TD*%
D57*
%TO.P,U5,1,VBAT*%
%TO.N,+3V3*%
X30087500Y-51500000D03*
%TO.P,U5,2,PC13*%
%TO.N,C13*%
X30087500Y-52000000D03*
%TO.P,U5,3,PC14*%
%TO.N,C14*%
X30087500Y-52500000D03*
%TO.P,U5,4,PC15*%
%TO.N,C15*%
X30087500Y-53000000D03*
%TO.P,U5,5,PF0*%
%TO.N,Net-(U5-Pad5)*%
X30087500Y-53500000D03*
%TO.P,U5,6,PF1*%
%TO.N,Net-(U5-Pad6)*%
X30087500Y-54000000D03*
%TO.P,U5,7,NRST*%
%TO.N,Reset*%
X30087500Y-54500000D03*
%TO.P,U5,8,VSSA*%
%TO.N,GND*%
X30087500Y-55000000D03*
%TO.P,U5,9,VDDA*%
%TO.N,+3V3*%
X30087500Y-55500000D03*
%TO.P,U5,10,PA0*%
%TO.N,A0*%
X30087500Y-56000000D03*
%TO.P,U5,11,PA1*%
%TO.N,A1*%
X30087500Y-56500000D03*
%TO.P,U5,12,PA2*%
%TO.N,A2*%
X30087500Y-57000000D03*
D58*
%TO.P,U5,13,PA3*%
%TO.N,A3*%
X31500000Y-58412500D03*
%TO.P,U5,14,PA4*%
%TO.N,lora_reset*%
X32000000Y-58412500D03*
%TO.P,U5,15,PA5*%
%TO.N,A5*%
X32500000Y-58412500D03*
%TO.P,U5,16,PA6*%
%TO.N,A6*%
X33000000Y-58412500D03*
%TO.P,U5,17,PA7*%
%TO.N,A7*%
X33500000Y-58412500D03*
%TO.P,U5,18,PB0*%
%TO.N,B0*%
X34000000Y-58412500D03*
%TO.P,U5,19,PB1*%
%TO.N,B1*%
X34500000Y-58412500D03*
%TO.P,U5,20,PB2*%
%TO.N,GND*%
X35000000Y-58412500D03*
%TO.P,U5,21,PB10*%
%TO.N,B10*%
X35500000Y-58412500D03*
%TO.P,U5,22,PB11*%
%TO.N,B11*%
X36000000Y-58412500D03*
%TO.P,U5,23,VSS*%
%TO.N,GND*%
X36500000Y-58412500D03*
%TO.P,U5,24,VDD*%
%TO.N,+3V3*%
X37000000Y-58412500D03*
D57*
%TO.P,U5,25,PB12*%
%TO.N,B12*%
X38412500Y-57000000D03*
%TO.P,U5,26,PB13*%
%TO.N,B13*%
X38412500Y-56500000D03*
%TO.P,U5,27,PB14*%
%TO.N,B14*%
X38412500Y-56000000D03*
%TO.P,U5,28,PB15*%
%TO.N,B15*%
X38412500Y-55500000D03*
%TO.P,U5,29,PA8*%
%TO.N,A8*%
X38412500Y-55000000D03*
%TO.P,U5,30,PA9*%
%TO.N,A9*%
X38412500Y-54500000D03*
%TO.P,U5,31,PA10*%
%TO.N,A10*%
X38412500Y-54000000D03*
%TO.P,U5,32,PA11*%
%TO.N,USB_D-*%
X38412500Y-53500000D03*
%TO.P,U5,33,PA12*%
%TO.N,USB_D+*%
X38412500Y-53000000D03*
%TO.P,U5,34,PA13*%
%TO.N,SWDIO*%
X38412500Y-52500000D03*
%TO.P,U5,35,VSS*%
%TO.N,GND*%
X38412500Y-52000000D03*
%TO.P,U5,36,VDD*%
%TO.N,+3V3*%
X38412500Y-51500000D03*
D58*
%TO.P,U5,37,PA14*%
%TO.N,SWCLK*%
X37000000Y-50087500D03*
%TO.P,U5,38,PA15*%
%TO.N,A15*%
X36500000Y-50087500D03*
%TO.P,U5,39,PB3*%
%TO.N,B3*%
X36000000Y-50087500D03*
%TO.P,U5,40,PB4*%
%TO.N,B4*%
X35500000Y-50087500D03*
%TO.P,U5,41,PB5*%
%TO.N,B5*%
X35000000Y-50087500D03*
%TO.P,U5,42,PB6*%
%TO.N,B6*%
X34500000Y-50087500D03*
%TO.P,U5,43,PB7*%
%TO.N,B7*%
X34000000Y-50087500D03*
%TO.P,U5,44,BOOT0*%
%TO.N,GND*%
X33500000Y-50087500D03*
%TO.P,U5,45,PB8*%
%TO.N,canrx*%
X33000000Y-50087500D03*
%TO.P,U5,46,PB9*%
%TO.N,cantx*%
X32500000Y-50087500D03*
%TO.P,U5,47,VSS*%
%TO.N,GND*%
X32000000Y-50087500D03*
%TO.P,U5,48,VDD*%
%TO.N,+3V3*%
X31500000Y-50087500D03*
%TD*%
D28*
%TO.P,J2,1,Pin_1*%
%TO.N,GND*%
X49000000Y-40500000D03*
%TO.P,J2,2,Pin_2*%
%TO.N,Net-(J2-Pad2)*%
X49000000Y-37000000D03*
%TD*%
D16*
%TO.P,R20,1*%
%TO.N,GND*%
X28250000Y-81000000D03*
%TO.P,R20,2*%
%TO.N,pyro3_out*%
X28250000Y-82020000D03*
%TD*%
D55*
%TO.P,J11,1,Pin_1*%
%TO.N,pyro2_out*%
X39500000Y-19500000D03*
%TO.P,J11,2,Pin_2*%
%TO.N,Batt_Pyro*%
X36000000Y-19500000D03*
%TD*%
D13*
%TO.P,R13,1*%
%TO.N,+3V3*%
X20000000Y-54760000D03*
%TO.P,R13,2*%
%TO.N,Net-(D2-Pad2)*%
X20000000Y-53740000D03*
%TD*%
D16*
%TO.P,R23,1*%
%TO.N,pyro2_out*%
X39250000Y-23740000D03*
%TO.P,R23,2*%
%TO.N,Net-(Q6-Pad1)*%
X39250000Y-24760000D03*
%TD*%
D19*
%TO.P,Q4,1,S*%
%TO.N,GND*%
X44740000Y-81325000D03*
%TO.P,Q4,2,S*%
X44080000Y-81325000D03*
%TO.P,Q4,3,S*%
X43420000Y-81325000D03*
%TO.P,Q4,4,G*%
%TO.N,B15*%
X42760000Y-81325000D03*
%TA.AperFunction,SMDPad,CuDef*%
%TO.P,Q4,5,D*%
%TO.N,pyro4_out*%
G36*
X44537499Y-84690000D02*
G01*
X44537499Y-84180000D01*
X44282499Y-84180000D01*
X44282499Y-84690000D01*
X43877499Y-84690000D01*
X43877499Y-84180000D01*
X43622500Y-84180000D01*
X43622500Y-84690000D01*
X43217500Y-84690000D01*
X43217500Y-84179999D01*
X42962500Y-84179999D01*
X42962500Y-84689999D01*
X42555000Y-84689999D01*
X42555000Y-83929999D01*
X42632500Y-83929999D01*
X42632501Y-82455000D01*
X44867500Y-82455001D01*
X44867500Y-83930000D01*
X44945000Y-83930000D01*
X44944999Y-84690000D01*
X44537499Y-84690000D01*
G37*
%TD.AperFunction*%
%TD*%
D16*
%TO.P,R22,1*%
%TO.N,pyro1_out*%
X29250000Y-23740000D03*
%TO.P,R22,2*%
%TO.N,Net-(Q5-Pad1)*%
X29250000Y-24760000D03*
%TD*%
D59*
%TO.P,U1,1,IP+*%
%TO.N,Net-(J2-Pad2)*%
X43685000Y-35650000D03*
D60*
X43785000Y-35950000D03*
D61*
X44320000Y-35750000D03*
D59*
%TO.P,U1,2,IP-*%
%TO.N,Net-(J3-Pad1)*%
X43685000Y-34850000D03*
D61*
X44320000Y-34750000D03*
D60*
X43785000Y-34550000D03*
D62*
%TO.P,U1,3,GND*%
%TO.N,GND*%
X42770000Y-33800000D03*
%TO.P,U1,4*%
%TO.N,N/C*%
X42270000Y-33800000D03*
D63*
%TO.P,U1,5,NC*%
%TO.N,GND*%
X41570000Y-34500000D03*
%TO.P,U1,6,NC*%
X41570000Y-35000000D03*
%TO.P,U1,7,NC*%
X41570000Y-35500000D03*
%TO.P,U1,8,NC*%
X41570000Y-36000000D03*
D62*
%TO.P,U1,9,VIOUT*%
%TO.N,B1*%
X42270000Y-36700000D03*
%TO.P,U1,10,VCC*%
%TO.N,+3V3*%
X42770000Y-36700000D03*
%TD*%
D64*
%TO.P,J8,1,Pin_1*%
%TO.N,can_L*%
X19500000Y-37000000D03*
%TO.P,J8,2,Pin_2*%
%TO.N,can_H*%
X19500000Y-40500000D03*
%TD*%
D27*
%TO.P,D6,1,K*%
%TO.N,GND*%
X42500000Y-89245000D03*
%TO.P,D6,2,A*%
%TO.N,Net-(D6-Pad2)*%
X42500000Y-88275000D03*
%TD*%
D28*
%TO.P,J3,1,Pin_1*%
%TO.N,Net-(J3-Pad1)*%
X49000000Y-33500000D03*
%TO.P,J3,2,Pin_2*%
%TO.N,Batt_Pyro*%
X49000000Y-30000000D03*
%TD*%
D13*
%TO.P,R15,1*%
%TO.N,GND*%
X41250000Y-24750000D03*
%TO.P,R15,2*%
%TO.N,B7*%
X41250000Y-23730000D03*
%TD*%
%TO.P,R7,1*%
%TO.N,GND*%
X33249999Y-41110000D03*
%TO.P,R7,2*%
%TO.N,en*%
X33249999Y-40090000D03*
%TD*%
D16*
%TO.P,R45,1*%
%TO.N,+3V3*%
X18000000Y-53740000D03*
%TO.P,R45,2*%
%TO.N,Net-(D10-Pad2)*%
X18000000Y-54760000D03*
%TD*%
D56*
%TO.P,D1,1,K*%
%TO.N,Batt_+*%
X43900000Y-47750000D03*
%TO.P,D1,2,A*%
%TO.N,Net-(D1-Pad2)*%
X46700000Y-47750000D03*
%TD*%
D13*
%TO.P,R25,1*%
%TO.N,pyro4_out*%
X39250000Y-82020000D03*
%TO.P,R25,2*%
%TO.N,Net-(Q10-Pad1)*%
X39250000Y-81000000D03*
%TD*%
D22*
%TO.P,H4,1,1*%
%TO.N,Batt_Pyro*%
X46850000Y-19250000D03*
X51650000Y-19250000D03*
X49250000Y-16850000D03*
X50947056Y-20947056D03*
D23*
X49250000Y-19250000D03*
D22*
X50947056Y-17552944D03*
X47552944Y-17552944D03*
X49250000Y-21650000D03*
X47552944Y-20947056D03*
%TD*%
D27*
%TO.P,D5,1,K*%
%TO.N,GND*%
X26000000Y-89245000D03*
%TO.P,D5,2,A*%
%TO.N,Net-(D5-Pad2)*%
X26000000Y-88275000D03*
%TD*%
D14*
%TO.P,C21,1*%
%TO.N,+3V3*%
X27750000Y-63980000D03*
%TO.P,C21,2*%
%TO.N,GND*%
X27750000Y-63020000D03*
%TD*%
D16*
%TO.P,R2,1*%
%TO.N,GND*%
X33250000Y-41990000D03*
%TO.P,R2,2*%
%TO.N,B0*%
X33250000Y-43010000D03*
%TD*%
D13*
%TO.P,R26,1*%
%TO.N,GND*%
X30250000Y-24760000D03*
%TO.P,R26,2*%
%TO.N,B5*%
X30250000Y-23740000D03*
%TD*%
D24*
%TO.P,D4,1,K*%
%TO.N,GND*%
X42500000Y-16515000D03*
%TO.P,D4,2,A*%
%TO.N,Net-(D4-Pad2)*%
X42500000Y-17485000D03*
%TD*%
D11*
%TO.P,J5,1,Pin_1*%
%TO.N,en*%
X33000000Y-38000000D03*
D12*
%TO.P,J5,2,Pin_2*%
%TO.N,GND*%
X34250000Y-38000000D03*
%TO.P,J5,3,Pin_3*%
%TO.N,Batt_+*%
X35500000Y-38000000D03*
%TD*%
D64*
%TO.P,J7,1,Pin_1*%
%TO.N,+5V*%
X19500000Y-30000000D03*
%TO.P,J7,2,Pin_2*%
%TO.N,GND*%
X19500000Y-33500000D03*
%TD*%
D18*
%TO.P,Q5,1,B*%
%TO.N,Net-(Q5-Pad1)*%
X31500000Y-23850000D03*
%TO.P,Q5,2,E*%
%TO.N,B5*%
X31500000Y-25150000D03*
%TO.P,Q5,3,C*%
%TO.N,+3V3*%
X33500000Y-24500000D03*
%TD*%
D13*
%TO.P,R30,1*%
%TO.N,A8*%
X42800000Y-44860000D03*
%TO.P,R30,2*%
%TO.N,Net-(Q7-Pad1)*%
X42800000Y-43840000D03*
%TD*%
%TO.P,R19,1*%
%TO.N,GND*%
X40250000Y-24760000D03*
%TO.P,R19,2*%
%TO.N,pyro2_out*%
X40250000Y-23740000D03*
%TD*%
D18*
%TO.P,Q7,1,B*%
%TO.N,Net-(Q7-Pad1)*%
X46000000Y-44650000D03*
%TO.P,Q7,2,E*%
%TO.N,buzzer_out*%
X46000000Y-43350000D03*
%TO.P,Q7,3,C*%
%TO.N,+5V*%
X44000000Y-44000000D03*
%TD*%
D65*
%TO.N,*%
X29000000Y-65750000D03*
X28000000Y-65750000D03*
%TO.N,Batt_+*%
X35471232Y-32471232D03*
X35050000Y-30950000D03*
%TO.N,Net-(J2-Pad2)*%
X45250000Y-35750000D03*
X46000000Y-36500000D03*
X46000000Y-37250000D03*
X47500000Y-36500000D03*
X47500000Y-37250000D03*
X46000000Y-35750000D03*
X47500000Y-35750000D03*
X45250000Y-36500000D03*
%TO.N,GND*%
X32750000Y-32650000D03*
X45000002Y-80559999D03*
X33750000Y-28200000D03*
X28020000Y-62470000D03*
X24499999Y-80509998D03*
X39080000Y-49520000D03*
X25270000Y-28520000D03*
X43500002Y-80559999D03*
X44250002Y-80559999D03*
X43450000Y-30250000D03*
X25249999Y-80509998D03*
X42500000Y-25250000D03*
X25450000Y-89210000D03*
X44000000Y-25250000D03*
X30550000Y-58950000D03*
X32000000Y-65000000D03*
X24250000Y-25250000D03*
X25000000Y-25250000D03*
X38115000Y-59365000D03*
X44850000Y-30250000D03*
X25999999Y-80509998D03*
X35420000Y-65500000D03*
X20050000Y-52550000D03*
X31000000Y-65750000D03*
X33350000Y-31950000D03*
X36200000Y-29550000D03*
X29000000Y-39250000D03*
X20050000Y-57150000D03*
X27250000Y-28500000D03*
X44150000Y-30250000D03*
X24000000Y-33550000D03*
X43250000Y-16500000D03*
X34780000Y-62420000D03*
X23500000Y-25250000D03*
X26250000Y-28500000D03*
X34010000Y-66960000D03*
X23800000Y-55000000D03*
X40770000Y-64550000D03*
X28290000Y-50397995D03*
X26750000Y-54750000D03*
X43250000Y-25250000D03*
X31170451Y-55049213D03*
X31760000Y-62450000D03*
X19000000Y-49750000D03*
X20050000Y-56350000D03*
X20050000Y-59150000D03*
X36900000Y-29550000D03*
X27000000Y-33550000D03*
X19700000Y-49750000D03*
X44004990Y-54250835D03*
X36200000Y-30350000D03*
X43500000Y-32950000D03*
X43100000Y-89210000D03*
X25500000Y-33550000D03*
X25250000Y-16500000D03*
X33750000Y-27500000D03*
X21600000Y-54700000D03*
%TO.N,B1*%
X34660000Y-56660000D03*
X42080000Y-37600000D03*
%TO.N,+3V3*%
X36300000Y-32100000D03*
X35250000Y-39550000D03*
X37700000Y-29600000D03*
X41650000Y-50950000D03*
X21700000Y-49750000D03*
X36300000Y-34200000D03*
X45350000Y-32250000D03*
X36300000Y-33500000D03*
X25650000Y-57750000D03*
X36770000Y-64620000D03*
X36300000Y-32800000D03*
X37000000Y-32750000D03*
X41880000Y-56960000D03*
X34250000Y-81260000D03*
X30530000Y-58020000D03*
X36300000Y-34900000D03*
X33740000Y-64130000D03*
X38500000Y-57550000D03*
X32880000Y-69810000D03*
X40740000Y-62470000D03*
X34250000Y-24500000D03*
X29000000Y-38250000D03*
X21385000Y-53385000D03*
X29470000Y-50480000D03*
X42145641Y-30292835D03*
X39100000Y-50450000D03*
X21000000Y-49750000D03*
X27110000Y-63600001D03*
%TO.N,C14*%
X24250000Y-52300000D03*
X21250000Y-64500000D03*
%TO.N,Net-(J3-Pad1)*%
X45250000Y-34000000D03*
X47500000Y-33250000D03*
X46000000Y-33250000D03*
X46000000Y-34750000D03*
X47500000Y-34750000D03*
X45250000Y-34750000D03*
X47500000Y-34000000D03*
X46000000Y-34000000D03*
%TO.N,B0*%
X33999713Y-57180818D03*
X36060000Y-43010000D03*
%TO.N,B7*%
X34586091Y-47113909D03*
X27500000Y-47100000D03*
%TO.N,B5*%
X34975000Y-48285141D03*
X27500000Y-48400006D03*
%TO.N,pyro4_out*%
X42000000Y-82760000D03*
X41250000Y-83510000D03*
X41250000Y-85000000D03*
X42000000Y-83510000D03*
X40500000Y-84260000D03*
X42000000Y-84260000D03*
X41250000Y-84260000D03*
X41250000Y-85750000D03*
X40500000Y-85000000D03*
%TO.N,A6*%
X33185520Y-56654480D03*
X25720000Y-45350000D03*
%TO.N,pyro3_out*%
X27250000Y-84260000D03*
X28000000Y-84260000D03*
X26500000Y-83510000D03*
X26500000Y-84260000D03*
X28000000Y-85010000D03*
X27250000Y-83510000D03*
X27250000Y-85760000D03*
X27250000Y-85010000D03*
X26500000Y-82760000D03*
%TO.N,pyro2_out*%
X39750000Y-20750000D03*
X41250000Y-21500000D03*
X42000000Y-21500000D03*
X40500000Y-21500000D03*
X40500000Y-20750000D03*
X42000000Y-22250000D03*
X41250000Y-22250000D03*
X41250000Y-20000000D03*
X42000000Y-23000000D03*
X41250000Y-20750000D03*
%TO.N,pyro1_out*%
X27250000Y-20000000D03*
X26500000Y-21500000D03*
X26500000Y-22250000D03*
X28000000Y-20750000D03*
X27250000Y-22250000D03*
X28000000Y-21500000D03*
X27250000Y-21500000D03*
X27250000Y-20750000D03*
X26500000Y-23000000D03*
%TO.N,C13*%
X24400020Y-51349980D03*
%TO.N,Reset*%
X31300000Y-51300000D03*
%TO.N,A10*%
X36626914Y-62000000D03*
X37400000Y-53970000D03*
X29956883Y-63600001D03*
%TO.N,A9*%
X36540000Y-61010000D03*
X36860000Y-54470000D03*
%TO.N,B4*%
X27500000Y-47750003D03*
X35061091Y-47588909D03*
%TO.N,B6*%
X27500000Y-49050009D03*
X34475000Y-48950000D03*
%TO.N,A8*%
X42800000Y-45590000D03*
X36310000Y-54900000D03*
%TO.N,en*%
X33950000Y-31600000D03*
X32250000Y-30350000D03*
%TO.N,+5V*%
X21500000Y-30250000D03*
X23000000Y-31000000D03*
X22250000Y-31000000D03*
X22250000Y-30250000D03*
X31909999Y-27899999D03*
X44000000Y-43500000D03*
X20750000Y-31000000D03*
X20750000Y-30250000D03*
X21500000Y-31000000D03*
X20750000Y-29500000D03*
%TO.N,lora_reset*%
X32000000Y-57100000D03*
X23545000Y-49705000D03*
%TO.N,A15*%
X25585000Y-49665000D03*
X31880000Y-51650000D03*
%TO.N,A1*%
X21600000Y-58750000D03*
%TO.N,C15*%
X23750000Y-65500000D03*
X24500000Y-53400000D03*
%TD*%
D66*
%TO.N,Batt_+*%
X43900000Y-47750000D02*
X45107107Y-46542893D01*
X51592893Y-45957107D02*
X51757097Y-45792903D01*
X46271321Y-25378679D02*
X46158579Y-25491421D01*
X46100000Y-25632843D02*
X46100000Y-26750000D01*
D67*
X35570000Y-41990000D02*
X35250000Y-41990000D01*
D68*
X42600000Y-53950000D02*
X42600000Y-49464214D01*
D66*
X48907359Y-24500000D02*
X48392641Y-24500000D01*
X45814214Y-46250000D02*
X50885786Y-46250000D01*
X52049990Y-45085796D02*
X52049990Y-27642631D01*
D67*
X35500000Y-38000000D02*
X35471232Y-37971232D01*
X35882141Y-41677859D02*
X35570000Y-41990000D01*
X35471232Y-37971232D02*
X35471232Y-32471232D01*
X35500000Y-38000000D02*
X35970009Y-38470009D01*
D68*
X41575000Y-54250000D02*
X42300000Y-54250000D01*
D67*
X35970009Y-38470009D02*
X35970009Y-41465727D01*
D68*
X42300000Y-54250000D02*
X42600000Y-53950000D01*
D69*
X35500001Y-32500001D02*
X35471232Y-32471232D01*
D68*
X42892893Y-48757107D02*
X43900000Y-47750000D01*
D66*
X51171311Y-25521311D02*
X51028680Y-25378680D01*
D68*
X42892893Y-48757107D02*
G75*
G03*
X42600000Y-49464214I707106J-707106D01*
G01*
D67*
X35970008Y-41465727D02*
G75*
G02*
X35882140Y-41677858I-299997J-1D01*
G01*
D66*
X51592893Y-45957107D02*
G75*
G02*
X50885786Y-46250000I-707106J707106D01*
G01*
X51757097Y-45792903D02*
G75*
G03*
X52049990Y-45085796I-707106J707106D01*
G01*
X45107107Y-46542893D02*
G75*
G02*
X45814214Y-46250000I707106J-707106D01*
G01*
X51171311Y-25521311D02*
G75*
G02*
X52049990Y-27642631I-2121319J-2121319D01*
G01*
X46158579Y-25491421D02*
G75*
G03*
X46100000Y-25632843I141420J-141421D01*
G01*
X46271321Y-25378679D02*
G75*
G02*
X48392641Y-24500000I2121319J-2121319D01*
G01*
X51028680Y-25378680D02*
G75*
G03*
X48907359Y-24500000I-2121323J-2121325D01*
G01*
D68*
%TO.N,GND*%
X34000000Y-66970000D02*
X34010000Y-66960000D01*
X39946446Y-25353554D02*
X40250000Y-25050000D01*
D70*
X35410000Y-65000000D02*
X35399990Y-64989990D01*
X38244706Y-63119990D02*
X38245274Y-63119990D01*
D68*
X28950000Y-64475000D02*
X29932107Y-65457107D01*
D71*
X28950000Y-63175000D02*
X27905000Y-63175000D01*
X33090000Y-63500000D02*
X33443926Y-63500000D01*
D68*
X36500000Y-59180346D02*
X36769664Y-59450010D01*
X31475000Y-30000000D02*
X30500000Y-30000000D01*
X41953554Y-33096446D02*
X41716447Y-33333553D01*
X36500000Y-57550000D02*
X36500000Y-58412500D01*
X26750000Y-54250000D02*
X26750000Y-54750000D01*
X23750000Y-55050000D02*
X23800000Y-55000000D01*
X27149990Y-23639990D02*
X25413230Y-23639990D01*
D71*
X27905000Y-63175000D02*
X27750000Y-63020000D01*
D68*
X41250000Y-82020000D02*
X41350010Y-82120010D01*
D72*
X39550000Y-63500000D02*
X39550000Y-64000000D01*
D68*
X36500000Y-58412500D02*
X36500000Y-59180346D01*
D72*
X41462500Y-30750000D02*
X40250000Y-30750000D01*
D68*
X30639214Y-65750000D02*
X31000000Y-65750000D01*
D70*
X38124716Y-63000000D02*
X38244706Y-63119990D01*
D68*
X42770000Y-32980000D02*
X42800000Y-32950000D01*
X40250000Y-25050000D02*
X40250000Y-24760000D01*
X30000000Y-58980000D02*
X30520000Y-58980000D01*
X27250000Y-57702270D02*
X27860010Y-57092260D01*
D72*
X43990000Y-51200000D02*
X45330000Y-51200000D01*
D68*
X30600000Y-31925000D02*
X30600000Y-31100000D01*
D70*
X37950000Y-63000000D02*
X38124716Y-63000000D01*
D68*
X31750000Y-46000000D02*
X33353553Y-47603553D01*
X29000000Y-49520000D02*
X28290000Y-50230000D01*
X32000000Y-50087500D02*
X32000000Y-49319654D01*
X29562893Y-80280000D02*
X28947107Y-80280000D01*
X26637500Y-39075000D02*
X28095000Y-39075000D01*
D71*
X35410000Y-65000000D02*
X35410000Y-65490000D01*
D68*
X39592893Y-80280000D02*
X38937107Y-80280000D01*
X28525000Y-30000000D02*
X29500000Y-30000000D01*
D71*
X32230000Y-63500000D02*
X31750000Y-63020000D01*
D68*
X42292893Y-25042893D02*
X42500000Y-25250000D01*
X27860010Y-57092260D02*
X27860010Y-56722833D01*
X33250000Y-41990000D02*
X33250000Y-41110001D01*
D71*
X35410000Y-65490000D02*
X35420000Y-65500000D01*
D68*
X33500000Y-47957107D02*
X33500000Y-50087500D01*
D72*
X40250000Y-30750000D02*
X40000000Y-30500000D01*
D68*
X25025000Y-39725000D02*
X25675000Y-39075000D01*
D71*
X33443926Y-63500000D02*
X33655010Y-63288916D01*
X27750000Y-62740000D02*
X28020000Y-62470000D01*
D68*
X28523554Y-25273554D02*
X28250000Y-25000000D01*
X30250000Y-24760000D02*
X30250000Y-25020000D01*
X40250000Y-80730000D02*
X39946447Y-80426447D01*
X30250000Y-81000000D02*
X30250000Y-80760000D01*
D71*
X40750000Y-63980000D02*
X40750000Y-64530000D01*
D68*
X28250000Y-80770000D02*
X28250000Y-81000000D01*
X39080000Y-49520000D02*
X38500000Y-49520000D01*
X38115000Y-59365000D02*
X38500000Y-58980000D01*
X27918588Y-56581412D02*
X28391431Y-56108569D01*
D71*
X34860000Y-62500000D02*
X34780000Y-62420000D01*
D68*
X38957107Y-25500000D02*
X39592893Y-25500000D01*
X39180346Y-52000000D02*
X39503554Y-51676792D01*
D71*
X33090000Y-63500000D02*
X32230000Y-63500000D01*
X28415001Y-62074999D02*
X30099999Y-62074999D01*
D68*
X38583554Y-80426446D02*
X38250000Y-80760000D01*
X26000000Y-16515000D02*
X25265000Y-16515000D01*
D70*
X38245274Y-63119990D02*
X38625284Y-63500000D01*
D68*
X35000000Y-57644654D02*
X35269664Y-57374990D01*
X38412500Y-52000000D02*
X39180346Y-52000000D01*
X34250000Y-41065000D02*
X34250000Y-38000000D01*
X21000000Y-54730000D02*
X21570000Y-54730000D01*
D70*
X33750000Y-65219716D02*
X33750000Y-65460000D01*
D72*
X39550000Y-64000000D02*
X40730000Y-64000000D01*
D71*
X30099999Y-62074999D02*
X30550000Y-62525000D01*
D68*
X27250000Y-23740000D02*
X27149990Y-23639990D01*
X39503555Y-49803555D02*
X39220000Y-49520000D01*
X38029990Y-59450010D02*
X38115000Y-59365000D01*
X26000000Y-89245000D02*
X25485000Y-89245000D01*
X35000000Y-58412500D02*
X35000000Y-57644654D01*
X42500000Y-16515000D02*
X43235000Y-16515000D01*
X34205000Y-41110000D02*
X34250000Y-41065000D01*
X28508588Y-55577822D02*
X29086410Y-55000000D01*
X43235000Y-16515000D02*
X43250000Y-16500000D01*
D71*
X28020000Y-62470000D02*
X28415001Y-62074999D01*
D68*
X36324990Y-57374990D02*
X36500000Y-57550000D01*
X25413230Y-23639990D02*
X25080000Y-23973220D01*
X30000000Y-49520000D02*
X29000000Y-49520000D01*
D71*
X33655010Y-63288916D02*
X33655010Y-62711086D01*
X27750000Y-63020000D02*
X27750000Y-62740000D01*
D68*
X23750000Y-55700000D02*
X23750000Y-55050000D01*
X25675000Y-39075000D02*
X26637500Y-39075000D01*
D72*
X43425000Y-54250000D02*
X44004155Y-54250000D01*
D70*
X38625284Y-63500000D02*
X39550000Y-63500000D01*
D68*
X41250000Y-82020000D02*
X41250000Y-82000000D01*
X25485000Y-89245000D02*
X25450000Y-89210000D01*
X27250000Y-23740000D02*
X27250000Y-23760000D01*
X25265000Y-16515000D02*
X25250000Y-16500000D01*
X35269664Y-57374990D02*
X36324990Y-57374990D01*
D72*
X44164264Y-57300000D02*
X45330000Y-57300000D01*
D68*
X24362500Y-39725000D02*
X25025000Y-39725000D01*
X28095000Y-39075000D02*
X28250000Y-39230000D01*
X43750000Y-32260000D02*
X43750000Y-32700000D01*
X32000000Y-49319654D02*
X31730336Y-49049990D01*
X30177117Y-49342883D02*
X30000000Y-49520000D01*
X29400000Y-31925000D02*
X30600000Y-31925000D01*
X30250000Y-80760000D02*
X29916447Y-80426447D01*
X42800000Y-32950000D02*
X42307107Y-32950000D01*
X40250000Y-24760000D02*
X41240000Y-24760000D01*
X27250000Y-23760000D02*
X28250000Y-24760000D01*
X33249999Y-41110000D02*
X34205000Y-41110000D01*
X39220000Y-49520000D02*
X39080000Y-49520000D01*
X28250000Y-25000000D02*
X28250000Y-24760000D01*
X30600000Y-31100000D02*
X30500000Y-31000000D01*
X42770000Y-33800000D02*
X42770000Y-32980000D01*
X41570000Y-33687107D02*
X41570000Y-34500000D01*
X43065000Y-89245000D02*
X43100000Y-89210000D01*
X28593554Y-80426446D02*
X28250000Y-80770000D01*
X34000000Y-67500000D02*
X34000000Y-66970000D01*
X36769664Y-59450010D02*
X38029990Y-59450010D01*
X28290000Y-50230000D02*
X28290000Y-50397995D01*
D72*
X40730000Y-64000000D02*
X40750000Y-63980000D01*
D68*
X30087500Y-55000000D02*
X31121238Y-55000000D01*
D71*
X35410000Y-62500000D02*
X34860000Y-62500000D01*
X31750000Y-63020000D02*
X31750000Y-62460000D01*
X36750000Y-63020000D02*
X36376447Y-62646447D01*
D68*
X42500000Y-89245000D02*
X43065000Y-89245000D01*
D71*
X40750000Y-64530000D02*
X40770000Y-64550000D01*
D70*
X33979726Y-64989990D02*
X33750000Y-65219716D01*
D68*
X43750000Y-32700000D02*
X43500000Y-32950000D01*
X41350010Y-82120010D02*
X43086770Y-82120010D01*
X42800000Y-32950000D02*
X43500000Y-32950000D01*
X41250000Y-82000000D02*
X40250000Y-81000000D01*
X27250000Y-57730000D02*
X27250000Y-57702270D01*
X43086770Y-82120010D02*
X43420000Y-81786780D01*
X42950000Y-38830000D02*
X47330000Y-38830000D01*
X40250000Y-81000000D02*
X40250000Y-80730000D01*
X25080000Y-23973220D02*
X25080000Y-24435000D01*
D71*
X31750000Y-62460000D02*
X31760000Y-62450000D01*
D72*
X43700000Y-56960000D02*
X43952132Y-57212132D01*
X43700000Y-51490000D02*
X43990000Y-51200000D01*
D68*
X29086410Y-55000000D02*
X30087500Y-55000000D01*
X28250000Y-81000000D02*
X27250000Y-81000000D01*
X47330000Y-38830000D02*
X49000000Y-40500000D01*
X38250000Y-80760000D02*
X38250000Y-81000000D01*
X43420000Y-81786780D02*
X43420000Y-81325000D01*
X38250000Y-24760000D02*
X38250000Y-25000000D01*
X27250000Y-81000000D02*
X26490001Y-81000000D01*
X41570000Y-36000000D02*
X41570000Y-34500000D01*
X28980000Y-39230000D02*
X29000000Y-39250000D01*
X30520000Y-58980000D02*
X30550000Y-58950000D01*
X33250000Y-41110001D02*
X33249999Y-41110000D01*
X30250000Y-25020000D02*
X29996447Y-25273553D01*
D71*
X33655010Y-62711086D02*
X33443924Y-62500000D01*
D68*
X39650001Y-51323238D02*
X39650001Y-50157108D01*
X41240000Y-24760000D02*
X41250000Y-24750000D01*
X29642893Y-25420000D02*
X28877107Y-25420000D01*
X38250000Y-25000000D02*
X38603553Y-25353553D01*
X28450010Y-55967147D02*
X28450010Y-55719243D01*
X26490001Y-81000000D02*
X25999999Y-80509998D01*
X21570000Y-54730000D02*
X21600000Y-54700000D01*
D70*
X41462500Y-29750000D02*
X40750000Y-29750000D01*
D68*
X31121238Y-55000000D02*
X31170451Y-55049213D01*
X28250000Y-39230000D02*
X28980000Y-39230000D01*
D71*
X36022893Y-62500000D02*
X35410000Y-62500000D01*
X33443924Y-62500000D02*
X33090000Y-62500000D01*
D70*
X35399990Y-64989990D02*
X33979726Y-64989990D01*
D68*
X31730336Y-49049990D02*
X30884224Y-49049990D01*
D70*
X40750000Y-29750000D02*
X40590000Y-29910000D01*
D72*
X44004155Y-54250000D02*
X44004990Y-54250835D01*
D68*
X41250000Y-24750000D02*
X41585786Y-24750000D01*
X28947107Y-80280001D02*
G75*
G03*
X28593554Y-80426446I0J-500001D01*
G01*
X33353553Y-47603553D02*
G75*
G02*
X33500000Y-47957107I-353550J-353553D01*
G01*
X28450009Y-55967147D02*
G75*
G02*
X28391430Y-56108568I-199998J-1D01*
G01*
X42307107Y-32950001D02*
G75*
G03*
X41953554Y-33096446I0J-500001D01*
G01*
X38603553Y-25353553D02*
G75*
G03*
X38957107Y-25500000I353553J353550D01*
G01*
D71*
X36022893Y-62500000D02*
G75*
G02*
X36376447Y-62646447I1J-499997D01*
G01*
D68*
X28450010Y-55719243D02*
G75*
G02*
X28508588Y-55577822I200003J-1D01*
G01*
X39650001Y-51323238D02*
G75*
G02*
X39503554Y-51676792I-499997J-1D01*
G01*
X41570000Y-33687107D02*
G75*
G02*
X41716447Y-33333553I499997J1D01*
G01*
X29996447Y-25273553D02*
G75*
G02*
X29642893Y-25420000I-353553J353550D01*
G01*
X39592893Y-25499999D02*
G75*
G03*
X39946446Y-25353554I0J500001D01*
G01*
X27860010Y-56722833D02*
G75*
G02*
X27918588Y-56581412I200003J-1D01*
G01*
X29562893Y-80280000D02*
G75*
G02*
X29916447Y-80426447I1J-499997D01*
G01*
X29932107Y-65457107D02*
G75*
G03*
X30639214Y-65750000I707106J707106D01*
G01*
X38583554Y-80426446D02*
G75*
G02*
X38937107Y-80280000I353553J-353556D01*
G01*
X28877107Y-25419999D02*
G75*
G02*
X28523554Y-25273554I0J500001D01*
G01*
X41585786Y-24750001D02*
G75*
G02*
X42292892Y-25042894I3J-999993D01*
G01*
X30884224Y-49049991D02*
G75*
G03*
X30177118Y-49342884I-3J-999993D01*
G01*
D72*
X43952132Y-57212132D02*
G75*
G03*
X44164264Y-57300000I212131J212130D01*
G01*
D68*
X39946447Y-80426447D02*
G75*
G03*
X39592893Y-80280000I-353553J-353550D01*
G01*
X39650000Y-50157108D02*
G75*
G03*
X39503555Y-49803555I-500001J0D01*
G01*
D71*
%TO.N,B1*%
X42270000Y-36700000D02*
X42270000Y-37410000D01*
D68*
X34500000Y-58412500D02*
X34500000Y-57508244D01*
D71*
X42270000Y-37410000D02*
X42080000Y-37600000D01*
D68*
X34660000Y-57348244D02*
X34660000Y-56660000D01*
X34500000Y-57508244D02*
X34660000Y-57348244D01*
D72*
%TO.N,+3V3*%
X33525000Y-69825000D02*
X32895000Y-69825000D01*
D70*
X44249990Y-31759990D02*
X44750000Y-32260000D01*
D71*
X33543914Y-62099990D02*
X33619990Y-62099990D01*
X36750000Y-63980000D02*
X36750000Y-64600000D01*
D68*
X21385000Y-53385000D02*
X21000000Y-53770000D01*
D71*
X40750000Y-62480000D02*
X40740000Y-62470000D01*
X37950000Y-64000000D02*
X38250000Y-64300000D01*
D72*
X38537500Y-30250000D02*
X38125000Y-30250000D01*
D71*
X33090000Y-64000000D02*
X31770000Y-64000000D01*
D68*
X29000000Y-50480000D02*
X29000000Y-51100000D01*
D72*
X29949997Y-62799999D02*
X29450001Y-62799999D01*
X29175002Y-63825000D02*
X29450001Y-63550001D01*
X41462500Y-30250000D02*
X42102806Y-30250000D01*
D68*
X39070000Y-50480000D02*
X39100000Y-50450000D01*
X21970000Y-52800000D02*
X21385000Y-53385000D01*
X34250000Y-81260000D02*
X35000000Y-81260000D01*
D72*
X29450001Y-62799999D02*
X29175002Y-62525000D01*
D68*
X30530000Y-58020000D02*
X30000000Y-58020000D01*
X29470000Y-50480000D02*
X29000000Y-50480000D01*
D72*
X39000000Y-62700000D02*
X39250000Y-62700000D01*
D71*
X34520000Y-63000000D02*
X35410000Y-63000000D01*
D68*
X30000000Y-50480000D02*
X31470000Y-50480000D01*
X38500000Y-58020000D02*
X38500000Y-57550000D01*
X25660000Y-57760000D02*
X25650000Y-57750000D01*
D71*
X35249999Y-39550001D02*
X35250000Y-39550000D01*
D68*
X42770000Y-36700000D02*
X42770000Y-37690000D01*
D72*
X29450001Y-63550001D02*
X29450001Y-62799999D01*
D71*
X33493914Y-62049990D02*
X33543914Y-62099990D01*
D68*
X22250000Y-52800000D02*
X21970000Y-52800000D01*
D71*
X36750000Y-64600000D02*
X36770000Y-64620000D01*
D72*
X42500000Y-56960000D02*
X41880000Y-56960000D01*
D68*
X38500000Y-50480000D02*
X39070000Y-50480000D01*
D72*
X32895000Y-69825000D02*
X32880000Y-69810000D01*
X40730000Y-63000000D02*
X40750000Y-63020000D01*
D71*
X27750000Y-63980000D02*
X27489999Y-63980000D01*
D72*
X33090000Y-64000000D02*
X33610000Y-64000000D01*
D71*
X40750000Y-63020000D02*
X40750000Y-62480000D01*
D68*
X37000000Y-58020000D02*
X37000000Y-58412500D01*
D71*
X28950000Y-63825000D02*
X27905000Y-63825000D01*
X33139990Y-62049990D02*
X33493914Y-62049990D01*
D68*
X31500000Y-50450000D02*
X31500000Y-50087500D01*
D72*
X42102806Y-30250000D02*
X42145641Y-30292835D01*
D68*
X31125010Y-57424990D02*
X30530000Y-58020000D01*
X22750000Y-53249280D02*
X22750000Y-52800000D01*
X23250000Y-55700000D02*
X23250000Y-53749280D01*
X38500000Y-50480000D02*
X38500000Y-51412500D01*
D71*
X35249999Y-40090000D02*
X35249999Y-39550001D01*
D68*
X35000000Y-24500000D02*
X34250000Y-24500000D01*
X33500000Y-81260000D02*
X34250000Y-81260000D01*
D70*
X45340000Y-32260000D02*
X45350000Y-32250000D01*
D68*
X30087500Y-55500000D02*
X30855346Y-55500000D01*
D72*
X28950000Y-63825000D02*
X29175002Y-63825000D01*
D68*
X42770000Y-34830000D02*
X44603553Y-32996447D01*
D72*
X33610000Y-64000000D02*
X33740000Y-64130000D01*
X30550000Y-63175000D02*
X30324998Y-63175000D01*
D71*
X33619990Y-62099990D02*
X34520000Y-63000000D01*
X33090000Y-62000000D02*
X33139990Y-62049990D01*
D68*
X41650000Y-51490000D02*
X41650000Y-50950000D01*
D71*
X35410000Y-63000000D02*
X35770000Y-63000000D01*
D68*
X34250000Y-24500000D02*
X33500000Y-24500000D01*
X42770000Y-36700000D02*
X42770000Y-34830000D01*
X26250000Y-57760000D02*
X25660000Y-57760000D01*
D72*
X41880000Y-56960000D02*
X41300000Y-56960000D01*
D68*
X20990000Y-53770000D02*
X20000000Y-54760000D01*
X18777117Y-53169990D02*
X21169990Y-53169990D01*
D71*
X35770000Y-63000000D02*
X36750000Y-63980000D01*
D68*
X38500000Y-58020000D02*
X37000000Y-58020000D01*
D72*
X30324998Y-63175000D02*
X29949997Y-62799999D01*
D68*
X31125010Y-55769664D02*
X31125010Y-57424990D01*
X30000000Y-50480000D02*
X29470000Y-50480000D01*
X28980000Y-38270000D02*
X29000000Y-38250000D01*
X44750000Y-32642893D02*
X44750000Y-32260000D01*
X42770000Y-37690000D02*
X42950000Y-37870000D01*
D71*
X38250000Y-64300000D02*
X38500000Y-64300000D01*
X31770000Y-64000000D02*
X31750000Y-63980000D01*
D68*
X29000000Y-51100000D02*
X29400000Y-51500000D01*
X22750000Y-52800000D02*
X22250000Y-52800000D01*
D72*
X37700000Y-29825000D02*
X37700000Y-29600000D01*
D71*
X36770000Y-64000000D02*
X36750000Y-63980000D01*
X27905000Y-63825000D02*
X27750000Y-63980000D01*
D70*
X42750000Y-31240000D02*
X43269990Y-31759990D01*
D68*
X28095000Y-38425000D02*
X28250000Y-38270000D01*
D72*
X38125000Y-30250000D02*
X37700000Y-29825000D01*
D71*
X27489999Y-63980000D02*
X27110000Y-63600001D01*
D68*
X30855346Y-55500000D02*
X31125010Y-55769664D01*
D72*
X39250000Y-62700000D02*
X39550000Y-63000000D01*
D71*
X37950000Y-64000000D02*
X36770000Y-64000000D01*
D68*
X18000000Y-53740000D02*
X18423563Y-53316437D01*
X28250000Y-38270000D02*
X28980000Y-38270000D01*
X29400000Y-51500000D02*
X30087500Y-51500000D01*
D70*
X44750000Y-32260000D02*
X45340000Y-32260000D01*
X43269990Y-31759990D02*
X44249990Y-31759990D01*
D68*
X23250000Y-53749280D02*
X22750000Y-53249280D01*
X26637500Y-38425000D02*
X28095000Y-38425000D01*
D72*
X39550000Y-63000000D02*
X40730000Y-63000000D01*
D68*
X21000000Y-53770000D02*
X20990000Y-53770000D01*
X38500000Y-51412500D02*
X38412500Y-51500000D01*
X21169990Y-53169990D02*
X21385000Y-53385000D01*
X31470000Y-50480000D02*
X31500000Y-50450000D01*
D72*
X29175002Y-62525000D02*
X28950000Y-62525000D01*
D68*
X18423563Y-53316437D02*
G75*
G02*
X18777117Y-53169990I353553J-353550D01*
G01*
X44750000Y-32642893D02*
G75*
G02*
X44603553Y-32996447I-499997J-1D01*
G01*
D72*
%TO.N,Net-(D8-Pad1)*%
X34000000Y-68763568D02*
X34200010Y-68963578D01*
X34200010Y-70253560D02*
X33778570Y-70675000D01*
X33778570Y-70675000D02*
X33525000Y-70675000D01*
X34200010Y-68963578D02*
X34200010Y-70253560D01*
X34000000Y-68500000D02*
X34000000Y-68763568D01*
%TO.N,Net-(D8-Pad4)*%
X35228570Y-70675000D02*
X34975000Y-70675000D01*
X35000000Y-68500000D02*
X35503563Y-69003563D01*
X35650010Y-70253560D02*
X35228570Y-70675000D01*
X35650010Y-69357117D02*
X35650010Y-70253560D01*
X35650010Y-69357117D02*
G75*
G03*
X35503563Y-69003563I-499997J1D01*
G01*
%TO.N,Net-(D8-Pad3)*%
X34550020Y-68550020D02*
X34550020Y-69400020D01*
X34500000Y-68500000D02*
X34550020Y-68550020D01*
X34550020Y-69400020D02*
X34975000Y-69825000D01*
D68*
%TO.N,C14*%
X24603564Y-51946436D02*
X24250000Y-52300000D01*
X30087500Y-52500000D02*
X28719253Y-52500000D01*
X24250000Y-52300000D02*
X23750000Y-52800000D01*
X27853557Y-51799990D02*
X24957117Y-51799990D01*
X28577832Y-52441422D02*
X27994979Y-51858569D01*
X28577832Y-52441422D02*
G75*
G03*
X28719253Y-52500000I141422J141425D01*
G01*
X24603564Y-51946436D02*
G75*
G02*
X24957117Y-51799990I353553J-353556D01*
G01*
X27994979Y-51858569D02*
G75*
G03*
X27853557Y-51799990I-141421J-141420D01*
G01*
D70*
%TO.N,B11*%
X36869215Y-59845001D02*
X39670787Y-59845001D01*
X41707107Y-66092893D02*
X40752893Y-67047107D01*
X40377894Y-60137894D02*
X41707107Y-61467107D01*
X40045786Y-67340000D02*
X35160000Y-67340000D01*
X36058578Y-59448578D02*
X36162108Y-59552108D01*
X35160000Y-67340000D02*
X35000000Y-67500000D01*
X36000000Y-58412500D02*
X36000000Y-59307157D01*
X42000000Y-62174214D02*
X42000000Y-65385786D01*
X36000000Y-59307157D02*
G75*
G03*
X36058578Y-59448578I200003J1D01*
G01*
X40377894Y-60137894D02*
G75*
G03*
X39670787Y-59845001I-707106J-707106D01*
G01*
X41999999Y-62174214D02*
G75*
G03*
X41707106Y-61467108I-999993J3D01*
G01*
X40752893Y-67047107D02*
G75*
G02*
X40045786Y-67340000I-707106J707106D01*
G01*
X36162108Y-59552108D02*
G75*
G03*
X36869215Y-59845001I707106J707106D01*
G01*
X41999999Y-65385786D02*
G75*
G02*
X41707106Y-66092892I-999993J-3D01*
G01*
%TO.N,B10*%
X41670000Y-62324214D02*
X41670000Y-65277366D01*
X34706138Y-67058578D02*
X34500000Y-67264716D01*
X41377107Y-65984473D02*
X40654473Y-66707107D01*
X40207904Y-60447904D02*
X41377107Y-61617107D01*
X36669225Y-60155011D02*
X39500797Y-60155011D01*
X39947366Y-67000000D02*
X34847559Y-67000000D01*
X35558578Y-59458578D02*
X35962118Y-59862118D01*
X34500000Y-67264716D02*
X34500000Y-67500000D01*
X35500000Y-58412500D02*
X35500000Y-59317157D01*
X41669999Y-62324214D02*
G75*
G03*
X41377106Y-61617108I-999993J3D01*
G01*
X34706138Y-67058578D02*
G75*
G02*
X34847559Y-67000000I141422J-141425D01*
G01*
X41669999Y-65277366D02*
G75*
G02*
X41377106Y-65984472I-999993J-3D01*
G01*
X35500000Y-59317157D02*
G75*
G03*
X35558578Y-59458578I200003J1D01*
G01*
X40654473Y-66707107D02*
G75*
G02*
X39947366Y-67000000I-707106J707106D01*
G01*
X40207904Y-60447904D02*
G75*
G03*
X39500797Y-60155011I-707106J-707106D01*
G01*
X35962118Y-59862118D02*
G75*
G03*
X36669225Y-60155011I707106J707106D01*
G01*
D68*
%TO.N,A7*%
X21500000Y-78250000D02*
X20750000Y-79000000D01*
X26207107Y-73542893D02*
X21500000Y-78250000D01*
X32322893Y-60570000D02*
X29520212Y-60570000D01*
X20750000Y-79000000D02*
X20500000Y-79000000D01*
X33353554Y-59746446D02*
X32676447Y-60423553D01*
X33500000Y-58412500D02*
X33500000Y-59392893D01*
X28813105Y-60862893D02*
X26646447Y-63029551D01*
X26500000Y-63383105D02*
X26500000Y-72835786D01*
X29520212Y-60570001D02*
G75*
G03*
X28813106Y-60862894I-3J-999993D01*
G01*
X33353554Y-59746446D02*
G75*
G03*
X33500000Y-59392893I-353556J353553D01*
G01*
X26499999Y-72835786D02*
G75*
G02*
X26207106Y-73542892I-999993J-3D01*
G01*
X32676447Y-60423553D02*
G75*
G02*
X32322893Y-60570000I-353553J353550D01*
G01*
X26500000Y-63383105D02*
G75*
G02*
X26646447Y-63029551I499997J1D01*
G01*
D71*
%TO.N,B0*%
X34000000Y-57181105D02*
X33999713Y-57180818D01*
X36060000Y-43010000D02*
X35250000Y-43010000D01*
D68*
X33250000Y-43010000D02*
X35250000Y-43010000D01*
D71*
X34000000Y-58412500D02*
X34000000Y-57181105D01*
%TO.N,B15*%
X42760000Y-80544214D02*
X42760000Y-81325000D01*
D68*
X41575000Y-81325000D02*
X41250000Y-81000000D01*
D71*
X38412500Y-55500000D02*
X39157132Y-55500000D01*
X43357107Y-79532893D02*
X43052893Y-79837107D01*
X40448578Y-57178578D02*
X43357107Y-60087107D01*
X43650000Y-78825786D02*
X43650000Y-60794214D01*
X39369264Y-55587868D02*
X40331421Y-56550025D01*
D68*
X42760000Y-81325000D02*
X41575000Y-81325000D01*
D71*
X40390000Y-56691447D02*
X40390000Y-57037157D01*
X40390000Y-57037157D02*
G75*
G03*
X40448578Y-57178578I200003J1D01*
G01*
X43649999Y-78825786D02*
G75*
G02*
X43357106Y-79532892I-999993J-3D01*
G01*
X43649999Y-60794214D02*
G75*
G03*
X43357106Y-60087108I-999993J3D01*
G01*
X42760001Y-80544214D02*
G75*
G02*
X43052894Y-79837108I999993J3D01*
G01*
X40389999Y-56691447D02*
G75*
G03*
X40331420Y-56550026I-199998J1D01*
G01*
X39369264Y-55587868D02*
G75*
G03*
X39157132Y-55500000I-212131J-212130D01*
G01*
D68*
%TO.N,B7*%
X44406770Y-23639990D02*
X44740000Y-23973220D01*
X41340010Y-23639990D02*
X44406770Y-23639990D01*
X41250000Y-23730000D02*
X41340010Y-23639990D01*
D71*
X44593554Y-25856446D02*
X44546447Y-25903553D01*
D68*
X44740000Y-23973220D02*
X44740000Y-24435000D01*
D71*
X34096445Y-47603555D02*
X34586091Y-47113909D01*
X33949999Y-50037499D02*
X33949999Y-47957108D01*
X34000000Y-50087500D02*
X33949999Y-50037499D01*
X44192893Y-26050000D02*
X32914214Y-26050000D01*
X17682118Y-27717882D02*
X17567933Y-27832067D01*
X20478427Y-47100000D02*
X27500000Y-47100000D01*
X17275040Y-28539174D02*
X17275040Y-43896613D01*
X44740000Y-24435000D02*
X44740000Y-25502893D01*
X30710797Y-27424989D02*
X18389225Y-27424989D01*
X17860826Y-45310826D02*
X19064213Y-46514213D01*
X32207107Y-26342893D02*
X31417904Y-27132096D01*
X34096445Y-47603555D02*
G75*
G03*
X33949999Y-47957108I353556J-353553D01*
G01*
X17275041Y-28539174D02*
G75*
G02*
X17567934Y-27832068I999993J3D01*
G01*
X31417904Y-27132096D02*
G75*
G02*
X30710797Y-27424989I-707106J707106D01*
G01*
X17682118Y-27717882D02*
G75*
G02*
X18389225Y-27424989I707106J-707106D01*
G01*
X32914214Y-26050001D02*
G75*
G03*
X32207108Y-26342894I-3J-999993D01*
G01*
X19064213Y-46514213D02*
G75*
G03*
X20478427Y-47100000I1414214J1414213D01*
G01*
X44739999Y-25502893D02*
G75*
G02*
X44593554Y-25856446I-500001J0D01*
G01*
X17860826Y-45310826D02*
G75*
G02*
X17275040Y-43896613I1414214J1414213D01*
G01*
X44192893Y-26050000D02*
G75*
G03*
X44546447Y-25903553I1J499997D01*
G01*
%TO.N,B5*%
X17291398Y-26892903D02*
X16767913Y-27416388D01*
D68*
X30665010Y-23324990D02*
X30840000Y-23150000D01*
D71*
X20578433Y-48400006D02*
X27500000Y-48400006D01*
X35000000Y-50087500D02*
X35000000Y-48310141D01*
D68*
X32300000Y-24350000D02*
X31500000Y-25150000D01*
D71*
X17060806Y-45710806D02*
X19164219Y-47814219D01*
D68*
X32196446Y-23296446D02*
X32300000Y-23400000D01*
X30840000Y-23150000D02*
X31842893Y-23150000D01*
X30000000Y-17500000D02*
X30665010Y-18165010D01*
D71*
X35000000Y-48310141D02*
X34975000Y-48285141D01*
D68*
X26000000Y-20010000D02*
X28510000Y-17500000D01*
X28510000Y-17500000D02*
X30000000Y-17500000D01*
X32300000Y-23400000D02*
X32300000Y-24350000D01*
D71*
X16475020Y-28123495D02*
X16475020Y-44296593D01*
D68*
X30250000Y-23740000D02*
X30665010Y-23324990D01*
D71*
X31500000Y-25150000D02*
X30342883Y-26307117D01*
D68*
X30665010Y-18165010D02*
X30665010Y-23324990D01*
D71*
X29635776Y-26600010D02*
X17998505Y-26600010D01*
X30342883Y-26307117D02*
G75*
G02*
X29635776Y-26600010I-707106J707106D01*
G01*
X17060806Y-45710806D02*
G75*
G02*
X16475020Y-44296593I1414214J1414213D01*
G01*
X19164219Y-47814219D02*
G75*
G03*
X20578433Y-48400006I1414214J1414213D01*
G01*
D68*
X31842893Y-23150001D02*
G75*
G02*
X32196446Y-23296446I0J-500001D01*
G01*
D71*
X17998505Y-26600011D02*
G75*
G03*
X17291399Y-26892904I-3J-999993D01*
G01*
X16475021Y-28123495D02*
G75*
G02*
X16767914Y-27416389I999993J3D01*
G01*
D68*
%TO.N,B12*%
X23760000Y-81325000D02*
X23760000Y-81786780D01*
D71*
X42077107Y-67772893D02*
X31052893Y-78797107D01*
X38412500Y-57000000D02*
X39030000Y-57000000D01*
D68*
X24093230Y-82120010D02*
X27149990Y-82120010D01*
X23760000Y-81786780D02*
X24093230Y-82120010D01*
D71*
X24387107Y-79382893D02*
X24052893Y-79717107D01*
X30345786Y-79090000D02*
X25094214Y-79090000D01*
X39030000Y-57000000D02*
X39159990Y-57129990D01*
X42370000Y-61374214D02*
X42370000Y-67065786D01*
X39218568Y-57808568D02*
X42077107Y-60667107D01*
X23760000Y-80424214D02*
X23760000Y-81325000D01*
X39159990Y-57129990D02*
X39159990Y-57667147D01*
D68*
X27149990Y-82120010D02*
X27250000Y-82020000D01*
D71*
X39159990Y-57667147D02*
G75*
G03*
X39218568Y-57808568I200003J1D01*
G01*
X23760001Y-80424214D02*
G75*
G02*
X24052894Y-79717108I999993J3D01*
G01*
X42369999Y-67065786D02*
G75*
G02*
X42077106Y-67772892I-999993J-3D01*
G01*
X30345786Y-79089999D02*
G75*
G03*
X31052892Y-78797106I3J999993D01*
G01*
X42077107Y-60667107D02*
G75*
G02*
X42370000Y-61374214I-707106J-707106D01*
G01*
X24387107Y-79382893D02*
G75*
G02*
X25094214Y-79090000I707106J-707106D01*
G01*
D68*
%TO.N,pyro4_out*%
X39250000Y-86010000D02*
X39500000Y-86260000D01*
X39250000Y-82020000D02*
X39250000Y-86010000D01*
X40250000Y-82020000D02*
X39250000Y-82020000D01*
D72*
%TO.N,A6*%
X33185520Y-57340749D02*
X33185520Y-56654480D01*
X25700000Y-45330000D02*
X25720000Y-45350000D01*
X25700000Y-44860000D02*
X25700000Y-45330000D01*
X33000000Y-58412500D02*
X33000000Y-57526269D01*
X33000000Y-57526269D02*
X33185520Y-57340749D01*
D68*
%TO.N,pyro3_out*%
X28250000Y-82020000D02*
X29250000Y-82020000D01*
X29250000Y-86010000D02*
X29000000Y-86260000D01*
X29250000Y-82020000D02*
X29250000Y-86010000D01*
%TO.N,pyro2_out*%
X39250000Y-19750000D02*
X39500000Y-19500000D01*
X39250000Y-23740000D02*
X40250000Y-23740000D01*
X39250000Y-23740000D02*
X39250000Y-19750000D01*
%TO.N,pyro1_out*%
X29250000Y-23740000D02*
X29250000Y-19750001D01*
X28250000Y-23740000D02*
X29250000Y-23740000D01*
X29250000Y-19750001D02*
X28999999Y-19500000D01*
D72*
%TO.N,Net-(J4-PadB5)*%
X45330000Y-52500000D02*
X43710000Y-52500000D01*
X43710000Y-52500000D02*
X43700000Y-52510000D01*
D68*
%TO.N,C13*%
X23753574Y-51496426D02*
X23396447Y-51853553D01*
X30087500Y-52000000D02*
X28855663Y-52000000D01*
X28714242Y-51941422D02*
X28181379Y-51408559D01*
X24400020Y-51349980D02*
X24107127Y-51349980D01*
X23250000Y-52207107D02*
X23250000Y-52800000D01*
X28039957Y-51349980D02*
X24400020Y-51349980D01*
X23250000Y-52207107D02*
G75*
G02*
X23396447Y-51853553I499997J1D01*
G01*
X24107127Y-51349981D02*
G75*
G03*
X23753574Y-51496426I0J-500001D01*
G01*
X28181379Y-51408559D02*
G75*
G03*
X28039957Y-51349980I-141421J-141420D01*
G01*
X28855663Y-52000000D02*
G75*
G02*
X28714242Y-51941422I1J200003D01*
G01*
%TO.N,Reset*%
X26280000Y-56770000D02*
X26250000Y-56740000D01*
D71*
X30825000Y-54500000D02*
X31300000Y-54025000D01*
D68*
X28000000Y-55532843D02*
X28000000Y-55717157D01*
X30087500Y-54500000D02*
X28950000Y-54500000D01*
D71*
X30087500Y-54500000D02*
X30825000Y-54500000D01*
X31300000Y-54025000D02*
X31300000Y-51300000D01*
D68*
X28950000Y-54500000D02*
X28058579Y-55391421D01*
X27250000Y-56550000D02*
X27250000Y-56770000D01*
X27941422Y-55858578D02*
X27250000Y-56550000D01*
X27250000Y-56770000D02*
X26280000Y-56770000D01*
X27941422Y-55858578D02*
G75*
G03*
X28000000Y-55717157I-141425J141422D01*
G01*
X28000001Y-55532843D02*
G75*
G02*
X28058580Y-55391422I199998J1D01*
G01*
%TO.N,Net-(D2-Pad2)*%
X20000000Y-53740000D02*
X19025000Y-53740000D01*
X19025000Y-53740000D02*
X19000000Y-53765000D01*
D71*
%TO.N,A10*%
X36626914Y-62000000D02*
X35410000Y-62000000D01*
D68*
X38412500Y-54000000D02*
X37430000Y-54000000D01*
D72*
X41745736Y-55310000D02*
X40834264Y-55310000D01*
X40622132Y-55222132D02*
X39487868Y-54087868D01*
X39275736Y-54000000D02*
X38412500Y-54000000D01*
D71*
X30550000Y-63825000D02*
X30181882Y-63825000D01*
D68*
X37430000Y-54000000D02*
X37400000Y-53970000D01*
D71*
X37276432Y-62649518D02*
X36626914Y-62000000D01*
X30181882Y-63825000D02*
X29956883Y-63600001D01*
X37335010Y-63052167D02*
X37335010Y-62790939D01*
X37700000Y-63500000D02*
X37393589Y-63193589D01*
D72*
X42500000Y-55940000D02*
X41957868Y-55397868D01*
D71*
X37950000Y-63500000D02*
X37700000Y-63500000D01*
X37335010Y-62790939D02*
G75*
G03*
X37276432Y-62649518I-200003J-1D01*
G01*
X37335011Y-63052167D02*
G75*
G03*
X37393590Y-63193588I199998J-1D01*
G01*
D72*
X41745736Y-55310001D02*
G75*
G02*
X41957867Y-55397869I1J-299997D01*
G01*
X40834264Y-55309999D02*
G75*
G02*
X40622133Y-55222131I-1J299997D01*
G01*
X39275736Y-54000001D02*
G75*
G02*
X39487867Y-54087869I1J-299997D01*
G01*
D68*
%TO.N,A9*%
X38392499Y-54520001D02*
X36910001Y-54520001D01*
D71*
X30550000Y-64475000D02*
X30820002Y-64475000D01*
X34250000Y-61010000D02*
X34250000Y-61540000D01*
X31164990Y-64130012D02*
X31164990Y-62599224D01*
D68*
X36910001Y-54520001D02*
X36860000Y-54470000D01*
D71*
X32754214Y-61010000D02*
X34250000Y-61010000D01*
X36540000Y-61010000D02*
X34250000Y-61010000D01*
X36810000Y-61010000D02*
X36540000Y-61010000D01*
X31457883Y-61892117D02*
X32047107Y-61302893D01*
X38500000Y-62700000D02*
X36810000Y-61010000D01*
D72*
X41300000Y-55940000D02*
X40964264Y-55940000D01*
D68*
X38412500Y-54500000D02*
X38392499Y-54520001D01*
D71*
X30820002Y-64475000D02*
X31164990Y-64130012D01*
D72*
X39275736Y-54500000D02*
X38412500Y-54500000D01*
X40752132Y-55852132D02*
X39487868Y-54587868D01*
D71*
X31457883Y-61892117D02*
G75*
G03*
X31164990Y-62599224I707106J-707106D01*
G01*
D72*
X40752132Y-55852132D02*
G75*
G03*
X40964264Y-55940000I212131J212130D01*
G01*
X39487868Y-54587868D02*
G75*
G03*
X39275736Y-54500000I-212131J-212130D01*
G01*
D71*
X32047107Y-61302893D02*
G75*
G02*
X32754214Y-61010000I707106J-707106D01*
G01*
%TO.N,B4*%
X32600000Y-25300000D02*
X31192873Y-26707127D01*
D68*
X39990000Y-17500000D02*
X38750000Y-17500000D01*
X42500000Y-20010000D02*
X39990000Y-17500000D01*
X37760000Y-18490000D02*
X37760000Y-23740000D01*
D71*
X30485766Y-27000020D02*
X18164194Y-27000020D01*
X20528430Y-47750003D02*
X27500000Y-47750003D01*
X35550000Y-25300000D02*
X32600000Y-25300000D01*
X16875030Y-28289184D02*
X16875030Y-44096603D01*
X17457087Y-27292913D02*
X17167923Y-27582077D01*
X35353554Y-47881372D02*
X35061091Y-47588909D01*
X17460816Y-45510816D02*
X19114216Y-47164216D01*
D68*
X37760000Y-23740000D02*
X37110000Y-23740000D01*
X38750000Y-17500000D02*
X37760000Y-18490000D01*
D71*
X35500000Y-50087500D02*
X35500000Y-48234925D01*
D68*
X37110000Y-23740000D02*
X37000000Y-23850000D01*
D71*
X37000000Y-23850000D02*
X35550000Y-25300000D01*
D68*
X38250000Y-23740000D02*
X37760000Y-23740000D01*
D71*
X17167923Y-27582077D02*
G75*
G03*
X16875030Y-28289184I707106J-707106D01*
G01*
X17460816Y-45510816D02*
G75*
G02*
X16875030Y-44096603I1414214J1414213D01*
G01*
X18164194Y-27000021D02*
G75*
G03*
X17457088Y-27292914I-3J-999993D01*
G01*
X19114216Y-47164216D02*
G75*
G03*
X20528430Y-47750003I1414214J1414213D01*
G01*
X35499999Y-48234925D02*
G75*
G03*
X35353554Y-47881372I-500001J0D01*
G01*
X30485766Y-27000019D02*
G75*
G03*
X31192872Y-26707126I3J999993D01*
G01*
%TO.N,B6*%
X16075010Y-27939204D02*
X16075010Y-44496583D01*
X34500000Y-50087500D02*
X34500000Y-48975000D01*
X17107107Y-26492893D02*
X16367903Y-27232097D01*
D68*
X25740000Y-24435000D02*
X26925000Y-24435000D01*
D71*
X34500000Y-48975000D02*
X34475000Y-48950000D01*
X20628436Y-49050009D02*
X27500000Y-49050009D01*
D68*
X26925000Y-24435000D02*
X27250000Y-24760000D01*
D71*
X25447107Y-25852893D02*
X25392893Y-25907107D01*
X16660796Y-45910796D02*
X19214222Y-48464222D01*
X25740000Y-24435000D02*
X25740000Y-25145786D01*
X24685786Y-26200000D02*
X17814214Y-26200000D01*
X16367903Y-27232097D02*
G75*
G03*
X16075010Y-27939204I707106J-707106D01*
G01*
X17814214Y-26200001D02*
G75*
G03*
X17107108Y-26492894I-3J-999993D01*
G01*
X16660796Y-45910796D02*
G75*
G02*
X16075010Y-44496583I1414214J1414213D01*
G01*
X25447107Y-25852893D02*
G75*
G03*
X25740000Y-25145786I-707106J707106D01*
G01*
X19214222Y-48464222D02*
G75*
G03*
X20628436Y-49050009I1414214J1414213D01*
G01*
X24685786Y-26199999D02*
G75*
G03*
X25392892Y-25907106I3J999993D01*
G01*
D68*
%TO.N,Net-(D5-Pad2)*%
X26000000Y-86770000D02*
X26000000Y-88275000D01*
%TO.N,Net-(D10-Pad2)*%
X17995000Y-54760000D02*
X17000000Y-53765000D01*
X18000000Y-54760000D02*
X17995000Y-54760000D01*
%TO.N,can_L*%
X20925000Y-38425000D02*
X19500000Y-37000000D01*
X24362500Y-38425000D02*
X20925000Y-38425000D01*
%TO.N,can_H*%
X20925000Y-39075000D02*
X19500000Y-40500000D01*
X24362500Y-39075000D02*
X20925000Y-39075000D01*
D72*
%TO.N,USB_D+*%
X38412500Y-53000000D02*
X38462500Y-53050000D01*
X40600000Y-54050000D02*
X40946430Y-54050000D01*
X41650000Y-53712500D02*
X41650000Y-52510000D01*
X40946430Y-54050000D02*
X41283930Y-53712500D01*
X38462500Y-53050000D02*
X39600000Y-53050000D01*
X41283930Y-53712500D02*
X41650000Y-53712500D01*
X39600000Y-53050000D02*
X40600000Y-54050000D01*
%TO.N,Net-(J4-PadA5)*%
X45330000Y-55500000D02*
X44264264Y-55500000D01*
X44052132Y-55587868D02*
X43700000Y-55940000D01*
X44052132Y-55587868D02*
G75*
G02*
X44264264Y-55500000I212131J-212130D01*
G01*
%TO.N,USB_D-*%
X39400000Y-53450000D02*
X40400000Y-54450000D01*
X40400000Y-54450000D02*
X40946432Y-54450000D01*
X41283932Y-54787500D02*
X41650000Y-54787500D01*
X38412500Y-53500000D02*
X38462500Y-53450000D01*
X40946432Y-54450000D02*
X41283932Y-54787500D01*
X38462500Y-53450000D02*
X39400000Y-53450000D01*
D71*
%TO.N,Net-(R11-Pad2)*%
X41047500Y-32260000D02*
X40750000Y-31962500D01*
X42750000Y-32260000D02*
X41047500Y-32260000D01*
D72*
%TO.N,Net-(R39-Pad2)*%
X31475000Y-29500000D02*
X32490000Y-29500000D01*
X32490000Y-29500000D02*
X32750000Y-29760000D01*
D71*
%TO.N,B14*%
X43250000Y-61074214D02*
X43250000Y-73945786D01*
X38412500Y-56000000D02*
X39091434Y-56000000D01*
D68*
X37710000Y-87070000D02*
X38550000Y-87910000D01*
D71*
X39980000Y-56847145D02*
X39980000Y-57307157D01*
X40038578Y-57448578D02*
X42957107Y-60367107D01*
D68*
X38550000Y-87910000D02*
X40250000Y-87910000D01*
D71*
X42957107Y-74652893D02*
X37000000Y-80610000D01*
D68*
X38250000Y-82020000D02*
X37710000Y-82560000D01*
X36200000Y-81410000D02*
X37000000Y-80610000D01*
X40250000Y-87910000D02*
X42410000Y-85750000D01*
X36362132Y-82472132D02*
X36200000Y-82310000D01*
X37710000Y-82560000D02*
X37710000Y-87070000D01*
X42410000Y-85750000D02*
X42500000Y-85750000D01*
X37710000Y-82560000D02*
X36574264Y-82560000D01*
X36200000Y-82310000D02*
X36200000Y-81410000D01*
D71*
X39303566Y-56087868D02*
X39921421Y-56705723D01*
X42957107Y-74652893D02*
G75*
G03*
X43250000Y-73945786I-707106J707106D01*
G01*
X39091434Y-56000001D02*
G75*
G02*
X39303565Y-56087869I1J-299997D01*
G01*
X40038578Y-57448578D02*
G75*
G02*
X39980000Y-57307157I141425J141422D01*
G01*
D68*
X36574264Y-82559999D02*
G75*
G02*
X36362133Y-82472131I-1J299997D01*
G01*
D71*
X39921421Y-56705723D02*
G75*
G02*
X39980000Y-56847145I-141420J-141421D01*
G01*
X42957107Y-60367107D02*
G75*
G02*
X43250000Y-61074214I-707106J-707106D01*
G01*
%TO.N,B13*%
X39618578Y-57628578D02*
X42507107Y-60517107D01*
X39560000Y-56992843D02*
X39560000Y-57487157D01*
X42507107Y-70902893D02*
X31500000Y-81910000D01*
D68*
X29950000Y-87760000D02*
X28010000Y-87760000D01*
X31390000Y-82020000D02*
X31500000Y-81910000D01*
D71*
X38412500Y-56500000D02*
X39150000Y-56500000D01*
X39150000Y-56500000D02*
X39501421Y-56851421D01*
D68*
X30600000Y-87110000D02*
X29950000Y-87760000D01*
X30250000Y-82020000D02*
X30540000Y-82020000D01*
X30600000Y-82080000D02*
X30600000Y-87110000D01*
X30250000Y-82020000D02*
X31390000Y-82020000D01*
X30540000Y-82020000D02*
X30600000Y-82080000D01*
D71*
X42800000Y-61224214D02*
X42800000Y-70195786D01*
D68*
X28010000Y-87760000D02*
X26000000Y-85750000D01*
D71*
X39501421Y-56851421D02*
G75*
G02*
X39560000Y-56992843I-141420J-141421D01*
G01*
X39618578Y-57628578D02*
G75*
G02*
X39560000Y-57487157I141425J141422D01*
G01*
X42799999Y-70195786D02*
G75*
G02*
X42507106Y-70902892I-999993J-3D01*
G01*
X42799999Y-61224214D02*
G75*
G03*
X42507106Y-60517108I-999993J3D01*
G01*
D68*
%TO.N,Net-(D7-Pad2)*%
X35175000Y-41110000D02*
X35249999Y-41110000D01*
X34250000Y-42035000D02*
X35175000Y-41110000D01*
D72*
%TO.N,Net-(R40-Pad2)*%
X43750000Y-31240000D02*
X43376437Y-30866437D01*
X41875514Y-31250000D02*
X41462500Y-31250000D01*
X42376235Y-30749279D02*
X41875514Y-31250000D01*
D71*
X44750000Y-31240000D02*
X43750000Y-31240000D01*
D72*
X43022883Y-30719990D02*
X42446945Y-30719990D01*
X42376235Y-30749279D02*
G75*
G02*
X42446945Y-30719990I70710J-70710D01*
G01*
X43376437Y-30866437D02*
G75*
G03*
X43022883Y-30719990I-353553J-353550D01*
G01*
D68*
%TO.N,Net-(D6-Pad2)*%
X42500000Y-86770000D02*
X42500000Y-88275000D01*
%TO.N,Net-(D4-Pad2)*%
X42500000Y-17485000D02*
X42500000Y-18990000D01*
%TO.N,Net-(D3-Pad2)*%
X26000000Y-17485000D02*
X26000000Y-18990000D01*
%TO.N,A8*%
X36630000Y-55220000D02*
X36310000Y-54900000D01*
X42800000Y-45590000D02*
X42800000Y-44860000D01*
X37330000Y-55220000D02*
X36630000Y-55220000D01*
X38412500Y-55000000D02*
X37550000Y-55000000D01*
X37550000Y-55000000D02*
X37330000Y-55220000D01*
D72*
%TO.N,Net-(J4-PadA6)*%
X45908568Y-53500000D02*
X46155010Y-53746442D01*
X46155010Y-54253560D02*
X45908570Y-54500000D01*
X43562500Y-53500000D02*
X43350000Y-53712500D01*
X45330000Y-53500000D02*
X45908568Y-53500000D01*
X46155010Y-53746442D02*
X46155010Y-54253560D01*
X45330000Y-53500000D02*
X43562500Y-53500000D01*
X45908570Y-54500000D02*
X45330000Y-54500000D01*
%TO.N,Net-(J4-PadA7)*%
X44550000Y-55000000D02*
X43562500Y-55000000D01*
X43562500Y-55000000D02*
X43350000Y-54787500D01*
X45330000Y-54000000D02*
X44751430Y-54000000D01*
X44751430Y-54000000D02*
X44504990Y-54246440D01*
X45330000Y-55000000D02*
X44550000Y-55000000D01*
X44504990Y-54246440D02*
X44504990Y-54954990D01*
X44504990Y-54954990D02*
X44550000Y-55000000D01*
D68*
%TO.N,Net-(C7-Pad1)*%
X27583554Y-29646446D02*
X27250000Y-29980000D01*
X28525000Y-29500000D02*
X27937107Y-29500000D01*
X27937107Y-29500001D02*
G75*
G03*
X27583554Y-29646446I0J-500001D01*
G01*
D71*
%TO.N,Net-(C6-Pad2)*%
X41017500Y-28770000D02*
X42800000Y-28770000D01*
X40750000Y-29037500D02*
X41017500Y-28770000D01*
%TO.N,en*%
X34800000Y-32400000D02*
X33292894Y-33907106D01*
X32100000Y-30500000D02*
X32250000Y-30350000D01*
X33000001Y-34614212D02*
X33000000Y-37350000D01*
X35357107Y-31842893D02*
X34800000Y-32400000D01*
X35860131Y-29112867D02*
X35737868Y-29235130D01*
X33000000Y-37350000D02*
X33000000Y-38000000D01*
X33950000Y-31600000D02*
X34750000Y-32400000D01*
X35650000Y-29447262D02*
X35650000Y-31135786D01*
X34750000Y-32400000D02*
X34800000Y-32400000D01*
X31760000Y-30500000D02*
X32100000Y-30500000D01*
D67*
X33000000Y-39840001D02*
X33249999Y-40090000D01*
D71*
X37730391Y-29024999D02*
X36072263Y-29024999D01*
X38537500Y-29750000D02*
X38537500Y-29625001D01*
X38537500Y-29625001D02*
X38083945Y-29171446D01*
D67*
X33000000Y-39840001D02*
X33000000Y-38000000D01*
D71*
X35357107Y-31842893D02*
G75*
G03*
X35650000Y-31135786I-707106J707106D01*
G01*
X35737868Y-29235130D02*
G75*
G03*
X35650000Y-29447262I212130J-212131D01*
G01*
X36072263Y-29025000D02*
G75*
G03*
X35860132Y-29112868I-1J-299997D01*
G01*
X33000002Y-34614212D02*
G75*
G02*
X33292895Y-33907107I999993J2D01*
G01*
X38083945Y-29171446D02*
G75*
G03*
X37730391Y-29024999I-353553J-353550D01*
G01*
D69*
%TO.N,+5V*%
X23350000Y-29607107D02*
X23350000Y-30575000D01*
X24250000Y-28611998D02*
X24250000Y-28990000D01*
X23350000Y-30575000D02*
X24000000Y-31225000D01*
D67*
X18250000Y-42250000D02*
X17900000Y-41900000D01*
D69*
X24250000Y-28990000D02*
X23760000Y-28990000D01*
X32750000Y-28740000D02*
X31909999Y-27899999D01*
D67*
X44000000Y-44000000D02*
X44000000Y-43500000D01*
D69*
X24669106Y-28192892D02*
X24250000Y-28611998D01*
D67*
X17900000Y-41900000D02*
X17900000Y-31600000D01*
X17900000Y-31600000D02*
X19500000Y-30000000D01*
D69*
X23760000Y-28990000D02*
X23496447Y-29253553D01*
D67*
X24500000Y-44000000D02*
X22750000Y-42250000D01*
D69*
X31909999Y-27899999D02*
X25376213Y-27899999D01*
D67*
X18250000Y-42250000D02*
X22750000Y-42250000D01*
D69*
X23496447Y-29253553D02*
G75*
G03*
X23350000Y-29607107I353550J-353553D01*
G01*
X24669106Y-28192892D02*
G75*
G02*
X25376213Y-27899999I707106J-707106D01*
G01*
D72*
%TO.N,lora_reset*%
X32000000Y-57100000D02*
X32000000Y-58412500D01*
D71*
%TO.N,A15*%
X36500000Y-50087500D02*
X36500000Y-50825000D01*
X35675000Y-51650000D02*
X31880000Y-51650000D01*
X36500000Y-50825000D02*
X35675000Y-51650000D01*
D70*
%TO.N,Net-(Q6-Pad1)*%
X37900000Y-24250000D02*
X37000000Y-25150000D01*
X38740000Y-24250000D02*
X37900000Y-24250000D01*
X39250000Y-24760000D02*
X38740000Y-24250000D01*
%TO.N,Net-(Q5-Pad1)*%
X31402883Y-23947117D02*
X31500000Y-23850000D01*
X29250000Y-24760000D02*
X29477097Y-24532903D01*
X30184204Y-24240010D02*
X30695776Y-24240010D01*
X30695776Y-24240009D02*
G75*
G03*
X31402882Y-23947116I3J999993D01*
G01*
X29477097Y-24532903D02*
G75*
G02*
X30184204Y-24240010I707106J-707106D01*
G01*
D68*
%TO.N,Net-(Q8-Pad1)*%
X24782885Y-44550008D02*
X23700008Y-44550008D01*
X23700008Y-44550008D02*
X22500000Y-43350000D01*
X25700000Y-43840000D02*
X25136439Y-44403561D01*
X24782885Y-44550008D02*
G75*
G03*
X25136439Y-44403561I1J499997D01*
G01*
%TO.N,A1*%
X27561553Y-58780020D02*
X21630020Y-58780020D01*
X17000000Y-55164002D02*
X17000000Y-54735000D01*
X29319654Y-56500000D02*
X28818609Y-57001045D01*
X20293105Y-58457107D02*
X17000000Y-55164002D01*
X21600000Y-58750000D02*
X21000212Y-58750000D01*
X21630020Y-58780020D02*
X21600000Y-58750000D01*
X28613583Y-57935097D02*
X27915107Y-58633573D01*
X28760030Y-57142466D02*
X28760030Y-57581544D01*
X30087500Y-56500000D02*
X29319654Y-56500000D01*
X27915107Y-58633573D02*
G75*
G02*
X27561553Y-58780020I-353553J353550D01*
G01*
X28760031Y-57142466D02*
G75*
G02*
X28818610Y-57001046I199993J2D01*
G01*
X28760029Y-57581544D02*
G75*
G02*
X28613582Y-57935096I-500007J4D01*
G01*
X21000212Y-58749999D02*
G75*
G02*
X20293106Y-58457106I-3J999993D01*
G01*
%TO.N,Net-(Q7-Pad1)*%
X42800000Y-43840000D02*
X43317107Y-44357107D01*
X44024214Y-44650000D02*
X46000000Y-44650000D01*
X43317107Y-44357107D02*
G75*
G03*
X44024214Y-44650000I707106J707106D01*
G01*
D67*
%TO.N,led_out*%
X20149999Y-44650000D02*
X19749999Y-44250000D01*
X22500000Y-44650000D02*
X20149999Y-44650000D01*
%TO.N,buzzer_out*%
X46650000Y-43350000D02*
X47550000Y-44250000D01*
X46000000Y-43350000D02*
X46650000Y-43350000D01*
X47550000Y-44250000D02*
X48750000Y-44250000D01*
D68*
%TO.N,canrx*%
X30750000Y-46613590D02*
X30750000Y-39414214D01*
X33000000Y-50087500D02*
X33000000Y-49070697D01*
X30457107Y-38707107D02*
X29567894Y-37817894D01*
X32853554Y-48717144D02*
X30750000Y-46613590D01*
X26887499Y-37525001D02*
X26637500Y-37775000D01*
X28860787Y-37525001D02*
X26887499Y-37525001D01*
X30457107Y-38707107D02*
G75*
G02*
X30750000Y-39414214I-707106J-707106D01*
G01*
X29567894Y-37817894D02*
G75*
G03*
X28860787Y-37525001I-707106J-707106D01*
G01*
X32853554Y-48717144D02*
G75*
G02*
X33000000Y-49070697I-353556J-353553D01*
G01*
%TO.N,cantx*%
X30250000Y-46750000D02*
X32353553Y-48853553D01*
X30250000Y-41164214D02*
X30250000Y-46750000D01*
X26912500Y-40000000D02*
X29085786Y-40000000D01*
X26637500Y-39725000D02*
X26912500Y-40000000D01*
X29792893Y-40292893D02*
X29957107Y-40457107D01*
X32500000Y-49207107D02*
X32500000Y-50087500D01*
X29957107Y-40457107D02*
G75*
G02*
X30250000Y-41164214I-707106J-707106D01*
G01*
X29085786Y-40000001D02*
G75*
G02*
X29792892Y-40292894I3J-999993D01*
G01*
X32353553Y-48853553D02*
G75*
G02*
X32500000Y-49207107I-353550J-353553D01*
G01*
%TO.N,Net-(C8-Pad1)*%
X24250000Y-30010000D02*
X26250000Y-30010000D01*
D72*
X26250000Y-30010000D02*
X26603563Y-30363563D01*
X28514990Y-30510010D02*
X28525000Y-30500000D01*
X26957117Y-30510010D02*
X28514990Y-30510010D01*
X26603563Y-30363563D02*
G75*
G03*
X26957117Y-30510010I353553J353550D01*
G01*
D68*
%TO.N,C15*%
X30087500Y-53000000D02*
X28582843Y-53000000D01*
X23004274Y-56403554D02*
X22750000Y-56149280D01*
X25503554Y-52396446D02*
X24500000Y-53400000D01*
X23642893Y-56550000D02*
X23357827Y-56550000D01*
X24500000Y-53400000D02*
X24500000Y-55692893D01*
X28441422Y-52941422D02*
X27808579Y-52308579D01*
X27667157Y-52250000D02*
X25857107Y-52250000D01*
X22750000Y-56149280D02*
X22750000Y-55700000D01*
X24353554Y-56046446D02*
X23996447Y-56403553D01*
X27808579Y-52308579D02*
G75*
G03*
X27667157Y-52250000I-141421J-141420D01*
G01*
X24353554Y-56046446D02*
G75*
G03*
X24500000Y-55692893I-353556J353553D01*
G01*
X23004274Y-56403554D02*
G75*
G03*
X23357827Y-56550000I353553J353556D01*
G01*
X23996447Y-56403553D02*
G75*
G02*
X23642893Y-56550000I-353553J353550D01*
G01*
X25857107Y-52250001D02*
G75*
G03*
X25503554Y-52396446I0J-500001D01*
G01*
X28441422Y-52941422D02*
G75*
G03*
X28582843Y-53000000I141422J141425D01*
G01*
%TO.N,SWCLK*%
X36707107Y-47207107D02*
X35500000Y-46000000D01*
X37000000Y-50087500D02*
X37000000Y-47914214D01*
X36999999Y-47914214D02*
G75*
G03*
X36707106Y-47207108I-999993J3D01*
G01*
%TO.N,SWDIO*%
X38412500Y-52500000D02*
X39316756Y-52500000D01*
X40100011Y-51509638D02*
X40100011Y-49764225D01*
X39316756Y-52500000D02*
X39953564Y-51863192D01*
X39807118Y-49057118D02*
X36750000Y-46000000D01*
X39807118Y-49057118D02*
G75*
G02*
X40100011Y-49764225I-707106J-707106D01*
G01*
X39953564Y-51863192D02*
G75*
G03*
X40100011Y-51509638I-353550J353553D01*
G01*
%TO.N,Net-(U5-Pad6)*%
X27124280Y-55450000D02*
X26750000Y-55450000D01*
X30087500Y-54000000D02*
X28781387Y-54000000D01*
X28427834Y-54146446D02*
X27124280Y-55450000D01*
X28781387Y-54000001D02*
G75*
G03*
X28427834Y-54146446I0J-500001D01*
G01*
%TO.N,Net-(U5-Pad5)*%
X30087500Y-53500000D02*
X27200000Y-53500000D01*
X27200000Y-53500000D02*
X26750000Y-53050000D01*
%TO.N,A0*%
X29136410Y-56000000D02*
X28368599Y-56767811D01*
X28310020Y-56909233D02*
X28310020Y-57395143D01*
X19000000Y-54735000D02*
X19672107Y-55407107D01*
X30087500Y-56000000D02*
X29136410Y-56000000D01*
X22250000Y-56285690D02*
X22250000Y-55700000D01*
X27375153Y-58330010D02*
X24708534Y-58330010D01*
X28163574Y-57748696D02*
X27728707Y-58183563D01*
X20379214Y-55700000D02*
X22250000Y-55700000D01*
X24001427Y-58037117D02*
X22250000Y-56285690D01*
X28368599Y-56767811D02*
G75*
G03*
X28310020Y-56909233I141420J-141421D01*
G01*
X24708534Y-58330009D02*
G75*
G02*
X24001428Y-58037116I-3J999993D01*
G01*
X27375153Y-58330010D02*
G75*
G03*
X27728707Y-58183563I1J499997D01*
G01*
X20379214Y-55699999D02*
G75*
G02*
X19672108Y-55407106I-3J999993D01*
G01*
X28163574Y-57748696D02*
G75*
G03*
X28310020Y-57395143I-353556J353553D01*
G01*
%TO.N,B3*%
X36000000Y-50087500D02*
X36000000Y-48164214D01*
X35707107Y-47457107D02*
X34250000Y-46000000D01*
X35999999Y-48164214D02*
G75*
G03*
X35707106Y-47457108I-999993J3D01*
G01*
%TO.N,A2*%
X21210000Y-66460000D02*
X20500000Y-67170000D01*
X20500000Y-67170000D02*
X20500000Y-68500000D01*
X30087500Y-57000000D02*
X29436447Y-57651053D01*
X29143554Y-58526446D02*
X21210000Y-66460000D01*
X29290000Y-58004607D02*
X29290000Y-58172893D01*
X29143554Y-58526446D02*
G75*
G03*
X29290000Y-58172893I-353556J353553D01*
G01*
X29436447Y-57651053D02*
G75*
G03*
X29290000Y-58004607I353550J-353553D01*
G01*
%TO.N,A3*%
X28417117Y-59932883D02*
X24992893Y-63357107D01*
X24407107Y-67342893D02*
X20500000Y-71250000D01*
X24700000Y-64064214D02*
X24700000Y-66635786D01*
X20500000Y-71250000D02*
X20500000Y-72000000D01*
X31500000Y-59150000D02*
X31156457Y-59493543D01*
X30802903Y-59639990D02*
X29124224Y-59639990D01*
X31500000Y-58412500D02*
X31500000Y-59150000D01*
X24407107Y-67342893D02*
G75*
G03*
X24700000Y-66635786I-707106J707106D01*
G01*
X24992893Y-63357107D02*
G75*
G03*
X24700000Y-64064214I707106J-707106D01*
G01*
X28417117Y-59932883D02*
G75*
G02*
X29124224Y-59639990I707106J-707106D01*
G01*
X31156457Y-59493543D02*
G75*
G02*
X30802903Y-59639990I-353553J353550D01*
G01*
%TO.N,A5*%
X32353554Y-59646446D02*
X32056447Y-59943553D01*
X28617107Y-60382893D02*
X26146447Y-62853553D01*
X31702893Y-60090000D02*
X29324214Y-60090000D01*
X25707107Y-70292893D02*
X20500000Y-75500000D01*
X32500000Y-58412500D02*
X32500000Y-59292893D01*
X26000000Y-63207107D02*
X26000000Y-69585786D01*
X25707107Y-70292893D02*
G75*
G03*
X26000000Y-69585786I-707106J707106D01*
G01*
X29324214Y-60090001D02*
G75*
G03*
X28617108Y-60382894I-3J-999993D01*
G01*
X32499999Y-59292893D02*
G75*
G02*
X32353554Y-59646446I-500001J0D01*
G01*
X26146447Y-62853553D02*
G75*
G03*
X26000000Y-63207107I353550J-353553D01*
G01*
X31702893Y-60090000D02*
G75*
G03*
X32056447Y-59943553I1J499997D01*
G01*
D73*
%TO.N,Net-(Q10-Pad1)*%
X38754990Y-81495010D02*
X37414990Y-81495010D01*
X39250000Y-81000000D02*
X38754990Y-81495010D01*
X37414990Y-81495010D02*
X37000000Y-81910000D01*
%TO.N,Net-(Q9-Pad1)*%
X30614990Y-81495010D02*
X31500000Y-80610000D01*
X29250000Y-81000000D02*
X29745010Y-81495010D01*
X29745010Y-81495010D02*
X30614990Y-81495010D01*
%TD*%
%TO.N,GND*%
D72*
X25026178Y-24116092D02*
X25090757Y-24159243D01*
X25133908Y-24223822D01*
X25151000Y-24309752D01*
X25151000Y-25440248D01*
X25133908Y-25526178D01*
X25090757Y-25590757D01*
X25026178Y-25633908D01*
X24940248Y-25651000D01*
X23559752Y-25651000D01*
X23473822Y-25633908D01*
X23409243Y-25590757D01*
X23366092Y-25526178D01*
X23349000Y-25440248D01*
X23349000Y-24309752D01*
X23366092Y-24223822D01*
X23409243Y-24159243D01*
X23473822Y-24116092D01*
X23559752Y-24099000D01*
X24940248Y-24099000D01*
X25026178Y-24116092D01*
%TA.AperFunction,Conductor*%
G36*
X25026178Y-24116092D02*
G01*
X25090757Y-24159243D01*
X25133908Y-24223822D01*
X25151000Y-24309752D01*
X25151000Y-25440248D01*
X25133908Y-25526178D01*
X25090757Y-25590757D01*
X25026178Y-25633908D01*
X24940248Y-25651000D01*
X23559752Y-25651000D01*
X23473822Y-25633908D01*
X23409243Y-25590757D01*
X23366092Y-25526178D01*
X23349000Y-25440248D01*
X23349000Y-24309752D01*
X23366092Y-24223822D01*
X23409243Y-24159243D01*
X23473822Y-24116092D01*
X23559752Y-24099000D01*
X24940248Y-24099000D01*
X25026178Y-24116092D01*
G37*
%TD.AperFunction*%
%TD*%
%TO.N,Net-(L1-Pad2)*%
X28676178Y-31516092D02*
X28740757Y-31559243D01*
X28783908Y-31623822D01*
X28801000Y-31709752D01*
X28801000Y-32125736D01*
X28802902Y-32145050D01*
X28825738Y-32259855D01*
X28840521Y-32295543D01*
X28905553Y-32392870D01*
X28917864Y-32407872D01*
X29385236Y-32875244D01*
X29433908Y-32948086D01*
X29451000Y-33034016D01*
X29451000Y-34790248D01*
X29433908Y-34876178D01*
X29390757Y-34940757D01*
X29326178Y-34983908D01*
X29240248Y-35001000D01*
X28409752Y-35001000D01*
X28323822Y-34983908D01*
X28259243Y-34940757D01*
X28216092Y-34876178D01*
X28199000Y-34790248D01*
X28199000Y-31709752D01*
X28216092Y-31623822D01*
X28259243Y-31559243D01*
X28323822Y-31516092D01*
X28409752Y-31499000D01*
X28590248Y-31499000D01*
X28676178Y-31516092D01*
%TA.AperFunction,Conductor*%
G36*
X28676178Y-31516092D02*
G01*
X28740757Y-31559243D01*
X28783908Y-31623822D01*
X28801000Y-31709752D01*
X28801000Y-32125736D01*
X28802902Y-32145050D01*
X28825738Y-32259855D01*
X28840521Y-32295543D01*
X28905553Y-32392870D01*
X28917864Y-32407872D01*
X29385236Y-32875244D01*
X29433908Y-32948086D01*
X29451000Y-33034016D01*
X29451000Y-34790248D01*
X29433908Y-34876178D01*
X29390757Y-34940757D01*
X29326178Y-34983908D01*
X29240248Y-35001000D01*
X28409752Y-35001000D01*
X28323822Y-34983908D01*
X28259243Y-34940757D01*
X28216092Y-34876178D01*
X28199000Y-34790248D01*
X28199000Y-31709752D01*
X28216092Y-31623822D01*
X28259243Y-31559243D01*
X28323822Y-31516092D01*
X28409752Y-31499000D01*
X28590248Y-31499000D01*
X28676178Y-31516092D01*
G37*
%TD.AperFunction*%
%TD*%
%TO.N,GND*%
X45791741Y-57301844D02*
X45810325Y-57371200D01*
X45820739Y-57395972D01*
X45894038Y-57519914D01*
X45910729Y-57540973D01*
X46014658Y-57640638D01*
X46036398Y-57656433D01*
X46163301Y-57724477D01*
X46188487Y-57733844D01*
X46329013Y-57765255D01*
X46355790Y-57767503D01*
X46384136Y-57766018D01*
X46683334Y-58033721D01*
X46736240Y-58104312D01*
X46757869Y-58189839D01*
X46784872Y-58729910D01*
X46771138Y-58819191D01*
X46728762Y-58887109D01*
X46663042Y-58932825D01*
X46574563Y-58951000D01*
X45059752Y-58951000D01*
X44973822Y-58933908D01*
X44909243Y-58890757D01*
X44866092Y-58826178D01*
X44849000Y-58740248D01*
X44849000Y-57509752D01*
X44866092Y-57423822D01*
X44909243Y-57359243D01*
X44973822Y-57316092D01*
X45059752Y-57299000D01*
X45776327Y-57299000D01*
X45791741Y-57301844D01*
%TA.AperFunction,Conductor*%
G36*
X45791741Y-57301844D02*
G01*
X45810325Y-57371200D01*
X45820739Y-57395972D01*
X45894038Y-57519914D01*
X45910729Y-57540973D01*
X46014658Y-57640638D01*
X46036398Y-57656433D01*
X46163301Y-57724477D01*
X46188487Y-57733844D01*
X46329013Y-57765255D01*
X46355790Y-57767503D01*
X46384136Y-57766018D01*
X46683334Y-58033721D01*
X46736240Y-58104312D01*
X46757869Y-58189839D01*
X46784872Y-58729910D01*
X46771138Y-58819191D01*
X46728762Y-58887109D01*
X46663042Y-58932825D01*
X46574563Y-58951000D01*
X45059752Y-58951000D01*
X44973822Y-58933908D01*
X44909243Y-58890757D01*
X44866092Y-58826178D01*
X44849000Y-58740248D01*
X44849000Y-57509752D01*
X44866092Y-57423822D01*
X44909243Y-57359243D01*
X44973822Y-57316092D01*
X45059752Y-57299000D01*
X45776327Y-57299000D01*
X45791741Y-57301844D01*
G37*
%TD.AperFunction*%
%TD*%
%TO.N,Net-(L1-Pad1)*%
X31676178Y-31516092D02*
X31740757Y-31559243D01*
X31783908Y-31623822D01*
X31801000Y-31709752D01*
X31801000Y-34790248D01*
X31783908Y-34876178D01*
X31740757Y-34940757D01*
X31676178Y-34983908D01*
X31590248Y-35001000D01*
X30759752Y-35001000D01*
X30673822Y-34983908D01*
X30609243Y-34940757D01*
X30566092Y-34876178D01*
X30549000Y-34790248D01*
X30549000Y-33034016D01*
X30566092Y-32948086D01*
X30614764Y-32875244D01*
X31132136Y-32357872D01*
X31144447Y-32342870D01*
X31209479Y-32245543D01*
X31224262Y-32209855D01*
X31247098Y-32095050D01*
X31249000Y-32075736D01*
X31249000Y-31709752D01*
X31266092Y-31623822D01*
X31309243Y-31559243D01*
X31373822Y-31516092D01*
X31459752Y-31499000D01*
X31590248Y-31499000D01*
X31676178Y-31516092D01*
%TA.AperFunction,Conductor*%
G36*
X31676178Y-31516092D02*
G01*
X31740757Y-31559243D01*
X31783908Y-31623822D01*
X31801000Y-31709752D01*
X31801000Y-34790248D01*
X31783908Y-34876178D01*
X31740757Y-34940757D01*
X31676178Y-34983908D01*
X31590248Y-35001000D01*
X30759752Y-35001000D01*
X30673822Y-34983908D01*
X30609243Y-34940757D01*
X30566092Y-34876178D01*
X30549000Y-34790248D01*
X30549000Y-33034016D01*
X30566092Y-32948086D01*
X30614764Y-32875244D01*
X31132136Y-32357872D01*
X31144447Y-32342870D01*
X31209479Y-32245543D01*
X31224262Y-32209855D01*
X31247098Y-32095050D01*
X31249000Y-32075736D01*
X31249000Y-31709752D01*
X31266092Y-31623822D01*
X31309243Y-31559243D01*
X31373822Y-31516092D01*
X31459752Y-31499000D01*
X31590248Y-31499000D01*
X31676178Y-31516092D01*
G37*
%TD.AperFunction*%
%TD*%
%TO.N,Net-(J3-Pad1)*%
X49776178Y-32616092D02*
X49840757Y-32659243D01*
X49883908Y-32723822D01*
X49901000Y-32809752D01*
X49901000Y-34840248D01*
X49883908Y-34926178D01*
X49840757Y-34990757D01*
X49776178Y-35033908D01*
X49690248Y-35051000D01*
X44892402Y-35051000D01*
X44874314Y-35047402D01*
X44855000Y-35045500D01*
X43882101Y-35045500D01*
X43823822Y-35033908D01*
X43759243Y-34990757D01*
X43716092Y-34926178D01*
X43699000Y-34840248D01*
X43699000Y-34536689D01*
X44052777Y-34182912D01*
X46523616Y-32633403D01*
X46580998Y-32607771D01*
X46643228Y-32599000D01*
X49690248Y-32599000D01*
X49776178Y-32616092D01*
%TA.AperFunction,Conductor*%
G36*
X49776178Y-32616092D02*
G01*
X49840757Y-32659243D01*
X49883908Y-32723822D01*
X49901000Y-32809752D01*
X49901000Y-34840248D01*
X49883908Y-34926178D01*
X49840757Y-34990757D01*
X49776178Y-35033908D01*
X49690248Y-35051000D01*
X44892402Y-35051000D01*
X44874314Y-35047402D01*
X44855000Y-35045500D01*
X43882101Y-35045500D01*
X43823822Y-35033908D01*
X43759243Y-34990757D01*
X43716092Y-34926178D01*
X43699000Y-34840248D01*
X43699000Y-34536689D01*
X44052777Y-34182912D01*
X46523616Y-32633403D01*
X46580998Y-32607771D01*
X46643228Y-32599000D01*
X49690248Y-32599000D01*
X49776178Y-32616092D01*
G37*
%TD.AperFunction*%
%TD*%
%TO.N,pyro2_out*%
X40406632Y-18610421D02*
X40463082Y-18639812D01*
X40513020Y-18691236D01*
X42079323Y-20928812D01*
X42089405Y-20941009D01*
X42156005Y-21009590D01*
X42181308Y-21028431D01*
X42266101Y-21072579D01*
X42296046Y-21082503D01*
X42390423Y-21097735D01*
X42406197Y-21099000D01*
X44690248Y-21099000D01*
X44776178Y-21116092D01*
X44840757Y-21159243D01*
X44883908Y-21223822D01*
X44901000Y-21309752D01*
X44901000Y-22940248D01*
X44883908Y-23026178D01*
X44840757Y-23090757D01*
X44776178Y-23133908D01*
X44690248Y-23151000D01*
X41868603Y-23151000D01*
X41791289Y-23137286D01*
X41723405Y-23097812D01*
X38678403Y-20521272D01*
X38619817Y-20444429D01*
X38599000Y-20350071D01*
X38599000Y-18809752D01*
X38616092Y-18723822D01*
X38659243Y-18659243D01*
X38723822Y-18616092D01*
X38809752Y-18599000D01*
X40335867Y-18599000D01*
X40406632Y-18610421D01*
%TA.AperFunction,Conductor*%
G36*
X40406632Y-18610421D02*
G01*
X40463082Y-18639812D01*
X40513020Y-18691236D01*
X42079323Y-20928812D01*
X42089405Y-20941009D01*
X42156005Y-21009590D01*
X42181308Y-21028431D01*
X42266101Y-21072579D01*
X42296046Y-21082503D01*
X42390423Y-21097735D01*
X42406197Y-21099000D01*
X44690248Y-21099000D01*
X44776178Y-21116092D01*
X44840757Y-21159243D01*
X44883908Y-21223822D01*
X44901000Y-21309752D01*
X44901000Y-22940248D01*
X44883908Y-23026178D01*
X44840757Y-23090757D01*
X44776178Y-23133908D01*
X44690248Y-23151000D01*
X41868603Y-23151000D01*
X41791289Y-23137286D01*
X41723405Y-23097812D01*
X38678403Y-20521272D01*
X38619817Y-20444429D01*
X38599000Y-20350071D01*
X38599000Y-18809752D01*
X38616092Y-18723822D01*
X38659243Y-18659243D01*
X38723822Y-18616092D01*
X38809752Y-18599000D01*
X40335867Y-18599000D01*
X40406632Y-18610421D01*
G37*
%TD.AperFunction*%
%TD*%
%TO.N,GND*%
X27390758Y-28409244D02*
X27433908Y-28473822D01*
X27451000Y-28559752D01*
X27451000Y-28990248D01*
X27433908Y-29076178D01*
X27390757Y-29140757D01*
X27326178Y-29183908D01*
X27240248Y-29201000D01*
X25259752Y-29201000D01*
X25173822Y-29183908D01*
X25109243Y-29140757D01*
X25066092Y-29076178D01*
X25049000Y-28990248D01*
X25049000Y-28559752D01*
X25056857Y-28520250D01*
X25142608Y-28462954D01*
X25232356Y-28425779D01*
X25333552Y-28405650D01*
X25419717Y-28403609D01*
X25435170Y-28402024D01*
X25448987Y-28399499D01*
X27376174Y-28399499D01*
X27390758Y-28409244D01*
%TA.AperFunction,Conductor*%
G36*
X27390758Y-28409244D02*
G01*
X27433908Y-28473822D01*
X27451000Y-28559752D01*
X27451000Y-28990248D01*
X27433908Y-29076178D01*
X27390757Y-29140757D01*
X27326178Y-29183908D01*
X27240248Y-29201000D01*
X25259752Y-29201000D01*
X25173822Y-29183908D01*
X25109243Y-29140757D01*
X25066092Y-29076178D01*
X25049000Y-28990248D01*
X25049000Y-28559752D01*
X25056857Y-28520250D01*
X25142608Y-28462954D01*
X25232356Y-28425779D01*
X25333552Y-28405650D01*
X25419717Y-28403609D01*
X25435170Y-28402024D01*
X25448987Y-28399499D01*
X27376174Y-28399499D01*
X27390758Y-28409244D01*
G37*
%TD.AperFunction*%
%TD*%
%TO.N,GND*%
X33376178Y-31816092D02*
X33440757Y-31859243D01*
X33483908Y-31923822D01*
X33501000Y-32009752D01*
X33501000Y-32590248D01*
X33483908Y-32676178D01*
X33440757Y-32740757D01*
X33376178Y-32783908D01*
X33290248Y-32801000D01*
X32759752Y-32801000D01*
X32673822Y-32783908D01*
X32609243Y-32740757D01*
X32566092Y-32676178D01*
X32549000Y-32590248D01*
X32549000Y-32009752D01*
X32566092Y-31923822D01*
X32609243Y-31859243D01*
X32673822Y-31816092D01*
X32759752Y-31799000D01*
X33290248Y-31799000D01*
X33376178Y-31816092D01*
%TA.AperFunction,Conductor*%
G36*
X33376178Y-31816092D02*
G01*
X33440757Y-31859243D01*
X33483908Y-31923822D01*
X33501000Y-32009752D01*
X33501000Y-32590248D01*
X33483908Y-32676178D01*
X33440757Y-32740757D01*
X33376178Y-32783908D01*
X33290248Y-32801000D01*
X32759752Y-32801000D01*
X32673822Y-32783908D01*
X32609243Y-32740757D01*
X32566092Y-32676178D01*
X32549000Y-32590248D01*
X32549000Y-32009752D01*
X32566092Y-31923822D01*
X32609243Y-31859243D01*
X32673822Y-31816092D01*
X32759752Y-31799000D01*
X33290248Y-31799000D01*
X33376178Y-31816092D01*
G37*
%TD.AperFunction*%
%TD*%
%TO.N,Net-(J2-Pad2)*%
X49776178Y-35466092D02*
X49840757Y-35509243D01*
X49883908Y-35573822D01*
X49901000Y-35659752D01*
X49901000Y-37690248D01*
X49883908Y-37776178D01*
X49840757Y-37840757D01*
X49776178Y-37883908D01*
X49690248Y-37901000D01*
X46643228Y-37901000D01*
X46580998Y-37892229D01*
X46523616Y-37866597D01*
X43800290Y-36158748D01*
X43744036Y-36108550D01*
X43711641Y-36049997D01*
X43699000Y-35975665D01*
X43699000Y-35659752D01*
X43716092Y-35573822D01*
X43759243Y-35509243D01*
X43823822Y-35466092D01*
X43882101Y-35454500D01*
X44855000Y-35454500D01*
X44874314Y-35452598D01*
X44892402Y-35449000D01*
X49690248Y-35449000D01*
X49776178Y-35466092D01*
%TA.AperFunction,Conductor*%
G36*
X49776178Y-35466092D02*
G01*
X49840757Y-35509243D01*
X49883908Y-35573822D01*
X49901000Y-35659752D01*
X49901000Y-37690248D01*
X49883908Y-37776178D01*
X49840757Y-37840757D01*
X49776178Y-37883908D01*
X49690248Y-37901000D01*
X46643228Y-37901000D01*
X46580998Y-37892229D01*
X46523616Y-37866597D01*
X43800290Y-36158748D01*
X43744036Y-36108550D01*
X43711641Y-36049997D01*
X43699000Y-35975665D01*
X43699000Y-35659752D01*
X43716092Y-35573822D01*
X43759243Y-35509243D01*
X43823822Y-35466092D01*
X43882101Y-35454500D01*
X44855000Y-35454500D01*
X44874314Y-35452598D01*
X44892402Y-35449000D01*
X49690248Y-35449000D01*
X49776178Y-35466092D01*
G37*
%TD.AperFunction*%
%TD*%
%TO.N,GND*%
X33822477Y-27360383D02*
X33862724Y-27387276D01*
X33889617Y-27427523D01*
X33901000Y-27484752D01*
X33901000Y-28815248D01*
X33889617Y-28872477D01*
X33862724Y-28912724D01*
X33822477Y-28939617D01*
X33775000Y-28949060D01*
X33727523Y-28939617D01*
X33687276Y-28912724D01*
X33660383Y-28872477D01*
X33649000Y-28815248D01*
X33649000Y-27484752D01*
X33660383Y-27427523D01*
X33687276Y-27387276D01*
X33727523Y-27360383D01*
X33775000Y-27350940D01*
X33822477Y-27360383D01*
%TA.AperFunction,Conductor*%
G36*
X33822477Y-27360383D02*
G01*
X33862724Y-27387276D01*
X33889617Y-27427523D01*
X33901000Y-27484752D01*
X33901000Y-28815248D01*
X33889617Y-28872477D01*
X33862724Y-28912724D01*
X33822477Y-28939617D01*
X33775000Y-28949060D01*
X33727523Y-28939617D01*
X33687276Y-28912724D01*
X33660383Y-28872477D01*
X33649000Y-28815248D01*
X33649000Y-27484752D01*
X33660383Y-27427523D01*
X33687276Y-27387276D01*
X33727523Y-27360383D01*
X33775000Y-27350940D01*
X33822477Y-27360383D01*
G37*
%TD.AperFunction*%
%TD*%
%TO.N,+3V3*%
X21676000Y-49613050D02*
X21736720Y-49648888D01*
X21781177Y-49703621D01*
X21803805Y-49770400D01*
X21801779Y-49840881D01*
X21771993Y-49914558D01*
X21308914Y-50650036D01*
X21258718Y-50706118D01*
X21200238Y-50738403D01*
X21126032Y-50751000D01*
X19984752Y-50751000D01*
X19908389Y-50735811D01*
X19851921Y-50698079D01*
X19814189Y-50641611D01*
X19799000Y-50565248D01*
X19799000Y-50456183D01*
X19809492Y-50388277D01*
X19836575Y-50333594D01*
X19884233Y-50284093D01*
X19921567Y-50255648D01*
X20027553Y-50196293D01*
X20050813Y-50178251D01*
X20124411Y-50101100D01*
X20723025Y-49645012D01*
X20787407Y-49610812D01*
X20859336Y-49599000D01*
X21597776Y-49599000D01*
X21676000Y-49613050D01*
%TA.AperFunction,Conductor*%
G36*
X21676000Y-49613050D02*
G01*
X21736720Y-49648888D01*
X21781177Y-49703621D01*
X21803805Y-49770400D01*
X21801779Y-49840881D01*
X21771993Y-49914558D01*
X21308914Y-50650036D01*
X21258718Y-50706118D01*
X21200238Y-50738403D01*
X21126032Y-50751000D01*
X19984752Y-50751000D01*
X19908389Y-50735811D01*
X19851921Y-50698079D01*
X19814189Y-50641611D01*
X19799000Y-50565248D01*
X19799000Y-50456183D01*
X19809492Y-50388277D01*
X19836575Y-50333594D01*
X19884233Y-50284093D01*
X19921567Y-50255648D01*
X20027553Y-50196293D01*
X20050813Y-50178251D01*
X20124411Y-50101100D01*
X20723025Y-49645012D01*
X20787407Y-49610812D01*
X20859336Y-49599000D01*
X21597776Y-49599000D01*
X21676000Y-49613050D01*
G37*
%TD.AperFunction*%
%TD*%
%TO.N,Batt_Pyro*%
X49270521Y-26312187D02*
X49329952Y-26345924D01*
X49374508Y-26397734D01*
X49402072Y-26469639D01*
X49896768Y-28988087D01*
X49899939Y-29009733D01*
X49901000Y-29031595D01*
X49901000Y-30690248D01*
X49883908Y-30776178D01*
X49840757Y-30840757D01*
X49776178Y-30883908D01*
X49690248Y-30901000D01*
X48309752Y-30901000D01*
X48223822Y-30883908D01*
X48159243Y-30840757D01*
X48116092Y-30776178D01*
X48099000Y-30690248D01*
X48099000Y-29020213D01*
X48099436Y-29006199D01*
X48100744Y-28992222D01*
X48414274Y-26483971D01*
X48438556Y-26406886D01*
X48482897Y-26350546D01*
X48544306Y-26313534D01*
X48623809Y-26299000D01*
X49194659Y-26299000D01*
X49270521Y-26312187D01*
%TA.AperFunction,Conductor*%
G36*
X49270521Y-26312187D02*
G01*
X49329952Y-26345924D01*
X49374508Y-26397734D01*
X49402072Y-26469639D01*
X49896768Y-28988087D01*
X49899939Y-29009733D01*
X49901000Y-29031595D01*
X49901000Y-30690248D01*
X49883908Y-30776178D01*
X49840757Y-30840757D01*
X49776178Y-30883908D01*
X49690248Y-30901000D01*
X48309752Y-30901000D01*
X48223822Y-30883908D01*
X48159243Y-30840757D01*
X48116092Y-30776178D01*
X48099000Y-30690248D01*
X48099000Y-29020213D01*
X48099436Y-29006199D01*
X48100744Y-28992222D01*
X48414274Y-26483971D01*
X48438556Y-26406886D01*
X48482897Y-26350546D01*
X48544306Y-26313534D01*
X48623809Y-26299000D01*
X49194659Y-26299000D01*
X49270521Y-26312187D01*
G37*
%TD.AperFunction*%
%TD*%
%TO.N,Net-(D1-Pad2)*%
X47776178Y-47316092D02*
X47840757Y-47359243D01*
X47883908Y-47423822D01*
X47901000Y-47509752D01*
X47901000Y-56590248D01*
X47883908Y-56676178D01*
X47840757Y-56740757D01*
X47776178Y-56783908D01*
X47690248Y-56801000D01*
X46924182Y-56801000D01*
X46835089Y-56690979D01*
X46815501Y-56672584D01*
X46698128Y-56589171D01*
X46674314Y-56576722D01*
X46538832Y-56527946D01*
X46512548Y-56522359D01*
X46368941Y-56511813D01*
X46342122Y-56513500D01*
X46200968Y-56541961D01*
X46175591Y-56550798D01*
X46047291Y-56616170D01*
X46025225Y-56631507D01*
X45919232Y-56728974D01*
X45902104Y-56749678D01*
X45870283Y-56801000D01*
X45084752Y-56801000D01*
X45008389Y-56785811D01*
X44951921Y-56748079D01*
X44914189Y-56691611D01*
X44900940Y-56625000D01*
X44914189Y-56558389D01*
X44951921Y-56501921D01*
X45008389Y-56464189D01*
X45057101Y-56454500D01*
X45905000Y-56454500D01*
X45924314Y-56452598D01*
X46002955Y-56436955D01*
X46038643Y-56422172D01*
X46105312Y-56377625D01*
X46132625Y-56350312D01*
X46177172Y-56283643D01*
X46191955Y-56247955D01*
X46207598Y-56169314D01*
X46209500Y-56150000D01*
X46209500Y-56055502D01*
X46584539Y-55478518D01*
X46591426Y-55466039D01*
X46627521Y-55387807D01*
X46635602Y-55360548D01*
X46647974Y-55275284D01*
X46649000Y-55261068D01*
X46649000Y-53238932D01*
X46647974Y-53224716D01*
X46635602Y-53139452D01*
X46627521Y-53112193D01*
X46591426Y-53033961D01*
X46584539Y-53021482D01*
X46209500Y-52444498D01*
X46209500Y-52350000D01*
X46207598Y-52330686D01*
X46191955Y-52252045D01*
X46177172Y-52216357D01*
X46132625Y-52149688D01*
X46105312Y-52122375D01*
X46038643Y-52077828D01*
X46002955Y-52063045D01*
X45924314Y-52047402D01*
X45905000Y-52045500D01*
X45057101Y-52045500D01*
X45008389Y-52035811D01*
X44951921Y-51998079D01*
X44914189Y-51941611D01*
X44900940Y-51875000D01*
X44914189Y-51808389D01*
X44951921Y-51751921D01*
X45008389Y-51714189D01*
X45084752Y-51699000D01*
X45869841Y-51699000D01*
X45894037Y-51739914D01*
X45910729Y-51760973D01*
X46014658Y-51860638D01*
X46036398Y-51876433D01*
X46163301Y-51944477D01*
X46188487Y-51953844D01*
X46329013Y-51985255D01*
X46355790Y-51987503D01*
X46499587Y-51979967D01*
X46525983Y-51974932D01*
X46662456Y-51929004D01*
X46686525Y-51917056D01*
X46805620Y-51836119D01*
X46825590Y-51818138D01*
X46918532Y-51708156D01*
X46932931Y-51685467D01*
X46933446Y-51684341D01*
X46984119Y-51674262D01*
X47019807Y-51659479D01*
X47108823Y-51600000D01*
X47150000Y-51600000D01*
X47150000Y-51558823D01*
X47209479Y-51469807D01*
X47224262Y-51434119D01*
X47247098Y-51319314D01*
X47249000Y-51300000D01*
X47249000Y-48600000D01*
X47247098Y-48580686D01*
X47224262Y-48465881D01*
X47209479Y-48430193D01*
X47150000Y-48341177D01*
X47150000Y-48300000D01*
X47108823Y-48300000D01*
X47019807Y-48240521D01*
X46984119Y-48225738D01*
X46869314Y-48202902D01*
X46850000Y-48201000D01*
X46459752Y-48201000D01*
X46373822Y-48183908D01*
X46309243Y-48140757D01*
X46266092Y-48076178D01*
X46249000Y-47990248D01*
X46249000Y-47509752D01*
X46266092Y-47423822D01*
X46309243Y-47359243D01*
X46373822Y-47316092D01*
X46459752Y-47299000D01*
X47690248Y-47299000D01*
X47776178Y-47316092D01*
%TA.AperFunction,Conductor*%
G36*
X47776178Y-47316092D02*
G01*
X47840757Y-47359243D01*
X47883908Y-47423822D01*
X47901000Y-47509752D01*
X47901000Y-56590248D01*
X47883908Y-56676178D01*
X47840757Y-56740757D01*
X47776178Y-56783908D01*
X47690248Y-56801000D01*
X46924182Y-56801000D01*
X46835089Y-56690979D01*
X46815501Y-56672584D01*
X46698128Y-56589171D01*
X46674314Y-56576722D01*
X46538832Y-56527946D01*
X46512548Y-56522359D01*
X46368941Y-56511813D01*
X46342122Y-56513500D01*
X46200968Y-56541961D01*
X46175591Y-56550798D01*
X46047291Y-56616170D01*
X46025225Y-56631507D01*
X45919232Y-56728974D01*
X45902104Y-56749678D01*
X45870283Y-56801000D01*
X45084752Y-56801000D01*
X45008389Y-56785811D01*
X44951921Y-56748079D01*
X44914189Y-56691611D01*
X44900940Y-56625000D01*
X44914189Y-56558389D01*
X44951921Y-56501921D01*
X45008389Y-56464189D01*
X45057101Y-56454500D01*
X45905000Y-56454500D01*
X45924314Y-56452598D01*
X46002955Y-56436955D01*
X46038643Y-56422172D01*
X46105312Y-56377625D01*
X46132625Y-56350312D01*
X46177172Y-56283643D01*
X46191955Y-56247955D01*
X46207598Y-56169314D01*
X46209500Y-56150000D01*
X46209500Y-56055502D01*
X46584539Y-55478518D01*
X46591426Y-55466039D01*
X46627521Y-55387807D01*
X46635602Y-55360548D01*
X46647974Y-55275284D01*
X46649000Y-55261068D01*
X46649000Y-53238932D01*
X46647974Y-53224716D01*
X46635602Y-53139452D01*
X46627521Y-53112193D01*
X46591426Y-53033961D01*
X46584539Y-53021482D01*
X46209500Y-52444498D01*
X46209500Y-52350000D01*
X46207598Y-52330686D01*
X46191955Y-52252045D01*
X46177172Y-52216357D01*
X46132625Y-52149688D01*
X46105312Y-52122375D01*
X46038643Y-52077828D01*
X46002955Y-52063045D01*
X45924314Y-52047402D01*
X45905000Y-52045500D01*
X45057101Y-52045500D01*
X45008389Y-52035811D01*
X44951921Y-51998079D01*
X44914189Y-51941611D01*
X44900940Y-51875000D01*
X44914189Y-51808389D01*
X44951921Y-51751921D01*
X45008389Y-51714189D01*
X45084752Y-51699000D01*
X45869841Y-51699000D01*
X45894037Y-51739914D01*
X45910729Y-51760973D01*
X46014658Y-51860638D01*
X46036398Y-51876433D01*
X46163301Y-51944477D01*
X46188487Y-51953844D01*
X46329013Y-51985255D01*
X46355790Y-51987503D01*
X46499587Y-51979967D01*
X46525983Y-51974932D01*
X46662456Y-51929004D01*
X46686525Y-51917056D01*
X46805620Y-51836119D01*
X46825590Y-51818138D01*
X46918532Y-51708156D01*
X46932931Y-51685467D01*
X46933446Y-51684341D01*
X46984119Y-51674262D01*
X47019807Y-51659479D01*
X47108823Y-51600000D01*
X47150000Y-51600000D01*
X47150000Y-51558823D01*
X47209479Y-51469807D01*
X47224262Y-51434119D01*
X47247098Y-51319314D01*
X47249000Y-51300000D01*
X47249000Y-48600000D01*
X47247098Y-48580686D01*
X47224262Y-48465881D01*
X47209479Y-48430193D01*
X47150000Y-48341177D01*
X47150000Y-48300000D01*
X47108823Y-48300000D01*
X47019807Y-48240521D01*
X46984119Y-48225738D01*
X46869314Y-48202902D01*
X46850000Y-48201000D01*
X46459752Y-48201000D01*
X46373822Y-48183908D01*
X46309243Y-48140757D01*
X46266092Y-48076178D01*
X46249000Y-47990248D01*
X46249000Y-47509752D01*
X46266092Y-47423822D01*
X46309243Y-47359243D01*
X46373822Y-47316092D01*
X46459752Y-47299000D01*
X47690248Y-47299000D01*
X47776178Y-47316092D01*
G37*
%TD.AperFunction*%
%TD*%
%TO.N,GND*%
X44026178Y-24116092D02*
X44090757Y-24159243D01*
X44133908Y-24223822D01*
X44151000Y-24309752D01*
X44151000Y-25440248D01*
X44133908Y-25526178D01*
X44090757Y-25590757D01*
X44038761Y-25625500D01*
X42461239Y-25625500D01*
X42409243Y-25590757D01*
X42366092Y-25526178D01*
X42349000Y-25440248D01*
X42349000Y-24309752D01*
X42366092Y-24223822D01*
X42409243Y-24159243D01*
X42473822Y-24116092D01*
X42559752Y-24099000D01*
X43940248Y-24099000D01*
X44026178Y-24116092D01*
%TA.AperFunction,Conductor*%
G36*
X44026178Y-24116092D02*
G01*
X44090757Y-24159243D01*
X44133908Y-24223822D01*
X44151000Y-24309752D01*
X44151000Y-25440248D01*
X44133908Y-25526178D01*
X44090757Y-25590757D01*
X44038761Y-25625500D01*
X42461239Y-25625500D01*
X42409243Y-25590757D01*
X42366092Y-25526178D01*
X42349000Y-25440248D01*
X42349000Y-24309752D01*
X42366092Y-24223822D01*
X42409243Y-24159243D01*
X42473822Y-24116092D01*
X42559752Y-24099000D01*
X43940248Y-24099000D01*
X44026178Y-24116092D01*
G37*
%TD.AperFunction*%
%TD*%
%TO.N,GND*%
X27226178Y-32466092D02*
X27290757Y-32509243D01*
X27333908Y-32573822D01*
X27351000Y-32659752D01*
X27351000Y-33490248D01*
X27333908Y-33576178D01*
X27290757Y-33640757D01*
X27226178Y-33683908D01*
X27140248Y-33701000D01*
X23859752Y-33701000D01*
X23773822Y-33683908D01*
X23709243Y-33640757D01*
X23666092Y-33576178D01*
X23649000Y-33490248D01*
X23649000Y-32659752D01*
X23666092Y-32573822D01*
X23709243Y-32509243D01*
X23773822Y-32466092D01*
X23859752Y-32449000D01*
X27140248Y-32449000D01*
X27226178Y-32466092D01*
%TA.AperFunction,Conductor*%
G36*
X27226178Y-32466092D02*
G01*
X27290757Y-32509243D01*
X27333908Y-32573822D01*
X27351000Y-32659752D01*
X27351000Y-33490248D01*
X27333908Y-33576178D01*
X27290757Y-33640757D01*
X27226178Y-33683908D01*
X27140248Y-33701000D01*
X23859752Y-33701000D01*
X23773822Y-33683908D01*
X23709243Y-33640757D01*
X23666092Y-33576178D01*
X23649000Y-33490248D01*
X23649000Y-32659752D01*
X23666092Y-32573822D01*
X23709243Y-32509243D01*
X23773822Y-32466092D01*
X23859752Y-32449000D01*
X27140248Y-32449000D01*
X27226178Y-32466092D01*
G37*
%TD.AperFunction*%
%TD*%
%TO.N,pyro3_out*%
X26708710Y-82622714D02*
X26776594Y-82662188D01*
X29821595Y-85238726D01*
X29880181Y-85315569D01*
X29900998Y-85409927D01*
X29900998Y-86950247D01*
X29883906Y-87036177D01*
X29840755Y-87100756D01*
X29776176Y-87143907D01*
X29690246Y-87160999D01*
X28164131Y-87161000D01*
X28093366Y-87149579D01*
X28036916Y-87120188D01*
X27986978Y-87068764D01*
X26420677Y-84831188D01*
X26410595Y-84818991D01*
X26343995Y-84750410D01*
X26318692Y-84731569D01*
X26233899Y-84687421D01*
X26203954Y-84677497D01*
X26109577Y-84662265D01*
X26093803Y-84661000D01*
X23809752Y-84661000D01*
X23723822Y-84643908D01*
X23659243Y-84600757D01*
X23616092Y-84536178D01*
X23599000Y-84450248D01*
X23599000Y-82819753D01*
X23616092Y-82733823D01*
X23659243Y-82669244D01*
X23723822Y-82626093D01*
X23809752Y-82609001D01*
X26631396Y-82609000D01*
X26708710Y-82622714D01*
%TA.AperFunction,Conductor*%
G36*
X26708710Y-82622714D02*
G01*
X26776594Y-82662188D01*
X29821595Y-85238726D01*
X29880181Y-85315569D01*
X29900998Y-85409927D01*
X29900998Y-86950247D01*
X29883906Y-87036177D01*
X29840755Y-87100756D01*
X29776176Y-87143907D01*
X29690246Y-87160999D01*
X28164131Y-87161000D01*
X28093366Y-87149579D01*
X28036916Y-87120188D01*
X27986978Y-87068764D01*
X26420677Y-84831188D01*
X26410595Y-84818991D01*
X26343995Y-84750410D01*
X26318692Y-84731569D01*
X26233899Y-84687421D01*
X26203954Y-84677497D01*
X26109577Y-84662265D01*
X26093803Y-84661000D01*
X23809752Y-84661000D01*
X23723822Y-84643908D01*
X23659243Y-84600757D01*
X23616092Y-84536178D01*
X23599000Y-84450248D01*
X23599000Y-82819753D01*
X23616092Y-82733823D01*
X23659243Y-82669244D01*
X23723822Y-82626093D01*
X23809752Y-82609001D01*
X26631396Y-82609000D01*
X26708710Y-82622714D01*
G37*
%TD.AperFunction*%
%TD*%
%TO.N,GND*%
X37101000Y-29509752D02*
X37101000Y-29750000D01*
X37104373Y-29775623D01*
X37124469Y-29850623D01*
X37150092Y-29895004D01*
X37204996Y-29949908D01*
X37249377Y-29975531D01*
X37311439Y-29992160D01*
X37351037Y-30024398D01*
X37355174Y-30034027D01*
X37369638Y-30057791D01*
X37374959Y-30064268D01*
X37381451Y-30071429D01*
X37384954Y-30074932D01*
X37389408Y-30082158D01*
X37413759Y-30109014D01*
X37435783Y-30125762D01*
X37805664Y-30495643D01*
X37812411Y-30504728D01*
X37844715Y-30534694D01*
X37861493Y-30551472D01*
X37874053Y-30561908D01*
X37894426Y-30580807D01*
X37925068Y-30600179D01*
X37935748Y-30604440D01*
X37945226Y-30610942D01*
X37978370Y-30625629D01*
X38004257Y-30631772D01*
X38028467Y-30641431D01*
X38029939Y-30642415D01*
X38061497Y-30655487D01*
X38091449Y-30669263D01*
X38216806Y-30696709D01*
X38237980Y-30699000D01*
X38640248Y-30699000D01*
X38726178Y-30716092D01*
X38790757Y-30759243D01*
X38833908Y-30823822D01*
X38851000Y-30909752D01*
X38851000Y-31040248D01*
X38833908Y-31126178D01*
X38790757Y-31190757D01*
X38726178Y-31233908D01*
X38640248Y-31251000D01*
X38262020Y-31251000D01*
X38188512Y-31238647D01*
X38123077Y-31202945D01*
X37592752Y-30786259D01*
X37579005Y-30777198D01*
X37491718Y-30729573D01*
X37460708Y-30718848D01*
X37362648Y-30702369D01*
X37346241Y-30701000D01*
X36309752Y-30701000D01*
X36223822Y-30683908D01*
X36159243Y-30640757D01*
X36116092Y-30576178D01*
X36099000Y-30490248D01*
X36099000Y-29509752D01*
X36107795Y-29465536D01*
X36110366Y-29462965D01*
X36111371Y-29462342D01*
X36124947Y-29452191D01*
X36141729Y-29449769D01*
X36142879Y-29449499D01*
X37089015Y-29449499D01*
X37101000Y-29509752D01*
%TA.AperFunction,Conductor*%
G36*
X37101000Y-29509752D02*
G01*
X37101000Y-29750000D01*
X37104373Y-29775623D01*
X37124469Y-29850623D01*
X37150092Y-29895004D01*
X37204996Y-29949908D01*
X37249377Y-29975531D01*
X37311439Y-29992160D01*
X37351037Y-30024398D01*
X37355174Y-30034027D01*
X37369638Y-30057791D01*
X37374959Y-30064268D01*
X37381451Y-30071429D01*
X37384954Y-30074932D01*
X37389408Y-30082158D01*
X37413759Y-30109014D01*
X37435783Y-30125762D01*
X37805664Y-30495643D01*
X37812411Y-30504728D01*
X37844715Y-30534694D01*
X37861493Y-30551472D01*
X37874053Y-30561908D01*
X37894426Y-30580807D01*
X37925068Y-30600179D01*
X37935748Y-30604440D01*
X37945226Y-30610942D01*
X37978370Y-30625629D01*
X38004257Y-30631772D01*
X38028467Y-30641431D01*
X38029939Y-30642415D01*
X38061497Y-30655487D01*
X38091449Y-30669263D01*
X38216806Y-30696709D01*
X38237980Y-30699000D01*
X38640248Y-30699000D01*
X38726178Y-30716092D01*
X38790757Y-30759243D01*
X38833908Y-30823822D01*
X38851000Y-30909752D01*
X38851000Y-31040248D01*
X38833908Y-31126178D01*
X38790757Y-31190757D01*
X38726178Y-31233908D01*
X38640248Y-31251000D01*
X38262020Y-31251000D01*
X38188512Y-31238647D01*
X38123077Y-31202945D01*
X37592752Y-30786259D01*
X37579005Y-30777198D01*
X37491718Y-30729573D01*
X37460708Y-30718848D01*
X37362648Y-30702369D01*
X37346241Y-30701000D01*
X36309752Y-30701000D01*
X36223822Y-30683908D01*
X36159243Y-30640757D01*
X36116092Y-30576178D01*
X36099000Y-30490248D01*
X36099000Y-29509752D01*
X36107795Y-29465536D01*
X36110366Y-29462965D01*
X36111371Y-29462342D01*
X36124947Y-29452191D01*
X36141729Y-29449769D01*
X36142879Y-29449499D01*
X37089015Y-29449499D01*
X37101000Y-29509752D01*
G37*
%TD.AperFunction*%
%TD*%
%TO.N,pyro1_out*%
X29776178Y-18616092D02*
X29840757Y-18659243D01*
X29883908Y-18723822D01*
X29901000Y-18809752D01*
X29901000Y-20350071D01*
X29880183Y-20444429D01*
X29821597Y-20521272D01*
X26776595Y-23097812D01*
X26708711Y-23137286D01*
X26631397Y-23151000D01*
X23809752Y-23151000D01*
X23723822Y-23133908D01*
X23659243Y-23090757D01*
X23616092Y-23026178D01*
X23599000Y-22940248D01*
X23599000Y-21309752D01*
X23616092Y-21223822D01*
X23659243Y-21159243D01*
X23723822Y-21116092D01*
X23809752Y-21099000D01*
X26093803Y-21099000D01*
X26109577Y-21097735D01*
X26203954Y-21082503D01*
X26233899Y-21072579D01*
X26318692Y-21028431D01*
X26343995Y-21009590D01*
X26410595Y-20941009D01*
X26420677Y-20928812D01*
X27986980Y-18691236D01*
X28036918Y-18639812D01*
X28093368Y-18610421D01*
X28164133Y-18599000D01*
X29690248Y-18599000D01*
X29776178Y-18616092D01*
%TA.AperFunction,Conductor*%
G36*
X29776178Y-18616092D02*
G01*
X29840757Y-18659243D01*
X29883908Y-18723822D01*
X29901000Y-18809752D01*
X29901000Y-20350071D01*
X29880183Y-20444429D01*
X29821597Y-20521272D01*
X26776595Y-23097812D01*
X26708711Y-23137286D01*
X26631397Y-23151000D01*
X23809752Y-23151000D01*
X23723822Y-23133908D01*
X23659243Y-23090757D01*
X23616092Y-23026178D01*
X23599000Y-22940248D01*
X23599000Y-21309752D01*
X23616092Y-21223822D01*
X23659243Y-21159243D01*
X23723822Y-21116092D01*
X23809752Y-21099000D01*
X26093803Y-21099000D01*
X26109577Y-21097735D01*
X26203954Y-21082503D01*
X26233899Y-21072579D01*
X26318692Y-21028431D01*
X26343995Y-21009590D01*
X26410595Y-20941009D01*
X26420677Y-20928812D01*
X27986980Y-18691236D01*
X28036918Y-18639812D01*
X28093368Y-18610421D01*
X28164133Y-18599000D01*
X29690248Y-18599000D01*
X29776178Y-18616092D01*
G37*
%TD.AperFunction*%
%TD*%
%TO.N,GND*%
X45026178Y-80176092D02*
X45090757Y-80219243D01*
X45133908Y-80283822D01*
X45151000Y-80369752D01*
X45151000Y-81500248D01*
X45133908Y-81586178D01*
X45090757Y-81650757D01*
X45026178Y-81693908D01*
X44940248Y-81711000D01*
X43559752Y-81711000D01*
X43473822Y-81693908D01*
X43409243Y-81650757D01*
X43366092Y-81586178D01*
X43349000Y-81500248D01*
X43349000Y-80369752D01*
X43366092Y-80283822D01*
X43409243Y-80219243D01*
X43473822Y-80176092D01*
X43559752Y-80159000D01*
X44940248Y-80159000D01*
X45026178Y-80176092D01*
%TA.AperFunction,Conductor*%
G36*
X45026178Y-80176092D02*
G01*
X45090757Y-80219243D01*
X45133908Y-80283822D01*
X45151000Y-80369752D01*
X45151000Y-81500248D01*
X45133908Y-81586178D01*
X45090757Y-81650757D01*
X45026178Y-81693908D01*
X44940248Y-81711000D01*
X43559752Y-81711000D01*
X43473822Y-81693908D01*
X43409243Y-81650757D01*
X43366092Y-81586178D01*
X43349000Y-81500248D01*
X43349000Y-80369752D01*
X43366092Y-80283822D01*
X43409243Y-80219243D01*
X43473822Y-80176092D01*
X43559752Y-80159000D01*
X44940248Y-80159000D01*
X45026178Y-80176092D01*
G37*
%TD.AperFunction*%
%TD*%
%TO.N,GND*%
X26026176Y-80126092D02*
X26090755Y-80169243D01*
X26133906Y-80233822D01*
X26150998Y-80319752D01*
X26150998Y-81450248D01*
X26133906Y-81536178D01*
X26090755Y-81600757D01*
X26026176Y-81643908D01*
X25940246Y-81661000D01*
X24559752Y-81661000D01*
X24473822Y-81643908D01*
X24409243Y-81600757D01*
X24366092Y-81536178D01*
X24349000Y-81450248D01*
X24348999Y-80319753D01*
X24366091Y-80233823D01*
X24409242Y-80169244D01*
X24473821Y-80126093D01*
X24559751Y-80109001D01*
X25940246Y-80109000D01*
X26026176Y-80126092D01*
%TA.AperFunction,Conductor*%
G36*
X26026176Y-80126092D02*
G01*
X26090755Y-80169243D01*
X26133906Y-80233822D01*
X26150998Y-80319752D01*
X26150998Y-81450248D01*
X26133906Y-81536178D01*
X26090755Y-81600757D01*
X26026176Y-81643908D01*
X25940246Y-81661000D01*
X24559752Y-81661000D01*
X24473822Y-81643908D01*
X24409243Y-81600757D01*
X24366092Y-81536178D01*
X24349000Y-81450248D01*
X24348999Y-80319753D01*
X24366091Y-80233823D01*
X24409242Y-80169244D01*
X24473821Y-80126093D01*
X24559751Y-80109001D01*
X25940246Y-80109000D01*
X26026176Y-80126092D01*
G37*
%TD.AperFunction*%
%TD*%
%TO.N,GND*%
X46676178Y-49566092D02*
X46740757Y-49609243D01*
X46783908Y-49673822D01*
X46801000Y-49759752D01*
X46801000Y-50261136D01*
X46782796Y-50349683D01*
X46731136Y-50423868D01*
X46404254Y-50734406D01*
X46368940Y-50731813D01*
X46342122Y-50733500D01*
X46200968Y-50761961D01*
X46175591Y-50770798D01*
X46047291Y-50836170D01*
X46025225Y-50851507D01*
X45919232Y-50948974D01*
X45902104Y-50969678D01*
X45826225Y-51092057D01*
X45815295Y-51116606D01*
X45777848Y-51245500D01*
X45032101Y-51245500D01*
X44973822Y-51233908D01*
X44909243Y-51190757D01*
X44866092Y-51126178D01*
X44849000Y-51040248D01*
X44849000Y-49759752D01*
X44866092Y-49673822D01*
X44909243Y-49609243D01*
X44973822Y-49566092D01*
X45059752Y-49549000D01*
X46590248Y-49549000D01*
X46676178Y-49566092D01*
%TA.AperFunction,Conductor*%
G36*
X46676178Y-49566092D02*
G01*
X46740757Y-49609243D01*
X46783908Y-49673822D01*
X46801000Y-49759752D01*
X46801000Y-50261136D01*
X46782796Y-50349683D01*
X46731136Y-50423868D01*
X46404254Y-50734406D01*
X46368940Y-50731813D01*
X46342122Y-50733500D01*
X46200968Y-50761961D01*
X46175591Y-50770798D01*
X46047291Y-50836170D01*
X46025225Y-50851507D01*
X45919232Y-50948974D01*
X45902104Y-50969678D01*
X45826225Y-51092057D01*
X45815295Y-51116606D01*
X45777848Y-51245500D01*
X45032101Y-51245500D01*
X44973822Y-51233908D01*
X44909243Y-51190757D01*
X44866092Y-51126178D01*
X44849000Y-51040248D01*
X44849000Y-49759752D01*
X44866092Y-49673822D01*
X44909243Y-49609243D01*
X44973822Y-49566092D01*
X45059752Y-49549000D01*
X46590248Y-49549000D01*
X46676178Y-49566092D01*
G37*
%TD.AperFunction*%
%TD*%
%TO.N,pyro4_out*%
X44776176Y-82626093D02*
X44840755Y-82669244D01*
X44883906Y-82733823D01*
X44900998Y-82819753D01*
X44900998Y-84450248D01*
X44883906Y-84536178D01*
X44840755Y-84600757D01*
X44776176Y-84643908D01*
X44690246Y-84661000D01*
X42406195Y-84661001D01*
X42390421Y-84662266D01*
X42296044Y-84677498D01*
X42266099Y-84687422D01*
X42181306Y-84731570D01*
X42156003Y-84750411D01*
X42089403Y-84818992D01*
X42079321Y-84831189D01*
X40647115Y-86877196D01*
X40368593Y-87155718D01*
X40335864Y-87161000D01*
X38809750Y-87161000D01*
X38723820Y-87143908D01*
X38659241Y-87100757D01*
X38616090Y-87036178D01*
X38598998Y-86950248D01*
X38598997Y-85409929D01*
X38619814Y-85315571D01*
X38678401Y-85238728D01*
X41723403Y-82662190D01*
X41791287Y-82622716D01*
X41868601Y-82609002D01*
X44690246Y-82609001D01*
X44776176Y-82626093D01*
%TA.AperFunction,Conductor*%
G36*
X44776176Y-82626093D02*
G01*
X44840755Y-82669244D01*
X44883906Y-82733823D01*
X44900998Y-82819753D01*
X44900998Y-84450248D01*
X44883906Y-84536178D01*
X44840755Y-84600757D01*
X44776176Y-84643908D01*
X44690246Y-84661000D01*
X42406195Y-84661001D01*
X42390421Y-84662266D01*
X42296044Y-84677498D01*
X42266099Y-84687422D01*
X42181306Y-84731570D01*
X42156003Y-84750411D01*
X42089403Y-84818992D01*
X42079321Y-84831189D01*
X40647115Y-86877196D01*
X40368593Y-87155718D01*
X40335864Y-87161000D01*
X38809750Y-87161000D01*
X38723820Y-87143908D01*
X38659241Y-87100757D01*
X38616090Y-87036178D01*
X38598998Y-86950248D01*
X38598997Y-85409929D01*
X38619814Y-85315571D01*
X38678401Y-85238728D01*
X41723403Y-82662190D01*
X41791287Y-82622716D01*
X41868601Y-82609002D01*
X44690246Y-82609001D01*
X44776176Y-82626093D01*
G37*
%TD.AperFunction*%
%TD*%
%TO.N,+5V*%
X20478896Y-29103541D02*
X20522108Y-29116983D01*
X24754989Y-30917174D01*
X24764328Y-30920603D01*
X24821826Y-30938489D01*
X24841297Y-30942457D01*
X24901208Y-30948500D01*
X24911143Y-30949000D01*
X28736965Y-30949000D01*
X28773753Y-30958857D01*
X28791143Y-30976247D01*
X28797507Y-31000000D01*
X28791143Y-31023753D01*
X28773753Y-31041143D01*
X28736965Y-31051000D01*
X28160000Y-31051000D01*
X28150244Y-31051482D01*
X28109668Y-31055500D01*
X28100000Y-31055500D01*
X28080686Y-31057402D01*
X28002045Y-31073045D01*
X27966358Y-31087827D01*
X27924187Y-31116005D01*
X27577308Y-31260538D01*
X27560240Y-31269704D01*
X27499588Y-31310384D01*
X27472360Y-31337688D01*
X27431850Y-31398453D01*
X27417119Y-31434087D01*
X27403532Y-31502515D01*
X27394492Y-31536253D01*
X27386253Y-31544492D01*
X27361965Y-31551000D01*
X21930764Y-31551000D01*
X21909465Y-31549993D01*
X21888388Y-31546988D01*
X18770679Y-30950954D01*
X18698391Y-30923609D01*
X18646254Y-30879058D01*
X18612284Y-30819482D01*
X18599000Y-30743346D01*
X18599000Y-29309752D01*
X18616092Y-29223822D01*
X18659243Y-29159243D01*
X18723822Y-29116092D01*
X18809752Y-29099000D01*
X20433879Y-29099000D01*
X20478896Y-29103541D01*
%TA.AperFunction,Conductor*%
G36*
X20478896Y-29103541D02*
G01*
X20522108Y-29116983D01*
X24754989Y-30917174D01*
X24764328Y-30920603D01*
X24821826Y-30938489D01*
X24841297Y-30942457D01*
X24901208Y-30948500D01*
X24911143Y-30949000D01*
X28736965Y-30949000D01*
X28773753Y-30958857D01*
X28791143Y-30976247D01*
X28797507Y-31000000D01*
X28791143Y-31023753D01*
X28773753Y-31041143D01*
X28736965Y-31051000D01*
X28160000Y-31051000D01*
X28150244Y-31051482D01*
X28109668Y-31055500D01*
X28100000Y-31055500D01*
X28080686Y-31057402D01*
X28002045Y-31073045D01*
X27966358Y-31087827D01*
X27924187Y-31116005D01*
X27577308Y-31260538D01*
X27560240Y-31269704D01*
X27499588Y-31310384D01*
X27472360Y-31337688D01*
X27431850Y-31398453D01*
X27417119Y-31434087D01*
X27403532Y-31502515D01*
X27394492Y-31536253D01*
X27386253Y-31544492D01*
X27361965Y-31551000D01*
X21930764Y-31551000D01*
X21909465Y-31549993D01*
X21888388Y-31546988D01*
X18770679Y-30950954D01*
X18698391Y-30923609D01*
X18646254Y-30879058D01*
X18612284Y-30819482D01*
X18599000Y-30743346D01*
X18599000Y-29309752D01*
X18616092Y-29223822D01*
X18659243Y-29159243D01*
X18723822Y-29116092D01*
X18809752Y-29099000D01*
X20433879Y-29099000D01*
X20478896Y-29103541D01*
G37*
%TD.AperFunction*%
%TD*%
%TO.N,+3V3*%
X37576178Y-31566092D02*
X37640757Y-31609243D01*
X37683908Y-31673822D01*
X37701000Y-31759752D01*
X37701000Y-34840248D01*
X37683908Y-34926178D01*
X37640757Y-34990757D01*
X37576178Y-35033908D01*
X37490248Y-35051000D01*
X36409752Y-35051000D01*
X36323822Y-35033908D01*
X36259243Y-34990757D01*
X36216092Y-34926178D01*
X36199000Y-34840248D01*
X36199000Y-31759752D01*
X36216092Y-31673822D01*
X36259243Y-31609243D01*
X36323822Y-31566092D01*
X36409752Y-31549000D01*
X37490248Y-31549000D01*
X37576178Y-31566092D01*
%TA.AperFunction,Conductor*%
G36*
X37576178Y-31566092D02*
G01*
X37640757Y-31609243D01*
X37683908Y-31673822D01*
X37701000Y-31759752D01*
X37701000Y-34840248D01*
X37683908Y-34926178D01*
X37640757Y-34990757D01*
X37576178Y-35033908D01*
X37490248Y-35051000D01*
X36409752Y-35051000D01*
X36323822Y-35033908D01*
X36259243Y-34990757D01*
X36216092Y-34926178D01*
X36199000Y-34840248D01*
X36199000Y-31759752D01*
X36216092Y-31673822D01*
X36259243Y-31609243D01*
X36323822Y-31566092D01*
X36409752Y-31549000D01*
X37490248Y-31549000D01*
X37576178Y-31566092D01*
G37*
%TD.AperFunction*%
%TD*%
%TO.N,GND*%
X44826178Y-29566092D02*
X44890757Y-29609243D01*
X44933908Y-29673822D01*
X44951000Y-29759752D01*
X44951000Y-30090248D01*
X44933908Y-30176178D01*
X44890757Y-30240757D01*
X44826178Y-30283908D01*
X44740248Y-30301000D01*
X42924647Y-30301000D01*
X42850208Y-30288322D01*
X42791592Y-30255834D01*
X42741391Y-30199432D01*
X42633222Y-30026362D01*
X42607724Y-29969103D01*
X42599000Y-29907039D01*
X42599000Y-29734752D01*
X42614189Y-29658389D01*
X42651921Y-29601921D01*
X42708389Y-29564189D01*
X42784752Y-29549000D01*
X44740248Y-29549000D01*
X44826178Y-29566092D01*
%TA.AperFunction,Conductor*%
G36*
X44826178Y-29566092D02*
G01*
X44890757Y-29609243D01*
X44933908Y-29673822D01*
X44951000Y-29759752D01*
X44951000Y-30090248D01*
X44933908Y-30176178D01*
X44890757Y-30240757D01*
X44826178Y-30283908D01*
X44740248Y-30301000D01*
X42924647Y-30301000D01*
X42850208Y-30288322D01*
X42791592Y-30255834D01*
X42741391Y-30199432D01*
X42633222Y-30026362D01*
X42607724Y-29969103D01*
X42599000Y-29907039D01*
X42599000Y-29734752D01*
X42614189Y-29658389D01*
X42651921Y-29601921D01*
X42708389Y-29564189D01*
X42784752Y-29549000D01*
X44740248Y-29549000D01*
X44826178Y-29566092D01*
G37*
%TD.AperFunction*%
%TD*%
%TO.N,GND*%
X19607043Y-49612286D02*
X19655402Y-49644598D01*
X19687714Y-49692957D01*
X19701000Y-49759752D01*
X19701000Y-49811964D01*
X19687793Y-49861253D01*
X19661253Y-49887793D01*
X19511876Y-49927819D01*
X19467496Y-49953442D01*
X19403442Y-50017496D01*
X19377819Y-50061876D01*
X19354373Y-50149376D01*
X19351000Y-50175000D01*
X19351000Y-50950000D01*
X19352902Y-50969314D01*
X19375738Y-51084119D01*
X19390521Y-51119807D01*
X19450000Y-51208823D01*
X19450000Y-51250000D01*
X19491177Y-51250000D01*
X19580193Y-51309479D01*
X19615881Y-51324262D01*
X19730686Y-51347098D01*
X19750000Y-51349000D01*
X21015248Y-51349000D01*
X21091611Y-51364189D01*
X21148079Y-51401921D01*
X21185811Y-51458389D01*
X21199060Y-51525000D01*
X21185811Y-51591611D01*
X21148079Y-51648079D01*
X21091611Y-51685811D01*
X21015248Y-51701000D01*
X19059752Y-51701000D01*
X18973822Y-51683908D01*
X18909243Y-51640757D01*
X18866092Y-51576178D01*
X18849000Y-51490248D01*
X18849000Y-49809752D01*
X18866092Y-49723822D01*
X18909243Y-49659243D01*
X18973822Y-49616092D01*
X19059752Y-49599000D01*
X19540248Y-49599000D01*
X19607043Y-49612286D01*
%TA.AperFunction,Conductor*%
G36*
X19607043Y-49612286D02*
G01*
X19655402Y-49644598D01*
X19687714Y-49692957D01*
X19701000Y-49759752D01*
X19701000Y-49811964D01*
X19687793Y-49861253D01*
X19661253Y-49887793D01*
X19511876Y-49927819D01*
X19467496Y-49953442D01*
X19403442Y-50017496D01*
X19377819Y-50061876D01*
X19354373Y-50149376D01*
X19351000Y-50175000D01*
X19351000Y-50950000D01*
X19352902Y-50969314D01*
X19375738Y-51084119D01*
X19390521Y-51119807D01*
X19450000Y-51208823D01*
X19450000Y-51250000D01*
X19491177Y-51250000D01*
X19580193Y-51309479D01*
X19615881Y-51324262D01*
X19730686Y-51347098D01*
X19750000Y-51349000D01*
X21015248Y-51349000D01*
X21091611Y-51364189D01*
X21148079Y-51401921D01*
X21185811Y-51458389D01*
X21199060Y-51525000D01*
X21185811Y-51591611D01*
X21148079Y-51648079D01*
X21091611Y-51685811D01*
X21015248Y-51701000D01*
X19059752Y-51701000D01*
X18973822Y-51683908D01*
X18909243Y-51640757D01*
X18866092Y-51576178D01*
X18849000Y-51490248D01*
X18849000Y-49809752D01*
X18866092Y-49723822D01*
X18909243Y-49659243D01*
X18973822Y-49616092D01*
X19059752Y-49599000D01*
X19540248Y-49599000D01*
X19607043Y-49612286D01*
G37*
%TD.AperFunction*%
%TD*%
%TO.N,Batt_+*%
X46426178Y-26316092D02*
X46490757Y-26359243D01*
X46533908Y-26423822D01*
X46551000Y-26509752D01*
X46551000Y-26990248D01*
X46533908Y-27076178D01*
X46490757Y-27140757D01*
X46426178Y-27183908D01*
X46340248Y-27201000D01*
X45757900Y-27201000D01*
X45738037Y-27203013D01*
X45620105Y-27227165D01*
X45583578Y-27242782D01*
X45484635Y-27311350D01*
X45457188Y-27340067D01*
X45393164Y-27442010D01*
X45384304Y-27459902D01*
X45026404Y-28414302D01*
X45023663Y-28422745D01*
X45009376Y-28474555D01*
X45006212Y-28492005D01*
X45001398Y-28545532D01*
X45001000Y-28554400D01*
X45001000Y-28765248D01*
X44985811Y-28841611D01*
X44948079Y-28898079D01*
X44891611Y-28935811D01*
X44815248Y-28951000D01*
X43759752Y-28951000D01*
X43673822Y-28933908D01*
X43609243Y-28890757D01*
X43566092Y-28826178D01*
X43549000Y-28740248D01*
X43549000Y-28600000D01*
X43547098Y-28580686D01*
X43524262Y-28465881D01*
X43509479Y-28430193D01*
X43450000Y-28341177D01*
X43450000Y-28300000D01*
X43408823Y-28300000D01*
X43319807Y-28240521D01*
X43284119Y-28225738D01*
X43169314Y-28202902D01*
X43150000Y-28201000D01*
X43075616Y-28201000D01*
X43063854Y-28196719D01*
X43038624Y-28191126D01*
X43035778Y-28190877D01*
X43027149Y-28190500D01*
X42601644Y-28190500D01*
X42584453Y-28192004D01*
X42533433Y-28201000D01*
X40650000Y-28201000D01*
X40630686Y-28202902D01*
X40515881Y-28225738D01*
X40480193Y-28240521D01*
X40391177Y-28300000D01*
X40350000Y-28300000D01*
X40350000Y-28341177D01*
X40290521Y-28430193D01*
X40275738Y-28465881D01*
X40252902Y-28580686D01*
X40251000Y-28600000D01*
X40251000Y-29140248D01*
X40233908Y-29226178D01*
X40190757Y-29290757D01*
X40126178Y-29333908D01*
X40040248Y-29351000D01*
X39359752Y-29351000D01*
X39273822Y-29333908D01*
X39209243Y-29290757D01*
X39166092Y-29226178D01*
X39149000Y-29140248D01*
X39149000Y-28800000D01*
X39147098Y-28780686D01*
X39124262Y-28665881D01*
X39109479Y-28630193D01*
X39050000Y-28541177D01*
X39050000Y-28500000D01*
X39008823Y-28500000D01*
X38919807Y-28440521D01*
X38884119Y-28425738D01*
X38769314Y-28402902D01*
X38750000Y-28401000D01*
X35800000Y-28401000D01*
X35780686Y-28402902D01*
X35665881Y-28425738D01*
X35630193Y-28440521D01*
X35541177Y-28500000D01*
X35500000Y-28500000D01*
X35500000Y-28541177D01*
X35440521Y-28630193D01*
X35425738Y-28665881D01*
X35402902Y-28780686D01*
X35401000Y-28800000D01*
X35401000Y-28966216D01*
X35390857Y-28973999D01*
X35367629Y-28999348D01*
X35351676Y-29024388D01*
X35349007Y-29027958D01*
X35334876Y-29050760D01*
X35320494Y-29073335D01*
X35318439Y-29077284D01*
X35302797Y-29102523D01*
X35290035Y-29134450D01*
X35286464Y-29151560D01*
X35271716Y-29187164D01*
X35262142Y-29201789D01*
X35248591Y-29233388D01*
X35241804Y-29262299D01*
X35240466Y-29266541D01*
X35234678Y-29292649D01*
X35228541Y-29318789D01*
X35227905Y-29323201D01*
X35221479Y-29352184D01*
X35219979Y-29386535D01*
X35222261Y-29403867D01*
X35219587Y-29451507D01*
X35220125Y-29468756D01*
X35225500Y-29513915D01*
X35225501Y-31068675D01*
X35223203Y-31080116D01*
X35221292Y-31097268D01*
X35219174Y-31186716D01*
X35217407Y-31195598D01*
X35190249Y-31201000D01*
X34329392Y-31201000D01*
X34307496Y-31177313D01*
X34284522Y-31158907D01*
X34167405Y-31090880D01*
X34140036Y-31080044D01*
X34008093Y-31049461D01*
X33978746Y-31047151D01*
X33843644Y-31056717D01*
X33814916Y-31063139D01*
X33688599Y-31112007D01*
X33663029Y-31126592D01*
X33568643Y-31201000D01*
X32536100Y-31201000D01*
X32478296Y-31193455D01*
X32424361Y-31171326D01*
X32218290Y-31053571D01*
X32206752Y-31047937D01*
X32134911Y-31018460D01*
X32110144Y-31011883D01*
X32033144Y-31001833D01*
X32020331Y-31001000D01*
X31238035Y-31001000D01*
X31213747Y-30994492D01*
X31205508Y-30986253D01*
X31202493Y-30975000D01*
X31205508Y-30963747D01*
X31213747Y-30955508D01*
X31238035Y-30949000D01*
X32000000Y-30949000D01*
X32019314Y-30947098D01*
X32114985Y-30928068D01*
X32116295Y-30927525D01*
X32120177Y-30927865D01*
X32154429Y-30924868D01*
X32191953Y-30914813D01*
X32230229Y-30908064D01*
X32248609Y-30901374D01*
X32270058Y-30903232D01*
X32299437Y-30901383D01*
X32431844Y-30872877D01*
X32459382Y-30862472D01*
X32577553Y-30796293D01*
X32600813Y-30778251D01*
X32694301Y-30680250D01*
X32711227Y-30656166D01*
X32771766Y-30535008D01*
X32780862Y-30507012D01*
X32790518Y-30449000D01*
X33150000Y-30449000D01*
X33169314Y-30447098D01*
X33284119Y-30424262D01*
X33319807Y-30409479D01*
X33408823Y-30350000D01*
X33450000Y-30350000D01*
X33450000Y-30308823D01*
X33509479Y-30219807D01*
X33524262Y-30184119D01*
X33547098Y-30069314D01*
X33549000Y-30050000D01*
X33549000Y-29759752D01*
X33566092Y-29673822D01*
X33609243Y-29609243D01*
X33673822Y-29566092D01*
X33759752Y-29549000D01*
X33950000Y-29549000D01*
X33969314Y-29547098D01*
X34084119Y-29524262D01*
X34119807Y-29509479D01*
X34208823Y-29450000D01*
X34250000Y-29450000D01*
X34250000Y-29408823D01*
X34309479Y-29319807D01*
X34324262Y-29284119D01*
X34347098Y-29169314D01*
X34349000Y-29150000D01*
X34349000Y-29015616D01*
X34353281Y-29003854D01*
X34358874Y-28978624D01*
X34359123Y-28975778D01*
X34359500Y-28967149D01*
X34359500Y-28601644D01*
X34357996Y-28584453D01*
X34349000Y-28533434D01*
X34349000Y-26509752D01*
X34356012Y-26474500D01*
X44128163Y-26474500D01*
X44159097Y-26479084D01*
X44176323Y-26480116D01*
X44215080Y-26479053D01*
X44237873Y-26481047D01*
X44281478Y-26477232D01*
X44298606Y-26476762D01*
X44315745Y-26474788D01*
X44320470Y-26473821D01*
X44325265Y-26473401D01*
X44342257Y-26470404D01*
X44358783Y-26465975D01*
X44401689Y-26457191D01*
X44422972Y-26448777D01*
X44442099Y-26443652D01*
X44443450Y-26443652D01*
X44477310Y-26437682D01*
X44513409Y-26424543D01*
X44523747Y-26421773D01*
X44539965Y-26415870D01*
X44549663Y-26411347D01*
X44559740Y-26407680D01*
X44575382Y-26400386D01*
X44584668Y-26395025D01*
X44619468Y-26378797D01*
X44647632Y-26359077D01*
X44648590Y-26358119D01*
X44665730Y-26348223D01*
X44686732Y-26339122D01*
X44723283Y-26314996D01*
X44738104Y-26306438D01*
X44748728Y-26299000D01*
X46340248Y-26299000D01*
X46426178Y-26316092D01*
%TA.AperFunction,Conductor*%
G36*
X46426178Y-26316092D02*
G01*
X46490757Y-26359243D01*
X46533908Y-26423822D01*
X46551000Y-26509752D01*
X46551000Y-26990248D01*
X46533908Y-27076178D01*
X46490757Y-27140757D01*
X46426178Y-27183908D01*
X46340248Y-27201000D01*
X45757900Y-27201000D01*
X45738037Y-27203013D01*
X45620105Y-27227165D01*
X45583578Y-27242782D01*
X45484635Y-27311350D01*
X45457188Y-27340067D01*
X45393164Y-27442010D01*
X45384304Y-27459902D01*
X45026404Y-28414302D01*
X45023663Y-28422745D01*
X45009376Y-28474555D01*
X45006212Y-28492005D01*
X45001398Y-28545532D01*
X45001000Y-28554400D01*
X45001000Y-28765248D01*
X44985811Y-28841611D01*
X44948079Y-28898079D01*
X44891611Y-28935811D01*
X44815248Y-28951000D01*
X43759752Y-28951000D01*
X43673822Y-28933908D01*
X43609243Y-28890757D01*
X43566092Y-28826178D01*
X43549000Y-28740248D01*
X43549000Y-28600000D01*
X43547098Y-28580686D01*
X43524262Y-28465881D01*
X43509479Y-28430193D01*
X43450000Y-28341177D01*
X43450000Y-28300000D01*
X43408823Y-28300000D01*
X43319807Y-28240521D01*
X43284119Y-28225738D01*
X43169314Y-28202902D01*
X43150000Y-28201000D01*
X43075616Y-28201000D01*
X43063854Y-28196719D01*
X43038624Y-28191126D01*
X43035778Y-28190877D01*
X43027149Y-28190500D01*
X42601644Y-28190500D01*
X42584453Y-28192004D01*
X42533433Y-28201000D01*
X40650000Y-28201000D01*
X40630686Y-28202902D01*
X40515881Y-28225738D01*
X40480193Y-28240521D01*
X40391177Y-28300000D01*
X40350000Y-28300000D01*
X40350000Y-28341177D01*
X40290521Y-28430193D01*
X40275738Y-28465881D01*
X40252902Y-28580686D01*
X40251000Y-28600000D01*
X40251000Y-29140248D01*
X40233908Y-29226178D01*
X40190757Y-29290757D01*
X40126178Y-29333908D01*
X40040248Y-29351000D01*
X39359752Y-29351000D01*
X39273822Y-29333908D01*
X39209243Y-29290757D01*
X39166092Y-29226178D01*
X39149000Y-29140248D01*
X39149000Y-28800000D01*
X39147098Y-28780686D01*
X39124262Y-28665881D01*
X39109479Y-28630193D01*
X39050000Y-28541177D01*
X39050000Y-28500000D01*
X39008823Y-28500000D01*
X38919807Y-28440521D01*
X38884119Y-28425738D01*
X38769314Y-28402902D01*
X38750000Y-28401000D01*
X35800000Y-28401000D01*
X35780686Y-28402902D01*
X35665881Y-28425738D01*
X35630193Y-28440521D01*
X35541177Y-28500000D01*
X35500000Y-28500000D01*
X35500000Y-28541177D01*
X35440521Y-28630193D01*
X35425738Y-28665881D01*
X35402902Y-28780686D01*
X35401000Y-28800000D01*
X35401000Y-28966216D01*
X35390857Y-28973999D01*
X35367629Y-28999348D01*
X35351676Y-29024388D01*
X35349007Y-29027958D01*
X35334876Y-29050760D01*
X35320494Y-29073335D01*
X35318439Y-29077284D01*
X35302797Y-29102523D01*
X35290035Y-29134450D01*
X35286464Y-29151560D01*
X35271716Y-29187164D01*
X35262142Y-29201789D01*
X35248591Y-29233388D01*
X35241804Y-29262299D01*
X35240466Y-29266541D01*
X35234678Y-29292649D01*
X35228541Y-29318789D01*
X35227905Y-29323201D01*
X35221479Y-29352184D01*
X35219979Y-29386535D01*
X35222261Y-29403867D01*
X35219587Y-29451507D01*
X35220125Y-29468756D01*
X35225500Y-29513915D01*
X35225501Y-31068675D01*
X35223203Y-31080116D01*
X35221292Y-31097268D01*
X35219174Y-31186716D01*
X35217407Y-31195598D01*
X35190249Y-31201000D01*
X34329392Y-31201000D01*
X34307496Y-31177313D01*
X34284522Y-31158907D01*
X34167405Y-31090880D01*
X34140036Y-31080044D01*
X34008093Y-31049461D01*
X33978746Y-31047151D01*
X33843644Y-31056717D01*
X33814916Y-31063139D01*
X33688599Y-31112007D01*
X33663029Y-31126592D01*
X33568643Y-31201000D01*
X32536100Y-31201000D01*
X32478296Y-31193455D01*
X32424361Y-31171326D01*
X32218290Y-31053571D01*
X32206752Y-31047937D01*
X32134911Y-31018460D01*
X32110144Y-31011883D01*
X32033144Y-31001833D01*
X32020331Y-31001000D01*
X31238035Y-31001000D01*
X31213747Y-30994492D01*
X31205508Y-30986253D01*
X31202493Y-30975000D01*
X31205508Y-30963747D01*
X31213747Y-30955508D01*
X31238035Y-30949000D01*
X32000000Y-30949000D01*
X32019314Y-30947098D01*
X32114985Y-30928068D01*
X32116295Y-30927525D01*
X32120177Y-30927865D01*
X32154429Y-30924868D01*
X32191953Y-30914813D01*
X32230229Y-30908064D01*
X32248609Y-30901374D01*
X32270058Y-30903232D01*
X32299437Y-30901383D01*
X32431844Y-30872877D01*
X32459382Y-30862472D01*
X32577553Y-30796293D01*
X32600813Y-30778251D01*
X32694301Y-30680250D01*
X32711227Y-30656166D01*
X32771766Y-30535008D01*
X32780862Y-30507012D01*
X32790518Y-30449000D01*
X33150000Y-30449000D01*
X33169314Y-30447098D01*
X33284119Y-30424262D01*
X33319807Y-30409479D01*
X33408823Y-30350000D01*
X33450000Y-30350000D01*
X33450000Y-30308823D01*
X33509479Y-30219807D01*
X33524262Y-30184119D01*
X33547098Y-30069314D01*
X33549000Y-30050000D01*
X33549000Y-29759752D01*
X33566092Y-29673822D01*
X33609243Y-29609243D01*
X33673822Y-29566092D01*
X33759752Y-29549000D01*
X33950000Y-29549000D01*
X33969314Y-29547098D01*
X34084119Y-29524262D01*
X34119807Y-29509479D01*
X34208823Y-29450000D01*
X34250000Y-29450000D01*
X34250000Y-29408823D01*
X34309479Y-29319807D01*
X34324262Y-29284119D01*
X34347098Y-29169314D01*
X34349000Y-29150000D01*
X34349000Y-29015616D01*
X34353281Y-29003854D01*
X34358874Y-28978624D01*
X34359123Y-28975778D01*
X34359500Y-28967149D01*
X34359500Y-28601644D01*
X34357996Y-28584453D01*
X34349000Y-28533434D01*
X34349000Y-26509752D01*
X34356012Y-26474500D01*
X44128163Y-26474500D01*
X44159097Y-26479084D01*
X44176323Y-26480116D01*
X44215080Y-26479053D01*
X44237873Y-26481047D01*
X44281478Y-26477232D01*
X44298606Y-26476762D01*
X44315745Y-26474788D01*
X44320470Y-26473821D01*
X44325265Y-26473401D01*
X44342257Y-26470404D01*
X44358783Y-26465975D01*
X44401689Y-26457191D01*
X44422972Y-26448777D01*
X44442099Y-26443652D01*
X44443450Y-26443652D01*
X44477310Y-26437682D01*
X44513409Y-26424543D01*
X44523747Y-26421773D01*
X44539965Y-26415870D01*
X44549663Y-26411347D01*
X44559740Y-26407680D01*
X44575382Y-26400386D01*
X44584668Y-26395025D01*
X44619468Y-26378797D01*
X44647632Y-26359077D01*
X44648590Y-26358119D01*
X44665730Y-26348223D01*
X44686732Y-26339122D01*
X44723283Y-26314996D01*
X44738104Y-26306438D01*
X44748728Y-26299000D01*
X46340248Y-26299000D01*
X46426178Y-26316092D01*
G37*
%TD.AperFunction*%
%TD*%
%TO.N,Net-(L2-Pad1)*%
X40126178Y-31716092D02*
X40190757Y-31759243D01*
X40233908Y-31823822D01*
X40251000Y-31909752D01*
X40251000Y-34840248D01*
X40233908Y-34926178D01*
X40190757Y-34990757D01*
X40126178Y-35033908D01*
X40040248Y-35051000D01*
X39009752Y-35051000D01*
X38923822Y-35033908D01*
X38859243Y-34990757D01*
X38816092Y-34926178D01*
X38799000Y-34840248D01*
X38799000Y-33002669D01*
X38801913Y-32966540D01*
X38810574Y-32931344D01*
X39172273Y-31846248D01*
X39219155Y-31766220D01*
X39285821Y-31718169D01*
X39376571Y-31699000D01*
X40040248Y-31699000D01*
X40126178Y-31716092D01*
%TA.AperFunction,Conductor*%
G36*
X40126178Y-31716092D02*
G01*
X40190757Y-31759243D01*
X40233908Y-31823822D01*
X40251000Y-31909752D01*
X40251000Y-34840248D01*
X40233908Y-34926178D01*
X40190757Y-34990757D01*
X40126178Y-35033908D01*
X40040248Y-35051000D01*
X39009752Y-35051000D01*
X38923822Y-35033908D01*
X38859243Y-34990757D01*
X38816092Y-34926178D01*
X38799000Y-34840248D01*
X38799000Y-33002669D01*
X38801913Y-32966540D01*
X38810574Y-32931344D01*
X39172273Y-31846248D01*
X39219155Y-31766220D01*
X39285821Y-31718169D01*
X39376571Y-31699000D01*
X40040248Y-31699000D01*
X40126178Y-31716092D01*
G37*
%TD.AperFunction*%
%TD*%
M02*
