%TF.GenerationSoftware,KiCad,Pcbnew,(5.99.0-7167-g34dbce6bce)*%
%TF.CreationDate,2021-01-04T09:35:53+03:00*%
%TF.ProjectId,ANV,414e562e-6b69-4636-9164-5f7063625858,rev?*%
%TF.SameCoordinates,Original*%
%TF.FileFunction,Copper,L4,Bot*%
%TF.FilePolarity,Positive*%
%FSLAX46Y46*%
G04 Gerber Fmt 4.6, Leading zero omitted, Abs format (unit mm)*
G04 Created by KiCad (PCBNEW (5.99.0-7167-g34dbce6bce)) date 2021-01-04 09:35:53*
%MOMM*%
%LPD*%
G01*
G04 APERTURE LIST*
G04 Aperture macros list*
%AMRoundRect*
0 Rectangle with rounded corners*
0 $1 Rounding radius*
0 $2 $3 $4 $5 $6 $7 $8 $9 X,Y pos of 4 corners*
0 Add a 4 corners polygon primitive as box body*
4,1,4,$2,$3,$4,$5,$6,$7,$8,$9,$2,$3,0*
0 Add four circle primitives for the rounded corners*
1,1,$1+$1,$2,$3,0*
1,1,$1+$1,$4,$5,0*
1,1,$1+$1,$6,$7,0*
1,1,$1+$1,$8,$9,0*
0 Add four rect primitives between the rounded corners*
20,1,$1+$1,$2,$3,$4,$5,0*
20,1,$1+$1,$4,$5,$6,$7,0*
20,1,$1+$1,$6,$7,$8,$9,0*
20,1,$1+$1,$8,$9,$2,$3,0*%
G04 Aperture macros list end*
%ADD10C,0.140000*%
%TA.AperFunction,ComponentPad*%
%ADD11RoundRect,0.200000X-0.200000X-0.450000X0.200000X-0.450000X0.200000X0.450000X-0.200000X0.450000X0*%
%TD*%
%TA.AperFunction,ComponentPad*%
%ADD12O,0.800000X1.300000*%
%TD*%
%TA.AperFunction,ComponentPad*%
%ADD13C,0.800000*%
%TD*%
%TA.AperFunction,ComponentPad*%
%ADD14C,6.400000*%
%TD*%
%TA.AperFunction,ComponentPad*%
%ADD15RoundRect,0.200000X0.200000X0.450000X-0.200000X0.450000X-0.200000X-0.450000X0.200000X-0.450000X0*%
%TD*%
%TA.AperFunction,ComponentPad*%
%ADD16RoundRect,0.500000X-0.500000X-0.500000X0.500000X-0.500000X0.500000X0.500000X-0.500000X0.500000X0*%
%TD*%
%TA.AperFunction,ComponentPad*%
%ADD17RoundRect,0.500000X0.500000X-0.500000X0.500000X0.500000X-0.500000X0.500000X-0.500000X-0.500000X0*%
%TD*%
%TA.AperFunction,SMDPad,CuDef*%
%ADD18R,2.300000X2.300000*%
%TD*%
%TA.AperFunction,ComponentPad*%
%ADD19C,0.600000*%
%TD*%
%TA.AperFunction,SMDPad,CuDef*%
%ADD20R,1.680000X1.680000*%
%TD*%
%TA.AperFunction,ComponentPad*%
%ADD21C,0.500000*%
%TD*%
%TA.AperFunction,ComponentPad*%
%ADD22O,1.600000X1.000000*%
%TD*%
%TA.AperFunction,ComponentPad*%
%ADD23O,2.100000X1.000000*%
%TD*%
%TA.AperFunction,ComponentPad*%
%ADD24RoundRect,0.500000X0.500000X0.500000X-0.500000X0.500000X-0.500000X-0.500000X0.500000X-0.500000X0*%
%TD*%
%TA.AperFunction,ComponentPad*%
%ADD25RoundRect,0.500000X-0.500000X0.500000X-0.500000X-0.500000X0.500000X-0.500000X0.500000X0.500000X0*%
%TD*%
%TA.AperFunction,SMDPad,CuDef*%
%ADD26RoundRect,0.135000X0.185000X-0.135000X0.185000X0.135000X-0.185000X0.135000X-0.185000X-0.135000X0*%
%TD*%
%TA.AperFunction,SMDPad,CuDef*%
%ADD27R,1.500000X2.000000*%
%TD*%
%TA.AperFunction,SMDPad,CuDef*%
%ADD28R,1.300000X1.800000*%
%TD*%
%TA.AperFunction,ViaPad*%
%ADD29C,0.500000*%
%TD*%
%TA.AperFunction,Conductor*%
%ADD30C,0.400000*%
%TD*%
%TA.AperFunction,Conductor*%
%ADD31C,0.300000*%
%TD*%
%TA.AperFunction,Conductor*%
%ADD32C,0.250000*%
%TD*%
%TA.AperFunction,Conductor*%
%ADD33C,0.200000*%
%TD*%
%TA.AperFunction,Conductor*%
%ADD34C,0.500000*%
%TD*%
G04 APERTURE END LIST*
D10*
X21606666Y-23880000D02*
X21606666Y-24253333D01*
X21473333Y-23666666D02*
X21340000Y-24066666D01*
X21686666Y-24066666D01*
D11*
%TO.P,J15,1,Pin_1*%
%TO.N,GND*%
X18000000Y-72000000D03*
D12*
%TO.P,J15,2,Pin_2*%
%TO.N,+5V*%
X19250000Y-72000000D03*
%TO.P,J15,3,Pin_3*%
%TO.N,A3*%
X20500000Y-72000000D03*
%TD*%
D13*
%TO.P,H3,1,1*%
%TO.N,GND*%
X51650000Y-86510000D03*
X46850000Y-86510000D03*
X50947056Y-84812944D03*
X47552944Y-84812944D03*
X49250000Y-84110000D03*
X49250000Y-88910000D03*
X47552944Y-88207056D03*
X50947056Y-88207056D03*
D14*
X49250000Y-86510000D03*
%TD*%
D11*
%TO.P,J1,1,Pin_1*%
%TO.N,GND*%
X31750000Y-46000000D03*
D12*
%TO.P,J1,2,Pin_2*%
%TO.N,Reset*%
X33000000Y-46000000D03*
%TO.P,J1,3,Pin_3*%
%TO.N,B3*%
X34250000Y-46000000D03*
%TO.P,J1,4,Pin_4*%
%TO.N,SWCLK*%
X35500000Y-46000000D03*
%TO.P,J1,5,Pin_5*%
%TO.N,SWDIO*%
X36750000Y-46000000D03*
%TD*%
D15*
%TO.P,J9,1,Pin_1*%
%TO.N,led_out*%
X19749999Y-44250000D03*
D12*
%TO.P,J9,2,Pin_2*%
%TO.N,GND*%
X18499999Y-44250000D03*
%TD*%
D13*
%TO.P,H1,1,1*%
%TO.N,can_L*%
X20947056Y-20947056D03*
X19250000Y-21650000D03*
X16850000Y-19250000D03*
X20947056Y-17552944D03*
X21650000Y-19250000D03*
X17552944Y-17552944D03*
X19250000Y-16850000D03*
D14*
X19250000Y-19250000D03*
D13*
X17552944Y-20947056D03*
%TD*%
D11*
%TO.P,J19,1,Pin_1*%
%TO.N,GND*%
X18000000Y-79000000D03*
D12*
%TO.P,J19,2,Pin_2*%
%TO.N,+5V*%
X19250000Y-79000000D03*
%TO.P,J19,3,Pin_3*%
%TO.N,A7*%
X20500000Y-79000000D03*
%TD*%
D16*
%TO.P,J13,1,Pin_1*%
%TO.N,Batt_Pyro*%
X36000000Y-86260000D03*
%TO.P,J13,2,Pin_2*%
%TO.N,pyro4_out*%
X39500000Y-86260000D03*
%TD*%
D11*
%TO.P,J18,1,Pin_1*%
%TO.N,GND*%
X18000000Y-75500000D03*
D12*
%TO.P,J18,2,Pin_2*%
%TO.N,+5V*%
X19250000Y-75500000D03*
%TO.P,J18,3,Pin_3*%
%TO.N,A5*%
X20500000Y-75500000D03*
%TD*%
D17*
%TO.P,J17,1,Pin_1*%
%TO.N,GND*%
X49000000Y-78500000D03*
%TO.P,J17,2,Pin_2*%
%TO.N,+3V3*%
X49000000Y-75000000D03*
%TD*%
D18*
%TO.P,U4,11,PGND*%
%TO.N,GND*%
X30001000Y-30500000D03*
D19*
X29500000Y-30000000D03*
X30000000Y-30500000D03*
X30500000Y-31000000D03*
X29500000Y-31000000D03*
X30500000Y-30000000D03*
%TD*%
D16*
%TO.P,J12,1,Pin_1*%
%TO.N,pyro3_out*%
X29000000Y-86260000D03*
%TO.P,J12,2,Pin_2*%
%TO.N,Batt_Pyro*%
X32500000Y-86260000D03*
%TD*%
D13*
%TO.P,H2,1,1*%
%TO.N,can_H*%
X17552944Y-88207056D03*
X21650000Y-86510000D03*
X17552944Y-84812944D03*
X20947056Y-84812944D03*
D14*
X19250000Y-86510000D03*
D13*
X20947056Y-88207056D03*
X19250000Y-88910000D03*
X16850000Y-86510000D03*
X19250000Y-84110000D03*
%TD*%
D20*
%TO.P,U3,17,THERMAL_PAD*%
%TO.N,GND*%
X40000000Y-30500000D03*
D21*
X39410000Y-31090000D03*
X39410000Y-29910000D03*
X40590000Y-29910000D03*
X40590000Y-31090000D03*
%TD*%
D17*
%TO.P,J16,1,Pin_1*%
%TO.N,GND*%
X49000000Y-71500000D03*
%TO.P,J16,2,Pin_2*%
%TO.N,Batt_Pyro*%
X49000000Y-68000000D03*
%TD*%
D11*
%TO.P,J14,1,Pin_1*%
%TO.N,GND*%
X18000000Y-68500000D03*
D12*
%TO.P,J14,2,Pin_2*%
%TO.N,+5V*%
X19250000Y-68500000D03*
%TO.P,J14,3,Pin_3*%
%TO.N,A2*%
X20500000Y-68500000D03*
%TD*%
D22*
%TO.P,J4,S1,SHIELD*%
%TO.N,GND*%
X50075000Y-49930000D03*
D23*
X45895000Y-49930000D03*
X45895000Y-58570000D03*
D22*
X50075000Y-58570000D03*
%TD*%
D24*
%TO.P,J10,1,Pin_1*%
%TO.N,Batt_Pyro*%
X32499999Y-19500000D03*
%TO.P,J10,2,Pin_2*%
%TO.N,pyro1_out*%
X28999999Y-19500000D03*
%TD*%
D15*
%TO.P,J6,1,Pin_1*%
%TO.N,GND*%
X50000000Y-44250000D03*
D12*
%TO.P,J6,2,Pin_2*%
%TO.N,buzzer_out*%
X48750000Y-44250000D03*
%TD*%
D17*
%TO.P,J2,1,Pin_1*%
%TO.N,GND*%
X49000000Y-40500000D03*
%TO.P,J2,2,Pin_2*%
%TO.N,Net-(J2-Pad2)*%
X49000000Y-37000000D03*
%TD*%
D24*
%TO.P,J11,1,Pin_1*%
%TO.N,pyro2_out*%
X39500000Y-19500000D03*
%TO.P,J11,2,Pin_2*%
%TO.N,Batt_Pyro*%
X36000000Y-19500000D03*
%TD*%
D25*
%TO.P,J8,1,Pin_1*%
%TO.N,can_L*%
X19500000Y-37000000D03*
%TO.P,J8,2,Pin_2*%
%TO.N,can_H*%
X19500000Y-40500000D03*
%TD*%
D17*
%TO.P,J3,1,Pin_1*%
%TO.N,Net-(J3-Pad1)*%
X49000000Y-33500000D03*
%TO.P,J3,2,Pin_2*%
%TO.N,Batt_Pyro*%
X49000000Y-30000000D03*
%TD*%
D13*
%TO.P,H4,1,1*%
%TO.N,Batt_Pyro*%
X46850000Y-19250000D03*
X51650000Y-19250000D03*
X49250000Y-16850000D03*
X50947056Y-20947056D03*
D14*
X49250000Y-19250000D03*
D13*
X50947056Y-17552944D03*
X47552944Y-17552944D03*
X49250000Y-21650000D03*
X47552944Y-20947056D03*
%TD*%
D11*
%TO.P,J5,1,Pin_1*%
%TO.N,en*%
X33000000Y-38000000D03*
D12*
%TO.P,J5,2,Pin_2*%
%TO.N,GND*%
X34250000Y-38000000D03*
%TO.P,J5,3,Pin_3*%
%TO.N,Batt_+*%
X35500000Y-38000000D03*
%TD*%
D25*
%TO.P,J7,1,Pin_1*%
%TO.N,+5V*%
X19500000Y-30000000D03*
%TO.P,J7,2,Pin_2*%
%TO.N,GND*%
X19500000Y-33500000D03*
%TD*%
D26*
%TO.P,R44,1*%
%TO.N,can_H*%
X21250000Y-39260000D03*
%TO.P,R44,2*%
%TO.N,can_L*%
X21250000Y-38240000D03*
%TD*%
D27*
%TO.P,U12,1,GND*%
%TO.N,GND*%
X17500000Y-49000000D03*
%TO.P,U12,2,GND*%
X19500000Y-49000000D03*
%TO.P,U12,3,VDD*%
%TO.N,+3V3*%
X21500000Y-49000000D03*
D28*
%TO.P,U12,4,~RESET*%
%TO.N,lora_reset*%
X23500000Y-49000000D03*
%TO.P,U12,5,DIO0*%
%TO.N,A15*%
X25500000Y-49000000D03*
D27*
%TO.P,U12,9,GND*%
%TO.N,GND*%
X31500000Y-65000000D03*
%TO.P,U12,10*%
%TO.N,N/C*%
X29500000Y-65000000D03*
%TO.P,U12,11*%
X27500000Y-65000000D03*
%TO.P,U12,12,SCK*%
%TO.N,C13*%
X25500000Y-65000000D03*
%TO.P,U12,13,MISO*%
%TO.N,C15*%
X23500000Y-65000000D03*
%TO.P,U12,14,MOSI*%
%TO.N,C14*%
X21500000Y-65000000D03*
%TO.P,U12,15,~NSS*%
%TO.N,A1*%
X19500000Y-65000000D03*
%TO.P,U12,16,GND*%
%TO.N,GND*%
X17500000Y-65000000D03*
%TD*%
D29*
%TO.N,*%
X29000000Y-65750000D03*
X28000000Y-65750000D03*
%TO.N,Batt_+*%
X35471232Y-32471232D03*
X35050000Y-30950000D03*
%TO.N,Net-(J2-Pad2)*%
X45250000Y-35750000D03*
X46000000Y-36500000D03*
X46000000Y-37250000D03*
X47500000Y-36500000D03*
X47500000Y-37250000D03*
X46000000Y-35750000D03*
X47500000Y-35750000D03*
X45250000Y-36500000D03*
%TO.N,GND*%
X32750000Y-32650000D03*
X45000002Y-80559999D03*
X33750000Y-28200000D03*
X28020000Y-62470000D03*
X24499999Y-80509998D03*
X39080000Y-49520000D03*
X25270000Y-28520000D03*
X43500002Y-80559999D03*
X44250002Y-80559999D03*
X43450000Y-30250000D03*
X25249999Y-80509998D03*
X42500000Y-25250000D03*
X25450000Y-89210000D03*
X44000000Y-25250000D03*
X30550000Y-58950000D03*
X32000000Y-65000000D03*
X24250000Y-25250000D03*
X25000000Y-25250000D03*
X38115000Y-59365000D03*
X44850000Y-30250000D03*
X25999999Y-80509998D03*
X35420000Y-65500000D03*
X20050000Y-52550000D03*
X31000000Y-65750000D03*
X33350000Y-31950000D03*
X36200000Y-29550000D03*
X29000000Y-39250000D03*
X20050000Y-57150000D03*
X27250000Y-28500000D03*
X44150000Y-30250000D03*
X24000000Y-33550000D03*
X43250000Y-16500000D03*
X34780000Y-62420000D03*
X23500000Y-25250000D03*
X26250000Y-28500000D03*
X34010000Y-66960000D03*
X23800000Y-55000000D03*
X40770000Y-64550000D03*
X28290000Y-50397995D03*
X26750000Y-54750000D03*
X43250000Y-25250000D03*
X31170451Y-55049213D03*
X31760000Y-62450000D03*
X19000000Y-49750000D03*
X20050000Y-56350000D03*
X20050000Y-59150000D03*
X36900000Y-29550000D03*
X27000000Y-33550000D03*
X19700000Y-49750000D03*
X44004990Y-54250835D03*
X36200000Y-30350000D03*
X43500000Y-32950000D03*
X43100000Y-89210000D03*
X25500000Y-33550000D03*
X25250000Y-16500000D03*
X33750000Y-27500000D03*
X21600000Y-54700000D03*
%TO.N,B1*%
X34660000Y-56660000D03*
X42080000Y-37600000D03*
%TO.N,+3V3*%
X36300000Y-32100000D03*
X35250000Y-39550000D03*
X37700000Y-29600000D03*
X41650000Y-50950000D03*
X21700000Y-49750000D03*
X36300000Y-34200000D03*
X45350000Y-32250000D03*
X36300000Y-33500000D03*
X25650000Y-57750000D03*
X36770000Y-64620000D03*
X36300000Y-32800000D03*
X37000000Y-32750000D03*
X41880000Y-56960000D03*
X34250000Y-81260000D03*
X30530000Y-58020000D03*
X36300000Y-34900000D03*
X33740000Y-64130000D03*
X38500000Y-57550000D03*
X32880000Y-69810000D03*
X40740000Y-62470000D03*
X34250000Y-24500000D03*
X29000000Y-38250000D03*
X21385000Y-53385000D03*
X29470000Y-50480000D03*
X42145641Y-30292835D03*
X39100000Y-50450000D03*
X21000000Y-49750000D03*
X27110000Y-63600001D03*
%TO.N,C14*%
X24250000Y-52300000D03*
X21250000Y-64500000D03*
%TO.N,Net-(J3-Pad1)*%
X45250000Y-34000000D03*
X47500000Y-33250000D03*
X46000000Y-33250000D03*
X46000000Y-34750000D03*
X47500000Y-34750000D03*
X45250000Y-34750000D03*
X47500000Y-34000000D03*
X46000000Y-34000000D03*
%TO.N,B0*%
X33999713Y-57180818D03*
X36060000Y-43010000D03*
%TO.N,B7*%
X34586091Y-47113909D03*
X27500000Y-47100000D03*
%TO.N,B5*%
X34975000Y-48285141D03*
X27500000Y-48400006D03*
%TO.N,pyro4_out*%
X42000000Y-82760000D03*
X41250000Y-83510000D03*
X41250000Y-85000000D03*
X42000000Y-83510000D03*
X40500000Y-84260000D03*
X42000000Y-84260000D03*
X41250000Y-84260000D03*
X41250000Y-85750000D03*
X40500000Y-85000000D03*
%TO.N,A6*%
X33185520Y-56654480D03*
X25720000Y-45350000D03*
%TO.N,pyro3_out*%
X27250000Y-84260000D03*
X28000000Y-84260000D03*
X26500000Y-83510000D03*
X26500000Y-84260000D03*
X28000000Y-85010000D03*
X27250000Y-83510000D03*
X27250000Y-85760000D03*
X27250000Y-85010000D03*
X26500000Y-82760000D03*
%TO.N,pyro2_out*%
X39750000Y-20750000D03*
X41250000Y-21500000D03*
X42000000Y-21500000D03*
X40500000Y-21500000D03*
X40500000Y-20750000D03*
X42000000Y-22250000D03*
X41250000Y-22250000D03*
X41250000Y-20000000D03*
X42000000Y-23000000D03*
X41250000Y-20750000D03*
%TO.N,pyro1_out*%
X27250000Y-20000000D03*
X26500000Y-21500000D03*
X26500000Y-22250000D03*
X28000000Y-20750000D03*
X27250000Y-22250000D03*
X28000000Y-21500000D03*
X27250000Y-21500000D03*
X27250000Y-20750000D03*
X26500000Y-23000000D03*
%TO.N,C13*%
X24400020Y-51349980D03*
%TO.N,Reset*%
X31300000Y-51300000D03*
%TO.N,A10*%
X36626914Y-62000000D03*
X37400000Y-53970000D03*
X29956883Y-63600001D03*
%TO.N,A9*%
X36540000Y-61010000D03*
X36860000Y-54470000D03*
%TO.N,B4*%
X27500000Y-47750003D03*
X35061091Y-47588909D03*
%TO.N,B6*%
X27500000Y-49050009D03*
X34475000Y-48950000D03*
%TO.N,A8*%
X42800000Y-45590000D03*
X36310000Y-54900000D03*
%TO.N,en*%
X33950000Y-31600000D03*
X32250000Y-30350000D03*
%TO.N,+5V*%
X21500000Y-30250000D03*
X23000000Y-31000000D03*
X22250000Y-31000000D03*
X22250000Y-30250000D03*
X31909999Y-27899999D03*
X44000000Y-43500000D03*
X20750000Y-31000000D03*
X20750000Y-30250000D03*
X21500000Y-31000000D03*
X20750000Y-29500000D03*
%TO.N,lora_reset*%
X32000000Y-57100000D03*
X23545000Y-49705000D03*
%TO.N,A15*%
X25585000Y-49665000D03*
X31880000Y-51650000D03*
%TO.N,A1*%
X21600000Y-58750000D03*
%TO.N,C15*%
X23750000Y-65500000D03*
X24500000Y-53400000D03*
%TD*%
D30*
%TO.N,Batt_+*%
X35324786Y-31224786D02*
X35050000Y-30950000D01*
X35471232Y-32471232D02*
X35471232Y-31578339D01*
X35471231Y-31578339D02*
G75*
G03*
X35324786Y-31224786I-500001J0D01*
G01*
%TO.N,B1*%
X42080000Y-37600000D02*
X42080000Y-45217784D01*
X41787107Y-45924891D02*
X34952893Y-52759105D01*
X34660000Y-53466212D02*
X34660000Y-56660000D01*
X41787107Y-45924891D02*
G75*
G03*
X42080000Y-45217784I-707106J707106D01*
G01*
X34952893Y-52759105D02*
G75*
G03*
X34660000Y-53466212I707106J-707106D01*
G01*
D31*
%TO.N,C14*%
X24250000Y-52300000D02*
X22442893Y-54107107D01*
X22150000Y-64350000D02*
X21500000Y-65000000D01*
X22150000Y-54814214D02*
X22150000Y-64350000D01*
X22150001Y-54814214D02*
G75*
G02*
X22442894Y-54107108I999993J3D01*
G01*
D30*
%TO.N,B0*%
X37657107Y-44057107D02*
X36902893Y-43302893D01*
X37950000Y-47735786D02*
X37950000Y-44764214D01*
X33999713Y-57180818D02*
X33999713Y-52514501D01*
X34292606Y-51807394D02*
X37657107Y-48442893D01*
X36195786Y-43010000D02*
X36060000Y-43010000D01*
X33999714Y-52514501D02*
G75*
G02*
X34292607Y-51807395I999993J3D01*
G01*
X36195786Y-43010001D02*
G75*
G02*
X36902892Y-43302894I3J-999993D01*
G01*
X37657107Y-48442893D02*
G75*
G03*
X37950000Y-47735786I-707106J707106D01*
G01*
X37657107Y-44057107D02*
G75*
G02*
X37950000Y-44764214I-707106J-707106D01*
G01*
D32*
%TO.N,B7*%
X34586091Y-47113909D02*
X27513909Y-47113909D01*
X27513909Y-47113909D02*
X27500000Y-47100000D01*
%TO.N,B5*%
X34975000Y-48285141D02*
X27614865Y-48285141D01*
X27614865Y-48285141D02*
X27500000Y-48400006D01*
D33*
%TO.N,A6*%
X32892627Y-55102627D02*
X30852893Y-53062893D01*
X30145786Y-52770000D02*
X27714214Y-52770000D01*
X33185520Y-56654480D02*
X33185520Y-55809734D01*
X24500000Y-49555786D02*
X24500000Y-46984214D01*
X27007107Y-52477107D02*
X24792893Y-50262893D01*
X24792893Y-46277107D02*
X25720000Y-45350000D01*
X32892627Y-55102627D02*
G75*
G02*
X33185520Y-55809734I-707106J-707106D01*
G01*
X24500001Y-46984214D02*
G75*
G02*
X24792894Y-46277108I999993J3D01*
G01*
X30852893Y-53062893D02*
G75*
G03*
X30145786Y-52770000I-707106J-707106D01*
G01*
X27714214Y-52769999D02*
G75*
G02*
X27007108Y-52477106I-3J999993D01*
G01*
X24500001Y-49555786D02*
G75*
G03*
X24792894Y-50262892I999993J-3D01*
G01*
D31*
%TO.N,C13*%
X24400020Y-51349980D02*
X24757108Y-51707068D01*
X25050001Y-64550001D02*
X25500000Y-65000000D01*
X25050001Y-52414175D02*
X25050001Y-64550001D01*
X25050000Y-52414175D02*
G75*
G03*
X24757107Y-51707069I-999993J3D01*
G01*
D32*
%TO.N,Reset*%
X31300000Y-51300000D02*
X28394214Y-51300000D01*
X33000000Y-45530000D02*
X33000000Y-46000000D01*
X32482893Y-45012893D02*
X33000000Y-45530000D01*
X27012893Y-46337107D02*
X28337107Y-45012893D01*
X26720000Y-49625786D02*
X26720000Y-47044214D01*
X27687107Y-51007107D02*
X27012893Y-50332893D01*
X29044214Y-44720000D02*
X31775786Y-44720000D01*
X26720001Y-49625786D02*
G75*
G03*
X27012894Y-50332892I999993J-3D01*
G01*
X27012893Y-46337107D02*
G75*
G03*
X26720000Y-47044214I707106J-707106D01*
G01*
X28337107Y-45012893D02*
G75*
G02*
X29044214Y-44720000I707106J-707106D01*
G01*
X31775786Y-44720001D02*
G75*
G02*
X32482892Y-45012894I3J-999993D01*
G01*
X28394214Y-51299999D02*
G75*
G02*
X27687108Y-51007106I-3J999993D01*
G01*
D31*
%TO.N,A10*%
X37410001Y-53980001D02*
X37410001Y-60802699D01*
D32*
X35612699Y-63014215D02*
X36626914Y-62000000D01*
D31*
X37400000Y-53970000D02*
X37410001Y-53980001D01*
D32*
X29956883Y-63600001D02*
X34198486Y-63600001D01*
D31*
X37117108Y-61509806D02*
X36626914Y-62000000D01*
D32*
X35612699Y-63014215D02*
G75*
G02*
X34198486Y-63600001I-1414213J1414214D01*
G01*
D31*
X37117108Y-61509806D02*
G75*
G03*
X37410001Y-60802699I-707106J707106D01*
G01*
%TO.N,A9*%
X36860000Y-60690000D02*
X36540000Y-61010000D01*
X36860000Y-54470000D02*
X36860000Y-60690000D01*
D32*
%TO.N,B4*%
X35011090Y-47638910D02*
X27611093Y-47638910D01*
X35061091Y-47588909D02*
X35011090Y-47638910D01*
X27611093Y-47638910D02*
X27500000Y-47750003D01*
%TO.N,B6*%
X27600009Y-48950000D02*
X27500000Y-49050009D01*
X34475000Y-48950000D02*
X27600009Y-48950000D01*
D34*
%TO.N,can_L*%
X16200010Y-35585796D02*
X16200010Y-22714204D01*
X19500000Y-37000000D02*
X17614214Y-37000000D01*
X16907107Y-36707107D02*
X16492903Y-36292903D01*
D31*
X21250000Y-38240000D02*
X20740000Y-38240000D01*
D34*
X16492903Y-22007097D02*
X19250000Y-19250000D01*
D31*
X20740000Y-38240000D02*
X19500000Y-37000000D01*
D34*
X16200011Y-35585796D02*
G75*
G03*
X16492904Y-36292902I999993J-3D01*
G01*
X16492903Y-22007097D02*
G75*
G03*
X16200010Y-22714204I707106J-707106D01*
G01*
X16907107Y-36707107D02*
G75*
G03*
X17614214Y-37000000I707106J707106D01*
G01*
%TO.N,can_H*%
X16492893Y-83752893D02*
X19250000Y-86510000D01*
D31*
X21250000Y-39260000D02*
X20740000Y-39260000D01*
X20740000Y-39260000D02*
X19500000Y-40500000D01*
D34*
X16200000Y-83045786D02*
X16200000Y-41914214D01*
X16907107Y-40792893D02*
X16492893Y-41207107D01*
X19500000Y-40500000D02*
X17614214Y-40500000D01*
X17614214Y-40500001D02*
G75*
G03*
X16907108Y-40792894I-3J-999993D01*
G01*
X16492893Y-83752893D02*
G75*
G02*
X16200000Y-83045786I707106J707106D01*
G01*
X16492893Y-41207107D02*
G75*
G03*
X16200000Y-41914214I707106J-707106D01*
G01*
D31*
%TO.N,A8*%
X36310000Y-54205998D02*
X42214213Y-48301785D01*
X36310000Y-54900000D02*
X36310000Y-54205998D01*
X42800000Y-46887571D02*
X42800000Y-45590000D01*
X42214213Y-48301785D02*
G75*
G03*
X42800000Y-46887571I-1414213J1414214D01*
G01*
D32*
%TO.N,en*%
X33950000Y-31600000D02*
X32846447Y-30496447D01*
X32492893Y-30350000D02*
X32250000Y-30350000D01*
X32846447Y-30496447D02*
G75*
G03*
X32492893Y-30350000I-353553J-353550D01*
G01*
D33*
%TO.N,lora_reset*%
X23500000Y-49000000D02*
X23500000Y-49660000D01*
X29677026Y-53230000D02*
X27480000Y-53230000D01*
X23545000Y-49705000D02*
X26777107Y-52937107D01*
X30384133Y-53522893D02*
X31707107Y-54845867D01*
X32000000Y-55552974D02*
X32000000Y-57100000D01*
X23500000Y-49660000D02*
X23545000Y-49705000D01*
X26777107Y-52937107D02*
G75*
G03*
X27484214Y-53230000I707106J707106D01*
G01*
X31707107Y-54845867D02*
G75*
G02*
X32000000Y-55552974I-707106J-707106D01*
G01*
X29677026Y-53230001D02*
G75*
G02*
X30384132Y-53522894I3J-999993D01*
G01*
D32*
%TO.N,A15*%
X31880000Y-51650000D02*
X31630001Y-51899999D01*
X25585000Y-49665000D02*
X25500000Y-49580000D01*
X25500000Y-49580000D02*
X25500000Y-49000000D01*
X31630001Y-51899999D02*
X28234213Y-51899999D01*
X27527106Y-51607106D02*
X25585000Y-49665000D01*
X28234213Y-51899998D02*
G75*
G02*
X27527107Y-51607105I-3J999993D01*
G01*
D31*
%TO.N,A1*%
X21600000Y-58750000D02*
X20085787Y-60264213D01*
X19500000Y-61678427D02*
X19500000Y-65000000D01*
X19500001Y-61678427D02*
G75*
G02*
X20085788Y-60264214I1999999J0D01*
G01*
%TO.N,C15*%
X24500000Y-53400000D02*
X23352893Y-54547107D01*
X23060000Y-55254214D02*
X23060000Y-64560000D01*
X23060000Y-64560000D02*
X23500000Y-65000000D01*
X23352893Y-54547107D02*
G75*
G03*
X23060000Y-55254214I707106J-707106D01*
G01*
%TD*%
%TO.N,GND*%
D33*
X19651000Y-48849001D02*
X19650999Y-50205000D01*
X19669906Y-50263191D01*
X19719406Y-50299155D01*
X19749999Y-50304000D01*
X20151000Y-50304000D01*
X20151000Y-59563311D01*
X19831241Y-59883070D01*
X19830422Y-59883477D01*
X19809754Y-59897226D01*
X19806527Y-59900015D01*
X19800310Y-59905876D01*
X19704132Y-60004718D01*
X19696292Y-60009838D01*
X19677372Y-60025913D01*
X19674494Y-60029060D01*
X19669009Y-60035603D01*
X19650101Y-60060244D01*
X19647751Y-60062659D01*
X19637383Y-60075240D01*
X19625880Y-60091810D01*
X19503440Y-60251377D01*
X19493928Y-60259544D01*
X19477270Y-60277949D01*
X19474827Y-60281445D01*
X19470240Y-60288653D01*
X19456272Y-60312846D01*
X19456119Y-60313046D01*
X19447288Y-60326763D01*
X19435924Y-60348091D01*
X19334253Y-60524189D01*
X19325888Y-60533529D01*
X19311778Y-60553945D01*
X19309812Y-60557730D01*
X19306203Y-60565479D01*
X19295511Y-60591293D01*
X19295387Y-60591507D01*
X19288421Y-60606259D01*
X19279940Y-60628882D01*
X19202120Y-60816757D01*
X19195049Y-60827103D01*
X19183723Y-60849188D01*
X19182268Y-60853197D01*
X19179703Y-60861348D01*
X19172472Y-60888331D01*
X19172372Y-60888574D01*
X19167394Y-60904103D01*
X19161934Y-60927661D01*
X19109309Y-61124056D01*
X19103646Y-61135244D01*
X19095300Y-61158621D01*
X19094381Y-61162785D01*
X19092902Y-61171199D01*
X19089255Y-61198902D01*
X19089190Y-61199144D01*
X19086281Y-61215190D01*
X19083942Y-61239261D01*
X19057809Y-61437766D01*
X19054587Y-61446556D01*
X19049032Y-61470745D01*
X19048606Y-61474989D01*
X19048120Y-61483524D01*
X19047695Y-61514583D01*
X19047256Y-61517922D01*
X19046467Y-61534209D01*
X19047153Y-61554344D01*
X19045132Y-61702256D01*
X19046254Y-61718527D01*
X19050500Y-61746381D01*
X19050501Y-63695500D01*
X18750000Y-63695500D01*
X18730686Y-63697402D01*
X18652045Y-63713045D01*
X18616357Y-63727828D01*
X18549688Y-63772375D01*
X18522375Y-63799688D01*
X18499706Y-63833615D01*
X18477273Y-63800042D01*
X18449958Y-63772727D01*
X18383451Y-63728289D01*
X18347764Y-63713507D01*
X18269314Y-63697902D01*
X18250000Y-63696000D01*
X17750000Y-63696000D01*
X17691809Y-63714907D01*
X17655845Y-63764407D01*
X17651000Y-63795000D01*
X17650999Y-65151000D01*
X17349000Y-65150999D01*
X17349001Y-63795000D01*
X17330094Y-63736809D01*
X17280594Y-63700845D01*
X17250001Y-63696000D01*
X16849000Y-63696000D01*
X16849000Y-50304000D01*
X17250000Y-50304000D01*
X17308191Y-50285093D01*
X17344155Y-50235593D01*
X17349000Y-50205000D01*
X17349001Y-48849000D01*
X17651000Y-48849001D01*
X17650999Y-50205000D01*
X17669906Y-50263191D01*
X17719406Y-50299155D01*
X17749999Y-50304000D01*
X18250000Y-50304000D01*
X18269314Y-50302098D01*
X18347764Y-50286493D01*
X18383451Y-50271711D01*
X18449958Y-50227273D01*
X18477273Y-50199958D01*
X18500000Y-50165944D01*
X18522727Y-50199958D01*
X18550042Y-50227273D01*
X18616549Y-50271711D01*
X18652236Y-50286493D01*
X18730686Y-50302098D01*
X18750000Y-50304000D01*
X19250000Y-50304000D01*
X19308191Y-50285093D01*
X19344155Y-50235593D01*
X19349000Y-50205000D01*
X19349001Y-48849000D01*
X19651000Y-48849001D01*
%TA.AperFunction,Conductor*%
G36*
X19651000Y-48849001D02*
G01*
X19650999Y-50205000D01*
X19669906Y-50263191D01*
X19719406Y-50299155D01*
X19749999Y-50304000D01*
X20151000Y-50304000D01*
X20151000Y-59563311D01*
X19831241Y-59883070D01*
X19830422Y-59883477D01*
X19809754Y-59897226D01*
X19806527Y-59900015D01*
X19800310Y-59905876D01*
X19704132Y-60004718D01*
X19696292Y-60009838D01*
X19677372Y-60025913D01*
X19674494Y-60029060D01*
X19669009Y-60035603D01*
X19650101Y-60060244D01*
X19647751Y-60062659D01*
X19637383Y-60075240D01*
X19625880Y-60091810D01*
X19503440Y-60251377D01*
X19493928Y-60259544D01*
X19477270Y-60277949D01*
X19474827Y-60281445D01*
X19470240Y-60288653D01*
X19456272Y-60312846D01*
X19456119Y-60313046D01*
X19447288Y-60326763D01*
X19435924Y-60348091D01*
X19334253Y-60524189D01*
X19325888Y-60533529D01*
X19311778Y-60553945D01*
X19309812Y-60557730D01*
X19306203Y-60565479D01*
X19295511Y-60591293D01*
X19295387Y-60591507D01*
X19288421Y-60606259D01*
X19279940Y-60628882D01*
X19202120Y-60816757D01*
X19195049Y-60827103D01*
X19183723Y-60849188D01*
X19182268Y-60853197D01*
X19179703Y-60861348D01*
X19172472Y-60888331D01*
X19172372Y-60888574D01*
X19167394Y-60904103D01*
X19161934Y-60927661D01*
X19109309Y-61124056D01*
X19103646Y-61135244D01*
X19095300Y-61158621D01*
X19094381Y-61162785D01*
X19092902Y-61171199D01*
X19089255Y-61198902D01*
X19089190Y-61199144D01*
X19086281Y-61215190D01*
X19083942Y-61239261D01*
X19057809Y-61437766D01*
X19054587Y-61446556D01*
X19049032Y-61470745D01*
X19048606Y-61474989D01*
X19048120Y-61483524D01*
X19047695Y-61514583D01*
X19047256Y-61517922D01*
X19046467Y-61534209D01*
X19047153Y-61554344D01*
X19045132Y-61702256D01*
X19046254Y-61718527D01*
X19050500Y-61746381D01*
X19050501Y-63695500D01*
X18750000Y-63695500D01*
X18730686Y-63697402D01*
X18652045Y-63713045D01*
X18616357Y-63727828D01*
X18549688Y-63772375D01*
X18522375Y-63799688D01*
X18499706Y-63833615D01*
X18477273Y-63800042D01*
X18449958Y-63772727D01*
X18383451Y-63728289D01*
X18347764Y-63713507D01*
X18269314Y-63697902D01*
X18250000Y-63696000D01*
X17750000Y-63696000D01*
X17691809Y-63714907D01*
X17655845Y-63764407D01*
X17651000Y-63795000D01*
X17650999Y-65151000D01*
X17349000Y-65150999D01*
X17349001Y-63795000D01*
X17330094Y-63736809D01*
X17280594Y-63700845D01*
X17250001Y-63696000D01*
X16849000Y-63696000D01*
X16849000Y-50304000D01*
X17250000Y-50304000D01*
X17308191Y-50285093D01*
X17344155Y-50235593D01*
X17349000Y-50205000D01*
X17349001Y-48849000D01*
X17651000Y-48849001D01*
X17650999Y-50205000D01*
X17669906Y-50263191D01*
X17719406Y-50299155D01*
X17749999Y-50304000D01*
X18250000Y-50304000D01*
X18269314Y-50302098D01*
X18347764Y-50286493D01*
X18383451Y-50271711D01*
X18449958Y-50227273D01*
X18477273Y-50199958D01*
X18500000Y-50165944D01*
X18522727Y-50199958D01*
X18550042Y-50227273D01*
X18616549Y-50271711D01*
X18652236Y-50286493D01*
X18730686Y-50302098D01*
X18750000Y-50304000D01*
X19250000Y-50304000D01*
X19308191Y-50285093D01*
X19344155Y-50235593D01*
X19349000Y-50205000D01*
X19349001Y-48849000D01*
X19651000Y-48849001D01*
G37*
%TD.AperFunction*%
%TD*%
%TO.N,Batt_Pyro*%
X42856665Y-16110443D02*
X42836514Y-16131901D01*
X42759507Y-16243320D01*
X42746556Y-16269756D01*
X42705716Y-16398892D01*
X42701111Y-16427966D01*
X42700047Y-16563403D01*
X42704195Y-16592547D01*
X42743002Y-16722308D01*
X42755536Y-16748943D01*
X42830783Y-16861558D01*
X42850594Y-16883331D01*
X42955628Y-16968842D01*
X42980966Y-16983827D01*
X43106500Y-17034673D01*
X43135123Y-17041545D01*
X43270058Y-17053232D01*
X43299437Y-17051383D01*
X43431844Y-17022877D01*
X43459382Y-17012472D01*
X43577553Y-16946293D01*
X43600813Y-16928251D01*
X43694301Y-16830250D01*
X43711227Y-16806166D01*
X43771766Y-16685008D01*
X43780862Y-16657012D01*
X43803100Y-16523410D01*
X43804441Y-16507930D01*
X43804497Y-16500775D01*
X43803400Y-16485282D01*
X43783264Y-16351347D01*
X43774608Y-16323210D01*
X43715979Y-16201116D01*
X43699433Y-16176770D01*
X43607496Y-16077313D01*
X43584522Y-16058907D01*
X43567466Y-16049000D01*
X47323206Y-16049000D01*
X47907204Y-16632999D01*
X47961721Y-16660776D01*
X48022153Y-16651205D01*
X48047212Y-16632999D01*
X48288335Y-16391876D01*
X48501173Y-16604714D01*
X48715387Y-16818927D01*
X48769904Y-16846705D01*
X48830336Y-16837134D01*
X48855395Y-16818928D01*
X49250000Y-16424323D01*
X49644605Y-16818928D01*
X49699122Y-16846705D01*
X49759554Y-16837134D01*
X49784612Y-16818928D01*
X49998826Y-16604715D01*
X50211665Y-16391876D01*
X50877052Y-17057263D01*
X50931569Y-17085040D01*
X50992001Y-17075469D01*
X51017060Y-17057263D01*
X51287394Y-16786929D01*
X51511394Y-16988620D01*
X51713071Y-17212606D01*
X51442737Y-17482940D01*
X51414960Y-17537457D01*
X51424531Y-17597889D01*
X51442737Y-17622948D01*
X52108124Y-18288335D01*
X51895286Y-18501173D01*
X51681073Y-18715387D01*
X51653295Y-18769904D01*
X51662866Y-18830336D01*
X51681072Y-18855395D01*
X52075677Y-19250000D01*
X51681072Y-19644605D01*
X51653295Y-19699122D01*
X51662866Y-19759554D01*
X51681072Y-19784612D01*
X51895285Y-19998826D01*
X52108124Y-20211665D01*
X51867001Y-20452788D01*
X51839224Y-20507305D01*
X51848795Y-20567737D01*
X51867001Y-20592796D01*
X52451000Y-21176794D01*
X52451000Y-85089128D01*
X52433420Y-85044951D01*
X52428929Y-85035231D01*
X52256576Y-84709713D01*
X52251061Y-84700535D01*
X52044561Y-84395535D01*
X52038087Y-84387006D01*
X51799854Y-84106091D01*
X51792497Y-84098311D01*
X51525319Y-83844769D01*
X51517165Y-83837829D01*
X51224168Y-83614625D01*
X51215312Y-83608607D01*
X50899922Y-83418352D01*
X50890467Y-83413325D01*
X50556375Y-83258245D01*
X50546434Y-83254268D01*
X50197547Y-83136176D01*
X50187233Y-83133297D01*
X49827634Y-83053576D01*
X49817071Y-83051827D01*
X49450964Y-83011408D01*
X49440273Y-83010810D01*
X49071943Y-83010167D01*
X49061250Y-83010728D01*
X48695005Y-83049868D01*
X48684435Y-83051580D01*
X48324559Y-83130046D01*
X48314236Y-83132889D01*
X47964939Y-83249762D01*
X47954983Y-83253704D01*
X47620351Y-83407617D01*
X47610879Y-83412611D01*
X47294828Y-83601765D01*
X47285951Y-83607752D01*
X46992176Y-83829932D01*
X46983998Y-83836844D01*
X46715937Y-84089452D01*
X46708553Y-84097206D01*
X46469341Y-84377287D01*
X46462837Y-84385793D01*
X46255273Y-84690070D01*
X46249726Y-84699229D01*
X46076238Y-85024144D01*
X46071713Y-85033848D01*
X45934330Y-85375598D01*
X45930880Y-85385734D01*
X45831209Y-85740323D01*
X45828873Y-85750773D01*
X45768081Y-86114053D01*
X45766887Y-86124694D01*
X45745685Y-86492414D01*
X45745648Y-86503122D01*
X45764283Y-86870981D01*
X45765402Y-86881630D01*
X45823656Y-87245325D01*
X45825919Y-87255791D01*
X45923112Y-87611067D01*
X45926492Y-87621227D01*
X46061485Y-87963928D01*
X46065942Y-87973663D01*
X46237158Y-88299781D01*
X46242641Y-88308979D01*
X46448076Y-88614698D01*
X46454520Y-88623249D01*
X46691770Y-88904993D01*
X46699100Y-88912799D01*
X46965391Y-89167272D01*
X46973521Y-89174240D01*
X47265738Y-89398466D01*
X47274573Y-89404515D01*
X47589296Y-89595870D01*
X47598732Y-89600930D01*
X47833706Y-89711000D01*
X43329867Y-89711000D01*
X43427553Y-89656293D01*
X43450813Y-89638251D01*
X43544301Y-89540250D01*
X43561227Y-89516166D01*
X43621766Y-89395008D01*
X43630862Y-89367012D01*
X43653100Y-89233410D01*
X43654441Y-89217930D01*
X43654497Y-89210775D01*
X43653400Y-89195282D01*
X43633264Y-89061347D01*
X43624608Y-89033210D01*
X43565979Y-88911116D01*
X43549433Y-88886770D01*
X43457496Y-88787313D01*
X43434522Y-88768907D01*
X43317405Y-88700880D01*
X43290036Y-88690044D01*
X43158093Y-88659461D01*
X43128746Y-88657151D01*
X42993644Y-88666717D01*
X42964916Y-88673139D01*
X42838599Y-88722007D01*
X42813029Y-88736592D01*
X42706665Y-88820443D01*
X42686514Y-88841901D01*
X42609507Y-88953320D01*
X42596556Y-88979756D01*
X42555716Y-89108892D01*
X42551111Y-89137966D01*
X42550047Y-89273403D01*
X42554195Y-89302547D01*
X42593002Y-89432308D01*
X42605536Y-89458943D01*
X42680783Y-89571558D01*
X42700594Y-89593331D01*
X42805628Y-89678842D01*
X42830966Y-89693827D01*
X42873365Y-89711000D01*
X31059752Y-89711000D01*
X30973822Y-89693908D01*
X30909243Y-89650757D01*
X30866092Y-89586178D01*
X30849000Y-89500248D01*
X30849000Y-87870862D01*
X30900368Y-87927315D01*
X30912234Y-87938380D01*
X31105788Y-88091239D01*
X31119301Y-88100217D01*
X31335221Y-88219412D01*
X31350019Y-88226063D01*
X31466953Y-88267471D01*
X31528118Y-88269072D01*
X31578542Y-88234416D01*
X31599000Y-88174149D01*
X31599000Y-87260000D01*
X33401000Y-87260000D01*
X33401000Y-88178189D01*
X33419907Y-88236380D01*
X33469407Y-88272344D01*
X33530593Y-88272344D01*
X33539476Y-88268978D01*
X33750665Y-88177151D01*
X33764963Y-88169484D01*
X33972042Y-88035518D01*
X33984896Y-88025620D01*
X34167315Y-87859632D01*
X34178380Y-87847766D01*
X34247893Y-87759747D01*
X34400368Y-87927315D01*
X34412234Y-87938380D01*
X34605788Y-88091239D01*
X34619301Y-88100217D01*
X34835221Y-88219412D01*
X34850019Y-88226063D01*
X34966953Y-88267471D01*
X35028118Y-88269072D01*
X35078542Y-88234416D01*
X35099000Y-88174149D01*
X35099000Y-87260000D01*
X36901000Y-87260000D01*
X36901000Y-88178189D01*
X36919907Y-88236380D01*
X36969407Y-88272344D01*
X37030593Y-88272344D01*
X37039476Y-88268978D01*
X37250665Y-88177151D01*
X37264963Y-88169484D01*
X37472042Y-88035518D01*
X37484896Y-88025620D01*
X37667315Y-87859632D01*
X37678380Y-87847766D01*
X37831239Y-87654212D01*
X37840217Y-87640699D01*
X37959412Y-87424779D01*
X37966063Y-87409981D01*
X38007471Y-87293047D01*
X38009072Y-87231882D01*
X37974416Y-87181458D01*
X37914149Y-87161000D01*
X37000000Y-87161000D01*
X36941809Y-87179907D01*
X36905845Y-87229407D01*
X36901000Y-87260000D01*
X35099000Y-87260000D01*
X35080093Y-87201809D01*
X35030593Y-87165845D01*
X35000000Y-87161000D01*
X33500000Y-87161000D01*
X33441809Y-87179907D01*
X33405845Y-87229407D01*
X33401000Y-87260000D01*
X31599000Y-87260000D01*
X31599000Y-85680526D01*
X38200500Y-85680526D01*
X38200500Y-86801317D01*
X38201217Y-86813211D01*
X38216582Y-86940179D01*
X38222256Y-86963279D01*
X38282174Y-87121849D01*
X38293195Y-87142929D01*
X38389209Y-87282630D01*
X38404939Y-87300473D01*
X38531504Y-87413238D01*
X38551037Y-87426814D01*
X38700846Y-87506134D01*
X38723053Y-87514658D01*
X38887459Y-87555954D01*
X38905361Y-87558742D01*
X38914310Y-87559305D01*
X38920526Y-87559500D01*
X40041317Y-87559500D01*
X40053211Y-87558783D01*
X40180179Y-87543418D01*
X40203279Y-87537744D01*
X40361849Y-87477826D01*
X40382929Y-87466805D01*
X40522630Y-87370791D01*
X40540473Y-87355061D01*
X40653238Y-87228496D01*
X40666814Y-87208963D01*
X40746134Y-87059154D01*
X40754658Y-87036947D01*
X40795954Y-86872541D01*
X40798742Y-86854639D01*
X40799305Y-86845690D01*
X40799500Y-86839474D01*
X40799500Y-86064740D01*
X40830783Y-86111558D01*
X40850594Y-86133331D01*
X40955628Y-86218842D01*
X40980966Y-86233827D01*
X41106500Y-86284673D01*
X41135123Y-86291545D01*
X41270058Y-86303232D01*
X41299437Y-86301383D01*
X41431844Y-86272877D01*
X41459382Y-86262472D01*
X41577553Y-86196293D01*
X41600813Y-86178251D01*
X41694301Y-86080250D01*
X41711227Y-86056166D01*
X41771766Y-85935008D01*
X41780862Y-85907012D01*
X41803100Y-85773410D01*
X41804441Y-85757930D01*
X41804497Y-85750775D01*
X41803400Y-85735282D01*
X41783264Y-85601347D01*
X41774608Y-85573210D01*
X41715979Y-85451116D01*
X41699433Y-85426770D01*
X41651594Y-85375018D01*
X41694301Y-85330250D01*
X41711227Y-85306166D01*
X41771766Y-85185008D01*
X41780862Y-85157012D01*
X41803100Y-85023410D01*
X41804441Y-85007930D01*
X41804497Y-85000775D01*
X41803400Y-84985282D01*
X41783264Y-84851347D01*
X41774608Y-84823210D01*
X41737822Y-84746604D01*
X41856500Y-84794673D01*
X41885123Y-84801545D01*
X42020058Y-84813232D01*
X42049437Y-84811383D01*
X42181844Y-84782877D01*
X42209382Y-84772472D01*
X42327553Y-84706293D01*
X42350813Y-84688251D01*
X42444301Y-84590250D01*
X42461227Y-84566166D01*
X42521766Y-84445008D01*
X42530862Y-84417012D01*
X42553100Y-84283410D01*
X42554441Y-84267930D01*
X42554497Y-84260775D01*
X42553400Y-84245282D01*
X42533264Y-84111347D01*
X42524608Y-84083210D01*
X42465979Y-83961116D01*
X42449433Y-83936770D01*
X42401594Y-83885018D01*
X42444301Y-83840250D01*
X42461227Y-83816166D01*
X42521766Y-83695008D01*
X42530862Y-83667012D01*
X42553100Y-83533410D01*
X42554441Y-83517930D01*
X42554497Y-83510775D01*
X42553400Y-83495282D01*
X42533264Y-83361347D01*
X42524608Y-83333210D01*
X42465979Y-83211116D01*
X42449433Y-83186770D01*
X42401594Y-83135018D01*
X42444301Y-83090250D01*
X42461227Y-83066166D01*
X42521766Y-82945008D01*
X42530862Y-82917012D01*
X42553100Y-82783410D01*
X42554441Y-82767930D01*
X42554497Y-82760775D01*
X42553400Y-82745282D01*
X42533264Y-82611347D01*
X42524608Y-82583210D01*
X42465979Y-82461116D01*
X42449433Y-82436770D01*
X42357496Y-82337313D01*
X42334522Y-82318907D01*
X42217405Y-82250880D01*
X42190036Y-82240044D01*
X42058093Y-82209461D01*
X42028746Y-82207151D01*
X41893644Y-82216717D01*
X41864916Y-82223139D01*
X41738599Y-82272007D01*
X41713029Y-82286592D01*
X41606665Y-82370443D01*
X41586514Y-82391901D01*
X41509507Y-82503320D01*
X41496556Y-82529756D01*
X41455716Y-82658892D01*
X41451111Y-82687966D01*
X41450047Y-82823403D01*
X41454195Y-82852547D01*
X41493002Y-82982308D01*
X41505536Y-83008943D01*
X41520917Y-83031962D01*
X41467405Y-83000880D01*
X41440036Y-82990044D01*
X41308093Y-82959461D01*
X41278746Y-82957151D01*
X41143644Y-82966717D01*
X41114916Y-82973139D01*
X40988599Y-83022007D01*
X40963029Y-83036592D01*
X40856665Y-83120443D01*
X40836514Y-83141901D01*
X40759507Y-83253320D01*
X40746556Y-83279756D01*
X40705716Y-83408892D01*
X40701111Y-83437966D01*
X40700047Y-83573403D01*
X40704195Y-83602547D01*
X40743002Y-83732308D01*
X40755536Y-83758943D01*
X40770917Y-83781962D01*
X40717405Y-83750880D01*
X40690036Y-83740044D01*
X40558093Y-83709461D01*
X40528746Y-83707151D01*
X40393644Y-83716717D01*
X40364916Y-83723139D01*
X40238599Y-83772007D01*
X40213029Y-83786592D01*
X40106665Y-83870443D01*
X40086514Y-83891901D01*
X40009507Y-84003320D01*
X39996556Y-84029756D01*
X39955716Y-84158892D01*
X39951111Y-84187966D01*
X39950047Y-84323403D01*
X39954195Y-84352547D01*
X39993002Y-84482308D01*
X40005536Y-84508943D01*
X40080783Y-84621558D01*
X40088383Y-84629911D01*
X40086514Y-84631901D01*
X40009507Y-84743320D01*
X39996556Y-84769756D01*
X39955716Y-84898892D01*
X39951111Y-84927966D01*
X39950855Y-84960500D01*
X38958683Y-84960500D01*
X38946789Y-84961217D01*
X38819821Y-84976582D01*
X38796721Y-84982256D01*
X38638151Y-85042174D01*
X38617071Y-85053195D01*
X38477370Y-85149209D01*
X38459527Y-85164939D01*
X38346762Y-85291504D01*
X38333186Y-85311037D01*
X38253866Y-85460846D01*
X38245342Y-85483053D01*
X38204046Y-85647459D01*
X38201258Y-85665361D01*
X38200695Y-85674310D01*
X38200500Y-85680526D01*
X31599000Y-85680526D01*
X31599000Y-84345851D01*
X33401000Y-84345851D01*
X33401000Y-85260000D01*
X33419907Y-85318191D01*
X33469407Y-85354155D01*
X33500000Y-85359000D01*
X35000000Y-85359000D01*
X35058191Y-85340093D01*
X35094155Y-85290593D01*
X35099000Y-85260000D01*
X35099000Y-84345851D01*
X36901000Y-84345851D01*
X36901000Y-85260000D01*
X36919907Y-85318191D01*
X36969407Y-85354155D01*
X37000000Y-85359000D01*
X37918189Y-85359000D01*
X37976380Y-85340093D01*
X38012344Y-85290593D01*
X38012344Y-85229407D01*
X38008978Y-85220524D01*
X37917151Y-85009335D01*
X37909484Y-84995037D01*
X37775518Y-84787958D01*
X37765620Y-84775104D01*
X37599632Y-84592685D01*
X37587766Y-84581620D01*
X37394212Y-84428761D01*
X37380699Y-84419783D01*
X37164779Y-84300588D01*
X37149981Y-84293937D01*
X37033047Y-84252529D01*
X36971882Y-84250928D01*
X36921458Y-84285584D01*
X36901000Y-84345851D01*
X35099000Y-84345851D01*
X35099000Y-84341811D01*
X35080093Y-84283620D01*
X35030593Y-84247656D01*
X34969407Y-84247656D01*
X34960524Y-84251022D01*
X34749335Y-84342849D01*
X34735037Y-84350516D01*
X34527958Y-84484482D01*
X34515104Y-84494380D01*
X34332685Y-84660368D01*
X34321620Y-84672234D01*
X34252107Y-84760253D01*
X34099632Y-84592685D01*
X34087766Y-84581620D01*
X33894212Y-84428761D01*
X33880699Y-84419783D01*
X33664779Y-84300588D01*
X33649981Y-84293937D01*
X33533047Y-84252529D01*
X33471882Y-84250928D01*
X33421458Y-84285584D01*
X33401000Y-84345851D01*
X31599000Y-84345851D01*
X31599000Y-84341811D01*
X31580093Y-84283620D01*
X31530593Y-84247656D01*
X31469407Y-84247656D01*
X31460524Y-84251022D01*
X31249335Y-84342849D01*
X31235037Y-84350516D01*
X31027958Y-84484482D01*
X31015104Y-84494380D01*
X30849000Y-84645523D01*
X30849000Y-81323403D01*
X33700047Y-81323403D01*
X33704195Y-81352547D01*
X33743002Y-81482308D01*
X33755536Y-81508943D01*
X33830783Y-81621558D01*
X33850594Y-81643331D01*
X33955628Y-81728842D01*
X33980966Y-81743827D01*
X34106500Y-81794673D01*
X34135123Y-81801545D01*
X34270058Y-81813232D01*
X34299437Y-81811383D01*
X34431844Y-81782877D01*
X34459382Y-81772472D01*
X34577553Y-81706293D01*
X34600813Y-81688251D01*
X34694301Y-81590250D01*
X34711227Y-81566166D01*
X34771766Y-81445008D01*
X34780862Y-81417012D01*
X34803100Y-81283410D01*
X34804441Y-81267930D01*
X34804497Y-81260775D01*
X34803400Y-81245282D01*
X34783264Y-81111347D01*
X34774608Y-81083210D01*
X34715979Y-80961116D01*
X34699433Y-80936770D01*
X34607496Y-80837313D01*
X34584522Y-80818907D01*
X34467405Y-80750880D01*
X34440036Y-80740044D01*
X34308093Y-80709461D01*
X34278746Y-80707151D01*
X34143644Y-80716717D01*
X34114916Y-80723139D01*
X33988599Y-80772007D01*
X33963029Y-80786592D01*
X33856665Y-80870443D01*
X33836514Y-80891901D01*
X33759507Y-81003320D01*
X33746556Y-81029756D01*
X33705716Y-81158892D01*
X33701111Y-81187966D01*
X33700047Y-81323403D01*
X30849000Y-81323403D01*
X30849000Y-80623402D01*
X42950049Y-80623402D01*
X42954197Y-80652546D01*
X42993004Y-80782307D01*
X43005538Y-80808942D01*
X43080785Y-80921557D01*
X43100596Y-80943330D01*
X43205630Y-81028841D01*
X43230968Y-81043826D01*
X43356502Y-81094672D01*
X43385125Y-81101544D01*
X43520060Y-81113231D01*
X43549439Y-81111382D01*
X43681846Y-81082876D01*
X43709384Y-81072471D01*
X43827555Y-81006292D01*
X43850815Y-80988250D01*
X43874839Y-80963067D01*
X43955630Y-81028841D01*
X43980968Y-81043826D01*
X44106502Y-81094672D01*
X44135125Y-81101544D01*
X44270060Y-81113231D01*
X44299439Y-81111382D01*
X44431846Y-81082876D01*
X44459384Y-81072471D01*
X44577555Y-81006292D01*
X44600815Y-80988250D01*
X44624839Y-80963067D01*
X44705630Y-81028841D01*
X44730968Y-81043826D01*
X44856502Y-81094672D01*
X44885125Y-81101544D01*
X45020060Y-81113231D01*
X45049439Y-81111382D01*
X45181846Y-81082876D01*
X45209384Y-81072471D01*
X45327555Y-81006292D01*
X45350815Y-80988250D01*
X45444303Y-80890249D01*
X45461229Y-80866165D01*
X45521768Y-80745007D01*
X45530864Y-80717011D01*
X45553102Y-80583409D01*
X45554443Y-80567929D01*
X45554499Y-80560774D01*
X45553402Y-80545281D01*
X45533266Y-80411346D01*
X45524610Y-80383209D01*
X45465981Y-80261115D01*
X45449435Y-80236769D01*
X45357498Y-80137312D01*
X45334524Y-80118906D01*
X45217407Y-80050879D01*
X45190038Y-80040043D01*
X45058095Y-80009460D01*
X45028748Y-80007150D01*
X44893646Y-80016716D01*
X44864918Y-80023138D01*
X44738601Y-80072006D01*
X44713031Y-80086591D01*
X44624863Y-80156097D01*
X44607498Y-80137312D01*
X44584524Y-80118906D01*
X44467407Y-80050879D01*
X44440038Y-80040043D01*
X44308095Y-80009460D01*
X44278748Y-80007150D01*
X44143646Y-80016716D01*
X44114918Y-80023138D01*
X43988601Y-80072006D01*
X43963031Y-80086591D01*
X43874863Y-80156097D01*
X43857498Y-80137312D01*
X43834524Y-80118906D01*
X43717407Y-80050879D01*
X43690038Y-80040043D01*
X43558095Y-80009460D01*
X43528748Y-80007150D01*
X43393646Y-80016716D01*
X43364918Y-80023138D01*
X43238601Y-80072006D01*
X43213031Y-80086591D01*
X43106667Y-80170442D01*
X43086516Y-80191900D01*
X43009509Y-80303319D01*
X42996558Y-80329755D01*
X42955718Y-80458891D01*
X42951113Y-80487965D01*
X42950049Y-80623402D01*
X30849000Y-80623402D01*
X30849000Y-79309752D01*
X30866092Y-79223822D01*
X30909243Y-79159243D01*
X30973822Y-79116092D01*
X31059752Y-79099000D01*
X46199997Y-79099000D01*
X46219311Y-79097098D01*
X46334116Y-79074262D01*
X46369804Y-79059479D01*
X46458820Y-79000000D01*
X46499997Y-79000000D01*
X46499997Y-78958823D01*
X46559476Y-78869807D01*
X46574259Y-78834119D01*
X46597095Y-78719314D01*
X46598997Y-78700000D01*
X46598997Y-77920526D01*
X47700500Y-77920526D01*
X47700500Y-79041316D01*
X47701217Y-79053210D01*
X47716582Y-79180178D01*
X47722256Y-79203278D01*
X47782174Y-79361848D01*
X47793195Y-79382928D01*
X47889209Y-79522629D01*
X47904939Y-79540472D01*
X48031504Y-79653238D01*
X48051037Y-79666814D01*
X48200846Y-79746134D01*
X48223053Y-79754658D01*
X48387459Y-79795954D01*
X48405361Y-79798742D01*
X48414310Y-79799305D01*
X48420526Y-79799500D01*
X49541316Y-79799500D01*
X49553210Y-79798783D01*
X49680178Y-79783418D01*
X49703278Y-79777744D01*
X49861848Y-79717826D01*
X49882928Y-79706805D01*
X50022629Y-79610791D01*
X50040472Y-79595061D01*
X50153238Y-79468496D01*
X50166814Y-79448963D01*
X50246134Y-79299154D01*
X50254658Y-79276947D01*
X50295954Y-79112541D01*
X50298742Y-79094639D01*
X50299305Y-79085690D01*
X50299500Y-79079474D01*
X50299500Y-77958684D01*
X50298783Y-77946790D01*
X50283418Y-77819822D01*
X50277744Y-77796722D01*
X50217826Y-77638152D01*
X50206805Y-77617072D01*
X50110791Y-77477371D01*
X50095061Y-77459528D01*
X49968496Y-77346762D01*
X49948963Y-77333186D01*
X49799154Y-77253866D01*
X49776947Y-77245342D01*
X49612541Y-77204046D01*
X49594639Y-77201258D01*
X49585690Y-77200695D01*
X49579474Y-77200500D01*
X48458684Y-77200500D01*
X48446790Y-77201217D01*
X48319822Y-77216582D01*
X48296722Y-77222256D01*
X48138152Y-77282174D01*
X48117072Y-77293195D01*
X47977371Y-77389209D01*
X47959528Y-77404939D01*
X47846762Y-77531504D01*
X47833186Y-77551037D01*
X47753866Y-77700846D01*
X47745342Y-77723053D01*
X47704046Y-77887459D01*
X47701258Y-77905361D01*
X47700695Y-77914310D01*
X47700500Y-77920526D01*
X46598997Y-77920526D01*
X46598997Y-74420526D01*
X47700500Y-74420526D01*
X47700500Y-75541316D01*
X47701217Y-75553210D01*
X47716582Y-75680178D01*
X47722256Y-75703278D01*
X47782174Y-75861848D01*
X47793195Y-75882928D01*
X47889209Y-76022629D01*
X47904939Y-76040472D01*
X48031504Y-76153238D01*
X48051037Y-76166814D01*
X48200846Y-76246134D01*
X48223053Y-76254658D01*
X48387459Y-76295954D01*
X48405361Y-76298742D01*
X48414310Y-76299305D01*
X48420526Y-76299500D01*
X49541316Y-76299500D01*
X49553210Y-76298783D01*
X49680178Y-76283418D01*
X49703278Y-76277744D01*
X49861848Y-76217826D01*
X49882928Y-76206805D01*
X50022629Y-76110791D01*
X50040472Y-76095061D01*
X50153238Y-75968496D01*
X50166814Y-75948963D01*
X50246134Y-75799154D01*
X50254658Y-75776947D01*
X50295954Y-75612541D01*
X50298742Y-75594639D01*
X50299305Y-75585690D01*
X50299500Y-75579474D01*
X50299500Y-74458684D01*
X50298783Y-74446790D01*
X50283418Y-74319822D01*
X50277744Y-74296722D01*
X50217826Y-74138152D01*
X50206805Y-74117072D01*
X50110791Y-73977371D01*
X50095061Y-73959528D01*
X49968496Y-73846762D01*
X49948963Y-73833186D01*
X49799154Y-73753866D01*
X49776947Y-73745342D01*
X49612541Y-73704046D01*
X49594639Y-73701258D01*
X49585690Y-73700695D01*
X49579474Y-73700500D01*
X48458684Y-73700500D01*
X48446790Y-73701217D01*
X48319822Y-73716582D01*
X48296722Y-73722256D01*
X48138152Y-73782174D01*
X48117072Y-73793195D01*
X47977371Y-73889209D01*
X47959528Y-73904939D01*
X47846762Y-74031504D01*
X47833186Y-74051037D01*
X47753866Y-74200846D01*
X47745342Y-74223053D01*
X47704046Y-74387459D01*
X47701258Y-74405361D01*
X47700695Y-74414310D01*
X47700500Y-74420526D01*
X46598997Y-74420526D01*
X46598997Y-70920526D01*
X47700500Y-70920526D01*
X47700500Y-72041316D01*
X47701217Y-72053210D01*
X47716582Y-72180178D01*
X47722256Y-72203278D01*
X47782174Y-72361848D01*
X47793195Y-72382928D01*
X47889209Y-72522629D01*
X47904939Y-72540472D01*
X48031504Y-72653238D01*
X48051037Y-72666814D01*
X48200846Y-72746134D01*
X48223053Y-72754658D01*
X48387459Y-72795954D01*
X48405361Y-72798742D01*
X48414310Y-72799305D01*
X48420526Y-72799500D01*
X49541316Y-72799500D01*
X49553210Y-72798783D01*
X49680178Y-72783418D01*
X49703278Y-72777744D01*
X49861848Y-72717826D01*
X49882928Y-72706805D01*
X50022629Y-72610791D01*
X50040472Y-72595061D01*
X50153238Y-72468496D01*
X50166814Y-72448963D01*
X50246134Y-72299154D01*
X50254658Y-72276947D01*
X50295954Y-72112541D01*
X50298742Y-72094639D01*
X50299305Y-72085690D01*
X50299500Y-72079474D01*
X50299500Y-70958684D01*
X50298783Y-70946790D01*
X50283418Y-70819822D01*
X50277744Y-70796722D01*
X50217826Y-70638152D01*
X50206805Y-70617072D01*
X50110791Y-70477371D01*
X50095061Y-70459528D01*
X49968496Y-70346762D01*
X49948963Y-70333186D01*
X49799154Y-70253866D01*
X49776947Y-70245342D01*
X49612541Y-70204046D01*
X49594639Y-70201258D01*
X49585690Y-70200695D01*
X49579474Y-70200500D01*
X48458684Y-70200500D01*
X48446790Y-70201217D01*
X48319822Y-70216582D01*
X48296722Y-70222256D01*
X48138152Y-70282174D01*
X48117072Y-70293195D01*
X47977371Y-70389209D01*
X47959528Y-70404939D01*
X47846762Y-70531504D01*
X47833186Y-70551037D01*
X47753866Y-70700846D01*
X47745342Y-70723053D01*
X47704046Y-70887459D01*
X47701258Y-70905361D01*
X47700695Y-70914310D01*
X47700500Y-70920526D01*
X46598997Y-70920526D01*
X46598997Y-68969406D01*
X46987656Y-68969406D01*
X46987656Y-69030592D01*
X46991022Y-69039475D01*
X47082849Y-69250665D01*
X47090516Y-69264963D01*
X47224482Y-69472042D01*
X47234380Y-69484896D01*
X47400368Y-69667315D01*
X47412234Y-69678380D01*
X47605788Y-69831239D01*
X47619301Y-69840217D01*
X47835221Y-69959412D01*
X47850019Y-69966063D01*
X47966953Y-70007471D01*
X48028118Y-70009072D01*
X48078542Y-69974416D01*
X48099000Y-69914149D01*
X48099000Y-69000000D01*
X49900999Y-69000000D01*
X49900999Y-69918189D01*
X49919906Y-69976380D01*
X49969406Y-70012344D01*
X50030592Y-70012344D01*
X50039475Y-70008978D01*
X50250665Y-69917151D01*
X50264963Y-69909484D01*
X50472042Y-69775518D01*
X50484896Y-69765620D01*
X50667315Y-69599632D01*
X50678380Y-69587766D01*
X50831239Y-69394212D01*
X50840217Y-69380699D01*
X50959412Y-69164779D01*
X50966063Y-69149981D01*
X51007471Y-69033047D01*
X51009072Y-68971882D01*
X50974416Y-68921458D01*
X50914149Y-68901000D01*
X49999999Y-68901000D01*
X49941808Y-68919907D01*
X49905844Y-68969407D01*
X49900999Y-69000000D01*
X48099000Y-69000000D01*
X48099000Y-68999999D01*
X48080093Y-68941808D01*
X48030593Y-68905844D01*
X48000000Y-68900999D01*
X47081811Y-68900999D01*
X47023620Y-68919906D01*
X46987656Y-68969406D01*
X46598997Y-68969406D01*
X46598997Y-67028118D01*
X46990928Y-67028118D01*
X47025584Y-67078542D01*
X47085851Y-67099000D01*
X48000001Y-67099000D01*
X48058192Y-67080093D01*
X48094156Y-67030593D01*
X48099001Y-67000000D01*
X48099001Y-66085851D01*
X49901000Y-66085851D01*
X49901000Y-67000001D01*
X49919907Y-67058192D01*
X49969407Y-67094156D01*
X50000000Y-67099001D01*
X50918189Y-67099001D01*
X50976380Y-67080094D01*
X51012344Y-67030594D01*
X51012344Y-66969408D01*
X51008978Y-66960525D01*
X50917151Y-66749335D01*
X50909484Y-66735037D01*
X50775518Y-66527958D01*
X50765620Y-66515104D01*
X50599632Y-66332685D01*
X50587766Y-66321620D01*
X50394212Y-66168761D01*
X50380699Y-66159783D01*
X50164779Y-66040588D01*
X50149981Y-66033937D01*
X50033047Y-65992529D01*
X49971882Y-65990928D01*
X49921458Y-66025584D01*
X49901000Y-66085851D01*
X48099001Y-66085851D01*
X48099001Y-66081811D01*
X48080094Y-66023620D01*
X48030594Y-65987656D01*
X47969408Y-65987656D01*
X47960525Y-65991022D01*
X47749335Y-66082849D01*
X47735037Y-66090516D01*
X47527958Y-66224482D01*
X47515104Y-66234380D01*
X47332685Y-66400368D01*
X47321620Y-66412234D01*
X47168761Y-66605788D01*
X47159783Y-66619301D01*
X47040588Y-66835221D01*
X47033937Y-66850019D01*
X46992529Y-66966953D01*
X46990928Y-67028118D01*
X46598997Y-67028118D01*
X46598997Y-59356586D01*
X46625178Y-59353418D01*
X46648279Y-59347744D01*
X46806849Y-59287826D01*
X46827929Y-59276805D01*
X46967630Y-59180791D01*
X46985473Y-59165061D01*
X47098238Y-59038496D01*
X47111814Y-59018963D01*
X47191134Y-58869154D01*
X47199658Y-58846947D01*
X47240954Y-58682541D01*
X47243936Y-58658941D01*
X47243979Y-58650570D01*
X48975177Y-58650570D01*
X48977911Y-58674199D01*
X49017483Y-58839029D01*
X49025775Y-58861324D01*
X49103522Y-59011956D01*
X49116892Y-59031630D01*
X49228325Y-59159369D01*
X49246002Y-59175286D01*
X49384689Y-59272757D01*
X49405654Y-59283998D01*
X49563588Y-59345573D01*
X49586627Y-59351488D01*
X49717008Y-59368653D01*
X49729930Y-59369500D01*
X50416317Y-59369500D01*
X50428211Y-59368783D01*
X50555179Y-59353418D01*
X50578279Y-59347744D01*
X50736849Y-59287826D01*
X50757929Y-59276805D01*
X50897630Y-59180791D01*
X50915473Y-59165061D01*
X51028238Y-59038496D01*
X51041814Y-59018963D01*
X51121134Y-58869154D01*
X51129658Y-58846947D01*
X51170954Y-58682541D01*
X51173936Y-58658941D01*
X51174823Y-58489430D01*
X51172089Y-58465801D01*
X51132517Y-58300971D01*
X51124225Y-58278676D01*
X51046478Y-58128044D01*
X51033108Y-58108370D01*
X50921675Y-57980631D01*
X50903998Y-57964714D01*
X50765311Y-57867243D01*
X50744346Y-57856002D01*
X50586412Y-57794427D01*
X50563373Y-57788512D01*
X50432992Y-57771347D01*
X50420070Y-57770500D01*
X49733683Y-57770500D01*
X49721789Y-57771217D01*
X49594821Y-57786582D01*
X49571721Y-57792256D01*
X49413151Y-57852174D01*
X49392071Y-57863195D01*
X49252370Y-57959209D01*
X49234527Y-57974939D01*
X49121762Y-58101504D01*
X49108186Y-58121037D01*
X49028866Y-58270846D01*
X49020342Y-58293053D01*
X48979046Y-58457459D01*
X48976064Y-58481059D01*
X48975177Y-58650570D01*
X47243979Y-58650570D01*
X47244823Y-58489430D01*
X47242089Y-58465801D01*
X47202517Y-58300971D01*
X47194225Y-58278676D01*
X47116478Y-58128044D01*
X47103108Y-58108370D01*
X46991675Y-57980631D01*
X46973998Y-57964714D01*
X46835311Y-57867243D01*
X46814346Y-57856002D01*
X46656412Y-57794427D01*
X46633373Y-57788512D01*
X46598997Y-57783986D01*
X46598997Y-57730360D01*
X46662456Y-57709004D01*
X46686525Y-57697056D01*
X46805620Y-57616119D01*
X46825590Y-57598138D01*
X46918532Y-57488156D01*
X46932930Y-57465468D01*
X46992872Y-57334543D01*
X47000639Y-57308818D01*
X47023165Y-57166597D01*
X47024379Y-57152144D01*
X47024495Y-57141034D01*
X47023584Y-57126564D01*
X47004042Y-56983902D01*
X46996816Y-56958020D01*
X46939629Y-56825869D01*
X46925708Y-56802884D01*
X46835089Y-56690979D01*
X46815501Y-56672584D01*
X46698128Y-56589171D01*
X46674314Y-56576722D01*
X46598997Y-56549607D01*
X46598998Y-51950360D01*
X46662456Y-51929004D01*
X46686525Y-51917056D01*
X46805620Y-51836119D01*
X46825590Y-51818138D01*
X46918532Y-51708156D01*
X46932930Y-51685468D01*
X46992872Y-51554543D01*
X47000639Y-51528818D01*
X47023165Y-51386597D01*
X47024379Y-51372144D01*
X47024495Y-51361034D01*
X47023584Y-51346564D01*
X47004042Y-51203902D01*
X46996816Y-51178020D01*
X46939629Y-51045869D01*
X46925708Y-51022884D01*
X46835089Y-50910979D01*
X46815501Y-50892584D01*
X46698128Y-50809171D01*
X46674314Y-50796722D01*
X46598998Y-50769607D01*
X46598998Y-50716586D01*
X46625178Y-50713418D01*
X46648279Y-50707744D01*
X46806849Y-50647826D01*
X46827929Y-50636805D01*
X46967630Y-50540791D01*
X46985473Y-50525061D01*
X47098238Y-50398496D01*
X47111814Y-50378963D01*
X47191134Y-50229154D01*
X47199658Y-50206947D01*
X47240954Y-50042541D01*
X47243936Y-50018941D01*
X47243979Y-50010570D01*
X48975177Y-50010570D01*
X48977911Y-50034199D01*
X49017483Y-50199029D01*
X49025775Y-50221324D01*
X49103522Y-50371956D01*
X49116892Y-50391630D01*
X49228325Y-50519369D01*
X49246002Y-50535286D01*
X49384689Y-50632757D01*
X49405654Y-50643998D01*
X49563588Y-50705573D01*
X49586627Y-50711488D01*
X49717008Y-50728653D01*
X49729930Y-50729500D01*
X50416317Y-50729500D01*
X50428211Y-50728783D01*
X50555179Y-50713418D01*
X50578279Y-50707744D01*
X50736849Y-50647826D01*
X50757929Y-50636805D01*
X50897630Y-50540791D01*
X50915473Y-50525061D01*
X51028238Y-50398496D01*
X51041814Y-50378963D01*
X51121134Y-50229154D01*
X51129658Y-50206947D01*
X51170954Y-50042541D01*
X51173936Y-50018941D01*
X51174823Y-49849430D01*
X51172089Y-49825801D01*
X51132517Y-49660971D01*
X51124225Y-49638676D01*
X51046478Y-49488044D01*
X51033108Y-49468370D01*
X50921675Y-49340631D01*
X50903998Y-49324714D01*
X50765311Y-49227243D01*
X50744346Y-49216002D01*
X50586412Y-49154427D01*
X50563373Y-49148512D01*
X50432992Y-49131347D01*
X50420070Y-49130500D01*
X49733683Y-49130500D01*
X49721789Y-49131217D01*
X49594821Y-49146582D01*
X49571721Y-49152256D01*
X49413151Y-49212174D01*
X49392071Y-49223195D01*
X49252370Y-49319209D01*
X49234527Y-49334939D01*
X49121762Y-49461504D01*
X49108186Y-49481037D01*
X49028866Y-49630846D01*
X49020342Y-49653053D01*
X48979046Y-49817459D01*
X48976064Y-49841059D01*
X48975177Y-50010570D01*
X47243979Y-50010570D01*
X47244823Y-49849430D01*
X47242089Y-49825801D01*
X47202517Y-49660971D01*
X47194225Y-49638676D01*
X47116478Y-49488044D01*
X47103108Y-49468370D01*
X46991675Y-49340631D01*
X46973998Y-49324714D01*
X46835311Y-49227243D01*
X46814346Y-49216002D01*
X46656412Y-49154427D01*
X46633373Y-49148512D01*
X46598998Y-49143986D01*
X46598998Y-43962021D01*
X48050500Y-43962021D01*
X48050500Y-44537978D01*
X48051347Y-44550900D01*
X48066979Y-44669636D01*
X48073668Y-44694600D01*
X48134158Y-44840635D01*
X48147080Y-44863016D01*
X48243305Y-44988420D01*
X48261580Y-45006695D01*
X48386983Y-45102920D01*
X48409364Y-45115842D01*
X48555399Y-45176332D01*
X48580363Y-45183021D01*
X48737078Y-45203653D01*
X48762922Y-45203653D01*
X48919636Y-45183021D01*
X48944600Y-45176332D01*
X49090635Y-45115842D01*
X49113016Y-45102920D01*
X49238420Y-45006695D01*
X49256695Y-44988420D01*
X49334610Y-44886879D01*
X49383734Y-44983291D01*
X49401940Y-45008349D01*
X49491649Y-45098059D01*
X49516708Y-45116266D01*
X49629749Y-45173863D01*
X49659207Y-45183434D01*
X49752945Y-45198281D01*
X49768432Y-45199500D01*
X50231567Y-45199500D01*
X50247054Y-45198281D01*
X50340792Y-45183434D01*
X50370250Y-45173863D01*
X50483291Y-45116266D01*
X50508350Y-45098060D01*
X50598059Y-45008351D01*
X50616265Y-44983292D01*
X50673862Y-44870251D01*
X50683433Y-44840793D01*
X50698280Y-44747055D01*
X50699499Y-44731568D01*
X50699500Y-43768433D01*
X50698281Y-43752946D01*
X50683434Y-43659208D01*
X50673863Y-43629750D01*
X50616266Y-43516709D01*
X50598060Y-43491651D01*
X50508351Y-43401941D01*
X50483292Y-43383734D01*
X50370251Y-43326137D01*
X50340793Y-43316566D01*
X50247055Y-43301719D01*
X50231568Y-43300500D01*
X49768433Y-43300500D01*
X49752946Y-43301719D01*
X49659208Y-43316566D01*
X49629750Y-43326137D01*
X49516709Y-43383734D01*
X49491650Y-43401940D01*
X49401941Y-43491649D01*
X49383735Y-43516708D01*
X49334610Y-43613121D01*
X49256695Y-43511580D01*
X49238420Y-43493305D01*
X49113017Y-43397080D01*
X49090636Y-43384158D01*
X48944601Y-43323668D01*
X48919637Y-43316979D01*
X48762922Y-43296347D01*
X48737078Y-43296347D01*
X48580364Y-43316979D01*
X48555400Y-43323668D01*
X48409365Y-43384158D01*
X48386984Y-43397080D01*
X48261581Y-43493305D01*
X48243306Y-43511579D01*
X48147080Y-43636982D01*
X48134158Y-43659364D01*
X48073668Y-43805399D01*
X48066979Y-43830363D01*
X48051347Y-43949099D01*
X48050500Y-43962021D01*
X46598998Y-43962021D01*
X46598998Y-39920526D01*
X47700500Y-39920526D01*
X47700500Y-41041316D01*
X47701217Y-41053210D01*
X47716582Y-41180178D01*
X47722256Y-41203278D01*
X47782174Y-41361848D01*
X47793195Y-41382928D01*
X47889209Y-41522629D01*
X47904939Y-41540472D01*
X48031504Y-41653238D01*
X48051037Y-41666814D01*
X48200846Y-41746134D01*
X48223053Y-41754658D01*
X48387459Y-41795954D01*
X48405361Y-41798742D01*
X48414310Y-41799305D01*
X48420526Y-41799500D01*
X49541316Y-41799500D01*
X49553210Y-41798783D01*
X49680178Y-41783418D01*
X49703278Y-41777744D01*
X49861848Y-41717826D01*
X49882928Y-41706805D01*
X50022629Y-41610791D01*
X50040472Y-41595061D01*
X50153238Y-41468496D01*
X50166814Y-41448963D01*
X50246134Y-41299154D01*
X50254658Y-41276947D01*
X50295954Y-41112541D01*
X50298742Y-41094639D01*
X50299305Y-41085690D01*
X50299500Y-41079474D01*
X50299500Y-39958684D01*
X50298783Y-39946790D01*
X50283418Y-39819822D01*
X50277744Y-39796722D01*
X50217826Y-39638152D01*
X50206805Y-39617072D01*
X50110791Y-39477371D01*
X50095061Y-39459528D01*
X49968496Y-39346762D01*
X49948963Y-39333186D01*
X49799154Y-39253866D01*
X49776947Y-39245342D01*
X49612541Y-39204046D01*
X49594639Y-39201258D01*
X49585690Y-39200695D01*
X49579474Y-39200500D01*
X48458684Y-39200500D01*
X48446790Y-39201217D01*
X48319822Y-39216582D01*
X48296722Y-39222256D01*
X48138152Y-39282174D01*
X48117072Y-39293195D01*
X47977371Y-39389209D01*
X47959528Y-39404939D01*
X47846762Y-39531504D01*
X47833186Y-39551037D01*
X47753866Y-39700846D01*
X47745342Y-39723053D01*
X47704046Y-39887459D01*
X47701258Y-39905361D01*
X47700695Y-39914310D01*
X47700500Y-39920526D01*
X46598998Y-39920526D01*
X46598998Y-33313403D01*
X46950047Y-33313403D01*
X46954195Y-33342547D01*
X46993002Y-33472308D01*
X47005536Y-33498943D01*
X47080783Y-33611558D01*
X47093004Y-33624990D01*
X47086514Y-33631901D01*
X47009507Y-33743320D01*
X46996556Y-33769756D01*
X46955716Y-33898892D01*
X46951111Y-33927966D01*
X46950047Y-34063403D01*
X46954195Y-34092547D01*
X46993002Y-34222308D01*
X47005536Y-34248943D01*
X47080783Y-34361558D01*
X47093004Y-34374990D01*
X47086514Y-34381901D01*
X47009507Y-34493320D01*
X46996556Y-34519756D01*
X46955716Y-34648892D01*
X46951111Y-34677966D01*
X46950047Y-34813403D01*
X46954195Y-34842547D01*
X46993002Y-34972308D01*
X47005536Y-34998943D01*
X47080783Y-35111558D01*
X47100594Y-35133331D01*
X47205628Y-35218842D01*
X47230966Y-35233827D01*
X47270280Y-35249751D01*
X47238599Y-35262007D01*
X47213029Y-35276592D01*
X47106665Y-35360443D01*
X47086514Y-35381901D01*
X47009507Y-35493320D01*
X46996556Y-35519756D01*
X46955716Y-35648892D01*
X46951111Y-35677966D01*
X46950047Y-35813403D01*
X46954195Y-35842547D01*
X46993002Y-35972308D01*
X47005536Y-35998943D01*
X47080783Y-36111558D01*
X47093004Y-36124990D01*
X47086514Y-36131901D01*
X47009507Y-36243320D01*
X46996556Y-36269756D01*
X46955716Y-36398892D01*
X46951111Y-36427966D01*
X46950047Y-36563403D01*
X46954195Y-36592547D01*
X46993002Y-36722308D01*
X47005536Y-36748943D01*
X47080783Y-36861558D01*
X47093004Y-36874990D01*
X47086514Y-36881901D01*
X47009507Y-36993320D01*
X46996556Y-37019756D01*
X46955716Y-37148892D01*
X46951111Y-37177966D01*
X46950047Y-37313403D01*
X46954195Y-37342547D01*
X46993002Y-37472308D01*
X47005536Y-37498943D01*
X47080783Y-37611558D01*
X47100594Y-37633331D01*
X47205628Y-37718842D01*
X47230966Y-37733827D01*
X47356500Y-37784673D01*
X47385123Y-37791545D01*
X47520058Y-37803232D01*
X47549437Y-37801383D01*
X47681844Y-37772877D01*
X47709382Y-37762472D01*
X47738468Y-37746183D01*
X47782174Y-37861848D01*
X47793195Y-37882928D01*
X47889209Y-38022629D01*
X47904939Y-38040472D01*
X48031504Y-38153238D01*
X48051037Y-38166814D01*
X48200846Y-38246134D01*
X48223053Y-38254658D01*
X48387459Y-38295954D01*
X48405361Y-38298742D01*
X48414310Y-38299305D01*
X48420526Y-38299500D01*
X49541316Y-38299500D01*
X49553210Y-38298783D01*
X49680178Y-38283418D01*
X49703278Y-38277744D01*
X49861848Y-38217826D01*
X49882928Y-38206805D01*
X50022629Y-38110791D01*
X50040472Y-38095061D01*
X50153238Y-37968496D01*
X50166814Y-37948963D01*
X50246134Y-37799154D01*
X50254658Y-37776947D01*
X50295954Y-37612541D01*
X50298742Y-37594639D01*
X50299305Y-37585690D01*
X50299500Y-37579474D01*
X50299500Y-36458684D01*
X50298783Y-36446790D01*
X50283418Y-36319822D01*
X50277744Y-36296722D01*
X50217826Y-36138152D01*
X50206805Y-36117072D01*
X50110791Y-35977371D01*
X50095061Y-35959528D01*
X49968496Y-35846762D01*
X49948963Y-35833186D01*
X49799154Y-35753866D01*
X49776947Y-35745342D01*
X49612541Y-35704046D01*
X49594639Y-35701258D01*
X49585690Y-35700695D01*
X49579474Y-35700500D01*
X48458684Y-35700500D01*
X48446790Y-35701217D01*
X48319822Y-35716582D01*
X48296722Y-35722256D01*
X48138152Y-35782174D01*
X48117072Y-35793195D01*
X48041118Y-35845397D01*
X48053100Y-35773410D01*
X48054441Y-35757930D01*
X48054497Y-35750775D01*
X48053400Y-35735282D01*
X48033264Y-35601347D01*
X48024608Y-35573210D01*
X47965979Y-35451116D01*
X47949433Y-35426770D01*
X47857496Y-35327313D01*
X47834522Y-35308907D01*
X47732393Y-35249585D01*
X47827553Y-35196293D01*
X47850813Y-35178251D01*
X47944301Y-35080250D01*
X47961227Y-35056166D01*
X48021766Y-34935008D01*
X48030862Y-34907012D01*
X48053100Y-34773410D01*
X48054441Y-34757930D01*
X48054497Y-34750775D01*
X48053400Y-34735282D01*
X48042181Y-34660659D01*
X48051037Y-34666814D01*
X48200846Y-34746134D01*
X48223053Y-34754658D01*
X48387459Y-34795954D01*
X48405361Y-34798742D01*
X48414310Y-34799305D01*
X48420526Y-34799500D01*
X49541316Y-34799500D01*
X49553210Y-34798783D01*
X49680178Y-34783418D01*
X49703278Y-34777744D01*
X49861848Y-34717826D01*
X49882928Y-34706805D01*
X50022629Y-34610791D01*
X50040472Y-34595061D01*
X50153238Y-34468496D01*
X50166814Y-34448963D01*
X50246134Y-34299154D01*
X50254658Y-34276947D01*
X50295954Y-34112541D01*
X50298742Y-34094639D01*
X50299305Y-34085690D01*
X50299500Y-34079474D01*
X50299500Y-32958684D01*
X50298783Y-32946790D01*
X50283418Y-32819822D01*
X50277744Y-32796722D01*
X50217826Y-32638152D01*
X50206805Y-32617072D01*
X50110791Y-32477371D01*
X50095061Y-32459528D01*
X49968496Y-32346762D01*
X49948963Y-32333186D01*
X49799154Y-32253866D01*
X49776947Y-32245342D01*
X49612541Y-32204046D01*
X49594639Y-32201258D01*
X49585690Y-32200695D01*
X49579474Y-32200500D01*
X48458684Y-32200500D01*
X48446790Y-32201217D01*
X48319822Y-32216582D01*
X48296722Y-32222256D01*
X48138152Y-32282174D01*
X48117072Y-32293195D01*
X47977371Y-32389209D01*
X47959528Y-32404939D01*
X47846762Y-32531504D01*
X47833186Y-32551037D01*
X47753866Y-32700846D01*
X47745342Y-32723053D01*
X47737877Y-32752771D01*
X47717405Y-32740880D01*
X47690036Y-32730044D01*
X47558093Y-32699461D01*
X47528746Y-32697151D01*
X47393644Y-32706717D01*
X47364916Y-32713139D01*
X47238599Y-32762007D01*
X47213029Y-32776592D01*
X47106665Y-32860443D01*
X47086514Y-32881901D01*
X47009507Y-32993320D01*
X46996556Y-33019756D01*
X46955716Y-33148892D01*
X46951111Y-33177966D01*
X46950047Y-33313403D01*
X46598998Y-33313403D01*
X46598998Y-30969406D01*
X46987656Y-30969406D01*
X46987656Y-31030592D01*
X46991022Y-31039475D01*
X47082849Y-31250665D01*
X47090516Y-31264963D01*
X47224482Y-31472042D01*
X47234380Y-31484896D01*
X47400368Y-31667315D01*
X47412234Y-31678380D01*
X47605788Y-31831239D01*
X47619301Y-31840217D01*
X47835221Y-31959412D01*
X47850019Y-31966063D01*
X47966953Y-32007471D01*
X48028118Y-32009072D01*
X48078542Y-31974416D01*
X48099000Y-31914149D01*
X48099000Y-31000000D01*
X49900999Y-31000000D01*
X49900999Y-31918189D01*
X49919906Y-31976380D01*
X49969406Y-32012344D01*
X50030592Y-32012344D01*
X50039475Y-32008978D01*
X50250665Y-31917151D01*
X50264963Y-31909484D01*
X50472042Y-31775518D01*
X50484896Y-31765620D01*
X50667315Y-31599632D01*
X50678380Y-31587766D01*
X50831239Y-31394212D01*
X50840217Y-31380699D01*
X50959412Y-31164779D01*
X50966063Y-31149981D01*
X51007471Y-31033047D01*
X51009072Y-30971882D01*
X50974416Y-30921458D01*
X50914149Y-30901000D01*
X49999999Y-30901000D01*
X49941808Y-30919907D01*
X49905844Y-30969407D01*
X49900999Y-31000000D01*
X48099000Y-31000000D01*
X48099000Y-30999999D01*
X48080093Y-30941808D01*
X48030593Y-30905844D01*
X48000000Y-30900999D01*
X47081811Y-30900999D01*
X47023620Y-30919906D01*
X46987656Y-30969406D01*
X46598998Y-30969406D01*
X46598998Y-29028118D01*
X46990928Y-29028118D01*
X47025584Y-29078542D01*
X47085851Y-29099000D01*
X48000001Y-29099000D01*
X48058192Y-29080093D01*
X48094156Y-29030593D01*
X48099001Y-29000000D01*
X48099001Y-28085851D01*
X49901000Y-28085851D01*
X49901000Y-29000001D01*
X49919907Y-29058192D01*
X49969407Y-29094156D01*
X50000000Y-29099001D01*
X50918189Y-29099001D01*
X50976380Y-29080094D01*
X51012344Y-29030594D01*
X51012344Y-28969408D01*
X51008978Y-28960525D01*
X50917151Y-28749335D01*
X50909484Y-28735037D01*
X50775518Y-28527958D01*
X50765620Y-28515104D01*
X50599632Y-28332685D01*
X50587766Y-28321620D01*
X50394212Y-28168761D01*
X50380699Y-28159783D01*
X50164779Y-28040588D01*
X50149981Y-28033937D01*
X50033047Y-27992529D01*
X49971882Y-27990928D01*
X49921458Y-28025584D01*
X49901000Y-28085851D01*
X48099001Y-28085851D01*
X48099001Y-28081811D01*
X48080094Y-28023620D01*
X48030594Y-27987656D01*
X47969408Y-27987656D01*
X47960525Y-27991022D01*
X47749335Y-28082849D01*
X47735037Y-28090516D01*
X47527958Y-28224482D01*
X47515104Y-28234380D01*
X47332685Y-28400368D01*
X47321620Y-28412234D01*
X47168761Y-28605788D01*
X47159783Y-28619301D01*
X47040588Y-28835221D01*
X47033937Y-28850019D01*
X46992529Y-28966953D01*
X46990928Y-29028118D01*
X46598998Y-29028118D01*
X46598998Y-27050002D01*
X46597096Y-27030688D01*
X46574260Y-26915883D01*
X46559477Y-26880195D01*
X46499998Y-26791179D01*
X46499998Y-26750002D01*
X46458821Y-26750002D01*
X46369805Y-26690523D01*
X46334117Y-26675740D01*
X46219312Y-26652904D01*
X46199998Y-26651002D01*
X31059752Y-26651003D01*
X30973822Y-26633911D01*
X30909243Y-26590760D01*
X30866092Y-26526181D01*
X30849000Y-26440251D01*
X30849000Y-25313403D01*
X41950047Y-25313403D01*
X41954195Y-25342547D01*
X41993002Y-25472308D01*
X42005536Y-25498943D01*
X42080783Y-25611558D01*
X42100594Y-25633331D01*
X42205628Y-25718842D01*
X42230966Y-25733827D01*
X42356500Y-25784673D01*
X42385123Y-25791545D01*
X42520058Y-25803232D01*
X42549437Y-25801383D01*
X42681844Y-25772877D01*
X42709382Y-25762472D01*
X42827553Y-25696293D01*
X42850813Y-25678251D01*
X42874837Y-25653068D01*
X42955628Y-25718842D01*
X42980966Y-25733827D01*
X43106500Y-25784673D01*
X43135123Y-25791545D01*
X43270058Y-25803232D01*
X43299437Y-25801383D01*
X43431844Y-25772877D01*
X43459382Y-25762472D01*
X43577553Y-25696293D01*
X43600813Y-25678251D01*
X43624837Y-25653068D01*
X43705628Y-25718842D01*
X43730966Y-25733827D01*
X43856500Y-25784673D01*
X43885123Y-25791545D01*
X44020058Y-25803232D01*
X44049437Y-25801383D01*
X44181844Y-25772877D01*
X44209382Y-25762472D01*
X44327553Y-25696293D01*
X44350813Y-25678251D01*
X44444301Y-25580250D01*
X44461227Y-25556166D01*
X44521766Y-25435008D01*
X44530862Y-25407012D01*
X44553100Y-25273410D01*
X44554441Y-25257930D01*
X44554497Y-25250775D01*
X44553400Y-25235282D01*
X44533264Y-25101347D01*
X44524608Y-25073210D01*
X44465979Y-24951116D01*
X44449433Y-24926770D01*
X44357496Y-24827313D01*
X44334522Y-24808907D01*
X44217405Y-24740880D01*
X44190036Y-24730044D01*
X44058093Y-24699461D01*
X44028746Y-24697151D01*
X43893644Y-24706717D01*
X43864916Y-24713139D01*
X43738599Y-24762007D01*
X43713029Y-24776592D01*
X43624861Y-24846098D01*
X43607496Y-24827313D01*
X43584522Y-24808907D01*
X43467405Y-24740880D01*
X43440036Y-24730044D01*
X43308093Y-24699461D01*
X43278746Y-24697151D01*
X43143644Y-24706717D01*
X43114916Y-24713139D01*
X42988599Y-24762007D01*
X42963029Y-24776592D01*
X42874861Y-24846098D01*
X42857496Y-24827313D01*
X42834522Y-24808907D01*
X42717405Y-24740880D01*
X42690036Y-24730044D01*
X42558093Y-24699461D01*
X42528746Y-24697151D01*
X42393644Y-24706717D01*
X42364916Y-24713139D01*
X42238599Y-24762007D01*
X42213029Y-24776592D01*
X42106665Y-24860443D01*
X42086514Y-24881901D01*
X42009507Y-24993320D01*
X41996556Y-25019756D01*
X41955716Y-25148892D01*
X41951111Y-25177966D01*
X41950047Y-25313403D01*
X30849000Y-25313403D01*
X30849000Y-24563403D01*
X33700047Y-24563403D01*
X33704195Y-24592547D01*
X33743002Y-24722308D01*
X33755536Y-24748943D01*
X33830783Y-24861558D01*
X33850594Y-24883331D01*
X33955628Y-24968842D01*
X33980966Y-24983827D01*
X34106500Y-25034673D01*
X34135123Y-25041545D01*
X34270058Y-25053232D01*
X34299437Y-25051383D01*
X34431844Y-25022877D01*
X34459382Y-25012472D01*
X34577553Y-24946293D01*
X34600813Y-24928251D01*
X34694301Y-24830250D01*
X34711227Y-24806166D01*
X34771766Y-24685008D01*
X34780862Y-24657012D01*
X34803100Y-24523410D01*
X34804441Y-24507930D01*
X34804497Y-24500775D01*
X34803400Y-24485282D01*
X34783264Y-24351347D01*
X34774608Y-24323210D01*
X34715979Y-24201116D01*
X34699433Y-24176770D01*
X34607496Y-24077313D01*
X34584522Y-24058907D01*
X34467405Y-23990880D01*
X34440036Y-23980044D01*
X34308093Y-23949461D01*
X34278746Y-23947151D01*
X34143644Y-23956717D01*
X34114916Y-23963139D01*
X33988599Y-24012007D01*
X33963029Y-24026592D01*
X33856665Y-24110443D01*
X33836514Y-24131901D01*
X33759507Y-24243320D01*
X33746556Y-24269756D01*
X33705716Y-24398892D01*
X33701111Y-24427966D01*
X33700047Y-24563403D01*
X30849000Y-24563403D01*
X30849000Y-21110862D01*
X30900367Y-21167314D01*
X30912233Y-21178379D01*
X31105787Y-21331238D01*
X31119300Y-21340216D01*
X31335220Y-21459411D01*
X31350018Y-21466061D01*
X31466952Y-21507470D01*
X31528116Y-21509072D01*
X31578541Y-21474417D01*
X31598999Y-21414149D01*
X31598999Y-20500000D01*
X33400998Y-20500000D01*
X33400998Y-21418189D01*
X33419905Y-21476380D01*
X33469405Y-21512344D01*
X33530591Y-21512344D01*
X33539474Y-21508978D01*
X33750663Y-21417151D01*
X33764961Y-21409484D01*
X33972040Y-21275518D01*
X33984894Y-21265620D01*
X34167313Y-21099632D01*
X34178378Y-21087766D01*
X34247892Y-20999745D01*
X34400368Y-21167314D01*
X34412234Y-21178379D01*
X34605788Y-21331238D01*
X34619301Y-21340216D01*
X34835221Y-21459411D01*
X34850019Y-21466061D01*
X34966953Y-21507470D01*
X35028117Y-21509072D01*
X35078542Y-21474417D01*
X35099000Y-21414149D01*
X35099000Y-20500000D01*
X36900999Y-20500000D01*
X36900999Y-21418189D01*
X36919906Y-21476380D01*
X36969406Y-21512344D01*
X37030592Y-21512344D01*
X37039475Y-21508978D01*
X37250664Y-21417151D01*
X37264962Y-21409484D01*
X37472041Y-21275518D01*
X37484895Y-21265620D01*
X37667314Y-21099632D01*
X37678379Y-21087766D01*
X37831238Y-20894212D01*
X37840216Y-20880699D01*
X37959411Y-20664779D01*
X37966061Y-20649981D01*
X38007470Y-20533047D01*
X38009072Y-20471883D01*
X37974417Y-20421458D01*
X37914149Y-20401000D01*
X36999999Y-20401000D01*
X36941808Y-20419907D01*
X36905844Y-20469407D01*
X36900999Y-20500000D01*
X35099000Y-20500000D01*
X35099000Y-20499999D01*
X35080093Y-20441808D01*
X35030593Y-20405844D01*
X35000000Y-20400999D01*
X34539998Y-20400999D01*
X34539995Y-20401000D01*
X33499998Y-20401000D01*
X33441807Y-20419907D01*
X33405843Y-20469407D01*
X33400998Y-20500000D01*
X31598999Y-20500000D01*
X31598999Y-20041316D01*
X31598999Y-18920526D01*
X38200500Y-18920526D01*
X38200500Y-20041316D01*
X38201217Y-20053210D01*
X38216582Y-20180178D01*
X38222256Y-20203278D01*
X38282174Y-20361848D01*
X38293195Y-20382928D01*
X38389209Y-20522629D01*
X38404939Y-20540472D01*
X38531504Y-20653238D01*
X38551037Y-20666814D01*
X38700846Y-20746134D01*
X38723053Y-20754658D01*
X38887459Y-20795954D01*
X38905361Y-20798742D01*
X38914310Y-20799305D01*
X38920526Y-20799500D01*
X39200156Y-20799500D01*
X39200047Y-20813403D01*
X39204195Y-20842547D01*
X39243002Y-20972308D01*
X39255536Y-20998943D01*
X39330783Y-21111558D01*
X39350594Y-21133331D01*
X39455628Y-21218842D01*
X39480966Y-21233827D01*
X39606500Y-21284673D01*
X39635123Y-21291545D01*
X39770058Y-21303232D01*
X39799437Y-21301383D01*
X39931844Y-21272877D01*
X39959382Y-21262472D01*
X40019564Y-21228768D01*
X40009507Y-21243320D01*
X39996556Y-21269756D01*
X39955716Y-21398892D01*
X39951111Y-21427966D01*
X39950047Y-21563403D01*
X39954195Y-21592547D01*
X39993002Y-21722308D01*
X40005536Y-21748943D01*
X40080783Y-21861558D01*
X40100594Y-21883331D01*
X40205628Y-21968842D01*
X40230966Y-21983827D01*
X40356500Y-22034673D01*
X40385123Y-22041545D01*
X40520058Y-22053232D01*
X40549437Y-22051383D01*
X40681844Y-22022877D01*
X40709382Y-22012472D01*
X40769564Y-21978768D01*
X40759507Y-21993320D01*
X40746556Y-22019756D01*
X40705716Y-22148892D01*
X40701111Y-22177966D01*
X40700047Y-22313403D01*
X40704195Y-22342547D01*
X40743002Y-22472308D01*
X40755536Y-22498943D01*
X40830783Y-22611558D01*
X40850594Y-22633331D01*
X40955628Y-22718842D01*
X40980966Y-22733827D01*
X41106500Y-22784673D01*
X41135123Y-22791545D01*
X41270058Y-22803232D01*
X41299437Y-22801383D01*
X41431844Y-22772877D01*
X41459382Y-22762472D01*
X41519564Y-22728768D01*
X41509507Y-22743320D01*
X41496556Y-22769756D01*
X41455716Y-22898892D01*
X41451111Y-22927966D01*
X41450047Y-23063403D01*
X41454195Y-23092547D01*
X41493002Y-23222308D01*
X41505536Y-23248943D01*
X41580783Y-23361558D01*
X41600594Y-23383331D01*
X41705628Y-23468842D01*
X41730966Y-23483827D01*
X41856500Y-23534673D01*
X41885123Y-23541545D01*
X42020058Y-23553232D01*
X42049437Y-23551383D01*
X42181844Y-23522877D01*
X42209382Y-23512472D01*
X42327553Y-23446293D01*
X42350813Y-23428251D01*
X42444301Y-23330250D01*
X42461227Y-23306166D01*
X42521766Y-23185008D01*
X42530862Y-23157012D01*
X42553100Y-23023410D01*
X42554441Y-23007930D01*
X42554497Y-23000775D01*
X42553400Y-22985282D01*
X42533264Y-22851347D01*
X42525566Y-22826324D01*
X46974622Y-22826324D01*
X46984193Y-22886756D01*
X47019941Y-22925768D01*
X47146088Y-23004594D01*
X47154531Y-23009312D01*
X47522513Y-23191980D01*
X47531376Y-23195853D01*
X47915428Y-23341741D01*
X47924627Y-23344730D01*
X48321081Y-23452444D01*
X48330528Y-23454521D01*
X48735601Y-23523034D01*
X48745205Y-23524179D01*
X49155031Y-23552837D01*
X49164701Y-23553039D01*
X49575368Y-23541568D01*
X49585012Y-23540826D01*
X49992599Y-23489336D01*
X50002124Y-23487657D01*
X50402741Y-23396639D01*
X50412057Y-23394038D01*
X50801880Y-23264361D01*
X50810898Y-23260863D01*
X51186207Y-23093764D01*
X51194840Y-23089403D01*
X51477459Y-22928853D01*
X51518717Y-22883670D01*
X51525537Y-22822866D01*
X51498563Y-22772769D01*
X50592796Y-21867001D01*
X50538279Y-21839224D01*
X50477847Y-21848795D01*
X50452788Y-21867001D01*
X50211665Y-22108124D01*
X49998827Y-21895286D01*
X49784613Y-21681073D01*
X49730096Y-21653295D01*
X49669664Y-21662866D01*
X49644605Y-21681072D01*
X49250000Y-22075677D01*
X48855395Y-21681072D01*
X48800878Y-21653295D01*
X48740446Y-21662866D01*
X48715388Y-21681072D01*
X48501174Y-21895285D01*
X48288335Y-22108124D01*
X48047212Y-21867001D01*
X47992695Y-21839224D01*
X47932263Y-21848795D01*
X47907204Y-21867001D01*
X47002399Y-22771807D01*
X46974622Y-22826324D01*
X42525566Y-22826324D01*
X42524608Y-22823210D01*
X42465979Y-22701116D01*
X42449433Y-22676770D01*
X42401594Y-22625018D01*
X42444301Y-22580250D01*
X42461227Y-22556166D01*
X42521766Y-22435008D01*
X42530862Y-22407012D01*
X42553100Y-22273410D01*
X42554441Y-22257930D01*
X42554497Y-22250775D01*
X42553400Y-22235282D01*
X42533264Y-22101347D01*
X42524608Y-22073210D01*
X42465979Y-21951116D01*
X42449433Y-21926770D01*
X42401594Y-21875018D01*
X42444301Y-21830250D01*
X42461227Y-21806166D01*
X42521766Y-21685008D01*
X42530862Y-21657012D01*
X42553100Y-21523410D01*
X42554441Y-21507930D01*
X42554497Y-21500775D01*
X42553400Y-21485282D01*
X42533264Y-21351347D01*
X42524608Y-21323210D01*
X42465979Y-21201116D01*
X42449433Y-21176770D01*
X42357496Y-21077313D01*
X42334522Y-21058907D01*
X42217405Y-20990880D01*
X42190036Y-20980044D01*
X42058093Y-20949461D01*
X42028746Y-20947151D01*
X41893644Y-20956717D01*
X41864916Y-20963139D01*
X41738599Y-21012007D01*
X41731176Y-21016241D01*
X41771766Y-20935008D01*
X41780862Y-20907012D01*
X41803100Y-20773410D01*
X41804441Y-20757930D01*
X41804497Y-20750775D01*
X41803400Y-20735282D01*
X41783264Y-20601347D01*
X41774608Y-20573210D01*
X41715979Y-20451116D01*
X41699433Y-20426770D01*
X41651594Y-20375018D01*
X41694301Y-20330250D01*
X41711227Y-20306166D01*
X41771766Y-20185008D01*
X41780862Y-20157012D01*
X41803100Y-20023410D01*
X41804441Y-20007930D01*
X41804497Y-20000775D01*
X41803400Y-19985282D01*
X41783264Y-19851347D01*
X41774608Y-19823210D01*
X41715979Y-19701116D01*
X41699433Y-19676770D01*
X41607496Y-19577313D01*
X41584522Y-19558907D01*
X41467405Y-19490880D01*
X41440036Y-19480044D01*
X41308093Y-19449461D01*
X41278746Y-19447151D01*
X41143644Y-19456717D01*
X41114916Y-19463139D01*
X40988599Y-19512007D01*
X40963029Y-19526592D01*
X40856665Y-19610443D01*
X40836514Y-19631901D01*
X40799500Y-19685455D01*
X40799500Y-19194744D01*
X44946470Y-19194744D01*
X44960808Y-19605320D01*
X44961618Y-19614958D01*
X45015952Y-20022176D01*
X45017698Y-20031690D01*
X45111511Y-20431662D01*
X45114177Y-20440959D01*
X45246572Y-20829868D01*
X45250132Y-20838861D01*
X45419846Y-21212994D01*
X45424267Y-21221597D01*
X45572026Y-21477523D01*
X45617496Y-21518464D01*
X45678346Y-21524860D01*
X45727767Y-21498027D01*
X46367017Y-20858777D01*
X48942168Y-20858777D01*
X48951739Y-20919209D01*
X48969945Y-20944268D01*
X49179996Y-21154319D01*
X49234513Y-21182096D01*
X49294945Y-21172525D01*
X49320004Y-21154319D01*
X49530055Y-20944268D01*
X49557832Y-20889751D01*
X49548261Y-20829319D01*
X49530055Y-20804260D01*
X49320004Y-20594209D01*
X49265487Y-20566432D01*
X49205055Y-20576003D01*
X49179996Y-20594209D01*
X48969945Y-20804260D01*
X48942168Y-20858777D01*
X46367017Y-20858777D01*
X46632999Y-20592796D01*
X46660776Y-20538279D01*
X46651205Y-20477847D01*
X46632999Y-20452788D01*
X46391876Y-20211665D01*
X46604714Y-19998827D01*
X46818927Y-19784613D01*
X46846705Y-19730096D01*
X46837134Y-19669664D01*
X46818928Y-19644605D01*
X46424323Y-19250000D01*
X46439810Y-19234513D01*
X47317904Y-19234513D01*
X47327475Y-19294945D01*
X47345681Y-19320004D01*
X47555732Y-19530055D01*
X47610249Y-19557832D01*
X47670681Y-19548261D01*
X47695740Y-19530055D01*
X47905791Y-19320004D01*
X47933568Y-19265487D01*
X47923997Y-19205055D01*
X47905791Y-19179996D01*
X47695740Y-18969945D01*
X47641223Y-18942168D01*
X47580791Y-18951739D01*
X47555732Y-18969945D01*
X47345681Y-19179996D01*
X47317904Y-19234513D01*
X46439810Y-19234513D01*
X46818928Y-18855395D01*
X46841930Y-18810249D01*
X50142168Y-18810249D01*
X50151739Y-18870681D01*
X50169945Y-18895740D01*
X50804260Y-19530055D01*
X50858777Y-19557832D01*
X50919209Y-19548261D01*
X50944268Y-19530055D01*
X51154319Y-19320004D01*
X51182096Y-19265487D01*
X51172525Y-19205055D01*
X51154319Y-19179996D01*
X50520004Y-18545681D01*
X50465487Y-18517904D01*
X50405055Y-18527475D01*
X50379996Y-18545681D01*
X50169945Y-18755732D01*
X50142168Y-18810249D01*
X46841930Y-18810249D01*
X46846705Y-18800878D01*
X46837134Y-18740446D01*
X46818928Y-18715388D01*
X46604715Y-18501174D01*
X46391876Y-18288335D01*
X46632999Y-18047212D01*
X46660776Y-17992695D01*
X46651205Y-17932263D01*
X46632999Y-17907204D01*
X46336044Y-17610249D01*
X48942168Y-17610249D01*
X48951739Y-17670681D01*
X48969945Y-17695740D01*
X49604260Y-18330055D01*
X49658777Y-18357832D01*
X49719209Y-18348261D01*
X49744268Y-18330055D01*
X49954319Y-18120004D01*
X49982096Y-18065487D01*
X49972525Y-18005055D01*
X49954319Y-17979996D01*
X49320004Y-17345681D01*
X49265487Y-17317904D01*
X49205055Y-17327475D01*
X49179996Y-17345681D01*
X48969945Y-17555732D01*
X48942168Y-17610249D01*
X46336044Y-17610249D01*
X45728406Y-17002612D01*
X45673889Y-16974835D01*
X45613457Y-16984406D01*
X45574081Y-17020741D01*
X45480809Y-17172351D01*
X45476149Y-17180827D01*
X45296055Y-17550075D01*
X45292245Y-17558965D01*
X45149042Y-17944026D01*
X45146118Y-17953246D01*
X45041174Y-18350442D01*
X45039162Y-18359903D01*
X44973479Y-18765445D01*
X44972401Y-18775057D01*
X44946605Y-19185073D01*
X44946470Y-19194744D01*
X40799500Y-19194744D01*
X40799500Y-18958684D01*
X40798783Y-18946790D01*
X40783418Y-18819822D01*
X40777744Y-18796722D01*
X40717826Y-18638152D01*
X40706805Y-18617072D01*
X40610791Y-18477371D01*
X40595061Y-18459528D01*
X40468496Y-18346762D01*
X40448963Y-18333186D01*
X40299154Y-18253866D01*
X40276947Y-18245342D01*
X40112541Y-18204046D01*
X40094639Y-18201258D01*
X40085690Y-18200695D01*
X40079474Y-18200500D01*
X38958684Y-18200500D01*
X38946790Y-18201217D01*
X38819822Y-18216582D01*
X38796722Y-18222256D01*
X38638152Y-18282174D01*
X38617072Y-18293195D01*
X38477371Y-18389209D01*
X38459528Y-18404939D01*
X38346762Y-18531504D01*
X38333186Y-18551037D01*
X38253866Y-18700846D01*
X38245342Y-18723053D01*
X38204046Y-18887459D01*
X38201258Y-18905361D01*
X38200695Y-18914310D01*
X38200500Y-18920526D01*
X31598999Y-18920526D01*
X31598999Y-17585851D01*
X33400999Y-17585851D01*
X33400999Y-18500001D01*
X33419906Y-18558192D01*
X33469406Y-18594156D01*
X33499999Y-18599001D01*
X33960001Y-18599001D01*
X33960004Y-18599000D01*
X35000001Y-18599000D01*
X35058192Y-18580093D01*
X35094156Y-18530593D01*
X35099001Y-18500000D01*
X35099001Y-17585851D01*
X36901000Y-17585851D01*
X36901000Y-18500001D01*
X36919907Y-18558192D01*
X36969407Y-18594156D01*
X37000000Y-18599001D01*
X37918189Y-18599001D01*
X37976380Y-18580094D01*
X38012344Y-18530594D01*
X38012344Y-18469408D01*
X38008978Y-18460525D01*
X37917151Y-18249336D01*
X37909484Y-18235038D01*
X37775518Y-18027959D01*
X37765620Y-18015105D01*
X37599632Y-17832686D01*
X37587766Y-17821621D01*
X37394212Y-17668762D01*
X37380699Y-17659784D01*
X37164779Y-17540589D01*
X37149981Y-17533939D01*
X37033047Y-17492530D01*
X36971883Y-17490928D01*
X36921458Y-17525583D01*
X36901000Y-17585851D01*
X35099001Y-17585851D01*
X35099001Y-17581811D01*
X35080094Y-17523620D01*
X35030594Y-17487656D01*
X34969408Y-17487656D01*
X34960525Y-17491022D01*
X34749336Y-17582849D01*
X34735038Y-17590516D01*
X34527959Y-17724482D01*
X34515105Y-17734380D01*
X34332686Y-17900368D01*
X34321621Y-17912234D01*
X34252107Y-18000255D01*
X34099631Y-17832686D01*
X34087765Y-17821621D01*
X33894211Y-17668762D01*
X33880698Y-17659784D01*
X33664778Y-17540589D01*
X33649980Y-17533939D01*
X33533046Y-17492530D01*
X33471882Y-17490928D01*
X33421457Y-17525583D01*
X33400999Y-17585851D01*
X31598999Y-17585851D01*
X31599000Y-17581811D01*
X31580093Y-17523620D01*
X31530593Y-17487656D01*
X31469407Y-17487656D01*
X31460524Y-17491022D01*
X31249335Y-17582849D01*
X31235037Y-17590516D01*
X31027958Y-17724482D01*
X31015104Y-17734380D01*
X30849000Y-17885523D01*
X30849000Y-16259752D01*
X30866092Y-16173822D01*
X30909243Y-16109243D01*
X30973822Y-16066092D01*
X31059752Y-16049000D01*
X42934605Y-16049000D01*
X42856665Y-16110443D01*
%TA.AperFunction,Conductor*%
G36*
X42856665Y-16110443D02*
G01*
X42836514Y-16131901D01*
X42759507Y-16243320D01*
X42746556Y-16269756D01*
X42705716Y-16398892D01*
X42701111Y-16427966D01*
X42700047Y-16563403D01*
X42704195Y-16592547D01*
X42743002Y-16722308D01*
X42755536Y-16748943D01*
X42830783Y-16861558D01*
X42850594Y-16883331D01*
X42955628Y-16968842D01*
X42980966Y-16983827D01*
X43106500Y-17034673D01*
X43135123Y-17041545D01*
X43270058Y-17053232D01*
X43299437Y-17051383D01*
X43431844Y-17022877D01*
X43459382Y-17012472D01*
X43577553Y-16946293D01*
X43600813Y-16928251D01*
X43694301Y-16830250D01*
X43711227Y-16806166D01*
X43771766Y-16685008D01*
X43780862Y-16657012D01*
X43803100Y-16523410D01*
X43804441Y-16507930D01*
X43804497Y-16500775D01*
X43803400Y-16485282D01*
X43783264Y-16351347D01*
X43774608Y-16323210D01*
X43715979Y-16201116D01*
X43699433Y-16176770D01*
X43607496Y-16077313D01*
X43584522Y-16058907D01*
X43567466Y-16049000D01*
X47323206Y-16049000D01*
X47907204Y-16632999D01*
X47961721Y-16660776D01*
X48022153Y-16651205D01*
X48047212Y-16632999D01*
X48288335Y-16391876D01*
X48501173Y-16604714D01*
X48715387Y-16818927D01*
X48769904Y-16846705D01*
X48830336Y-16837134D01*
X48855395Y-16818928D01*
X49250000Y-16424323D01*
X49644605Y-16818928D01*
X49699122Y-16846705D01*
X49759554Y-16837134D01*
X49784612Y-16818928D01*
X49998826Y-16604715D01*
X50211665Y-16391876D01*
X50877052Y-17057263D01*
X50931569Y-17085040D01*
X50992001Y-17075469D01*
X51017060Y-17057263D01*
X51287394Y-16786929D01*
X51511394Y-16988620D01*
X51713071Y-17212606D01*
X51442737Y-17482940D01*
X51414960Y-17537457D01*
X51424531Y-17597889D01*
X51442737Y-17622948D01*
X52108124Y-18288335D01*
X51895286Y-18501173D01*
X51681073Y-18715387D01*
X51653295Y-18769904D01*
X51662866Y-18830336D01*
X51681072Y-18855395D01*
X52075677Y-19250000D01*
X51681072Y-19644605D01*
X51653295Y-19699122D01*
X51662866Y-19759554D01*
X51681072Y-19784612D01*
X51895285Y-19998826D01*
X52108124Y-20211665D01*
X51867001Y-20452788D01*
X51839224Y-20507305D01*
X51848795Y-20567737D01*
X51867001Y-20592796D01*
X52451000Y-21176794D01*
X52451000Y-85089128D01*
X52433420Y-85044951D01*
X52428929Y-85035231D01*
X52256576Y-84709713D01*
X52251061Y-84700535D01*
X52044561Y-84395535D01*
X52038087Y-84387006D01*
X51799854Y-84106091D01*
X51792497Y-84098311D01*
X51525319Y-83844769D01*
X51517165Y-83837829D01*
X51224168Y-83614625D01*
X51215312Y-83608607D01*
X50899922Y-83418352D01*
X50890467Y-83413325D01*
X50556375Y-83258245D01*
X50546434Y-83254268D01*
X50197547Y-83136176D01*
X50187233Y-83133297D01*
X49827634Y-83053576D01*
X49817071Y-83051827D01*
X49450964Y-83011408D01*
X49440273Y-83010810D01*
X49071943Y-83010167D01*
X49061250Y-83010728D01*
X48695005Y-83049868D01*
X48684435Y-83051580D01*
X48324559Y-83130046D01*
X48314236Y-83132889D01*
X47964939Y-83249762D01*
X47954983Y-83253704D01*
X47620351Y-83407617D01*
X47610879Y-83412611D01*
X47294828Y-83601765D01*
X47285951Y-83607752D01*
X46992176Y-83829932D01*
X46983998Y-83836844D01*
X46715937Y-84089452D01*
X46708553Y-84097206D01*
X46469341Y-84377287D01*
X46462837Y-84385793D01*
X46255273Y-84690070D01*
X46249726Y-84699229D01*
X46076238Y-85024144D01*
X46071713Y-85033848D01*
X45934330Y-85375598D01*
X45930880Y-85385734D01*
X45831209Y-85740323D01*
X45828873Y-85750773D01*
X45768081Y-86114053D01*
X45766887Y-86124694D01*
X45745685Y-86492414D01*
X45745648Y-86503122D01*
X45764283Y-86870981D01*
X45765402Y-86881630D01*
X45823656Y-87245325D01*
X45825919Y-87255791D01*
X45923112Y-87611067D01*
X45926492Y-87621227D01*
X46061485Y-87963928D01*
X46065942Y-87973663D01*
X46237158Y-88299781D01*
X46242641Y-88308979D01*
X46448076Y-88614698D01*
X46454520Y-88623249D01*
X46691770Y-88904993D01*
X46699100Y-88912799D01*
X46965391Y-89167272D01*
X46973521Y-89174240D01*
X47265738Y-89398466D01*
X47274573Y-89404515D01*
X47589296Y-89595870D01*
X47598732Y-89600930D01*
X47833706Y-89711000D01*
X43329867Y-89711000D01*
X43427553Y-89656293D01*
X43450813Y-89638251D01*
X43544301Y-89540250D01*
X43561227Y-89516166D01*
X43621766Y-89395008D01*
X43630862Y-89367012D01*
X43653100Y-89233410D01*
X43654441Y-89217930D01*
X43654497Y-89210775D01*
X43653400Y-89195282D01*
X43633264Y-89061347D01*
X43624608Y-89033210D01*
X43565979Y-88911116D01*
X43549433Y-88886770D01*
X43457496Y-88787313D01*
X43434522Y-88768907D01*
X43317405Y-88700880D01*
X43290036Y-88690044D01*
X43158093Y-88659461D01*
X43128746Y-88657151D01*
X42993644Y-88666717D01*
X42964916Y-88673139D01*
X42838599Y-88722007D01*
X42813029Y-88736592D01*
X42706665Y-88820443D01*
X42686514Y-88841901D01*
X42609507Y-88953320D01*
X42596556Y-88979756D01*
X42555716Y-89108892D01*
X42551111Y-89137966D01*
X42550047Y-89273403D01*
X42554195Y-89302547D01*
X42593002Y-89432308D01*
X42605536Y-89458943D01*
X42680783Y-89571558D01*
X42700594Y-89593331D01*
X42805628Y-89678842D01*
X42830966Y-89693827D01*
X42873365Y-89711000D01*
X31059752Y-89711000D01*
X30973822Y-89693908D01*
X30909243Y-89650757D01*
X30866092Y-89586178D01*
X30849000Y-89500248D01*
X30849000Y-87870862D01*
X30900368Y-87927315D01*
X30912234Y-87938380D01*
X31105788Y-88091239D01*
X31119301Y-88100217D01*
X31335221Y-88219412D01*
X31350019Y-88226063D01*
X31466953Y-88267471D01*
X31528118Y-88269072D01*
X31578542Y-88234416D01*
X31599000Y-88174149D01*
X31599000Y-87260000D01*
X33401000Y-87260000D01*
X33401000Y-88178189D01*
X33419907Y-88236380D01*
X33469407Y-88272344D01*
X33530593Y-88272344D01*
X33539476Y-88268978D01*
X33750665Y-88177151D01*
X33764963Y-88169484D01*
X33972042Y-88035518D01*
X33984896Y-88025620D01*
X34167315Y-87859632D01*
X34178380Y-87847766D01*
X34247893Y-87759747D01*
X34400368Y-87927315D01*
X34412234Y-87938380D01*
X34605788Y-88091239D01*
X34619301Y-88100217D01*
X34835221Y-88219412D01*
X34850019Y-88226063D01*
X34966953Y-88267471D01*
X35028118Y-88269072D01*
X35078542Y-88234416D01*
X35099000Y-88174149D01*
X35099000Y-87260000D01*
X36901000Y-87260000D01*
X36901000Y-88178189D01*
X36919907Y-88236380D01*
X36969407Y-88272344D01*
X37030593Y-88272344D01*
X37039476Y-88268978D01*
X37250665Y-88177151D01*
X37264963Y-88169484D01*
X37472042Y-88035518D01*
X37484896Y-88025620D01*
X37667315Y-87859632D01*
X37678380Y-87847766D01*
X37831239Y-87654212D01*
X37840217Y-87640699D01*
X37959412Y-87424779D01*
X37966063Y-87409981D01*
X38007471Y-87293047D01*
X38009072Y-87231882D01*
X37974416Y-87181458D01*
X37914149Y-87161000D01*
X37000000Y-87161000D01*
X36941809Y-87179907D01*
X36905845Y-87229407D01*
X36901000Y-87260000D01*
X35099000Y-87260000D01*
X35080093Y-87201809D01*
X35030593Y-87165845D01*
X35000000Y-87161000D01*
X33500000Y-87161000D01*
X33441809Y-87179907D01*
X33405845Y-87229407D01*
X33401000Y-87260000D01*
X31599000Y-87260000D01*
X31599000Y-85680526D01*
X38200500Y-85680526D01*
X38200500Y-86801317D01*
X38201217Y-86813211D01*
X38216582Y-86940179D01*
X38222256Y-86963279D01*
X38282174Y-87121849D01*
X38293195Y-87142929D01*
X38389209Y-87282630D01*
X38404939Y-87300473D01*
X38531504Y-87413238D01*
X38551037Y-87426814D01*
X38700846Y-87506134D01*
X38723053Y-87514658D01*
X38887459Y-87555954D01*
X38905361Y-87558742D01*
X38914310Y-87559305D01*
X38920526Y-87559500D01*
X40041317Y-87559500D01*
X40053211Y-87558783D01*
X40180179Y-87543418D01*
X40203279Y-87537744D01*
X40361849Y-87477826D01*
X40382929Y-87466805D01*
X40522630Y-87370791D01*
X40540473Y-87355061D01*
X40653238Y-87228496D01*
X40666814Y-87208963D01*
X40746134Y-87059154D01*
X40754658Y-87036947D01*
X40795954Y-86872541D01*
X40798742Y-86854639D01*
X40799305Y-86845690D01*
X40799500Y-86839474D01*
X40799500Y-86064740D01*
X40830783Y-86111558D01*
X40850594Y-86133331D01*
X40955628Y-86218842D01*
X40980966Y-86233827D01*
X41106500Y-86284673D01*
X41135123Y-86291545D01*
X41270058Y-86303232D01*
X41299437Y-86301383D01*
X41431844Y-86272877D01*
X41459382Y-86262472D01*
X41577553Y-86196293D01*
X41600813Y-86178251D01*
X41694301Y-86080250D01*
X41711227Y-86056166D01*
X41771766Y-85935008D01*
X41780862Y-85907012D01*
X41803100Y-85773410D01*
X41804441Y-85757930D01*
X41804497Y-85750775D01*
X41803400Y-85735282D01*
X41783264Y-85601347D01*
X41774608Y-85573210D01*
X41715979Y-85451116D01*
X41699433Y-85426770D01*
X41651594Y-85375018D01*
X41694301Y-85330250D01*
X41711227Y-85306166D01*
X41771766Y-85185008D01*
X41780862Y-85157012D01*
X41803100Y-85023410D01*
X41804441Y-85007930D01*
X41804497Y-85000775D01*
X41803400Y-84985282D01*
X41783264Y-84851347D01*
X41774608Y-84823210D01*
X41737822Y-84746604D01*
X41856500Y-84794673D01*
X41885123Y-84801545D01*
X42020058Y-84813232D01*
X42049437Y-84811383D01*
X42181844Y-84782877D01*
X42209382Y-84772472D01*
X42327553Y-84706293D01*
X42350813Y-84688251D01*
X42444301Y-84590250D01*
X42461227Y-84566166D01*
X42521766Y-84445008D01*
X42530862Y-84417012D01*
X42553100Y-84283410D01*
X42554441Y-84267930D01*
X42554497Y-84260775D01*
X42553400Y-84245282D01*
X42533264Y-84111347D01*
X42524608Y-84083210D01*
X42465979Y-83961116D01*
X42449433Y-83936770D01*
X42401594Y-83885018D01*
X42444301Y-83840250D01*
X42461227Y-83816166D01*
X42521766Y-83695008D01*
X42530862Y-83667012D01*
X42553100Y-83533410D01*
X42554441Y-83517930D01*
X42554497Y-83510775D01*
X42553400Y-83495282D01*
X42533264Y-83361347D01*
X42524608Y-83333210D01*
X42465979Y-83211116D01*
X42449433Y-83186770D01*
X42401594Y-83135018D01*
X42444301Y-83090250D01*
X42461227Y-83066166D01*
X42521766Y-82945008D01*
X42530862Y-82917012D01*
X42553100Y-82783410D01*
X42554441Y-82767930D01*
X42554497Y-82760775D01*
X42553400Y-82745282D01*
X42533264Y-82611347D01*
X42524608Y-82583210D01*
X42465979Y-82461116D01*
X42449433Y-82436770D01*
X42357496Y-82337313D01*
X42334522Y-82318907D01*
X42217405Y-82250880D01*
X42190036Y-82240044D01*
X42058093Y-82209461D01*
X42028746Y-82207151D01*
X41893644Y-82216717D01*
X41864916Y-82223139D01*
X41738599Y-82272007D01*
X41713029Y-82286592D01*
X41606665Y-82370443D01*
X41586514Y-82391901D01*
X41509507Y-82503320D01*
X41496556Y-82529756D01*
X41455716Y-82658892D01*
X41451111Y-82687966D01*
X41450047Y-82823403D01*
X41454195Y-82852547D01*
X41493002Y-82982308D01*
X41505536Y-83008943D01*
X41520917Y-83031962D01*
X41467405Y-83000880D01*
X41440036Y-82990044D01*
X41308093Y-82959461D01*
X41278746Y-82957151D01*
X41143644Y-82966717D01*
X41114916Y-82973139D01*
X40988599Y-83022007D01*
X40963029Y-83036592D01*
X40856665Y-83120443D01*
X40836514Y-83141901D01*
X40759507Y-83253320D01*
X40746556Y-83279756D01*
X40705716Y-83408892D01*
X40701111Y-83437966D01*
X40700047Y-83573403D01*
X40704195Y-83602547D01*
X40743002Y-83732308D01*
X40755536Y-83758943D01*
X40770917Y-83781962D01*
X40717405Y-83750880D01*
X40690036Y-83740044D01*
X40558093Y-83709461D01*
X40528746Y-83707151D01*
X40393644Y-83716717D01*
X40364916Y-83723139D01*
X40238599Y-83772007D01*
X40213029Y-83786592D01*
X40106665Y-83870443D01*
X40086514Y-83891901D01*
X40009507Y-84003320D01*
X39996556Y-84029756D01*
X39955716Y-84158892D01*
X39951111Y-84187966D01*
X39950047Y-84323403D01*
X39954195Y-84352547D01*
X39993002Y-84482308D01*
X40005536Y-84508943D01*
X40080783Y-84621558D01*
X40088383Y-84629911D01*
X40086514Y-84631901D01*
X40009507Y-84743320D01*
X39996556Y-84769756D01*
X39955716Y-84898892D01*
X39951111Y-84927966D01*
X39950855Y-84960500D01*
X38958683Y-84960500D01*
X38946789Y-84961217D01*
X38819821Y-84976582D01*
X38796721Y-84982256D01*
X38638151Y-85042174D01*
X38617071Y-85053195D01*
X38477370Y-85149209D01*
X38459527Y-85164939D01*
X38346762Y-85291504D01*
X38333186Y-85311037D01*
X38253866Y-85460846D01*
X38245342Y-85483053D01*
X38204046Y-85647459D01*
X38201258Y-85665361D01*
X38200695Y-85674310D01*
X38200500Y-85680526D01*
X31599000Y-85680526D01*
X31599000Y-84345851D01*
X33401000Y-84345851D01*
X33401000Y-85260000D01*
X33419907Y-85318191D01*
X33469407Y-85354155D01*
X33500000Y-85359000D01*
X35000000Y-85359000D01*
X35058191Y-85340093D01*
X35094155Y-85290593D01*
X35099000Y-85260000D01*
X35099000Y-84345851D01*
X36901000Y-84345851D01*
X36901000Y-85260000D01*
X36919907Y-85318191D01*
X36969407Y-85354155D01*
X37000000Y-85359000D01*
X37918189Y-85359000D01*
X37976380Y-85340093D01*
X38012344Y-85290593D01*
X38012344Y-85229407D01*
X38008978Y-85220524D01*
X37917151Y-85009335D01*
X37909484Y-84995037D01*
X37775518Y-84787958D01*
X37765620Y-84775104D01*
X37599632Y-84592685D01*
X37587766Y-84581620D01*
X37394212Y-84428761D01*
X37380699Y-84419783D01*
X37164779Y-84300588D01*
X37149981Y-84293937D01*
X37033047Y-84252529D01*
X36971882Y-84250928D01*
X36921458Y-84285584D01*
X36901000Y-84345851D01*
X35099000Y-84345851D01*
X35099000Y-84341811D01*
X35080093Y-84283620D01*
X35030593Y-84247656D01*
X34969407Y-84247656D01*
X34960524Y-84251022D01*
X34749335Y-84342849D01*
X34735037Y-84350516D01*
X34527958Y-84484482D01*
X34515104Y-84494380D01*
X34332685Y-84660368D01*
X34321620Y-84672234D01*
X34252107Y-84760253D01*
X34099632Y-84592685D01*
X34087766Y-84581620D01*
X33894212Y-84428761D01*
X33880699Y-84419783D01*
X33664779Y-84300588D01*
X33649981Y-84293937D01*
X33533047Y-84252529D01*
X33471882Y-84250928D01*
X33421458Y-84285584D01*
X33401000Y-84345851D01*
X31599000Y-84345851D01*
X31599000Y-84341811D01*
X31580093Y-84283620D01*
X31530593Y-84247656D01*
X31469407Y-84247656D01*
X31460524Y-84251022D01*
X31249335Y-84342849D01*
X31235037Y-84350516D01*
X31027958Y-84484482D01*
X31015104Y-84494380D01*
X30849000Y-84645523D01*
X30849000Y-81323403D01*
X33700047Y-81323403D01*
X33704195Y-81352547D01*
X33743002Y-81482308D01*
X33755536Y-81508943D01*
X33830783Y-81621558D01*
X33850594Y-81643331D01*
X33955628Y-81728842D01*
X33980966Y-81743827D01*
X34106500Y-81794673D01*
X34135123Y-81801545D01*
X34270058Y-81813232D01*
X34299437Y-81811383D01*
X34431844Y-81782877D01*
X34459382Y-81772472D01*
X34577553Y-81706293D01*
X34600813Y-81688251D01*
X34694301Y-81590250D01*
X34711227Y-81566166D01*
X34771766Y-81445008D01*
X34780862Y-81417012D01*
X34803100Y-81283410D01*
X34804441Y-81267930D01*
X34804497Y-81260775D01*
X34803400Y-81245282D01*
X34783264Y-81111347D01*
X34774608Y-81083210D01*
X34715979Y-80961116D01*
X34699433Y-80936770D01*
X34607496Y-80837313D01*
X34584522Y-80818907D01*
X34467405Y-80750880D01*
X34440036Y-80740044D01*
X34308093Y-80709461D01*
X34278746Y-80707151D01*
X34143644Y-80716717D01*
X34114916Y-80723139D01*
X33988599Y-80772007D01*
X33963029Y-80786592D01*
X33856665Y-80870443D01*
X33836514Y-80891901D01*
X33759507Y-81003320D01*
X33746556Y-81029756D01*
X33705716Y-81158892D01*
X33701111Y-81187966D01*
X33700047Y-81323403D01*
X30849000Y-81323403D01*
X30849000Y-80623402D01*
X42950049Y-80623402D01*
X42954197Y-80652546D01*
X42993004Y-80782307D01*
X43005538Y-80808942D01*
X43080785Y-80921557D01*
X43100596Y-80943330D01*
X43205630Y-81028841D01*
X43230968Y-81043826D01*
X43356502Y-81094672D01*
X43385125Y-81101544D01*
X43520060Y-81113231D01*
X43549439Y-81111382D01*
X43681846Y-81082876D01*
X43709384Y-81072471D01*
X43827555Y-81006292D01*
X43850815Y-80988250D01*
X43874839Y-80963067D01*
X43955630Y-81028841D01*
X43980968Y-81043826D01*
X44106502Y-81094672D01*
X44135125Y-81101544D01*
X44270060Y-81113231D01*
X44299439Y-81111382D01*
X44431846Y-81082876D01*
X44459384Y-81072471D01*
X44577555Y-81006292D01*
X44600815Y-80988250D01*
X44624839Y-80963067D01*
X44705630Y-81028841D01*
X44730968Y-81043826D01*
X44856502Y-81094672D01*
X44885125Y-81101544D01*
X45020060Y-81113231D01*
X45049439Y-81111382D01*
X45181846Y-81082876D01*
X45209384Y-81072471D01*
X45327555Y-81006292D01*
X45350815Y-80988250D01*
X45444303Y-80890249D01*
X45461229Y-80866165D01*
X45521768Y-80745007D01*
X45530864Y-80717011D01*
X45553102Y-80583409D01*
X45554443Y-80567929D01*
X45554499Y-80560774D01*
X45553402Y-80545281D01*
X45533266Y-80411346D01*
X45524610Y-80383209D01*
X45465981Y-80261115D01*
X45449435Y-80236769D01*
X45357498Y-80137312D01*
X45334524Y-80118906D01*
X45217407Y-80050879D01*
X45190038Y-80040043D01*
X45058095Y-80009460D01*
X45028748Y-80007150D01*
X44893646Y-80016716D01*
X44864918Y-80023138D01*
X44738601Y-80072006D01*
X44713031Y-80086591D01*
X44624863Y-80156097D01*
X44607498Y-80137312D01*
X44584524Y-80118906D01*
X44467407Y-80050879D01*
X44440038Y-80040043D01*
X44308095Y-80009460D01*
X44278748Y-80007150D01*
X44143646Y-80016716D01*
X44114918Y-80023138D01*
X43988601Y-80072006D01*
X43963031Y-80086591D01*
X43874863Y-80156097D01*
X43857498Y-80137312D01*
X43834524Y-80118906D01*
X43717407Y-80050879D01*
X43690038Y-80040043D01*
X43558095Y-80009460D01*
X43528748Y-80007150D01*
X43393646Y-80016716D01*
X43364918Y-80023138D01*
X43238601Y-80072006D01*
X43213031Y-80086591D01*
X43106667Y-80170442D01*
X43086516Y-80191900D01*
X43009509Y-80303319D01*
X42996558Y-80329755D01*
X42955718Y-80458891D01*
X42951113Y-80487965D01*
X42950049Y-80623402D01*
X30849000Y-80623402D01*
X30849000Y-79309752D01*
X30866092Y-79223822D01*
X30909243Y-79159243D01*
X30973822Y-79116092D01*
X31059752Y-79099000D01*
X46199997Y-79099000D01*
X46219311Y-79097098D01*
X46334116Y-79074262D01*
X46369804Y-79059479D01*
X46458820Y-79000000D01*
X46499997Y-79000000D01*
X46499997Y-78958823D01*
X46559476Y-78869807D01*
X46574259Y-78834119D01*
X46597095Y-78719314D01*
X46598997Y-78700000D01*
X46598997Y-77920526D01*
X47700500Y-77920526D01*
X47700500Y-79041316D01*
X47701217Y-79053210D01*
X47716582Y-79180178D01*
X47722256Y-79203278D01*
X47782174Y-79361848D01*
X47793195Y-79382928D01*
X47889209Y-79522629D01*
X47904939Y-79540472D01*
X48031504Y-79653238D01*
X48051037Y-79666814D01*
X48200846Y-79746134D01*
X48223053Y-79754658D01*
X48387459Y-79795954D01*
X48405361Y-79798742D01*
X48414310Y-79799305D01*
X48420526Y-79799500D01*
X49541316Y-79799500D01*
X49553210Y-79798783D01*
X49680178Y-79783418D01*
X49703278Y-79777744D01*
X49861848Y-79717826D01*
X49882928Y-79706805D01*
X50022629Y-79610791D01*
X50040472Y-79595061D01*
X50153238Y-79468496D01*
X50166814Y-79448963D01*
X50246134Y-79299154D01*
X50254658Y-79276947D01*
X50295954Y-79112541D01*
X50298742Y-79094639D01*
X50299305Y-79085690D01*
X50299500Y-79079474D01*
X50299500Y-77958684D01*
X50298783Y-77946790D01*
X50283418Y-77819822D01*
X50277744Y-77796722D01*
X50217826Y-77638152D01*
X50206805Y-77617072D01*
X50110791Y-77477371D01*
X50095061Y-77459528D01*
X49968496Y-77346762D01*
X49948963Y-77333186D01*
X49799154Y-77253866D01*
X49776947Y-77245342D01*
X49612541Y-77204046D01*
X49594639Y-77201258D01*
X49585690Y-77200695D01*
X49579474Y-77200500D01*
X48458684Y-77200500D01*
X48446790Y-77201217D01*
X48319822Y-77216582D01*
X48296722Y-77222256D01*
X48138152Y-77282174D01*
X48117072Y-77293195D01*
X47977371Y-77389209D01*
X47959528Y-77404939D01*
X47846762Y-77531504D01*
X47833186Y-77551037D01*
X47753866Y-77700846D01*
X47745342Y-77723053D01*
X47704046Y-77887459D01*
X47701258Y-77905361D01*
X47700695Y-77914310D01*
X47700500Y-77920526D01*
X46598997Y-77920526D01*
X46598997Y-74420526D01*
X47700500Y-74420526D01*
X47700500Y-75541316D01*
X47701217Y-75553210D01*
X47716582Y-75680178D01*
X47722256Y-75703278D01*
X47782174Y-75861848D01*
X47793195Y-75882928D01*
X47889209Y-76022629D01*
X47904939Y-76040472D01*
X48031504Y-76153238D01*
X48051037Y-76166814D01*
X48200846Y-76246134D01*
X48223053Y-76254658D01*
X48387459Y-76295954D01*
X48405361Y-76298742D01*
X48414310Y-76299305D01*
X48420526Y-76299500D01*
X49541316Y-76299500D01*
X49553210Y-76298783D01*
X49680178Y-76283418D01*
X49703278Y-76277744D01*
X49861848Y-76217826D01*
X49882928Y-76206805D01*
X50022629Y-76110791D01*
X50040472Y-76095061D01*
X50153238Y-75968496D01*
X50166814Y-75948963D01*
X50246134Y-75799154D01*
X50254658Y-75776947D01*
X50295954Y-75612541D01*
X50298742Y-75594639D01*
X50299305Y-75585690D01*
X50299500Y-75579474D01*
X50299500Y-74458684D01*
X50298783Y-74446790D01*
X50283418Y-74319822D01*
X50277744Y-74296722D01*
X50217826Y-74138152D01*
X50206805Y-74117072D01*
X50110791Y-73977371D01*
X50095061Y-73959528D01*
X49968496Y-73846762D01*
X49948963Y-73833186D01*
X49799154Y-73753866D01*
X49776947Y-73745342D01*
X49612541Y-73704046D01*
X49594639Y-73701258D01*
X49585690Y-73700695D01*
X49579474Y-73700500D01*
X48458684Y-73700500D01*
X48446790Y-73701217D01*
X48319822Y-73716582D01*
X48296722Y-73722256D01*
X48138152Y-73782174D01*
X48117072Y-73793195D01*
X47977371Y-73889209D01*
X47959528Y-73904939D01*
X47846762Y-74031504D01*
X47833186Y-74051037D01*
X47753866Y-74200846D01*
X47745342Y-74223053D01*
X47704046Y-74387459D01*
X47701258Y-74405361D01*
X47700695Y-74414310D01*
X47700500Y-74420526D01*
X46598997Y-74420526D01*
X46598997Y-70920526D01*
X47700500Y-70920526D01*
X47700500Y-72041316D01*
X47701217Y-72053210D01*
X47716582Y-72180178D01*
X47722256Y-72203278D01*
X47782174Y-72361848D01*
X47793195Y-72382928D01*
X47889209Y-72522629D01*
X47904939Y-72540472D01*
X48031504Y-72653238D01*
X48051037Y-72666814D01*
X48200846Y-72746134D01*
X48223053Y-72754658D01*
X48387459Y-72795954D01*
X48405361Y-72798742D01*
X48414310Y-72799305D01*
X48420526Y-72799500D01*
X49541316Y-72799500D01*
X49553210Y-72798783D01*
X49680178Y-72783418D01*
X49703278Y-72777744D01*
X49861848Y-72717826D01*
X49882928Y-72706805D01*
X50022629Y-72610791D01*
X50040472Y-72595061D01*
X50153238Y-72468496D01*
X50166814Y-72448963D01*
X50246134Y-72299154D01*
X50254658Y-72276947D01*
X50295954Y-72112541D01*
X50298742Y-72094639D01*
X50299305Y-72085690D01*
X50299500Y-72079474D01*
X50299500Y-70958684D01*
X50298783Y-70946790D01*
X50283418Y-70819822D01*
X50277744Y-70796722D01*
X50217826Y-70638152D01*
X50206805Y-70617072D01*
X50110791Y-70477371D01*
X50095061Y-70459528D01*
X49968496Y-70346762D01*
X49948963Y-70333186D01*
X49799154Y-70253866D01*
X49776947Y-70245342D01*
X49612541Y-70204046D01*
X49594639Y-70201258D01*
X49585690Y-70200695D01*
X49579474Y-70200500D01*
X48458684Y-70200500D01*
X48446790Y-70201217D01*
X48319822Y-70216582D01*
X48296722Y-70222256D01*
X48138152Y-70282174D01*
X48117072Y-70293195D01*
X47977371Y-70389209D01*
X47959528Y-70404939D01*
X47846762Y-70531504D01*
X47833186Y-70551037D01*
X47753866Y-70700846D01*
X47745342Y-70723053D01*
X47704046Y-70887459D01*
X47701258Y-70905361D01*
X47700695Y-70914310D01*
X47700500Y-70920526D01*
X46598997Y-70920526D01*
X46598997Y-68969406D01*
X46987656Y-68969406D01*
X46987656Y-69030592D01*
X46991022Y-69039475D01*
X47082849Y-69250665D01*
X47090516Y-69264963D01*
X47224482Y-69472042D01*
X47234380Y-69484896D01*
X47400368Y-69667315D01*
X47412234Y-69678380D01*
X47605788Y-69831239D01*
X47619301Y-69840217D01*
X47835221Y-69959412D01*
X47850019Y-69966063D01*
X47966953Y-70007471D01*
X48028118Y-70009072D01*
X48078542Y-69974416D01*
X48099000Y-69914149D01*
X48099000Y-69000000D01*
X49900999Y-69000000D01*
X49900999Y-69918189D01*
X49919906Y-69976380D01*
X49969406Y-70012344D01*
X50030592Y-70012344D01*
X50039475Y-70008978D01*
X50250665Y-69917151D01*
X50264963Y-69909484D01*
X50472042Y-69775518D01*
X50484896Y-69765620D01*
X50667315Y-69599632D01*
X50678380Y-69587766D01*
X50831239Y-69394212D01*
X50840217Y-69380699D01*
X50959412Y-69164779D01*
X50966063Y-69149981D01*
X51007471Y-69033047D01*
X51009072Y-68971882D01*
X50974416Y-68921458D01*
X50914149Y-68901000D01*
X49999999Y-68901000D01*
X49941808Y-68919907D01*
X49905844Y-68969407D01*
X49900999Y-69000000D01*
X48099000Y-69000000D01*
X48099000Y-68999999D01*
X48080093Y-68941808D01*
X48030593Y-68905844D01*
X48000000Y-68900999D01*
X47081811Y-68900999D01*
X47023620Y-68919906D01*
X46987656Y-68969406D01*
X46598997Y-68969406D01*
X46598997Y-67028118D01*
X46990928Y-67028118D01*
X47025584Y-67078542D01*
X47085851Y-67099000D01*
X48000001Y-67099000D01*
X48058192Y-67080093D01*
X48094156Y-67030593D01*
X48099001Y-67000000D01*
X48099001Y-66085851D01*
X49901000Y-66085851D01*
X49901000Y-67000001D01*
X49919907Y-67058192D01*
X49969407Y-67094156D01*
X50000000Y-67099001D01*
X50918189Y-67099001D01*
X50976380Y-67080094D01*
X51012344Y-67030594D01*
X51012344Y-66969408D01*
X51008978Y-66960525D01*
X50917151Y-66749335D01*
X50909484Y-66735037D01*
X50775518Y-66527958D01*
X50765620Y-66515104D01*
X50599632Y-66332685D01*
X50587766Y-66321620D01*
X50394212Y-66168761D01*
X50380699Y-66159783D01*
X50164779Y-66040588D01*
X50149981Y-66033937D01*
X50033047Y-65992529D01*
X49971882Y-65990928D01*
X49921458Y-66025584D01*
X49901000Y-66085851D01*
X48099001Y-66085851D01*
X48099001Y-66081811D01*
X48080094Y-66023620D01*
X48030594Y-65987656D01*
X47969408Y-65987656D01*
X47960525Y-65991022D01*
X47749335Y-66082849D01*
X47735037Y-66090516D01*
X47527958Y-66224482D01*
X47515104Y-66234380D01*
X47332685Y-66400368D01*
X47321620Y-66412234D01*
X47168761Y-66605788D01*
X47159783Y-66619301D01*
X47040588Y-66835221D01*
X47033937Y-66850019D01*
X46992529Y-66966953D01*
X46990928Y-67028118D01*
X46598997Y-67028118D01*
X46598997Y-59356586D01*
X46625178Y-59353418D01*
X46648279Y-59347744D01*
X46806849Y-59287826D01*
X46827929Y-59276805D01*
X46967630Y-59180791D01*
X46985473Y-59165061D01*
X47098238Y-59038496D01*
X47111814Y-59018963D01*
X47191134Y-58869154D01*
X47199658Y-58846947D01*
X47240954Y-58682541D01*
X47243936Y-58658941D01*
X47243979Y-58650570D01*
X48975177Y-58650570D01*
X48977911Y-58674199D01*
X49017483Y-58839029D01*
X49025775Y-58861324D01*
X49103522Y-59011956D01*
X49116892Y-59031630D01*
X49228325Y-59159369D01*
X49246002Y-59175286D01*
X49384689Y-59272757D01*
X49405654Y-59283998D01*
X49563588Y-59345573D01*
X49586627Y-59351488D01*
X49717008Y-59368653D01*
X49729930Y-59369500D01*
X50416317Y-59369500D01*
X50428211Y-59368783D01*
X50555179Y-59353418D01*
X50578279Y-59347744D01*
X50736849Y-59287826D01*
X50757929Y-59276805D01*
X50897630Y-59180791D01*
X50915473Y-59165061D01*
X51028238Y-59038496D01*
X51041814Y-59018963D01*
X51121134Y-58869154D01*
X51129658Y-58846947D01*
X51170954Y-58682541D01*
X51173936Y-58658941D01*
X51174823Y-58489430D01*
X51172089Y-58465801D01*
X51132517Y-58300971D01*
X51124225Y-58278676D01*
X51046478Y-58128044D01*
X51033108Y-58108370D01*
X50921675Y-57980631D01*
X50903998Y-57964714D01*
X50765311Y-57867243D01*
X50744346Y-57856002D01*
X50586412Y-57794427D01*
X50563373Y-57788512D01*
X50432992Y-57771347D01*
X50420070Y-57770500D01*
X49733683Y-57770500D01*
X49721789Y-57771217D01*
X49594821Y-57786582D01*
X49571721Y-57792256D01*
X49413151Y-57852174D01*
X49392071Y-57863195D01*
X49252370Y-57959209D01*
X49234527Y-57974939D01*
X49121762Y-58101504D01*
X49108186Y-58121037D01*
X49028866Y-58270846D01*
X49020342Y-58293053D01*
X48979046Y-58457459D01*
X48976064Y-58481059D01*
X48975177Y-58650570D01*
X47243979Y-58650570D01*
X47244823Y-58489430D01*
X47242089Y-58465801D01*
X47202517Y-58300971D01*
X47194225Y-58278676D01*
X47116478Y-58128044D01*
X47103108Y-58108370D01*
X46991675Y-57980631D01*
X46973998Y-57964714D01*
X46835311Y-57867243D01*
X46814346Y-57856002D01*
X46656412Y-57794427D01*
X46633373Y-57788512D01*
X46598997Y-57783986D01*
X46598997Y-57730360D01*
X46662456Y-57709004D01*
X46686525Y-57697056D01*
X46805620Y-57616119D01*
X46825590Y-57598138D01*
X46918532Y-57488156D01*
X46932930Y-57465468D01*
X46992872Y-57334543D01*
X47000639Y-57308818D01*
X47023165Y-57166597D01*
X47024379Y-57152144D01*
X47024495Y-57141034D01*
X47023584Y-57126564D01*
X47004042Y-56983902D01*
X46996816Y-56958020D01*
X46939629Y-56825869D01*
X46925708Y-56802884D01*
X46835089Y-56690979D01*
X46815501Y-56672584D01*
X46698128Y-56589171D01*
X46674314Y-56576722D01*
X46598997Y-56549607D01*
X46598998Y-51950360D01*
X46662456Y-51929004D01*
X46686525Y-51917056D01*
X46805620Y-51836119D01*
X46825590Y-51818138D01*
X46918532Y-51708156D01*
X46932930Y-51685468D01*
X46992872Y-51554543D01*
X47000639Y-51528818D01*
X47023165Y-51386597D01*
X47024379Y-51372144D01*
X47024495Y-51361034D01*
X47023584Y-51346564D01*
X47004042Y-51203902D01*
X46996816Y-51178020D01*
X46939629Y-51045869D01*
X46925708Y-51022884D01*
X46835089Y-50910979D01*
X46815501Y-50892584D01*
X46698128Y-50809171D01*
X46674314Y-50796722D01*
X46598998Y-50769607D01*
X46598998Y-50716586D01*
X46625178Y-50713418D01*
X46648279Y-50707744D01*
X46806849Y-50647826D01*
X46827929Y-50636805D01*
X46967630Y-50540791D01*
X46985473Y-50525061D01*
X47098238Y-50398496D01*
X47111814Y-50378963D01*
X47191134Y-50229154D01*
X47199658Y-50206947D01*
X47240954Y-50042541D01*
X47243936Y-50018941D01*
X47243979Y-50010570D01*
X48975177Y-50010570D01*
X48977911Y-50034199D01*
X49017483Y-50199029D01*
X49025775Y-50221324D01*
X49103522Y-50371956D01*
X49116892Y-50391630D01*
X49228325Y-50519369D01*
X49246002Y-50535286D01*
X49384689Y-50632757D01*
X49405654Y-50643998D01*
X49563588Y-50705573D01*
X49586627Y-50711488D01*
X49717008Y-50728653D01*
X49729930Y-50729500D01*
X50416317Y-50729500D01*
X50428211Y-50728783D01*
X50555179Y-50713418D01*
X50578279Y-50707744D01*
X50736849Y-50647826D01*
X50757929Y-50636805D01*
X50897630Y-50540791D01*
X50915473Y-50525061D01*
X51028238Y-50398496D01*
X51041814Y-50378963D01*
X51121134Y-50229154D01*
X51129658Y-50206947D01*
X51170954Y-50042541D01*
X51173936Y-50018941D01*
X51174823Y-49849430D01*
X51172089Y-49825801D01*
X51132517Y-49660971D01*
X51124225Y-49638676D01*
X51046478Y-49488044D01*
X51033108Y-49468370D01*
X50921675Y-49340631D01*
X50903998Y-49324714D01*
X50765311Y-49227243D01*
X50744346Y-49216002D01*
X50586412Y-49154427D01*
X50563373Y-49148512D01*
X50432992Y-49131347D01*
X50420070Y-49130500D01*
X49733683Y-49130500D01*
X49721789Y-49131217D01*
X49594821Y-49146582D01*
X49571721Y-49152256D01*
X49413151Y-49212174D01*
X49392071Y-49223195D01*
X49252370Y-49319209D01*
X49234527Y-49334939D01*
X49121762Y-49461504D01*
X49108186Y-49481037D01*
X49028866Y-49630846D01*
X49020342Y-49653053D01*
X48979046Y-49817459D01*
X48976064Y-49841059D01*
X48975177Y-50010570D01*
X47243979Y-50010570D01*
X47244823Y-49849430D01*
X47242089Y-49825801D01*
X47202517Y-49660971D01*
X47194225Y-49638676D01*
X47116478Y-49488044D01*
X47103108Y-49468370D01*
X46991675Y-49340631D01*
X46973998Y-49324714D01*
X46835311Y-49227243D01*
X46814346Y-49216002D01*
X46656412Y-49154427D01*
X46633373Y-49148512D01*
X46598998Y-49143986D01*
X46598998Y-43962021D01*
X48050500Y-43962021D01*
X48050500Y-44537978D01*
X48051347Y-44550900D01*
X48066979Y-44669636D01*
X48073668Y-44694600D01*
X48134158Y-44840635D01*
X48147080Y-44863016D01*
X48243305Y-44988420D01*
X48261580Y-45006695D01*
X48386983Y-45102920D01*
X48409364Y-45115842D01*
X48555399Y-45176332D01*
X48580363Y-45183021D01*
X48737078Y-45203653D01*
X48762922Y-45203653D01*
X48919636Y-45183021D01*
X48944600Y-45176332D01*
X49090635Y-45115842D01*
X49113016Y-45102920D01*
X49238420Y-45006695D01*
X49256695Y-44988420D01*
X49334610Y-44886879D01*
X49383734Y-44983291D01*
X49401940Y-45008349D01*
X49491649Y-45098059D01*
X49516708Y-45116266D01*
X49629749Y-45173863D01*
X49659207Y-45183434D01*
X49752945Y-45198281D01*
X49768432Y-45199500D01*
X50231567Y-45199500D01*
X50247054Y-45198281D01*
X50340792Y-45183434D01*
X50370250Y-45173863D01*
X50483291Y-45116266D01*
X50508350Y-45098060D01*
X50598059Y-45008351D01*
X50616265Y-44983292D01*
X50673862Y-44870251D01*
X50683433Y-44840793D01*
X50698280Y-44747055D01*
X50699499Y-44731568D01*
X50699500Y-43768433D01*
X50698281Y-43752946D01*
X50683434Y-43659208D01*
X50673863Y-43629750D01*
X50616266Y-43516709D01*
X50598060Y-43491651D01*
X50508351Y-43401941D01*
X50483292Y-43383734D01*
X50370251Y-43326137D01*
X50340793Y-43316566D01*
X50247055Y-43301719D01*
X50231568Y-43300500D01*
X49768433Y-43300500D01*
X49752946Y-43301719D01*
X49659208Y-43316566D01*
X49629750Y-43326137D01*
X49516709Y-43383734D01*
X49491650Y-43401940D01*
X49401941Y-43491649D01*
X49383735Y-43516708D01*
X49334610Y-43613121D01*
X49256695Y-43511580D01*
X49238420Y-43493305D01*
X49113017Y-43397080D01*
X49090636Y-43384158D01*
X48944601Y-43323668D01*
X48919637Y-43316979D01*
X48762922Y-43296347D01*
X48737078Y-43296347D01*
X48580364Y-43316979D01*
X48555400Y-43323668D01*
X48409365Y-43384158D01*
X48386984Y-43397080D01*
X48261581Y-43493305D01*
X48243306Y-43511579D01*
X48147080Y-43636982D01*
X48134158Y-43659364D01*
X48073668Y-43805399D01*
X48066979Y-43830363D01*
X48051347Y-43949099D01*
X48050500Y-43962021D01*
X46598998Y-43962021D01*
X46598998Y-39920526D01*
X47700500Y-39920526D01*
X47700500Y-41041316D01*
X47701217Y-41053210D01*
X47716582Y-41180178D01*
X47722256Y-41203278D01*
X47782174Y-41361848D01*
X47793195Y-41382928D01*
X47889209Y-41522629D01*
X47904939Y-41540472D01*
X48031504Y-41653238D01*
X48051037Y-41666814D01*
X48200846Y-41746134D01*
X48223053Y-41754658D01*
X48387459Y-41795954D01*
X48405361Y-41798742D01*
X48414310Y-41799305D01*
X48420526Y-41799500D01*
X49541316Y-41799500D01*
X49553210Y-41798783D01*
X49680178Y-41783418D01*
X49703278Y-41777744D01*
X49861848Y-41717826D01*
X49882928Y-41706805D01*
X50022629Y-41610791D01*
X50040472Y-41595061D01*
X50153238Y-41468496D01*
X50166814Y-41448963D01*
X50246134Y-41299154D01*
X50254658Y-41276947D01*
X50295954Y-41112541D01*
X50298742Y-41094639D01*
X50299305Y-41085690D01*
X50299500Y-41079474D01*
X50299500Y-39958684D01*
X50298783Y-39946790D01*
X50283418Y-39819822D01*
X50277744Y-39796722D01*
X50217826Y-39638152D01*
X50206805Y-39617072D01*
X50110791Y-39477371D01*
X50095061Y-39459528D01*
X49968496Y-39346762D01*
X49948963Y-39333186D01*
X49799154Y-39253866D01*
X49776947Y-39245342D01*
X49612541Y-39204046D01*
X49594639Y-39201258D01*
X49585690Y-39200695D01*
X49579474Y-39200500D01*
X48458684Y-39200500D01*
X48446790Y-39201217D01*
X48319822Y-39216582D01*
X48296722Y-39222256D01*
X48138152Y-39282174D01*
X48117072Y-39293195D01*
X47977371Y-39389209D01*
X47959528Y-39404939D01*
X47846762Y-39531504D01*
X47833186Y-39551037D01*
X47753866Y-39700846D01*
X47745342Y-39723053D01*
X47704046Y-39887459D01*
X47701258Y-39905361D01*
X47700695Y-39914310D01*
X47700500Y-39920526D01*
X46598998Y-39920526D01*
X46598998Y-33313403D01*
X46950047Y-33313403D01*
X46954195Y-33342547D01*
X46993002Y-33472308D01*
X47005536Y-33498943D01*
X47080783Y-33611558D01*
X47093004Y-33624990D01*
X47086514Y-33631901D01*
X47009507Y-33743320D01*
X46996556Y-33769756D01*
X46955716Y-33898892D01*
X46951111Y-33927966D01*
X46950047Y-34063403D01*
X46954195Y-34092547D01*
X46993002Y-34222308D01*
X47005536Y-34248943D01*
X47080783Y-34361558D01*
X47093004Y-34374990D01*
X47086514Y-34381901D01*
X47009507Y-34493320D01*
X46996556Y-34519756D01*
X46955716Y-34648892D01*
X46951111Y-34677966D01*
X46950047Y-34813403D01*
X46954195Y-34842547D01*
X46993002Y-34972308D01*
X47005536Y-34998943D01*
X47080783Y-35111558D01*
X47100594Y-35133331D01*
X47205628Y-35218842D01*
X47230966Y-35233827D01*
X47270280Y-35249751D01*
X47238599Y-35262007D01*
X47213029Y-35276592D01*
X47106665Y-35360443D01*
X47086514Y-35381901D01*
X47009507Y-35493320D01*
X46996556Y-35519756D01*
X46955716Y-35648892D01*
X46951111Y-35677966D01*
X46950047Y-35813403D01*
X46954195Y-35842547D01*
X46993002Y-35972308D01*
X47005536Y-35998943D01*
X47080783Y-36111558D01*
X47093004Y-36124990D01*
X47086514Y-36131901D01*
X47009507Y-36243320D01*
X46996556Y-36269756D01*
X46955716Y-36398892D01*
X46951111Y-36427966D01*
X46950047Y-36563403D01*
X46954195Y-36592547D01*
X46993002Y-36722308D01*
X47005536Y-36748943D01*
X47080783Y-36861558D01*
X47093004Y-36874990D01*
X47086514Y-36881901D01*
X47009507Y-36993320D01*
X46996556Y-37019756D01*
X46955716Y-37148892D01*
X46951111Y-37177966D01*
X46950047Y-37313403D01*
X46954195Y-37342547D01*
X46993002Y-37472308D01*
X47005536Y-37498943D01*
X47080783Y-37611558D01*
X47100594Y-37633331D01*
X47205628Y-37718842D01*
X47230966Y-37733827D01*
X47356500Y-37784673D01*
X47385123Y-37791545D01*
X47520058Y-37803232D01*
X47549437Y-37801383D01*
X47681844Y-37772877D01*
X47709382Y-37762472D01*
X47738468Y-37746183D01*
X47782174Y-37861848D01*
X47793195Y-37882928D01*
X47889209Y-38022629D01*
X47904939Y-38040472D01*
X48031504Y-38153238D01*
X48051037Y-38166814D01*
X48200846Y-38246134D01*
X48223053Y-38254658D01*
X48387459Y-38295954D01*
X48405361Y-38298742D01*
X48414310Y-38299305D01*
X48420526Y-38299500D01*
X49541316Y-38299500D01*
X49553210Y-38298783D01*
X49680178Y-38283418D01*
X49703278Y-38277744D01*
X49861848Y-38217826D01*
X49882928Y-38206805D01*
X50022629Y-38110791D01*
X50040472Y-38095061D01*
X50153238Y-37968496D01*
X50166814Y-37948963D01*
X50246134Y-37799154D01*
X50254658Y-37776947D01*
X50295954Y-37612541D01*
X50298742Y-37594639D01*
X50299305Y-37585690D01*
X50299500Y-37579474D01*
X50299500Y-36458684D01*
X50298783Y-36446790D01*
X50283418Y-36319822D01*
X50277744Y-36296722D01*
X50217826Y-36138152D01*
X50206805Y-36117072D01*
X50110791Y-35977371D01*
X50095061Y-35959528D01*
X49968496Y-35846762D01*
X49948963Y-35833186D01*
X49799154Y-35753866D01*
X49776947Y-35745342D01*
X49612541Y-35704046D01*
X49594639Y-35701258D01*
X49585690Y-35700695D01*
X49579474Y-35700500D01*
X48458684Y-35700500D01*
X48446790Y-35701217D01*
X48319822Y-35716582D01*
X48296722Y-35722256D01*
X48138152Y-35782174D01*
X48117072Y-35793195D01*
X48041118Y-35845397D01*
X48053100Y-35773410D01*
X48054441Y-35757930D01*
X48054497Y-35750775D01*
X48053400Y-35735282D01*
X48033264Y-35601347D01*
X48024608Y-35573210D01*
X47965979Y-35451116D01*
X47949433Y-35426770D01*
X47857496Y-35327313D01*
X47834522Y-35308907D01*
X47732393Y-35249585D01*
X47827553Y-35196293D01*
X47850813Y-35178251D01*
X47944301Y-35080250D01*
X47961227Y-35056166D01*
X48021766Y-34935008D01*
X48030862Y-34907012D01*
X48053100Y-34773410D01*
X48054441Y-34757930D01*
X48054497Y-34750775D01*
X48053400Y-34735282D01*
X48042181Y-34660659D01*
X48051037Y-34666814D01*
X48200846Y-34746134D01*
X48223053Y-34754658D01*
X48387459Y-34795954D01*
X48405361Y-34798742D01*
X48414310Y-34799305D01*
X48420526Y-34799500D01*
X49541316Y-34799500D01*
X49553210Y-34798783D01*
X49680178Y-34783418D01*
X49703278Y-34777744D01*
X49861848Y-34717826D01*
X49882928Y-34706805D01*
X50022629Y-34610791D01*
X50040472Y-34595061D01*
X50153238Y-34468496D01*
X50166814Y-34448963D01*
X50246134Y-34299154D01*
X50254658Y-34276947D01*
X50295954Y-34112541D01*
X50298742Y-34094639D01*
X50299305Y-34085690D01*
X50299500Y-34079474D01*
X50299500Y-32958684D01*
X50298783Y-32946790D01*
X50283418Y-32819822D01*
X50277744Y-32796722D01*
X50217826Y-32638152D01*
X50206805Y-32617072D01*
X50110791Y-32477371D01*
X50095061Y-32459528D01*
X49968496Y-32346762D01*
X49948963Y-32333186D01*
X49799154Y-32253866D01*
X49776947Y-32245342D01*
X49612541Y-32204046D01*
X49594639Y-32201258D01*
X49585690Y-32200695D01*
X49579474Y-32200500D01*
X48458684Y-32200500D01*
X48446790Y-32201217D01*
X48319822Y-32216582D01*
X48296722Y-32222256D01*
X48138152Y-32282174D01*
X48117072Y-32293195D01*
X47977371Y-32389209D01*
X47959528Y-32404939D01*
X47846762Y-32531504D01*
X47833186Y-32551037D01*
X47753866Y-32700846D01*
X47745342Y-32723053D01*
X47737877Y-32752771D01*
X47717405Y-32740880D01*
X47690036Y-32730044D01*
X47558093Y-32699461D01*
X47528746Y-32697151D01*
X47393644Y-32706717D01*
X47364916Y-32713139D01*
X47238599Y-32762007D01*
X47213029Y-32776592D01*
X47106665Y-32860443D01*
X47086514Y-32881901D01*
X47009507Y-32993320D01*
X46996556Y-33019756D01*
X46955716Y-33148892D01*
X46951111Y-33177966D01*
X46950047Y-33313403D01*
X46598998Y-33313403D01*
X46598998Y-30969406D01*
X46987656Y-30969406D01*
X46987656Y-31030592D01*
X46991022Y-31039475D01*
X47082849Y-31250665D01*
X47090516Y-31264963D01*
X47224482Y-31472042D01*
X47234380Y-31484896D01*
X47400368Y-31667315D01*
X47412234Y-31678380D01*
X47605788Y-31831239D01*
X47619301Y-31840217D01*
X47835221Y-31959412D01*
X47850019Y-31966063D01*
X47966953Y-32007471D01*
X48028118Y-32009072D01*
X48078542Y-31974416D01*
X48099000Y-31914149D01*
X48099000Y-31000000D01*
X49900999Y-31000000D01*
X49900999Y-31918189D01*
X49919906Y-31976380D01*
X49969406Y-32012344D01*
X50030592Y-32012344D01*
X50039475Y-32008978D01*
X50250665Y-31917151D01*
X50264963Y-31909484D01*
X50472042Y-31775518D01*
X50484896Y-31765620D01*
X50667315Y-31599632D01*
X50678380Y-31587766D01*
X50831239Y-31394212D01*
X50840217Y-31380699D01*
X50959412Y-31164779D01*
X50966063Y-31149981D01*
X51007471Y-31033047D01*
X51009072Y-30971882D01*
X50974416Y-30921458D01*
X50914149Y-30901000D01*
X49999999Y-30901000D01*
X49941808Y-30919907D01*
X49905844Y-30969407D01*
X49900999Y-31000000D01*
X48099000Y-31000000D01*
X48099000Y-30999999D01*
X48080093Y-30941808D01*
X48030593Y-30905844D01*
X48000000Y-30900999D01*
X47081811Y-30900999D01*
X47023620Y-30919906D01*
X46987656Y-30969406D01*
X46598998Y-30969406D01*
X46598998Y-29028118D01*
X46990928Y-29028118D01*
X47025584Y-29078542D01*
X47085851Y-29099000D01*
X48000001Y-29099000D01*
X48058192Y-29080093D01*
X48094156Y-29030593D01*
X48099001Y-29000000D01*
X48099001Y-28085851D01*
X49901000Y-28085851D01*
X49901000Y-29000001D01*
X49919907Y-29058192D01*
X49969407Y-29094156D01*
X50000000Y-29099001D01*
X50918189Y-29099001D01*
X50976380Y-29080094D01*
X51012344Y-29030594D01*
X51012344Y-28969408D01*
X51008978Y-28960525D01*
X50917151Y-28749335D01*
X50909484Y-28735037D01*
X50775518Y-28527958D01*
X50765620Y-28515104D01*
X50599632Y-28332685D01*
X50587766Y-28321620D01*
X50394212Y-28168761D01*
X50380699Y-28159783D01*
X50164779Y-28040588D01*
X50149981Y-28033937D01*
X50033047Y-27992529D01*
X49971882Y-27990928D01*
X49921458Y-28025584D01*
X49901000Y-28085851D01*
X48099001Y-28085851D01*
X48099001Y-28081811D01*
X48080094Y-28023620D01*
X48030594Y-27987656D01*
X47969408Y-27987656D01*
X47960525Y-27991022D01*
X47749335Y-28082849D01*
X47735037Y-28090516D01*
X47527958Y-28224482D01*
X47515104Y-28234380D01*
X47332685Y-28400368D01*
X47321620Y-28412234D01*
X47168761Y-28605788D01*
X47159783Y-28619301D01*
X47040588Y-28835221D01*
X47033937Y-28850019D01*
X46992529Y-28966953D01*
X46990928Y-29028118D01*
X46598998Y-29028118D01*
X46598998Y-27050002D01*
X46597096Y-27030688D01*
X46574260Y-26915883D01*
X46559477Y-26880195D01*
X46499998Y-26791179D01*
X46499998Y-26750002D01*
X46458821Y-26750002D01*
X46369805Y-26690523D01*
X46334117Y-26675740D01*
X46219312Y-26652904D01*
X46199998Y-26651002D01*
X31059752Y-26651003D01*
X30973822Y-26633911D01*
X30909243Y-26590760D01*
X30866092Y-26526181D01*
X30849000Y-26440251D01*
X30849000Y-25313403D01*
X41950047Y-25313403D01*
X41954195Y-25342547D01*
X41993002Y-25472308D01*
X42005536Y-25498943D01*
X42080783Y-25611558D01*
X42100594Y-25633331D01*
X42205628Y-25718842D01*
X42230966Y-25733827D01*
X42356500Y-25784673D01*
X42385123Y-25791545D01*
X42520058Y-25803232D01*
X42549437Y-25801383D01*
X42681844Y-25772877D01*
X42709382Y-25762472D01*
X42827553Y-25696293D01*
X42850813Y-25678251D01*
X42874837Y-25653068D01*
X42955628Y-25718842D01*
X42980966Y-25733827D01*
X43106500Y-25784673D01*
X43135123Y-25791545D01*
X43270058Y-25803232D01*
X43299437Y-25801383D01*
X43431844Y-25772877D01*
X43459382Y-25762472D01*
X43577553Y-25696293D01*
X43600813Y-25678251D01*
X43624837Y-25653068D01*
X43705628Y-25718842D01*
X43730966Y-25733827D01*
X43856500Y-25784673D01*
X43885123Y-25791545D01*
X44020058Y-25803232D01*
X44049437Y-25801383D01*
X44181844Y-25772877D01*
X44209382Y-25762472D01*
X44327553Y-25696293D01*
X44350813Y-25678251D01*
X44444301Y-25580250D01*
X44461227Y-25556166D01*
X44521766Y-25435008D01*
X44530862Y-25407012D01*
X44553100Y-25273410D01*
X44554441Y-25257930D01*
X44554497Y-25250775D01*
X44553400Y-25235282D01*
X44533264Y-25101347D01*
X44524608Y-25073210D01*
X44465979Y-24951116D01*
X44449433Y-24926770D01*
X44357496Y-24827313D01*
X44334522Y-24808907D01*
X44217405Y-24740880D01*
X44190036Y-24730044D01*
X44058093Y-24699461D01*
X44028746Y-24697151D01*
X43893644Y-24706717D01*
X43864916Y-24713139D01*
X43738599Y-24762007D01*
X43713029Y-24776592D01*
X43624861Y-24846098D01*
X43607496Y-24827313D01*
X43584522Y-24808907D01*
X43467405Y-24740880D01*
X43440036Y-24730044D01*
X43308093Y-24699461D01*
X43278746Y-24697151D01*
X43143644Y-24706717D01*
X43114916Y-24713139D01*
X42988599Y-24762007D01*
X42963029Y-24776592D01*
X42874861Y-24846098D01*
X42857496Y-24827313D01*
X42834522Y-24808907D01*
X42717405Y-24740880D01*
X42690036Y-24730044D01*
X42558093Y-24699461D01*
X42528746Y-24697151D01*
X42393644Y-24706717D01*
X42364916Y-24713139D01*
X42238599Y-24762007D01*
X42213029Y-24776592D01*
X42106665Y-24860443D01*
X42086514Y-24881901D01*
X42009507Y-24993320D01*
X41996556Y-25019756D01*
X41955716Y-25148892D01*
X41951111Y-25177966D01*
X41950047Y-25313403D01*
X30849000Y-25313403D01*
X30849000Y-24563403D01*
X33700047Y-24563403D01*
X33704195Y-24592547D01*
X33743002Y-24722308D01*
X33755536Y-24748943D01*
X33830783Y-24861558D01*
X33850594Y-24883331D01*
X33955628Y-24968842D01*
X33980966Y-24983827D01*
X34106500Y-25034673D01*
X34135123Y-25041545D01*
X34270058Y-25053232D01*
X34299437Y-25051383D01*
X34431844Y-25022877D01*
X34459382Y-25012472D01*
X34577553Y-24946293D01*
X34600813Y-24928251D01*
X34694301Y-24830250D01*
X34711227Y-24806166D01*
X34771766Y-24685008D01*
X34780862Y-24657012D01*
X34803100Y-24523410D01*
X34804441Y-24507930D01*
X34804497Y-24500775D01*
X34803400Y-24485282D01*
X34783264Y-24351347D01*
X34774608Y-24323210D01*
X34715979Y-24201116D01*
X34699433Y-24176770D01*
X34607496Y-24077313D01*
X34584522Y-24058907D01*
X34467405Y-23990880D01*
X34440036Y-23980044D01*
X34308093Y-23949461D01*
X34278746Y-23947151D01*
X34143644Y-23956717D01*
X34114916Y-23963139D01*
X33988599Y-24012007D01*
X33963029Y-24026592D01*
X33856665Y-24110443D01*
X33836514Y-24131901D01*
X33759507Y-24243320D01*
X33746556Y-24269756D01*
X33705716Y-24398892D01*
X33701111Y-24427966D01*
X33700047Y-24563403D01*
X30849000Y-24563403D01*
X30849000Y-21110862D01*
X30900367Y-21167314D01*
X30912233Y-21178379D01*
X31105787Y-21331238D01*
X31119300Y-21340216D01*
X31335220Y-21459411D01*
X31350018Y-21466061D01*
X31466952Y-21507470D01*
X31528116Y-21509072D01*
X31578541Y-21474417D01*
X31598999Y-21414149D01*
X31598999Y-20500000D01*
X33400998Y-20500000D01*
X33400998Y-21418189D01*
X33419905Y-21476380D01*
X33469405Y-21512344D01*
X33530591Y-21512344D01*
X33539474Y-21508978D01*
X33750663Y-21417151D01*
X33764961Y-21409484D01*
X33972040Y-21275518D01*
X33984894Y-21265620D01*
X34167313Y-21099632D01*
X34178378Y-21087766D01*
X34247892Y-20999745D01*
X34400368Y-21167314D01*
X34412234Y-21178379D01*
X34605788Y-21331238D01*
X34619301Y-21340216D01*
X34835221Y-21459411D01*
X34850019Y-21466061D01*
X34966953Y-21507470D01*
X35028117Y-21509072D01*
X35078542Y-21474417D01*
X35099000Y-21414149D01*
X35099000Y-20500000D01*
X36900999Y-20500000D01*
X36900999Y-21418189D01*
X36919906Y-21476380D01*
X36969406Y-21512344D01*
X37030592Y-21512344D01*
X37039475Y-21508978D01*
X37250664Y-21417151D01*
X37264962Y-21409484D01*
X37472041Y-21275518D01*
X37484895Y-21265620D01*
X37667314Y-21099632D01*
X37678379Y-21087766D01*
X37831238Y-20894212D01*
X37840216Y-20880699D01*
X37959411Y-20664779D01*
X37966061Y-20649981D01*
X38007470Y-20533047D01*
X38009072Y-20471883D01*
X37974417Y-20421458D01*
X37914149Y-20401000D01*
X36999999Y-20401000D01*
X36941808Y-20419907D01*
X36905844Y-20469407D01*
X36900999Y-20500000D01*
X35099000Y-20500000D01*
X35099000Y-20499999D01*
X35080093Y-20441808D01*
X35030593Y-20405844D01*
X35000000Y-20400999D01*
X34539998Y-20400999D01*
X34539995Y-20401000D01*
X33499998Y-20401000D01*
X33441807Y-20419907D01*
X33405843Y-20469407D01*
X33400998Y-20500000D01*
X31598999Y-20500000D01*
X31598999Y-20041316D01*
X31598999Y-18920526D01*
X38200500Y-18920526D01*
X38200500Y-20041316D01*
X38201217Y-20053210D01*
X38216582Y-20180178D01*
X38222256Y-20203278D01*
X38282174Y-20361848D01*
X38293195Y-20382928D01*
X38389209Y-20522629D01*
X38404939Y-20540472D01*
X38531504Y-20653238D01*
X38551037Y-20666814D01*
X38700846Y-20746134D01*
X38723053Y-20754658D01*
X38887459Y-20795954D01*
X38905361Y-20798742D01*
X38914310Y-20799305D01*
X38920526Y-20799500D01*
X39200156Y-20799500D01*
X39200047Y-20813403D01*
X39204195Y-20842547D01*
X39243002Y-20972308D01*
X39255536Y-20998943D01*
X39330783Y-21111558D01*
X39350594Y-21133331D01*
X39455628Y-21218842D01*
X39480966Y-21233827D01*
X39606500Y-21284673D01*
X39635123Y-21291545D01*
X39770058Y-21303232D01*
X39799437Y-21301383D01*
X39931844Y-21272877D01*
X39959382Y-21262472D01*
X40019564Y-21228768D01*
X40009507Y-21243320D01*
X39996556Y-21269756D01*
X39955716Y-21398892D01*
X39951111Y-21427966D01*
X39950047Y-21563403D01*
X39954195Y-21592547D01*
X39993002Y-21722308D01*
X40005536Y-21748943D01*
X40080783Y-21861558D01*
X40100594Y-21883331D01*
X40205628Y-21968842D01*
X40230966Y-21983827D01*
X40356500Y-22034673D01*
X40385123Y-22041545D01*
X40520058Y-22053232D01*
X40549437Y-22051383D01*
X40681844Y-22022877D01*
X40709382Y-22012472D01*
X40769564Y-21978768D01*
X40759507Y-21993320D01*
X40746556Y-22019756D01*
X40705716Y-22148892D01*
X40701111Y-22177966D01*
X40700047Y-22313403D01*
X40704195Y-22342547D01*
X40743002Y-22472308D01*
X40755536Y-22498943D01*
X40830783Y-22611558D01*
X40850594Y-22633331D01*
X40955628Y-22718842D01*
X40980966Y-22733827D01*
X41106500Y-22784673D01*
X41135123Y-22791545D01*
X41270058Y-22803232D01*
X41299437Y-22801383D01*
X41431844Y-22772877D01*
X41459382Y-22762472D01*
X41519564Y-22728768D01*
X41509507Y-22743320D01*
X41496556Y-22769756D01*
X41455716Y-22898892D01*
X41451111Y-22927966D01*
X41450047Y-23063403D01*
X41454195Y-23092547D01*
X41493002Y-23222308D01*
X41505536Y-23248943D01*
X41580783Y-23361558D01*
X41600594Y-23383331D01*
X41705628Y-23468842D01*
X41730966Y-23483827D01*
X41856500Y-23534673D01*
X41885123Y-23541545D01*
X42020058Y-23553232D01*
X42049437Y-23551383D01*
X42181844Y-23522877D01*
X42209382Y-23512472D01*
X42327553Y-23446293D01*
X42350813Y-23428251D01*
X42444301Y-23330250D01*
X42461227Y-23306166D01*
X42521766Y-23185008D01*
X42530862Y-23157012D01*
X42553100Y-23023410D01*
X42554441Y-23007930D01*
X42554497Y-23000775D01*
X42553400Y-22985282D01*
X42533264Y-22851347D01*
X42525566Y-22826324D01*
X46974622Y-22826324D01*
X46984193Y-22886756D01*
X47019941Y-22925768D01*
X47146088Y-23004594D01*
X47154531Y-23009312D01*
X47522513Y-23191980D01*
X47531376Y-23195853D01*
X47915428Y-23341741D01*
X47924627Y-23344730D01*
X48321081Y-23452444D01*
X48330528Y-23454521D01*
X48735601Y-23523034D01*
X48745205Y-23524179D01*
X49155031Y-23552837D01*
X49164701Y-23553039D01*
X49575368Y-23541568D01*
X49585012Y-23540826D01*
X49992599Y-23489336D01*
X50002124Y-23487657D01*
X50402741Y-23396639D01*
X50412057Y-23394038D01*
X50801880Y-23264361D01*
X50810898Y-23260863D01*
X51186207Y-23093764D01*
X51194840Y-23089403D01*
X51477459Y-22928853D01*
X51518717Y-22883670D01*
X51525537Y-22822866D01*
X51498563Y-22772769D01*
X50592796Y-21867001D01*
X50538279Y-21839224D01*
X50477847Y-21848795D01*
X50452788Y-21867001D01*
X50211665Y-22108124D01*
X49998827Y-21895286D01*
X49784613Y-21681073D01*
X49730096Y-21653295D01*
X49669664Y-21662866D01*
X49644605Y-21681072D01*
X49250000Y-22075677D01*
X48855395Y-21681072D01*
X48800878Y-21653295D01*
X48740446Y-21662866D01*
X48715388Y-21681072D01*
X48501174Y-21895285D01*
X48288335Y-22108124D01*
X48047212Y-21867001D01*
X47992695Y-21839224D01*
X47932263Y-21848795D01*
X47907204Y-21867001D01*
X47002399Y-22771807D01*
X46974622Y-22826324D01*
X42525566Y-22826324D01*
X42524608Y-22823210D01*
X42465979Y-22701116D01*
X42449433Y-22676770D01*
X42401594Y-22625018D01*
X42444301Y-22580250D01*
X42461227Y-22556166D01*
X42521766Y-22435008D01*
X42530862Y-22407012D01*
X42553100Y-22273410D01*
X42554441Y-22257930D01*
X42554497Y-22250775D01*
X42553400Y-22235282D01*
X42533264Y-22101347D01*
X42524608Y-22073210D01*
X42465979Y-21951116D01*
X42449433Y-21926770D01*
X42401594Y-21875018D01*
X42444301Y-21830250D01*
X42461227Y-21806166D01*
X42521766Y-21685008D01*
X42530862Y-21657012D01*
X42553100Y-21523410D01*
X42554441Y-21507930D01*
X42554497Y-21500775D01*
X42553400Y-21485282D01*
X42533264Y-21351347D01*
X42524608Y-21323210D01*
X42465979Y-21201116D01*
X42449433Y-21176770D01*
X42357496Y-21077313D01*
X42334522Y-21058907D01*
X42217405Y-20990880D01*
X42190036Y-20980044D01*
X42058093Y-20949461D01*
X42028746Y-20947151D01*
X41893644Y-20956717D01*
X41864916Y-20963139D01*
X41738599Y-21012007D01*
X41731176Y-21016241D01*
X41771766Y-20935008D01*
X41780862Y-20907012D01*
X41803100Y-20773410D01*
X41804441Y-20757930D01*
X41804497Y-20750775D01*
X41803400Y-20735282D01*
X41783264Y-20601347D01*
X41774608Y-20573210D01*
X41715979Y-20451116D01*
X41699433Y-20426770D01*
X41651594Y-20375018D01*
X41694301Y-20330250D01*
X41711227Y-20306166D01*
X41771766Y-20185008D01*
X41780862Y-20157012D01*
X41803100Y-20023410D01*
X41804441Y-20007930D01*
X41804497Y-20000775D01*
X41803400Y-19985282D01*
X41783264Y-19851347D01*
X41774608Y-19823210D01*
X41715979Y-19701116D01*
X41699433Y-19676770D01*
X41607496Y-19577313D01*
X41584522Y-19558907D01*
X41467405Y-19490880D01*
X41440036Y-19480044D01*
X41308093Y-19449461D01*
X41278746Y-19447151D01*
X41143644Y-19456717D01*
X41114916Y-19463139D01*
X40988599Y-19512007D01*
X40963029Y-19526592D01*
X40856665Y-19610443D01*
X40836514Y-19631901D01*
X40799500Y-19685455D01*
X40799500Y-19194744D01*
X44946470Y-19194744D01*
X44960808Y-19605320D01*
X44961618Y-19614958D01*
X45015952Y-20022176D01*
X45017698Y-20031690D01*
X45111511Y-20431662D01*
X45114177Y-20440959D01*
X45246572Y-20829868D01*
X45250132Y-20838861D01*
X45419846Y-21212994D01*
X45424267Y-21221597D01*
X45572026Y-21477523D01*
X45617496Y-21518464D01*
X45678346Y-21524860D01*
X45727767Y-21498027D01*
X46367017Y-20858777D01*
X48942168Y-20858777D01*
X48951739Y-20919209D01*
X48969945Y-20944268D01*
X49179996Y-21154319D01*
X49234513Y-21182096D01*
X49294945Y-21172525D01*
X49320004Y-21154319D01*
X49530055Y-20944268D01*
X49557832Y-20889751D01*
X49548261Y-20829319D01*
X49530055Y-20804260D01*
X49320004Y-20594209D01*
X49265487Y-20566432D01*
X49205055Y-20576003D01*
X49179996Y-20594209D01*
X48969945Y-20804260D01*
X48942168Y-20858777D01*
X46367017Y-20858777D01*
X46632999Y-20592796D01*
X46660776Y-20538279D01*
X46651205Y-20477847D01*
X46632999Y-20452788D01*
X46391876Y-20211665D01*
X46604714Y-19998827D01*
X46818927Y-19784613D01*
X46846705Y-19730096D01*
X46837134Y-19669664D01*
X46818928Y-19644605D01*
X46424323Y-19250000D01*
X46439810Y-19234513D01*
X47317904Y-19234513D01*
X47327475Y-19294945D01*
X47345681Y-19320004D01*
X47555732Y-19530055D01*
X47610249Y-19557832D01*
X47670681Y-19548261D01*
X47695740Y-19530055D01*
X47905791Y-19320004D01*
X47933568Y-19265487D01*
X47923997Y-19205055D01*
X47905791Y-19179996D01*
X47695740Y-18969945D01*
X47641223Y-18942168D01*
X47580791Y-18951739D01*
X47555732Y-18969945D01*
X47345681Y-19179996D01*
X47317904Y-19234513D01*
X46439810Y-19234513D01*
X46818928Y-18855395D01*
X46841930Y-18810249D01*
X50142168Y-18810249D01*
X50151739Y-18870681D01*
X50169945Y-18895740D01*
X50804260Y-19530055D01*
X50858777Y-19557832D01*
X50919209Y-19548261D01*
X50944268Y-19530055D01*
X51154319Y-19320004D01*
X51182096Y-19265487D01*
X51172525Y-19205055D01*
X51154319Y-19179996D01*
X50520004Y-18545681D01*
X50465487Y-18517904D01*
X50405055Y-18527475D01*
X50379996Y-18545681D01*
X50169945Y-18755732D01*
X50142168Y-18810249D01*
X46841930Y-18810249D01*
X46846705Y-18800878D01*
X46837134Y-18740446D01*
X46818928Y-18715388D01*
X46604715Y-18501174D01*
X46391876Y-18288335D01*
X46632999Y-18047212D01*
X46660776Y-17992695D01*
X46651205Y-17932263D01*
X46632999Y-17907204D01*
X46336044Y-17610249D01*
X48942168Y-17610249D01*
X48951739Y-17670681D01*
X48969945Y-17695740D01*
X49604260Y-18330055D01*
X49658777Y-18357832D01*
X49719209Y-18348261D01*
X49744268Y-18330055D01*
X49954319Y-18120004D01*
X49982096Y-18065487D01*
X49972525Y-18005055D01*
X49954319Y-17979996D01*
X49320004Y-17345681D01*
X49265487Y-17317904D01*
X49205055Y-17327475D01*
X49179996Y-17345681D01*
X48969945Y-17555732D01*
X48942168Y-17610249D01*
X46336044Y-17610249D01*
X45728406Y-17002612D01*
X45673889Y-16974835D01*
X45613457Y-16984406D01*
X45574081Y-17020741D01*
X45480809Y-17172351D01*
X45476149Y-17180827D01*
X45296055Y-17550075D01*
X45292245Y-17558965D01*
X45149042Y-17944026D01*
X45146118Y-17953246D01*
X45041174Y-18350442D01*
X45039162Y-18359903D01*
X44973479Y-18765445D01*
X44972401Y-18775057D01*
X44946605Y-19185073D01*
X44946470Y-19194744D01*
X40799500Y-19194744D01*
X40799500Y-18958684D01*
X40798783Y-18946790D01*
X40783418Y-18819822D01*
X40777744Y-18796722D01*
X40717826Y-18638152D01*
X40706805Y-18617072D01*
X40610791Y-18477371D01*
X40595061Y-18459528D01*
X40468496Y-18346762D01*
X40448963Y-18333186D01*
X40299154Y-18253866D01*
X40276947Y-18245342D01*
X40112541Y-18204046D01*
X40094639Y-18201258D01*
X40085690Y-18200695D01*
X40079474Y-18200500D01*
X38958684Y-18200500D01*
X38946790Y-18201217D01*
X38819822Y-18216582D01*
X38796722Y-18222256D01*
X38638152Y-18282174D01*
X38617072Y-18293195D01*
X38477371Y-18389209D01*
X38459528Y-18404939D01*
X38346762Y-18531504D01*
X38333186Y-18551037D01*
X38253866Y-18700846D01*
X38245342Y-18723053D01*
X38204046Y-18887459D01*
X38201258Y-18905361D01*
X38200695Y-18914310D01*
X38200500Y-18920526D01*
X31598999Y-18920526D01*
X31598999Y-17585851D01*
X33400999Y-17585851D01*
X33400999Y-18500001D01*
X33419906Y-18558192D01*
X33469406Y-18594156D01*
X33499999Y-18599001D01*
X33960001Y-18599001D01*
X33960004Y-18599000D01*
X35000001Y-18599000D01*
X35058192Y-18580093D01*
X35094156Y-18530593D01*
X35099001Y-18500000D01*
X35099001Y-17585851D01*
X36901000Y-17585851D01*
X36901000Y-18500001D01*
X36919907Y-18558192D01*
X36969407Y-18594156D01*
X37000000Y-18599001D01*
X37918189Y-18599001D01*
X37976380Y-18580094D01*
X38012344Y-18530594D01*
X38012344Y-18469408D01*
X38008978Y-18460525D01*
X37917151Y-18249336D01*
X37909484Y-18235038D01*
X37775518Y-18027959D01*
X37765620Y-18015105D01*
X37599632Y-17832686D01*
X37587766Y-17821621D01*
X37394212Y-17668762D01*
X37380699Y-17659784D01*
X37164779Y-17540589D01*
X37149981Y-17533939D01*
X37033047Y-17492530D01*
X36971883Y-17490928D01*
X36921458Y-17525583D01*
X36901000Y-17585851D01*
X35099001Y-17585851D01*
X35099001Y-17581811D01*
X35080094Y-17523620D01*
X35030594Y-17487656D01*
X34969408Y-17487656D01*
X34960525Y-17491022D01*
X34749336Y-17582849D01*
X34735038Y-17590516D01*
X34527959Y-17724482D01*
X34515105Y-17734380D01*
X34332686Y-17900368D01*
X34321621Y-17912234D01*
X34252107Y-18000255D01*
X34099631Y-17832686D01*
X34087765Y-17821621D01*
X33894211Y-17668762D01*
X33880698Y-17659784D01*
X33664778Y-17540589D01*
X33649980Y-17533939D01*
X33533046Y-17492530D01*
X33471882Y-17490928D01*
X33421457Y-17525583D01*
X33400999Y-17585851D01*
X31598999Y-17585851D01*
X31599000Y-17581811D01*
X31580093Y-17523620D01*
X31530593Y-17487656D01*
X31469407Y-17487656D01*
X31460524Y-17491022D01*
X31249335Y-17582849D01*
X31235037Y-17590516D01*
X31027958Y-17724482D01*
X31015104Y-17734380D01*
X30849000Y-17885523D01*
X30849000Y-16259752D01*
X30866092Y-16173822D01*
X30909243Y-16109243D01*
X30973822Y-16066092D01*
X31059752Y-16049000D01*
X42934605Y-16049000D01*
X42856665Y-16110443D01*
G37*
%TD.AperFunction*%
%TD*%
M02*
