%FSLAX45Y45*%
G04 Gerber Fmt 4.5, Leading zero omitted, Abs format (unit mm)*
G04 Created by KiCad (PCBNEW (5.99.0-7167-g34dbce6bce)) date 2021-01-04 09:36:02*
%MOMM*%
%LPD*%
G01*
G04 APERTURE LIST*
%TA.AperFunction,Profile*%
%ADD10C,0.100000*%
%TD*%
%ADD11C,0.200000*%
%ADD12C,0.065000*%
G04 APERTURE END LIST*
D10*
X1925000Y-1575000D02*
X4925000Y-1575000D01*
X1575000Y-8651000D02*
G75*
G03*
X1925000Y-9001000I350000J0D01*
G01*
X5275000Y-1925000D02*
X5275000Y-8651000D01*
X1925000Y-1575000D02*
G75*
G03*
X1575000Y-1925000I0J-350000D01*
G01*
X4925000Y-1575000D02*
G75*
G02*
X5275000Y-1925000I0J-350000D01*
G01*
X5275000Y-8651000D02*
G75*
G02*
X4925000Y-9001000I-350000J0D01*
G01*
X1575000Y-8651000D02*
X1575000Y-1925000D01*
X4925000Y-9001000D02*
X1925000Y-9001000D01*
D11*
D12*
X4607000Y-5103500D02*
X4672000Y-5168500D01*
X4672000Y-5103500D02*
X4607000Y-5168500D01*
X4607000Y-5681500D02*
X4672000Y-5746500D01*
X4672000Y-5681500D02*
X4607000Y-5746500D01*
D11*
X1827619Y-9316476D02*
X1827619Y-9116476D01*
X1875238Y-9116476D01*
X1903809Y-9126000D01*
X1922857Y-9145048D01*
X1932381Y-9164095D01*
X1941905Y-9202190D01*
X1941905Y-9230762D01*
X1932381Y-9268857D01*
X1922857Y-9287905D01*
X1903809Y-9306952D01*
X1875238Y-9316476D01*
X1827619Y-9316476D01*
X2027619Y-9316476D02*
X2027619Y-9183143D01*
X2027619Y-9221238D02*
X2037143Y-9202190D01*
X2046667Y-9192667D01*
X2065714Y-9183143D01*
X2084762Y-9183143D01*
X2151429Y-9316476D02*
X2151429Y-9183143D01*
X2151429Y-9116476D02*
X2141905Y-9126000D01*
X2151429Y-9135524D01*
X2160952Y-9126000D01*
X2151429Y-9116476D01*
X2151429Y-9135524D01*
X2275238Y-9316476D02*
X2256190Y-9306952D01*
X2246667Y-9287905D01*
X2246667Y-9116476D01*
X2380000Y-9316476D02*
X2360952Y-9306952D01*
X2351429Y-9287905D01*
X2351429Y-9116476D01*
X2608571Y-9316476D02*
X2608571Y-9116476D01*
X2675238Y-9259333D01*
X2741905Y-9116476D01*
X2741905Y-9316476D01*
X2922857Y-9316476D02*
X2922857Y-9211714D01*
X2913333Y-9192667D01*
X2894286Y-9183143D01*
X2856190Y-9183143D01*
X2837143Y-9192667D01*
X2922857Y-9306952D02*
X2903809Y-9316476D01*
X2856190Y-9316476D01*
X2837143Y-9306952D01*
X2827619Y-9287905D01*
X2827619Y-9268857D01*
X2837143Y-9249810D01*
X2856190Y-9240286D01*
X2903809Y-9240286D01*
X2922857Y-9230762D01*
X3018095Y-9183143D02*
X3018095Y-9383143D01*
X3018095Y-9192667D02*
X3037143Y-9183143D01*
X3075238Y-9183143D01*
X3094286Y-9192667D01*
X3103809Y-9202190D01*
X3113333Y-9221238D01*
X3113333Y-9278381D01*
X3103809Y-9297429D01*
X3094286Y-9306952D01*
X3075238Y-9316476D01*
X3037143Y-9316476D01*
X3018095Y-9306952D01*
X3199048Y-9297429D02*
X3208571Y-9306952D01*
X3199048Y-9316476D01*
X3189524Y-9306952D01*
X3199048Y-9297429D01*
X3199048Y-9316476D01*
X3199048Y-9192667D02*
X3208571Y-9202190D01*
X3199048Y-9211714D01*
X3189524Y-9202190D01*
X3199048Y-9192667D01*
X3199048Y-9211714D01*
D12*
X1505000Y-9613500D02*
X1570000Y-9678500D01*
X1570000Y-9613500D02*
X1505000Y-9678500D01*
D11*
X1865714Y-9536476D02*
X1884762Y-9536476D01*
X1903809Y-9546000D01*
X1913333Y-9555524D01*
X1922857Y-9574571D01*
X1932381Y-9612667D01*
X1932381Y-9660286D01*
X1922857Y-9698381D01*
X1913333Y-9717429D01*
X1903809Y-9726952D01*
X1884762Y-9736476D01*
X1865714Y-9736476D01*
X1846667Y-9726952D01*
X1837143Y-9717429D01*
X1827619Y-9698381D01*
X1818095Y-9660286D01*
X1818095Y-9612667D01*
X1827619Y-9574571D01*
X1837143Y-9555524D01*
X1846667Y-9546000D01*
X1865714Y-9536476D01*
X2018095Y-9717429D02*
X2027619Y-9726952D01*
X2018095Y-9736476D01*
X2008571Y-9726952D01*
X2018095Y-9717429D01*
X2018095Y-9736476D01*
X2199048Y-9536476D02*
X2160952Y-9536476D01*
X2141905Y-9546000D01*
X2132381Y-9555524D01*
X2113333Y-9584095D01*
X2103810Y-9622190D01*
X2103810Y-9698381D01*
X2113333Y-9717429D01*
X2122857Y-9726952D01*
X2141905Y-9736476D01*
X2180000Y-9736476D01*
X2199048Y-9726952D01*
X2208571Y-9717429D01*
X2218095Y-9698381D01*
X2218095Y-9650762D01*
X2208571Y-9631714D01*
X2199048Y-9622190D01*
X2180000Y-9612667D01*
X2141905Y-9612667D01*
X2122857Y-9622190D01*
X2113333Y-9631714D01*
X2103810Y-9650762D01*
X2399048Y-9536476D02*
X2303810Y-9536476D01*
X2294286Y-9631714D01*
X2303810Y-9622190D01*
X2322857Y-9612667D01*
X2370476Y-9612667D01*
X2389524Y-9622190D01*
X2399048Y-9631714D01*
X2408571Y-9650762D01*
X2408571Y-9698381D01*
X2399048Y-9717429D01*
X2389524Y-9726952D01*
X2370476Y-9736476D01*
X2322857Y-9736476D01*
X2303810Y-9726952D01*
X2294286Y-9717429D01*
X2532381Y-9536476D02*
X2551429Y-9536476D01*
X2570476Y-9546000D01*
X2580000Y-9555524D01*
X2589524Y-9574571D01*
X2599048Y-9612667D01*
X2599048Y-9660286D01*
X2589524Y-9698381D01*
X2580000Y-9717429D01*
X2570476Y-9726952D01*
X2551429Y-9736476D01*
X2532381Y-9736476D01*
X2513333Y-9726952D01*
X2503810Y-9717429D01*
X2494286Y-9698381D01*
X2484762Y-9660286D01*
X2484762Y-9612667D01*
X2494286Y-9574571D01*
X2503810Y-9555524D01*
X2513333Y-9546000D01*
X2532381Y-9536476D01*
X2684762Y-9736476D02*
X2684762Y-9603143D01*
X2684762Y-9622190D02*
X2694286Y-9612667D01*
X2713333Y-9603143D01*
X2741905Y-9603143D01*
X2760952Y-9612667D01*
X2770476Y-9631714D01*
X2770476Y-9736476D01*
X2770476Y-9631714D02*
X2780000Y-9612667D01*
X2799048Y-9603143D01*
X2827619Y-9603143D01*
X2846667Y-9612667D01*
X2856190Y-9631714D01*
X2856190Y-9736476D01*
X2951428Y-9736476D02*
X2951428Y-9603143D01*
X2951428Y-9622190D02*
X2960952Y-9612667D01*
X2980000Y-9603143D01*
X3008571Y-9603143D01*
X3027619Y-9612667D01*
X3037143Y-9631714D01*
X3037143Y-9736476D01*
X3037143Y-9631714D02*
X3046667Y-9612667D01*
X3065714Y-9603143D01*
X3094286Y-9603143D01*
X3113333Y-9612667D01*
X3122857Y-9631714D01*
X3122857Y-9736476D01*
X3513333Y-9526952D02*
X3341905Y-9784095D01*
X3770476Y-9536476D02*
X3789524Y-9536476D01*
X3808571Y-9546000D01*
X3818095Y-9555524D01*
X3827619Y-9574571D01*
X3837143Y-9612667D01*
X3837143Y-9660286D01*
X3827619Y-9698381D01*
X3818095Y-9717429D01*
X3808571Y-9726952D01*
X3789524Y-9736476D01*
X3770476Y-9736476D01*
X3751428Y-9726952D01*
X3741905Y-9717429D01*
X3732381Y-9698381D01*
X3722857Y-9660286D01*
X3722857Y-9612667D01*
X3732381Y-9574571D01*
X3741905Y-9555524D01*
X3751428Y-9546000D01*
X3770476Y-9536476D01*
X3922857Y-9717429D02*
X3932381Y-9726952D01*
X3922857Y-9736476D01*
X3913333Y-9726952D01*
X3922857Y-9717429D01*
X3922857Y-9736476D01*
X4056190Y-9536476D02*
X4075238Y-9536476D01*
X4094286Y-9546000D01*
X4103809Y-9555524D01*
X4113333Y-9574571D01*
X4122857Y-9612667D01*
X4122857Y-9660286D01*
X4113333Y-9698381D01*
X4103809Y-9717429D01*
X4094286Y-9726952D01*
X4075238Y-9736476D01*
X4056190Y-9736476D01*
X4037143Y-9726952D01*
X4027619Y-9717429D01*
X4018095Y-9698381D01*
X4008571Y-9660286D01*
X4008571Y-9612667D01*
X4018095Y-9574571D01*
X4027619Y-9555524D01*
X4037143Y-9546000D01*
X4056190Y-9536476D01*
X4199048Y-9555524D02*
X4208571Y-9546000D01*
X4227619Y-9536476D01*
X4275238Y-9536476D01*
X4294286Y-9546000D01*
X4303810Y-9555524D01*
X4313333Y-9574571D01*
X4313333Y-9593619D01*
X4303810Y-9622190D01*
X4189524Y-9736476D01*
X4313333Y-9736476D01*
X4494286Y-9536476D02*
X4399048Y-9536476D01*
X4389524Y-9631714D01*
X4399048Y-9622190D01*
X4418095Y-9612667D01*
X4465714Y-9612667D01*
X4484762Y-9622190D01*
X4494286Y-9631714D01*
X4503810Y-9650762D01*
X4503810Y-9698381D01*
X4494286Y-9717429D01*
X4484762Y-9726952D01*
X4465714Y-9736476D01*
X4418095Y-9736476D01*
X4399048Y-9726952D01*
X4389524Y-9717429D01*
X4675238Y-9536476D02*
X4637143Y-9536476D01*
X4618095Y-9546000D01*
X4608571Y-9555524D01*
X4589524Y-9584095D01*
X4580000Y-9622190D01*
X4580000Y-9698381D01*
X4589524Y-9717429D01*
X4599048Y-9726952D01*
X4618095Y-9736476D01*
X4656190Y-9736476D01*
X4675238Y-9726952D01*
X4684762Y-9717429D01*
X4694286Y-9698381D01*
X4694286Y-9650762D01*
X4684762Y-9631714D01*
X4675238Y-9622190D01*
X4656190Y-9612667D01*
X4618095Y-9612667D01*
X4599048Y-9622190D01*
X4589524Y-9631714D01*
X4580000Y-9650762D01*
X4770476Y-9536476D02*
X4770476Y-9574571D01*
X4846667Y-9536476D02*
X4846667Y-9574571D01*
X5141905Y-9812667D02*
X5132381Y-9803143D01*
X5113333Y-9774571D01*
X5103810Y-9755524D01*
X5094286Y-9726952D01*
X5084762Y-9679333D01*
X5084762Y-9641238D01*
X5094286Y-9593619D01*
X5103810Y-9565048D01*
X5113333Y-9546000D01*
X5132381Y-9517429D01*
X5141905Y-9507905D01*
X5208571Y-9555524D02*
X5218095Y-9546000D01*
X5237143Y-9536476D01*
X5284762Y-9536476D01*
X5303810Y-9546000D01*
X5313333Y-9555524D01*
X5322857Y-9574571D01*
X5322857Y-9593619D01*
X5313333Y-9622190D01*
X5199048Y-9736476D01*
X5322857Y-9736476D01*
X5560952Y-9736476D02*
X5560952Y-9536476D01*
X5646667Y-9736476D02*
X5646667Y-9631714D01*
X5637143Y-9612667D01*
X5618095Y-9603143D01*
X5589524Y-9603143D01*
X5570476Y-9612667D01*
X5560952Y-9622190D01*
X5770476Y-9736476D02*
X5751428Y-9726952D01*
X5741905Y-9717429D01*
X5732381Y-9698381D01*
X5732381Y-9641238D01*
X5741905Y-9622190D01*
X5751428Y-9612667D01*
X5770476Y-9603143D01*
X5799048Y-9603143D01*
X5818095Y-9612667D01*
X5827619Y-9622190D01*
X5837143Y-9641238D01*
X5837143Y-9698381D01*
X5827619Y-9717429D01*
X5818095Y-9726952D01*
X5799048Y-9736476D01*
X5770476Y-9736476D01*
X5951428Y-9736476D02*
X5932381Y-9726952D01*
X5922857Y-9707905D01*
X5922857Y-9536476D01*
X6103809Y-9726952D02*
X6084762Y-9736476D01*
X6046667Y-9736476D01*
X6027619Y-9726952D01*
X6018095Y-9707905D01*
X6018095Y-9631714D01*
X6027619Y-9612667D01*
X6046667Y-9603143D01*
X6084762Y-9603143D01*
X6103809Y-9612667D01*
X6113333Y-9631714D01*
X6113333Y-9650762D01*
X6018095Y-9669810D01*
X6189524Y-9726952D02*
X6208571Y-9736476D01*
X6246667Y-9736476D01*
X6265714Y-9726952D01*
X6275238Y-9707905D01*
X6275238Y-9698381D01*
X6265714Y-9679333D01*
X6246667Y-9669810D01*
X6218095Y-9669810D01*
X6199048Y-9660286D01*
X6189524Y-9641238D01*
X6189524Y-9631714D01*
X6199048Y-9612667D01*
X6218095Y-9603143D01*
X6246667Y-9603143D01*
X6265714Y-9612667D01*
X6341905Y-9812667D02*
X6351428Y-9803143D01*
X6370476Y-9774571D01*
X6380000Y-9755524D01*
X6389524Y-9726952D01*
X6399048Y-9679333D01*
X6399048Y-9641238D01*
X6389524Y-9593619D01*
X6380000Y-9565048D01*
X6370476Y-9546000D01*
X6351428Y-9517429D01*
X6341905Y-9507905D01*
X6703809Y-9812667D02*
X6694286Y-9803143D01*
X6675238Y-9774571D01*
X6665714Y-9755524D01*
X6656190Y-9726952D01*
X6646667Y-9679333D01*
X6646667Y-9641238D01*
X6656190Y-9593619D01*
X6665714Y-9565048D01*
X6675238Y-9546000D01*
X6694286Y-9517429D01*
X6703809Y-9507905D01*
X6780000Y-9603143D02*
X6780000Y-9736476D01*
X6780000Y-9622190D02*
X6789524Y-9612667D01*
X6808571Y-9603143D01*
X6837143Y-9603143D01*
X6856190Y-9612667D01*
X6865714Y-9631714D01*
X6865714Y-9736476D01*
X6989524Y-9736476D02*
X6970476Y-9726952D01*
X6960952Y-9717429D01*
X6951428Y-9698381D01*
X6951428Y-9641238D01*
X6960952Y-9622190D01*
X6970476Y-9612667D01*
X6989524Y-9603143D01*
X7018095Y-9603143D01*
X7037143Y-9612667D01*
X7046667Y-9622190D01*
X7056190Y-9641238D01*
X7056190Y-9698381D01*
X7046667Y-9717429D01*
X7037143Y-9726952D01*
X7018095Y-9736476D01*
X6989524Y-9736476D01*
X7113333Y-9603143D02*
X7189524Y-9603143D01*
X7141905Y-9536476D02*
X7141905Y-9707905D01*
X7151428Y-9726952D01*
X7170476Y-9736476D01*
X7189524Y-9736476D01*
X7408571Y-9603143D02*
X7408571Y-9803143D01*
X7408571Y-9612667D02*
X7427619Y-9603143D01*
X7465714Y-9603143D01*
X7484762Y-9612667D01*
X7494286Y-9622190D01*
X7503809Y-9641238D01*
X7503809Y-9698381D01*
X7494286Y-9717429D01*
X7484762Y-9726952D01*
X7465714Y-9736476D01*
X7427619Y-9736476D01*
X7408571Y-9726952D01*
X7618095Y-9736476D02*
X7599048Y-9726952D01*
X7589524Y-9707905D01*
X7589524Y-9536476D01*
X7780000Y-9736476D02*
X7780000Y-9631714D01*
X7770476Y-9612667D01*
X7751428Y-9603143D01*
X7713333Y-9603143D01*
X7694286Y-9612667D01*
X7780000Y-9726952D02*
X7760952Y-9736476D01*
X7713333Y-9736476D01*
X7694286Y-9726952D01*
X7684762Y-9707905D01*
X7684762Y-9688857D01*
X7694286Y-9669810D01*
X7713333Y-9660286D01*
X7760952Y-9660286D01*
X7780000Y-9650762D01*
X7846667Y-9603143D02*
X7922857Y-9603143D01*
X7875238Y-9536476D02*
X7875238Y-9707905D01*
X7884762Y-9726952D01*
X7903809Y-9736476D01*
X7922857Y-9736476D01*
X8065714Y-9726952D02*
X8046667Y-9736476D01*
X8008571Y-9736476D01*
X7989524Y-9726952D01*
X7980000Y-9707905D01*
X7980000Y-9631714D01*
X7989524Y-9612667D01*
X8008571Y-9603143D01*
X8046667Y-9603143D01*
X8065714Y-9612667D01*
X8075238Y-9631714D01*
X8075238Y-9650762D01*
X7980000Y-9669810D01*
X8246667Y-9736476D02*
X8246667Y-9536476D01*
X8246667Y-9726952D02*
X8227619Y-9736476D01*
X8189524Y-9736476D01*
X8170476Y-9726952D01*
X8160952Y-9717429D01*
X8151428Y-9698381D01*
X8151428Y-9641238D01*
X8160952Y-9622190D01*
X8170476Y-9612667D01*
X8189524Y-9603143D01*
X8227619Y-9603143D01*
X8246667Y-9612667D01*
X8322857Y-9812667D02*
X8332381Y-9803143D01*
X8351428Y-9774571D01*
X8360952Y-9755524D01*
X8370476Y-9726952D01*
X8380000Y-9679333D01*
X8380000Y-9641238D01*
X8370476Y-9593619D01*
X8360952Y-9565048D01*
X8351428Y-9546000D01*
X8332381Y-9517429D01*
X8322857Y-9507905D01*
M02*
