%TF.GenerationSoftware,KiCad,Pcbnew,(5.99.0-7167-g34dbce6bce)*%
%TF.CreationDate,2021-01-04T09:36:01+03:00*%
%TF.ProjectId,ANV,414e562e-6b69-4636-9164-5f7063625858,rev?*%
%TF.SameCoordinates,Original*%
%TF.FileFunction,Plated,1,4,PTH,Mixed*%
%TF.FilePolarity,Positive*%
%FSLAX46Y46*%
G04 Gerber Fmt 4.6, Leading zero omitted, Abs format (unit mm)*
G04 Created by KiCad (PCBNEW (5.99.0-7167-g34dbce6bce)) date 2021-01-04 09:36:01*
%MOMM*%
%LPD*%
G01*
G04 APERTURE LIST*
%TA.AperFunction,ViaDrill*%
%ADD10C,0.200000*%
%TD*%
%TA.AperFunction,ComponentDrill*%
%ADD11C,0.200000*%
%TD*%
%TA.AperFunction,ComponentDrill*%
%ADD12C,0.300000*%
%TD*%
%TA.AperFunction,ComponentDrill*%
%ADD13C,0.500000*%
%TD*%
G04 aperture for slot hole*
%TA.AperFunction,ComponentDrill*%
%ADD14C,0.600000*%
%TD*%
%TA.AperFunction,ComponentDrill*%
%ADD15C,1.200000*%
%TD*%
%TA.AperFunction,ComponentDrill*%
%ADD16C,3.200000*%
%TD*%
G04 APERTURE END LIST*
D10*
X19000000Y-49750000D03*
X19700000Y-49750000D03*
X20050000Y-52550000D03*
X20050000Y-56350000D03*
X20050000Y-57150000D03*
X20050000Y-59150000D03*
X20750000Y-29500000D03*
X20750000Y-30250000D03*
X20750000Y-31000000D03*
X21000000Y-49750000D03*
X21250000Y-64500000D03*
X21385000Y-53385000D03*
X21500000Y-30250000D03*
X21500000Y-31000000D03*
X21600000Y-54700000D03*
X21600000Y-58750000D03*
X21700000Y-49750000D03*
X22250000Y-30250000D03*
X22250000Y-31000000D03*
X23000000Y-31000000D03*
X23500000Y-25250000D03*
X23545000Y-49705000D03*
X23750000Y-65500000D03*
X23800000Y-55000000D03*
X24000000Y-33550000D03*
X24250000Y-25250000D03*
X24250000Y-52300000D03*
X24400020Y-51349980D03*
X24499999Y-80509998D03*
X24500000Y-53400000D03*
X25000000Y-25250000D03*
X25249999Y-80509998D03*
X25250000Y-16500000D03*
X25270000Y-28520000D03*
X25450000Y-89210000D03*
X25500000Y-33550000D03*
X25585000Y-49665000D03*
X25650000Y-57750000D03*
X25720000Y-45350000D03*
X25999999Y-80509998D03*
X26250000Y-28500000D03*
X26500000Y-21500000D03*
X26500000Y-22250000D03*
X26500000Y-23000000D03*
X26500000Y-82760000D03*
X26500000Y-83510000D03*
X26500000Y-84260000D03*
X26750000Y-54750000D03*
X27000000Y-33550000D03*
X27110000Y-63600001D03*
X27250000Y-20000000D03*
X27250000Y-20750000D03*
X27250000Y-21500000D03*
X27250000Y-22250000D03*
X27250000Y-28500000D03*
X27250000Y-83510000D03*
X27250000Y-84260000D03*
X27250000Y-85010000D03*
X27250000Y-85760000D03*
X27500000Y-47100000D03*
X27500000Y-47750003D03*
X27500000Y-48400006D03*
X27500000Y-49050009D03*
X28000000Y-20750000D03*
X28000000Y-21500000D03*
X28000000Y-65750000D03*
X28000000Y-84260000D03*
X28000000Y-85010000D03*
X28020000Y-62470000D03*
X28290000Y-50397995D03*
X29000000Y-38250000D03*
X29000000Y-39250000D03*
X29000000Y-65750000D03*
X29470000Y-50480000D03*
X29956883Y-63600001D03*
X30530000Y-58020000D03*
X30550000Y-58950000D03*
X31000000Y-65750000D03*
X31170451Y-55049213D03*
X31300000Y-51300000D03*
X31760000Y-62450000D03*
X31880000Y-51650000D03*
X31909999Y-27899999D03*
X32000000Y-57100000D03*
X32000000Y-65000000D03*
X32250000Y-30350000D03*
X32750000Y-32650000D03*
X32880000Y-69810000D03*
X33185520Y-56654480D03*
X33350000Y-31950000D03*
X33740000Y-64130000D03*
X33750000Y-27500000D03*
X33750000Y-28200000D03*
X33950000Y-31600000D03*
X33999713Y-57180818D03*
X34010000Y-66960000D03*
X34250000Y-24500000D03*
X34250000Y-81260000D03*
X34475000Y-48950000D03*
X34586091Y-47113909D03*
X34660000Y-56660000D03*
X34780000Y-62420000D03*
X34975000Y-48285141D03*
X35050000Y-30950000D03*
X35061091Y-47588909D03*
X35250000Y-39550000D03*
X35420000Y-65500000D03*
X35471232Y-32471232D03*
X36060000Y-43010000D03*
X36200000Y-29550000D03*
X36200000Y-30350000D03*
X36300000Y-32100000D03*
X36300000Y-32800000D03*
X36300000Y-33500000D03*
X36300000Y-34200000D03*
X36300000Y-34900000D03*
X36310000Y-54900000D03*
X36540000Y-61010000D03*
X36626914Y-62000000D03*
X36770000Y-64620000D03*
X36860000Y-54470000D03*
X36900000Y-29550000D03*
X37000000Y-32750000D03*
X37400000Y-53970000D03*
X37700000Y-29600000D03*
X38115000Y-59365000D03*
X38500000Y-57550000D03*
X39080000Y-49520000D03*
X39100000Y-50450000D03*
X39750000Y-20750000D03*
X40500000Y-20750000D03*
X40500000Y-21500000D03*
X40500000Y-84260000D03*
X40500000Y-85000000D03*
X40740000Y-62470000D03*
X40770000Y-64550000D03*
X41250000Y-20000000D03*
X41250000Y-20750000D03*
X41250000Y-21500000D03*
X41250000Y-22250000D03*
X41250000Y-83510000D03*
X41250000Y-84260000D03*
X41250000Y-85000000D03*
X41250000Y-85750000D03*
X41650000Y-50950000D03*
X41880000Y-56960000D03*
X42000000Y-21500000D03*
X42000000Y-22250000D03*
X42000000Y-23000000D03*
X42000000Y-82760000D03*
X42000000Y-83510000D03*
X42000000Y-84260000D03*
X42080000Y-37600000D03*
X42145641Y-30292835D03*
X42500000Y-25250000D03*
X42800000Y-45590000D03*
X43100000Y-89210000D03*
X43250000Y-16500000D03*
X43250000Y-25250000D03*
X43450000Y-30250000D03*
X43500000Y-32950000D03*
X43500002Y-80559999D03*
X44000000Y-25250000D03*
X44000000Y-43500000D03*
X44004990Y-54250835D03*
X44150000Y-30250000D03*
X44250002Y-80559999D03*
X44850000Y-30250000D03*
X45000002Y-80559999D03*
X45250000Y-34000000D03*
X45250000Y-34750000D03*
X45250000Y-35750000D03*
X45250000Y-36500000D03*
X45350000Y-32250000D03*
X46000000Y-33250000D03*
X46000000Y-34000000D03*
X46000000Y-34750000D03*
X46000000Y-35750000D03*
X46000000Y-36500000D03*
X46000000Y-37250000D03*
X47500000Y-33250000D03*
X47500000Y-34000000D03*
X47500000Y-34750000D03*
X47500000Y-35750000D03*
X47500000Y-36500000D03*
X47500000Y-37250000D03*
D11*
%TO.C,U3*%
X39410000Y-29910000D03*
X39410000Y-31090000D03*
X40590000Y-29910000D03*
X40590000Y-31090000D03*
D12*
%TO.C,U4*%
X29500000Y-30000000D03*
X29500000Y-31000000D03*
X30000000Y-30500000D03*
X30500000Y-30000000D03*
X30500000Y-31000000D03*
D13*
%TO.C,J6*%
X48750000Y-44250000D03*
X50000000Y-44250000D03*
%TO.C,J1*%
X31750000Y-46000000D03*
X33000000Y-46000000D03*
X34250000Y-46000000D03*
X35500000Y-46000000D03*
X36750000Y-46000000D03*
%TO.C,J19*%
X18000000Y-79000000D03*
X19250000Y-79000000D03*
X20500000Y-79000000D03*
%TO.C,J9*%
X18499999Y-44250000D03*
X19749999Y-44250000D03*
%TO.C,J18*%
X18000000Y-75500000D03*
X19250000Y-75500000D03*
X20500000Y-75500000D03*
%TO.C,H4*%
X46850000Y-19250000D03*
X47552944Y-17552944D03*
X47552944Y-20947056D03*
X49250000Y-16850000D03*
X49250000Y-21650000D03*
X50947056Y-17552944D03*
X50947056Y-20947056D03*
X51650000Y-19250000D03*
%TO.C,H1*%
X16850000Y-19250000D03*
X17552944Y-17552944D03*
X17552944Y-20947056D03*
X19250000Y-16850000D03*
X19250000Y-21650000D03*
X20947056Y-17552944D03*
X20947056Y-20947056D03*
X21650000Y-19250000D03*
%TO.C,J15*%
X18000000Y-72000000D03*
X19250000Y-72000000D03*
X20500000Y-72000000D03*
%TO.C,H3*%
X46850000Y-86510000D03*
X47552944Y-84812944D03*
X47552944Y-88207056D03*
X49250000Y-84110000D03*
X49250000Y-88910000D03*
X50947056Y-84812944D03*
X50947056Y-88207056D03*
X51650000Y-86510000D03*
%TO.C,J5*%
X33000000Y-38000000D03*
X34250000Y-38000000D03*
X35500000Y-38000000D03*
%TO.C,J14*%
X18000000Y-68500000D03*
X19250000Y-68500000D03*
X20500000Y-68500000D03*
%TO.C,H2*%
X16850000Y-86510000D03*
X17552944Y-84812944D03*
X17552944Y-88207056D03*
X19250000Y-84110000D03*
X19250000Y-88910000D03*
X20947056Y-84812944D03*
X20947056Y-88207056D03*
X21650000Y-86510000D03*
D14*
%TO.C,J4*%
X46445000Y-49930000D02*
X45345000Y-49930000D01*
X46445000Y-58570000D02*
X45345000Y-58570000D01*
X50375000Y-49930000D02*
X49775000Y-49930000D01*
X50375000Y-58570000D02*
X49775000Y-58570000D01*
D15*
%TO.C,J13*%
X36000000Y-86260000D03*
X39500000Y-86260000D03*
%TO.C,J2*%
X49000000Y-37000000D03*
X49000000Y-40500000D03*
%TO.C,J8*%
X19500000Y-37000000D03*
X19500000Y-40500000D03*
%TO.C,J17*%
X49000000Y-75000000D03*
X49000000Y-78500000D03*
%TO.C,J3*%
X49000000Y-30000000D03*
X49000000Y-33500000D03*
%TO.C,J10*%
X28999999Y-19500000D03*
X32499999Y-19500000D03*
%TO.C,J7*%
X19500000Y-30000000D03*
X19500000Y-33500000D03*
%TO.C,J16*%
X49000000Y-68000000D03*
X49000000Y-71500000D03*
%TO.C,J11*%
X36000000Y-19500000D03*
X39500000Y-19500000D03*
%TO.C,J12*%
X29000000Y-86260000D03*
X32500000Y-86260000D03*
D16*
%TO.C,H4*%
X49250000Y-19250000D03*
%TO.C,H1*%
X19250000Y-19250000D03*
%TO.C,H3*%
X49250000Y-86510000D03*
%TO.C,H2*%
X19250000Y-86510000D03*
M02*
